<svg width="239" height="237" viewBox="0 0 239 237" fill="none" xmlns="http://www.w3.org/2000/svg">
<g clip-path="url(#clip0_127_896)">
<path d="M147.646 31.722C147.083 31.4972 146.916 31.1062 147.141 30.5424L150.704 21.5968C150.928 21.033 151.319 20.8655 151.882 21.0903L155.47 22.5226C156.576 22.9619 157.335 23.5512 157.749 24.2801C158.163 25.009 158.197 25.8133 157.848 26.6867C157.62 27.261 157.271 27.6946 156.807 27.9835C156.342 28.2724 155.808 28.411 155.211 28.3952C155.759 28.8 156.12 29.2878 156.288 29.8573C156.457 30.4269 156.408 31.0442 156.144 31.7042C155.766 32.6487 155.165 33.2499 154.335 33.5066C153.506 33.7632 152.532 33.6733 151.416 33.2262L147.651 31.7233L147.646 31.722ZM148.791 30.7787L151.714 31.9451C153.19 32.5347 154.165 32.2295 154.643 31.0308C155.118 29.8426 154.614 28.9583 153.137 28.3687L150.215 27.2023L148.791 30.7787ZM150.694 25.9983L153.378 27.0683C154.844 27.6554 155.807 27.3753 156.262 26.2267C156.717 25.078 156.213 24.2161 154.747 23.629L152.062 22.559L150.694 25.9983Z" fill="white"/>
<path d="M160.062 37.3695C159.622 37.1187 159.547 36.7387 159.836 36.2295L163.059 30.6093C163.32 30.1489 163.668 30.0435 164.103 30.293C164.533 30.5413 164.62 30.8963 164.353 31.3554L161.832 35.7474L167.93 33.1081C168.087 33.0345 168.249 32.9846 168.427 32.9607C168.605 32.9368 168.799 32.9889 169.014 33.1131C169.443 33.3614 169.513 33.7401 169.225 34.2441L166.002 39.8643C165.741 40.3247 165.397 40.4366 164.972 40.1896C164.532 39.9388 164.441 39.5773 164.708 39.1182L167.221 34.7355L161.123 37.3747C160.974 37.439 160.813 37.4838 160.635 37.5076C160.457 37.5315 160.268 37.4859 160.062 37.3695V37.3695Z" fill="white"/>
<path d="M170.698 44.0357C170.261 43.7021 170.204 43.3154 170.544 42.874L174.458 37.7321C174.792 37.2947 175.177 37.2428 175.619 37.5776C176.052 37.9046 176.098 38.2888 175.765 38.7262L174.269 40.6873L175.326 41.4933L178.874 40.5276C179.126 40.4493 179.335 40.4606 179.51 40.5641C179.685 40.6676 179.802 40.807 179.865 40.9837C179.928 41.1603 179.919 41.3363 179.833 41.5103C179.746 41.6844 179.582 41.8118 179.33 41.8902L176.362 42.7116C176.496 42.9611 176.576 43.2531 176.608 43.5837C176.634 43.9129 176.615 44.3148 176.549 44.7945L176.301 46.8891C176.266 47.148 176.161 47.3287 175.993 47.4273C175.825 47.5259 175.639 47.5591 175.443 47.5174C175.247 47.4758 175.086 47.3814 174.951 47.2264C174.816 47.0714 174.768 46.8539 174.8 46.5832L175.089 44.2533C175.138 43.775 175.115 43.4077 175.021 43.1512C174.922 42.8935 174.71 42.642 174.387 42.3915L173.498 41.7153L171.854 43.8746C171.521 44.312 171.14 44.3705 170.707 44.0435L170.698 44.0357Z" fill="white"/>
<path d="M183.502 55.2051C183.115 54.8225 183.119 54.4392 183.509 54.0433L187.65 49.8525L185.612 47.8304L184.937 48.5083C183.805 49.655 182.797 50.4199 181.921 50.7991C181.046 51.1782 180.17 51.2121 179.304 50.9033C179.076 50.8147 178.92 50.677 178.841 50.4965C178.762 50.316 178.743 50.139 178.797 49.9626C178.851 49.7863 178.956 49.6501 179.124 49.5515C179.286 49.4569 179.492 49.4341 179.737 49.4989C180.391 49.673 181.023 49.5861 181.64 49.2447C182.256 48.9033 183.005 48.2876 183.888 47.3925L184.8 46.471C185.234 46.03 185.668 46.0289 186.109 46.4635L189.081 49.4068C189.522 49.8414 189.523 50.2759 189.088 50.7168L184.674 55.1869C184.285 55.5776 183.894 55.5836 183.504 55.1945L183.502 55.2051Z" fill="white"/>
<path d="M188.093 60.3868C187.784 59.9839 187.858 59.6065 188.318 59.2441L193.44 55.2784C193.857 54.9558 194.222 54.988 194.526 55.3844C194.831 55.7808 194.773 56.1397 194.356 56.4623L190.35 59.5611L196.99 59.4467C197.16 59.4373 197.333 59.4568 197.505 59.5039C197.677 59.5509 197.838 59.6677 197.991 59.8659C198.296 60.2622 198.217 60.6331 197.752 60.9942L192.631 64.9599C192.214 65.2826 191.854 65.2516 191.557 64.8682C191.248 64.4653 191.301 64.1052 191.72 63.7773L195.713 60.6865L189.072 60.8009C188.909 60.8063 188.743 60.7828 188.57 60.7358C188.397 60.694 188.242 60.5732 188.093 60.3868V60.3868Z" fill="white"/>
<path d="M195.382 70.6C195.101 70.126 195.204 69.7444 195.677 69.4686L201.247 66.2012C201.726 65.9214 202.102 66.0231 202.378 66.4959C202.649 66.9621 202.549 67.3332 202.075 67.6143L199.945 68.8603L200.619 70.0082L204.269 70.4647C204.531 70.4834 204.726 70.5749 204.842 70.7419C204.964 70.9049 205.016 71.079 205.005 71.2655C204.993 71.452 204.921 71.6128 204.774 71.7388C204.632 71.8661 204.424 71.9217 204.163 71.8977L201.104 71.528C201.13 71.8126 201.097 72.1109 200.999 72.4268C200.9 72.7427 200.729 73.1078 200.483 73.5274L199.454 75.3728C199.322 75.5971 199.158 75.7246 198.962 75.7552C198.766 75.7805 198.581 75.7414 198.419 75.63C198.257 75.5185 198.137 75.3673 198.078 75.1748C198.014 74.9811 198.05 74.7616 198.186 74.5215L199.336 72.4715C199.566 72.0481 199.684 71.6979 199.693 71.4274C199.703 71.157 199.602 70.8375 199.393 70.481L198.83 69.5158L196.492 70.8844C196.013 71.1642 195.641 71.069 195.37 70.6028L195.382 70.6Z" fill="white"/>
<path d="M200.871 80.8029C200.673 80.332 200.839 79.988 201.379 79.7562L207.339 77.2284C207.828 77.0233 208.171 77.145 208.361 77.6028C208.556 78.0618 208.41 78.3939 207.921 78.599L203.261 80.5772L209.71 82.1591C209.88 82.1944 210.038 82.2547 210.194 82.3426C210.346 82.4292 210.475 82.5883 210.57 82.8171C210.765 83.2762 210.593 83.619 210.055 83.8455L204.095 86.3733C203.606 86.5784 203.268 86.458 203.081 86.012C202.883 85.5412 203.024 85.2078 203.514 84.9974L208.161 83.0272L201.712 81.4453C201.554 81.4073 201.397 81.3417 201.246 81.2551C201.094 81.1685 200.97 81.016 200.874 80.7924L200.871 80.8029Z" fill="white"/>
<path d="M209.087 128.808C209.164 128.209 209.506 127.946 210.108 128.03L219.642 129.297C220.241 129.375 220.503 129.716 220.424 130.321L219.913 134.151C219.756 135.332 219.373 136.208 218.765 136.791C218.159 137.369 217.391 137.601 216.459 137.477C215.849 137.397 215.344 137.164 214.946 136.784C214.548 136.404 214.286 135.923 214.155 135.335C213.896 135.969 213.512 136.433 213.004 136.739C212.498 137.04 211.888 137.149 211.177 137.051C210.169 136.919 209.441 136.476 208.987 135.732C208.537 134.989 208.386 134.023 208.545 132.831L209.081 128.807L209.087 128.808ZM210.277 129.685L209.858 132.808C209.651 134.383 210.18 135.257 211.456 135.431C212.722 135.602 213.46 134.895 213.667 133.319L214.086 130.197L210.276 129.69L210.277 129.685ZM215.375 130.363L214.991 133.226C214.781 134.79 215.289 135.659 216.513 135.82C217.737 135.981 218.451 135.279 218.661 133.715L219.045 130.852L215.381 130.364L215.375 130.363Z" fill="white"/>
<path d="M206.643 142.271C206.778 141.781 207.129 141.615 207.692 141.773L213.926 143.509C214.436 143.654 214.623 143.961 214.491 144.441C214.359 144.921 214.035 145.088 213.523 144.948L208.65 143.59L212.706 148.849C212.813 148.98 212.905 149.131 212.972 149.291C213.037 149.458 213.039 149.658 212.97 149.898C212.838 150.378 212.488 150.539 211.925 150.381L205.691 148.645C205.181 148.5 204.992 148.198 205.122 147.728C205.257 147.238 205.582 147.065 206.094 147.205L210.951 148.56L206.896 143.301C206.799 143.172 206.712 143.023 206.645 142.862C206.578 142.701 206.577 142.5 206.643 142.271Z" fill="white"/>
<path d="M202.822 154.228C203.039 153.718 203.397 153.57 203.907 153.788L209.852 156.306C210.361 156.523 210.509 156.882 210.291 157.392C210.082 157.892 209.719 158.033 209.215 157.817L206.944 156.858L206.425 158.086L208.239 161.29C208.38 161.513 208.419 161.723 208.361 161.915C208.304 162.107 208.196 162.254 208.042 162.361C207.884 162.463 207.714 162.5 207.524 162.459C207.333 162.419 207.17 162.29 207.029 162.067L205.498 159.393C205.29 159.588 205.026 159.736 204.716 159.845C204.406 159.954 204.008 160.037 203.528 160.093L201.437 160.369C201.178 160.401 200.975 160.347 200.837 160.202C200.7 160.058 200.623 159.889 200.615 159.692C200.607 159.495 200.657 159.312 200.776 159.141C200.894 158.974 201.091 158.871 201.361 158.836L203.692 158.535C204.165 158.465 204.519 158.356 204.741 158.198C204.968 158.041 205.161 157.77 205.319 157.391L205.756 156.36L203.264 155.303C202.754 155.086 202.606 154.732 202.821 154.233L202.822 154.228Z" fill="white"/>
<path d="M195.181 169.411C195.455 168.943 195.828 168.849 196.305 169.131L201.388 172.11L202.837 169.631L202.013 169.148C200.624 168.335 199.634 167.55 199.049 166.791C198.464 166.033 198.215 165.199 198.297 164.283C198.327 164.04 198.423 163.851 198.574 163.732C198.725 163.612 198.895 163.553 199.077 163.558C199.26 163.563 199.419 163.64 199.554 163.773C199.689 163.906 199.759 164.101 199.758 164.357C199.752 165.029 199.992 165.627 200.475 166.138C200.958 166.65 201.741 167.229 202.823 167.862L203.945 168.517C204.476 168.829 204.586 169.25 204.274 169.782L202.157 173.397C201.845 173.929 201.424 174.039 200.893 173.727L195.479 170.552C195 170.275 194.903 169.895 195.185 169.418L195.181 169.411Z" fill="white"/>
<path d="M191.296 175.145C191.61 174.742 191.998 174.724 192.456 175.085L197.552 179.074C197.968 179.403 198.026 179.762 197.719 180.156C197.413 180.55 197.05 180.579 196.633 180.256L192.646 177.135L194.387 183.551C194.437 183.713 194.462 183.886 194.458 184.063C194.455 184.241 194.381 184.429 194.228 184.626C193.922 185.02 193.541 185.034 193.077 184.671L187.976 180.681C187.56 180.352 187.501 179.998 187.8 179.614C188.114 179.211 188.478 179.176 188.894 179.504L192.867 182.611L191.126 176.195C191.086 176.041 191.065 175.874 191.063 175.696C191.067 175.519 191.139 175.335 191.284 175.148L191.296 175.145Z" fill="white"/>
<path d="M183.2 184.735C183.595 184.346 183.983 184.35 184.372 184.745L188.902 189.349C189.291 189.744 189.286 190.132 188.892 190.522C188.506 190.902 188.124 190.893 187.734 190.504L186.005 188.746L185.057 189.681L185.51 193.337C185.553 193.598 185.514 193.805 185.382 193.963C185.256 194.116 185.098 194.217 184.917 194.252C184.737 194.286 184.561 194.255 184.404 194.144C184.247 194.034 184.14 193.853 184.097 193.592L183.71 190.537C183.442 190.634 183.143 190.673 182.814 190.655C182.485 190.637 182.085 190.563 181.623 190.429L179.584 189.888C179.334 189.816 179.17 189.688 179.093 189.502C179.02 189.317 179.015 189.132 179.082 188.948C179.15 188.758 179.268 188.614 179.44 188.5C179.611 188.391 179.832 188.372 180.099 188.442L182.365 189.055C182.833 189.167 183.198 189.2 183.468 189.142C183.737 189.085 184.019 188.908 184.311 188.622L185.107 187.834L183.209 185.901C182.82 185.506 182.823 185.123 183.204 184.742L183.2 184.735Z" fill="white"/>
<path d="M174.655 192.569C175.058 192.26 175.439 192.341 175.794 192.805L179.706 197.967C180.027 198.39 179.989 198.754 179.589 199.053C179.194 199.353 178.835 199.294 178.514 198.872L175.455 194.833L175.5 201.48C175.509 201.649 175.49 201.823 175.442 201.995C175.401 202.169 175.273 202.328 175.075 202.48C174.68 202.78 174.305 202.701 173.951 202.231L170.039 197.069C169.718 196.646 169.754 196.288 170.143 195.991C170.545 195.682 170.909 195.742 171.23 196.164L174.276 200.189L174.231 193.542C174.231 193.38 174.255 193.213 174.302 193.041C174.344 192.867 174.465 192.713 174.655 192.569V192.569Z" fill="white"/>
<path d="M130.19 212.407C130.791 212.335 131.128 212.6 131.2 213.202L132.327 222.766C132.399 223.367 132.134 223.704 131.533 223.777L127.696 224.233C126.517 224.372 125.569 224.221 124.858 223.777C124.147 223.333 123.735 222.644 123.626 221.71C123.552 221.096 123.655 220.553 123.921 220.072C124.193 219.592 124.595 219.215 125.126 218.948C124.454 218.853 123.904 218.598 123.482 218.179C123.06 217.76 122.811 217.199 122.727 216.488C122.608 215.48 122.851 214.659 123.457 214.036C124.063 213.414 124.962 213.029 126.158 212.889L130.183 212.411L130.19 212.407ZM129.631 213.781L126.504 214.153C124.924 214.34 124.213 215.076 124.361 216.353C124.512 217.62 125.377 218.162 126.952 217.974L130.078 217.603L129.625 213.78L129.631 213.781ZM130.234 218.893L127.366 219.232C125.798 219.416 125.088 220.125 125.231 221.351C125.375 222.577 126.235 223.096 127.798 222.91L130.666 222.571L130.234 218.893Z" fill="white"/>
<path d="M116.576 213.369C117.085 213.381 117.33 213.679 117.317 214.266L117.158 220.741C117.146 221.273 116.89 221.529 116.392 221.52C115.894 221.506 115.654 221.236 115.665 220.705L115.789 215.64L111.687 220.871C111.587 221.008 111.464 221.129 111.321 221.233C111.179 221.338 110.984 221.386 110.735 221.382C110.238 221.368 109.998 221.07 110.01 220.489L110.169 214.013C110.18 213.482 110.431 213.225 110.918 213.236C111.427 213.248 111.673 213.518 111.662 214.05L111.541 219.098L115.644 213.868C115.741 213.741 115.863 213.626 116.011 213.523C116.153 213.418 116.343 213.369 116.58 213.376L116.576 213.369Z" fill="white"/>
<path d="M104.055 212.59C104.601 212.677 104.832 212.989 104.745 213.536L103.756 219.922C103.669 220.469 103.357 220.7 102.811 220.613C102.275 220.529 102.05 220.218 102.137 219.671L102.513 217.234L101.2 217.029L98.5398 219.573C98.3551 219.762 98.1657 219.856 97.9623 219.846C97.7589 219.836 97.5918 219.768 97.4491 219.644C97.313 219.517 97.2343 219.359 97.2301 219.168C97.2207 218.977 97.3069 218.78 97.4916 218.591L99.7088 216.453C99.4687 216.295 99.2597 216.078 99.0804 215.806C98.8959 215.533 98.7223 215.169 98.5533 214.716L97.7738 212.758C97.6826 212.513 97.6875 212.308 97.7897 212.138C97.8919 211.968 98.0417 211.853 98.2288 211.793C98.4211 211.733 98.6074 211.745 98.8021 211.814C98.9955 211.888 99.1398 212.051 99.2443 212.31L100.102 214.499C100.284 214.944 100.481 215.258 100.688 215.436C100.895 215.614 101.205 215.739 101.606 215.802L102.711 215.974L103.128 213.296C103.215 212.749 103.522 212.517 104.057 212.602L104.055 212.59Z" fill="white"/>
<path d="M87.4513 208.901C87.9719 209.048 88.1558 209.393 88.0014 209.918L86.3695 215.582L89.1264 216.375L89.3929 215.454C89.8391 213.902 90.3555 212.752 90.9434 211.997C91.5313 211.242 92.2791 210.793 93.1868 210.65C93.4331 210.62 93.6342 210.663 93.7899 210.779C93.9456 210.894 94.0479 211.047 94.0821 211.228C94.1164 211.409 94.0916 211.581 93.9919 211.74C93.8975 211.901 93.7254 212.016 93.4807 212.085C92.8249 212.244 92.3113 212.622 91.928 213.22C91.5447 213.818 91.1836 214.716 90.8369 215.924L90.4747 217.173C90.3039 217.766 89.9253 217.976 89.3324 217.805L85.3121 216.647C84.7191 216.476 84.5101 216.097 84.6809 215.504L86.4199 209.465C86.5702 208.933 86.9162 208.744 87.4461 208.899L87.4513 208.901Z" fill="white"/>
<path d="M80.9453 206.564C81.4126 206.772 81.5245 207.138 81.2902 207.672L78.6926 213.604C78.4815 214.088 78.1457 214.235 77.6876 214.036C77.2295 213.836 77.1113 213.496 77.3237 213.007L79.3536 208.369L73.5785 211.654C73.4349 211.741 73.2742 211.809 73.1027 211.851C72.9312 211.893 72.7317 211.867 72.5 211.767C72.0419 211.567 71.9353 211.202 72.1656 210.662L74.7632 204.729C74.9743 204.246 75.3049 204.097 75.7524 204.294C76.2198 204.501 76.3432 204.843 76.1309 205.332L74.1048 209.954L79.8799 206.669C80.0221 206.587 80.1751 206.529 80.3518 206.488C80.5233 206.446 80.7176 206.47 80.9388 206.568L80.9453 206.564Z" fill="white"/>
<path d="M69.6599 201.095C70.1305 201.381 70.2281 201.76 69.9421 202.232L66.6068 207.763C66.3208 208.235 65.9425 208.327 65.4707 208.046C65.0093 207.768 64.917 207.39 65.203 206.918L66.48 204.804L65.3385 204.117L61.9107 205.463C61.6677 205.571 61.4592 205.582 61.2749 205.493C61.0892 205.409 60.9596 205.278 60.8769 205.113C60.7943 204.949 60.7875 204.769 60.8529 204.59C60.9196 204.405 61.0706 204.264 61.3136 204.155L64.1792 203.02C64.0198 202.781 63.9086 202.503 63.8417 202.181C63.78 201.86 63.7557 201.453 63.7661 200.971L63.7906 198.862C63.7976 198.602 63.8774 198.409 64.039 198.293C64.2007 198.176 64.38 198.124 64.5755 198.143C64.7711 198.163 64.9475 198.239 65.0969 198.38C65.2462 198.522 65.3188 198.729 65.3185 199.007L65.2855 201.36C65.2868 201.839 65.3489 202.205 65.4729 202.452C65.5969 202.699 65.8362 202.929 66.1868 203.136L67.1437 203.712L68.5436 201.388C68.8296 200.917 69.2038 200.818 69.6652 201.096L69.6599 201.095Z" fill="white"/>
<path d="M59.974 194.758C60.3701 195.076 60.3891 195.459 60.023 195.916L55.9873 200.984C55.6589 201.401 55.2961 201.452 54.9092 201.142C54.5224 200.832 54.4931 200.468 54.8215 200.052L57.9784 196.092L51.554 197.778C51.3918 197.828 51.2201 197.848 51.0417 197.85C50.8647 197.846 50.679 197.762 50.4811 197.614C50.0942 197.304 50.0806 196.922 50.4414 196.463L54.477 191.395C54.8107 190.98 55.163 190.926 55.5459 191.23C55.942 191.548 55.9765 191.912 55.6481 192.329L52.5043 196.281L58.9287 194.595C59.0831 194.554 59.2548 194.534 59.4319 194.538C59.609 194.542 59.7906 194.619 59.978 194.764L59.974 194.758Z" fill="white"/>
<path d="M29.8418 156.48C30.0616 157.046 29.8838 157.437 29.319 157.657L20.3426 161.117C19.7778 161.337 19.3868 161.16 19.167 160.594L17.7836 156.987C17.3561 155.877 17.2695 154.92 17.5238 154.119C17.7782 153.317 18.3427 152.752 19.2252 152.413C19.8018 152.19 20.3562 152.151 20.8833 152.295C21.4105 152.439 21.8785 152.735 22.2705 153.186C22.1953 152.505 22.3098 151.915 22.6111 151.403C22.9125 150.891 23.3998 150.508 24.0627 150.25C25.0131 149.883 25.8607 149.92 26.6132 150.352C27.3644 150.789 27.9558 151.566 28.3873 152.684L29.8443 156.47L29.8418 156.48ZM23.5758 158.133L22.5409 155.434C21.9726 153.961 21.1132 153.442 19.9653 153.889C18.8135 154.329 18.5211 155.289 19.0881 156.767L20.123 159.466L23.5745 158.138L23.5758 158.133ZM28.3765 156.283L27.2491 153.345C26.6781 151.86 25.7939 151.352 24.5924 151.814C23.4027 152.273 23.0907 153.245 23.6617 154.729L24.789 157.668L28.3765 156.283V156.283Z" fill="white"/>
<path d="M25.5547 143.528C25.669 144.023 25.4434 144.336 24.8713 144.471L18.5643 145.924C18.0459 146.044 17.7336 145.863 17.6233 145.374C17.5118 144.891 17.7126 144.588 18.2309 144.468L23.1661 143.331L17.0871 140.652C16.9293 140.592 16.779 140.5 16.6443 140.389C16.5096 140.279 16.4084 140.099 16.3553 139.858C16.2437 139.374 16.4746 139.062 17.0401 138.931L23.3484 137.473C23.8668 137.353 24.1791 137.534 24.2879 138.006C24.4022 138.501 24.2002 138.809 23.6818 138.929L18.7637 140.065L24.8426 142.744C24.9887 142.807 25.1337 142.897 25.2672 143.013C25.4019 143.123 25.499 143.297 25.5534 143.533L25.5547 143.528Z" fill="white"/>
<path d="M23.211 131.188C23.2627 131.735 23.0173 132.037 22.4643 132.094L16.035 132.715C15.4885 132.767 15.1861 132.522 15.1304 131.969C15.0761 131.432 15.3308 131.137 15.8785 131.08L18.3331 130.842L18.208 129.515L15.0848 127.565C14.8542 127.437 14.7217 127.271 14.6807 127.072C14.6397 126.873 14.6605 126.694 14.7509 126.527C14.8361 126.358 14.9729 126.252 15.1587 126.196C15.3445 126.141 15.552 126.18 15.7826 126.308L18.4008 127.93C18.4943 127.657 18.6508 127.4 18.8705 127.158C19.0901 126.916 19.3988 126.65 19.7991 126.374L21.5057 125.132C21.7195 124.983 21.9211 124.931 22.1118 124.994C22.3037 125.051 22.4489 125.164 22.5526 125.334C22.6564 125.503 22.6946 125.691 22.674 125.892C22.6521 126.098 22.5251 126.279 22.3021 126.443L20.3973 127.815C20.0115 128.101 19.7579 128.368 19.6367 128.617C19.5115 128.86 19.4709 129.19 19.5111 129.6L19.62 130.718L22.3196 130.455C22.8661 130.403 23.1697 130.643 23.2228 131.185L23.211 131.188Z" fill="white"/>
<path d="M22.6965 114.189C22.6773 114.73 22.3922 114.99 21.8399 114.974L15.9521 114.78L15.8552 117.651L16.8103 117.681C18.4213 117.735 19.6651 117.952 20.5392 118.34C21.4133 118.729 22.0335 119.341 22.3907 120.19C22.4792 120.422 22.4861 120.624 22.4089 120.806C22.3317 120.988 22.2108 121.12 22.0463 121.203C21.8817 121.286 21.7061 121.299 21.5246 121.245C21.3432 121.19 21.1925 121.053 21.0674 120.834C20.749 120.239 20.2578 119.831 19.5883 119.609C18.9189 119.386 17.9604 119.256 16.7023 119.214L15.4048 119.174C14.7869 119.153 14.4905 118.837 14.5116 118.218L14.6527 114.032C14.6738 113.414 14.9901 113.117 15.608 113.138L21.8828 113.342C22.4351 113.358 22.6998 113.644 22.6834 114.197L22.6965 114.189Z" fill="white"/>
<path d="M23.3806 107.311C23.2982 107.815 22.9667 108.013 22.3889 107.919L16.0059 106.848C15.4818 106.761 15.263 106.469 15.3469 105.982C15.4267 105.489 15.7307 105.29 16.2547 105.377L21.2481 106.213L16.6599 101.41C16.5383 101.292 16.4322 101.155 16.3535 100.997C16.2696 100.838 16.2509 100.638 16.2882 100.391C16.3733 99.8994 16.6995 99.6996 17.2761 99.7996L23.6591 100.87C24.1831 100.957 24.4032 101.244 24.3219 101.72C24.2395 102.224 23.9343 102.429 23.4103 102.341L18.4326 101.509L23.0208 106.312C23.132 106.427 23.2315 106.568 23.3115 106.721C23.3954 106.881 23.4154 107.075 23.3754 107.31L23.3806 107.311Z" fill="white"/>
<path d="M25.9201 94.9959C25.7592 95.525 25.4145 95.7091 24.8912 95.5496L18.7114 93.6818C18.1828 93.5211 17.999 93.1761 18.1586 92.6523C18.3169 92.1337 18.6551 91.9535 19.1837 92.1143L21.5425 92.8275L21.9281 91.5508L19.7786 88.5609C19.6169 88.3549 19.5549 88.1507 19.5913 87.9535C19.6277 87.7563 19.7168 87.594 19.8627 87.4733C20.0086 87.3526 20.1761 87.3039 20.3664 87.3219C20.5567 87.3399 20.7347 87.4552 20.9017 87.6624L22.7087 90.1578C22.8997 89.9422 23.1422 89.7668 23.4387 89.6211C23.7352 89.4754 24.1199 89.3566 24.5964 89.2487L26.6474 88.7464C26.9013 88.6851 27.1089 88.724 27.2621 88.85C27.4153 88.976 27.5097 89.1379 27.5402 89.3346C27.5707 89.5312 27.5368 89.7179 27.4386 89.8947C27.3404 90.0714 27.1539 90.1991 26.8882 90.2631L24.604 90.8094C24.1355 90.9303 23.8049 91.0789 23.594 91.2619C23.383 91.4449 23.2254 91.7298 23.1027 92.1234L22.7771 93.1974L25.3687 93.9834C25.8973 94.1441 26.0824 94.4838 25.9253 94.9971L25.9201 94.9959Z" fill="white"/>
<path d="M29.6644 84.0284C29.4584 84.491 29.0856 84.6071 28.5537 84.3676L22.6521 81.715C22.1702 81.4987 22.0285 81.1639 22.2332 80.7066C22.438 80.2493 22.7832 80.1321 23.2638 80.3537L27.8806 82.4294L24.6585 76.6201C24.5708 76.4764 24.5039 76.3156 24.4631 76.1387C24.421 75.9671 24.4534 75.7634 24.5525 75.5367C24.756 75.0847 25.1276 74.9738 25.6594 75.2133L31.561 77.8659C32.0429 78.0822 32.1859 78.4118 31.989 78.8598C31.783 79.3223 31.4351 79.4501 30.9493 79.2272L26.347 77.1606L29.5691 82.9699C29.6463 83.111 29.708 83.2706 29.7501 83.4422C29.7921 83.6138 29.761 83.8123 29.6644 84.0284Z" fill="white"/>
<g clip-path="url(#clip1_127_896)">
<path d="M69.4138 43.1105L62.1736 30.755L70.3054 25.9861C73.0944 24.3505 75.9395 23.9465 79.0047 24.7455C80.3308 25.0912 81.7113 25.6645 83.2379 26.4966L83.419 26.5936L83.4153 26.799C83.3806 30.5901 82.6801 35.3249 77.5473 38.335L69.4089 43.1021L69.4138 43.1105ZM63.1132 30.9999L69.6605 42.1643L77.2042 37.7403C81.9421 34.9617 82.6659 30.5746 82.7302 26.9976C81.3247 26.2469 80.0522 25.7231 78.8328 25.4052C75.9541 24.6548 73.2779 25.0388 70.6569 26.5759L63.1132 30.9999Z" fill="white"/>
<path d="M77.6299 24.323L77.0359 24.6714L81.9825 33.1063L82.5766 32.758L77.6299 24.323Z" fill="white"/>
<path d="M72.4266 35.8117C71.5536 35.5842 70.8226 35.0307 70.3711 34.2512C69.9196 33.4717 69.7934 32.5635 70.0192 31.6972C70.2451 30.8309 70.8003 30.0932 71.5731 29.64C72.346 29.1868 73.2609 29.0623 74.1271 29.2881C74.9934 29.514 75.7311 30.0692 76.1843 30.842C76.6425 31.6233 76.7687 32.5315 76.5428 33.3978C76.317 34.264 75.7618 35.0017 74.9823 35.4532C74.201 35.9114 73.2928 36.0376 72.4266 35.8117ZM73.9552 29.9478C73.2621 29.7672 72.5379 29.8701 71.918 30.228C71.2964 30.5926 70.8596 31.1762 70.6789 31.8692C70.4983 32.5622 70.6012 33.2864 70.9591 33.9063C71.6833 35.1412 73.3959 35.5876 74.6308 34.8634C75.2524 34.4989 75.6892 33.9153 75.8698 33.2223C76.0505 32.5293 75.9475 31.8051 75.5896 31.1852C75.225 30.5635 74.6415 30.1267 73.9485 29.9461L73.9552 29.9478Z" fill="white"/>
<path d="M74.4584 32.2494L74.2859 31.9553C73.9608 31.4009 73.2411 31.2133 72.6867 31.5384L72.3927 31.7109L72.0429 31.1144L72.3369 30.942C73.219 30.4247 74.3584 30.7217 74.8824 31.6055L75.0548 31.8996L74.4584 32.2494Z" fill="white"/>
<path d="M65.6535 42.6854L60.7073 34.2512L63.9163 32.3692L68.8625 40.8034L65.6535 42.6854V42.6854ZM61.6469 34.4961L65.8935 41.7374L67.9096 40.555L63.6714 33.3088L61.6553 34.4912L61.6469 34.4961Z" fill="white"/>
<path d="M64.792 35.3674L62.8911 36.4822L63.2395 37.0762L65.1403 35.9615L64.792 35.3674Z" fill="white"/>
<path d="M66.323 37.9796L64.4221 39.0944L64.7705 39.6884L66.6713 38.5736L66.323 37.9796Z" fill="white"/>
<path d="M62.584 31.3103L59.9023 28.576L62.5653 27.0143C63.271 26.6004 64.1267 26.5389 64.8968 26.8606L67.9755 28.1542L62.5739 31.3219L62.584 31.3103ZM61.0099 28.7223L62.6963 30.4429L66.4429 28.2457L64.6333 27.4893C64.0695 27.2498 63.4377 27.2986 62.9102 27.6023L61.0032 28.7206L61.0099 28.7223Z" fill="white"/>
<path d="M70.2135 46.1583L69.1363 42.483L74.5378 39.3153L74.1638 42.6336C74.0721 43.4495 73.5972 44.1796 72.8915 44.5934L70.2285 46.1551L70.2135 46.1583ZM69.9498 42.8018L70.6281 45.1136L72.5351 43.9953C73.0559 43.6898 73.4104 43.1489 73.4749 42.5466L73.6982 40.598L69.9515 42.7952L69.9498 42.8018Z" fill="white"/>
<path d="M60.3947 42.6025C59.7283 42.4288 58.995 42.1025 58.0974 41.6692L57.8897 41.5652L57.9004 41.3332C58.0595 38.6206 58.3308 37.3891 60.4561 36.1427L60.7501 35.9702L61.0999 36.5667L60.8059 36.7391C59.0754 37.754 58.7632 38.5692 58.6037 41.1465C60.9309 42.2655 61.7948 42.3911 63.5253 41.3762L63.8193 41.2038L64.1691 41.8002L63.8751 41.9727C62.531 42.7609 61.5541 42.9048 60.3947 42.6025Z" fill="white"/>
<path d="M62.2972 38.5912L59.7429 40.0891L60.0913 40.6831L62.6455 39.1852L62.2972 38.5912Z" fill="white"/>
</g>
</g>
<defs>
<clipPath id="clip0_127_896">
<rect width="208.693" height="206.179" fill="white" transform="translate(32.2256 0.894897) rotate(8.91758)"/>
</clipPath>
<clipPath id="clip1_127_896">
<rect width="23" height="23" fill="white" transform="translate(62.0684 20.2665) rotate(14.6107)"/>
</clipPath>
</defs>
</svg>
