<svg width="290" height="290" viewBox="0 0 290 290" fill="none" xmlns="http://www.w3.org/2000/svg">
<path d="M144.496 222.988C187.179 223.987 222.595 190.017 223.6 147.114C224.604 104.21 190.816 68.6202 148.133 67.621C105.449 66.6219 70.0335 100.592 69.0292 143.495C68.0249 186.399 101.812 221.989 144.496 222.988Z" fill="url(#paint0_linear_127_894)"/>
<path d="M155.431 165.464C156.021 165.213 156.593 164.927 157.165 164.623C157.738 164.302 158.274 163.962 158.81 163.604C158.81 163.604 158.935 163.533 159.007 163.479C159.043 163.461 159.079 163.426 159.114 163.408C159.543 163.122 159.972 162.818 160.384 162.496L160.366 162.496C160.866 162.067 161.367 161.656 161.832 161.226L161.85 161.226C162.029 161.083 162.189 160.905 162.35 160.744C162.475 160.619 162.601 160.493 162.726 160.368C162.887 160.207 163.065 160.046 163.226 159.868L163.209 159.868C163.638 159.367 164.067 158.884 164.46 158.384L164.478 158.384C164.8 157.99 165.104 157.561 165.39 157.132C165.408 157.096 165.443 157.061 165.461 157.025C165.497 156.953 165.551 156.9 165.586 156.846C165.944 156.31 166.284 155.756 166.588 155.183C166.588 155.183 166.623 155.13 166.641 155.094L166.641 155.058C166.945 154.54 167.213 154.003 167.446 153.449L167.428 153.449C167.696 152.859 167.929 152.251 168.143 151.626L168.161 151.626C168.268 151.339 168.358 151.053 168.447 150.749L168.679 149.999L168.644 149.999C169.18 147.996 169.502 145.904 169.502 143.741C169.502 141.578 169.18 139.504 168.644 137.501L168.679 137.501L168.447 136.733C168.358 136.429 168.25 136.143 168.161 135.856L168.143 135.856C167.929 135.249 167.696 134.659 167.428 134.069L167.446 134.069C167.178 133.461 166.892 132.889 166.588 132.334C166.284 131.78 165.944 131.226 165.586 130.689C165.586 130.689 165.497 130.546 165.443 130.493C165.425 130.457 165.39 130.421 165.372 130.386C165.086 129.956 164.782 129.527 164.46 129.116L164.442 129.116C164.049 128.633 163.62 128.133 163.191 127.668L163.209 127.668C163.048 127.453 162.851 127.293 162.672 127.114C162.565 127.006 162.475 126.899 162.368 126.81C162.189 126.631 162.029 126.452 161.85 126.291L161.832 126.291C161.367 125.88 160.866 125.451 160.366 125.058C159.955 124.718 159.543 124.432 159.114 124.128C159.061 124.092 159.025 124.056 158.971 124.021C158.918 123.985 158.864 123.931 158.792 123.896C158.256 123.556 157.702 123.216 157.148 122.912C157.148 122.912 157.076 122.876 157.04 122.859L157.022 122.859C156.504 122.555 155.968 122.286 155.413 122.054C154.823 121.804 154.215 121.571 153.608 121.357C153.357 121.232 153.089 121.16 152.839 121.071L152.767 121.071L152.732 121.035L151.981 120.803L151.981 120.838C149.978 120.302 147.886 119.98 145.723 119.98C143.56 119.98 141.486 120.302 139.483 120.838L139.483 120.803L138.715 121.035L138.679 121.035L138.607 121.071C138.339 121.16 138.089 121.232 137.839 121.321C137.231 121.571 136.623 121.786 136.033 122.054C135.443 122.304 134.871 122.59 134.299 122.894C133.726 123.216 133.19 123.556 132.654 123.913C132.654 123.913 132.529 123.985 132.457 124.039C132.421 124.056 132.385 124.092 132.35 124.11C131.921 124.396 131.492 124.7 131.08 125.022L131.098 125.022C130.598 125.451 130.097 125.862 129.632 126.291L129.614 126.291C129.435 126.434 129.275 126.613 129.114 126.774C128.989 126.899 128.863 127.024 128.756 127.149C128.595 127.31 128.416 127.471 128.255 127.65L128.273 127.65C127.844 128.151 127.415 128.633 127.022 129.134L127.004 129.134C126.682 129.527 126.378 129.956 126.074 130.403C126.056 130.439 126.021 130.475 126.003 130.511C125.967 130.582 125.913 130.636 125.878 130.689C125.52 131.226 125.18 131.78 124.876 132.352C124.572 132.906 124.286 133.479 124.018 134.069L124.036 134.069C123.768 134.676 123.535 135.266 123.321 135.892L123.303 135.892C123.214 136.16 123.124 136.429 123.035 136.715L123.035 136.768L122.785 137.519L122.82 137.519C122.284 139.522 121.962 141.613 121.962 143.777C121.962 145.94 122.284 148.032 122.82 150.016L122.785 150.016L123.017 150.785C123.106 151.089 123.214 151.375 123.303 151.661L123.321 151.661C123.535 152.269 123.768 152.859 124.036 153.449L124.018 153.449C124.286 154.057 124.572 154.629 124.876 155.183C125.18 155.738 125.52 156.292 125.878 156.828C125.878 156.828 125.967 156.971 126.021 157.025C126.039 157.061 126.074 157.096 126.092 157.114C126.396 157.543 126.682 157.973 127.004 158.384L127.022 158.384C127.415 158.866 127.844 159.367 128.273 159.832L128.255 159.832C128.416 160.029 128.595 160.189 128.774 160.368C128.881 160.476 128.989 160.601 129.114 160.708C129.292 160.869 129.453 161.066 129.632 161.226L129.65 161.226C130.115 161.638 130.615 162.067 131.116 162.46C131.545 162.818 131.974 163.122 132.421 163.426L132.493 163.479C132.493 163.479 132.618 163.569 132.689 163.622C133.226 163.962 133.78 164.302 134.334 164.606C134.889 164.927 135.479 165.213 136.069 165.482C136.659 165.732 137.266 165.964 137.874 166.179C138.142 166.304 138.429 166.393 138.697 166.483L138.75 166.483L139.501 166.733L139.501 166.697C141.504 167.234 143.595 167.556 145.759 167.556C147.922 167.556 149.996 167.234 151.999 166.697L151.999 166.733L152.767 166.501C153.071 166.411 153.357 166.304 153.643 166.215C154.251 165.964 154.859 165.75 155.449 165.482L155.431 165.464ZM139.233 164.766L139.09 164.713C137.088 164.069 135.192 163.157 133.476 161.995C133.44 161.977 133.405 161.942 133.369 161.924C132.296 161.191 131.295 160.368 130.365 159.456C130.258 159.349 130.151 159.242 130.025 159.117C129.096 158.169 128.255 157.15 127.522 156.059L127.522 156.024C126.396 154.379 125.502 152.573 124.876 150.642L124.733 150.249C124.09 148.193 123.75 146.012 123.75 143.741C123.75 139.2 125.127 134.98 127.505 131.476C127.522 131.44 127.54 131.423 127.558 131.387C128.291 130.296 129.132 129.295 130.043 128.365C130.151 128.258 130.258 128.151 130.365 128.043C131.295 127.132 132.296 126.309 133.369 125.576C133.405 125.558 133.44 125.523 133.476 125.505C135.157 124.36 137.016 123.466 139.001 122.823L139.233 122.733C141.289 122.09 143.488 121.75 145.759 121.75C148.029 121.75 150.229 122.09 152.285 122.733L152.481 122.805C154.466 123.449 156.325 124.343 158.006 125.487C158.059 125.523 158.113 125.576 158.185 125.612C159.239 126.345 160.241 127.149 161.152 128.061C161.26 128.169 161.349 128.258 161.456 128.365C162.386 129.313 163.226 130.332 163.977 131.44L163.977 131.476C165.05 133.032 165.89 134.73 166.516 136.536L166.766 137.233C167.41 139.289 167.75 141.488 167.75 143.741C167.75 145.994 167.41 148.193 166.766 150.249L166.713 150.392C166.284 151.715 165.747 152.984 165.104 154.182C164.764 154.826 164.406 155.416 164.013 156.006C163.995 156.042 163.959 156.077 163.942 156.095C163.209 157.168 162.368 158.169 161.474 159.099C161.367 159.206 161.26 159.313 161.152 159.421C160.223 160.333 159.222 161.155 158.167 161.888C158.131 161.906 158.095 161.942 158.059 161.977C156.379 163.104 154.537 163.998 152.589 164.641L152.32 164.731C150.264 165.374 148.083 165.714 145.812 165.714C143.542 165.714 141.361 165.374 139.305 164.731L139.233 164.766Z" fill="white"/>
<path d="M152.374 137.144L139.144 137.144L139.144 150.374L152.374 150.374L152.374 137.144ZM150.586 148.586L140.931 148.586L140.931 138.932L150.586 138.932L150.586 148.586Z" fill="white"/>
<path d="M153.59 152.859L154.948 154.021C155.288 153.628 155.664 153.252 156.075 152.895L154.913 151.536C154.448 151.947 154.001 152.376 153.59 152.841L153.59 152.859Z" fill="white"/>
<path d="M156.397 150.463L157.344 151.983C157.791 151.697 158.256 151.465 158.757 151.25L158.042 149.605C157.469 149.856 156.915 150.142 156.397 150.463Z" fill="white"/>
<path d="M151.605 155.988L153.25 156.703C153.464 156.22 153.715 155.738 153.983 155.309L152.463 154.361C152.141 154.88 151.837 155.434 151.587 156.006L151.605 155.988Z" fill="white"/>
<path d="M159.794 148.98L160.241 150.714C160.759 150.589 161.278 150.481 161.796 150.428L161.6 148.658C160.992 148.729 160.366 148.837 159.776 148.997L159.794 148.98Z" fill="white"/>
<path d="M150.658 159.582L152.428 159.778C152.481 159.26 152.588 158.724 152.714 158.223L150.979 157.758C150.818 158.348 150.711 158.974 150.64 159.582L150.658 159.582Z" fill="white"/>
<path d="M152.571 162.925C152.463 162.407 152.41 161.888 152.392 161.352L150.604 161.423C150.622 162.049 150.711 162.675 150.819 163.265L152.571 162.925Z" fill="white"/>
<path d="M163.387 150.392C163.906 150.41 164.442 150.481 164.961 150.589L165.318 148.836C164.71 148.711 164.084 148.64 163.477 148.604L163.405 150.392L163.387 150.392Z" fill="white"/>
<path d="M152.463 133.121L153.983 132.173C153.697 131.726 153.465 131.262 153.25 130.761L151.605 131.476C151.856 132.048 152.142 132.603 152.463 133.121Z" fill="white"/>
<path d="M154.859 135.928L156.021 134.569C155.628 134.23 155.235 133.836 154.895 133.443L153.536 134.605C153.929 135.07 154.376 135.517 154.841 135.928L154.859 135.928Z" fill="white"/>
<path d="M150.657 127.9C150.729 128.526 150.836 129.134 150.997 129.724L152.731 129.277C152.606 128.777 152.499 128.24 152.445 127.722L150.675 127.918L150.657 127.9Z" fill="white"/>
<path d="M165.282 138.699L164.943 136.947C164.424 137.054 163.906 137.108 163.369 137.126L163.441 138.914C164.067 138.896 164.692 138.807 165.282 138.699Z" fill="white"/>
<path d="M158.703 136.268C158.22 136.053 157.755 135.803 157.308 135.535L156.361 137.054C156.879 137.394 157.434 137.68 158.006 137.93L158.721 136.286L158.703 136.268Z" fill="white"/>
<path d="M152.571 124.557L150.819 124.199C150.693 124.789 150.622 125.415 150.586 126.041L152.374 126.13C152.392 125.594 152.463 125.058 152.571 124.557Z" fill="white"/>
<path d="M161.76 137.072C161.242 137.019 160.705 136.911 160.205 136.786L159.74 138.52C160.33 138.681 160.956 138.789 161.564 138.86L161.76 137.09L161.76 137.072Z" fill="white"/>
<path d="M139.054 154.397L137.534 155.344C137.82 155.791 138.053 156.256 138.267 156.757L139.912 156.042C139.662 155.47 139.376 154.915 139.054 154.397Z" fill="white"/>
<path d="M132.815 151.25C133.297 151.465 133.762 151.715 134.209 151.983L135.157 150.463C134.638 150.124 134.084 149.838 133.512 149.587L132.797 151.232L132.815 151.25Z" fill="white"/>
<path d="M126.235 148.819L126.575 150.571C127.093 150.463 127.63 150.41 128.148 150.392L128.077 148.604C127.469 148.622 126.843 148.711 126.235 148.819Z" fill="white"/>
<path d="M129.757 150.428C130.276 150.481 130.812 150.589 131.313 150.714L131.778 148.979C131.188 148.819 130.562 148.711 129.954 148.64L129.757 150.41L129.757 150.428Z" fill="white"/>
<path d="M136.658 151.59L135.496 152.949C135.89 153.288 136.283 153.682 136.623 154.075L137.981 152.913C137.588 152.448 137.141 152.001 136.676 151.59L136.658 151.59Z" fill="white"/>
<path d="M140.86 159.617C140.789 158.992 140.681 158.384 140.52 157.794L138.786 158.241C138.911 158.741 139.019 159.278 139.072 159.796L140.842 159.6L140.86 159.617Z" fill="white"/>
<path d="M138.947 162.961L140.699 163.318C140.824 162.728 140.896 162.103 140.932 161.477L139.144 161.387C139.126 161.924 139.054 162.46 138.947 162.961Z" fill="white"/>
<path d="M137.928 134.659L136.569 133.496C136.229 133.89 135.854 134.265 135.443 134.623L136.605 135.982C137.07 135.57 137.517 135.141 137.928 134.676L137.928 134.659Z" fill="white"/>
<path d="M140.914 126.095C140.896 125.469 140.806 124.843 140.699 124.253L138.947 124.593C139.054 125.111 139.108 125.63 139.126 126.166L140.914 126.095Z" fill="white"/>
<path d="M139.912 131.53L138.268 130.815C138.053 131.297 137.803 131.78 137.517 132.209L139.036 133.157C139.358 132.638 139.662 132.084 139.912 131.512L139.912 131.53Z" fill="white"/>
<path d="M140.86 127.936L139.09 127.74C139.036 128.258 138.929 128.794 138.804 129.295L140.538 129.742C140.699 129.134 140.806 128.526 140.878 127.918L140.86 127.936Z" fill="white"/>
<path d="M135.121 137.054L134.173 135.535C133.726 135.821 133.262 136.053 132.761 136.268L133.476 137.913C134.048 137.662 134.603 137.376 135.121 137.054Z" fill="white"/>
<path d="M131.724 138.538L131.277 136.804C130.758 136.929 130.24 137.037 129.721 137.09L129.918 138.86C130.526 138.789 131.152 138.681 131.742 138.52L131.724 138.538Z" fill="white"/>
<path d="M128.13 137.126C127.612 137.108 127.076 137.036 126.557 136.929L126.199 138.681C126.807 138.806 127.433 138.878 128.041 138.914L128.112 137.126L128.13 137.126Z" fill="white"/>
<path d="M162.922 116.047C168.733 116.047 173.471 120.785 173.471 126.595C173.471 129.456 172.345 132.138 170.289 134.14L171.54 135.427C173.936 133.085 175.259 129.956 175.259 126.595C175.259 119.801 169.716 114.259 162.922 114.259C159.561 114.259 156.432 115.582 154.09 117.978L155.378 119.229C157.38 117.173 160.062 116.047 162.922 116.047Z" fill="white"/>
<path d="M121.229 134.14C119.173 132.138 118.047 129.456 118.047 126.595C118.047 120.785 122.785 116.047 128.595 116.047C131.456 116.047 134.138 117.173 136.14 119.229L137.427 117.978C135.085 115.582 131.956 114.259 128.595 114.259C121.801 114.259 116.259 119.801 116.259 126.595C116.259 129.956 117.582 133.085 119.978 135.427L121.229 134.14Z" fill="white"/>
<path d="M170.288 153.378C172.345 155.38 173.471 158.062 173.471 160.923C173.471 166.733 168.733 171.471 162.922 171.471C160.115 171.471 157.487 170.38 155.503 168.414L154.251 169.683C156.575 171.99 159.668 173.259 162.94 173.259C169.734 173.259 175.277 167.717 175.277 160.923C175.277 157.561 173.954 154.433 171.558 152.09L170.306 153.378L170.288 153.378Z" fill="white"/>
<path d="M128.595 171.471C122.785 171.471 118.047 166.733 118.047 160.923C118.047 158.062 119.173 155.38 121.229 153.378L119.978 152.09C117.582 154.433 116.259 157.561 116.259 160.923C116.259 167.717 121.801 173.259 128.595 173.259C131.956 173.259 135.085 171.936 137.427 169.54L136.14 168.289C134.138 170.345 131.456 171.471 128.595 171.471Z" fill="white"/>
<defs>
<linearGradient id="paint0_linear_127_894" x1="137.771" y1="67.3785" x2="87.7017" y2="195.015" gradientUnits="userSpaceOnUse">
<stop stop-color="#FFF507"/>
<stop offset="0.883333" stop-color="#117FFF"/>
</linearGradient>
</defs>
</svg>
