<svg width="240" height="237" viewBox="0 0 240 237" fill="none" xmlns="http://www.w3.org/2000/svg">
<g clip-path="url(#clip0_127_1021)">
<path d="M133.042 30.1585C132.494 30.072 132.264 29.748 132.351 29.1812L133.897 19.4087C133.984 18.8472 134.307 18.6046 134.855 18.6965C135.402 18.7829 135.632 19.1123 135.546 19.6737L133.999 29.4463C133.912 30.0077 133.589 30.2503 133.042 30.1585Z" fill="white"/>
<path d="M142.585 32.2327C141.807 32.0324 141.181 31.6888 140.701 31.2178C140.221 30.7413 139.901 30.1651 139.748 29.4839C139.594 28.8028 139.62 28.0552 139.832 27.2467C140.144 26.0391 140.733 25.174 141.595 24.6564C142.457 24.1388 143.47 24.0275 144.633 24.3331C144.998 24.4267 145.361 24.5794 145.73 24.7971C146.1 25.0148 146.424 25.2842 146.702 25.6266C146.839 25.7735 146.901 25.9329 146.887 26.0992C146.874 26.2656 146.807 26.4131 146.694 26.5314C146.581 26.6498 146.444 26.7184 146.288 26.7268C146.132 26.7352 145.975 26.6628 145.811 26.5091C145.609 26.2674 145.388 26.0732 145.149 25.9267C144.91 25.7801 144.674 25.6768 144.436 25.6165C143.7 25.4237 143.075 25.5058 142.553 25.8678C142.032 26.2244 141.664 26.8366 141.444 27.6878C141.225 28.5444 141.248 29.2621 141.524 29.8524C141.801 30.4426 142.301 30.8338 143.037 31.0212C143.275 31.0816 143.53 31.1104 143.804 31.1025C144.078 31.0945 144.365 31.0387 144.67 30.9299C144.882 30.8758 145.053 30.8897 145.182 30.9769C145.307 31.0639 145.386 31.1918 145.416 31.3495C145.445 31.5072 145.427 31.6626 145.36 31.8209C145.293 31.9739 145.159 32.0857 144.969 32.1463C144.575 32.2992 144.17 32.376 143.757 32.3825C143.339 32.3833 142.949 32.3424 142.59 32.2437L142.585 32.2327Z" fill="white"/>
<path d="M151.677 35.1897C151.167 34.9919 151.013 34.6395 151.204 34.1263L153.303 28.6593L151.263 27.8683C150.822 27.6956 150.681 27.4084 150.84 26.996C150.994 26.5942 151.289 26.4795 151.731 26.6469L157.32 28.8103C157.756 28.9828 157.903 29.2649 157.749 29.6668C157.589 30.0791 157.294 30.1991 156.852 30.0317L154.812 29.2407L152.719 34.708C152.522 35.2209 152.176 35.3815 151.677 35.1843L151.677 35.1897Z" fill="white"/>
<path d="M161.771 39.8558C161.072 39.4816 160.543 39.0135 160.191 38.4465C159.839 37.8794 159.661 37.2509 159.668 36.567C159.675 35.8831 159.872 35.1654 160.267 34.4254C160.658 33.6851 161.136 33.1215 161.702 32.7294C162.262 32.3423 162.878 32.1358 163.544 32.115C164.209 32.0941 164.892 32.2681 165.591 32.6423C166.27 33.0047 166.788 33.4722 167.146 34.0396C167.498 34.6067 167.676 35.2351 167.679 35.925C167.677 36.6145 167.481 37.3268 167.09 38.0671C166.7 38.8074 166.216 39.3707 165.651 39.7575C165.085 40.1443 164.464 40.3451 163.798 40.366C163.133 40.3868 162.461 40.2187 161.777 39.8561L161.771 39.8558ZM162.363 38.7429C162.947 39.0575 163.535 39.0921 164.12 38.8571C164.705 38.6222 165.213 38.0978 165.639 37.2892C166.065 36.4806 166.213 35.7713 166.077 35.1557C165.942 34.5402 165.579 34.0749 164.994 33.7657C164.399 33.4452 163.812 33.4053 163.227 33.6349C162.642 33.8644 162.14 34.3837 161.714 35.1923C161.288 36.0009 161.14 36.7155 161.27 37.3308C161.4 37.9515 161.768 38.417 162.363 38.7375L162.363 38.7429Z" fill="white"/>
<path d="M168.257 47.0585C167.822 46.7459 167.766 46.366 168.083 45.9184L173.509 38.3051C173.826 37.8575 174.199 37.7898 174.623 38.0964C175.058 38.4089 175.114 38.7889 174.797 39.2365L174.44 39.7361C174.891 39.5052 175.383 39.4219 175.91 39.475C176.438 39.5282 176.937 39.7308 177.419 40.0726C177.983 40.4777 178.381 40.9717 178.61 41.5488C178.839 42.1259 178.894 42.7429 178.77 43.3994C178.646 44.0614 178.345 44.7307 177.855 45.4123C177.366 46.0938 176.832 46.6007 176.247 46.9327C175.663 47.2646 175.061 47.4125 174.452 47.3769C173.837 47.341 173.248 47.1178 172.684 46.7072C172.213 46.3713 171.869 45.9609 171.646 45.4919C171.423 45.0228 171.345 44.534 171.407 44.0414L169.397 46.8619C169.08 47.3095 168.697 47.3713 168.252 47.0528L168.257 47.0585ZM173.095 45.456C173.643 45.8497 174.221 45.97 174.829 45.8116C175.437 45.6532 176.006 45.2019 176.536 44.4577C177.066 43.7136 177.309 43.0306 177.26 42.4031C177.211 41.781 176.914 41.2706 176.366 40.877C175.817 40.4834 175.245 40.3633 174.637 40.5163C174.034 40.6696 173.465 41.1209 172.935 41.8651C172.406 42.6092 172.162 43.2976 172.206 43.9248C172.25 44.552 172.546 45.0678 173.094 45.4614L173.095 45.456Z" fill="white"/>
<path d="M179.853 52.4566C179.453 52.0973 179.451 51.6985 179.843 51.2546L184.01 46.553C184.396 46.1196 184.789 46.0798 185.184 46.4389C185.589 46.8039 185.601 47.2032 185.22 47.6369L181.054 52.3385C180.662 52.7824 180.264 52.8165 179.853 52.4566ZM186.291 45.1846C186.05 44.9679 185.916 44.7403 185.896 44.5022C185.876 44.2642 185.957 44.0365 186.144 43.8195C186.547 43.36 187.003 43.3557 187.506 43.8063C188.009 44.257 188.056 44.7119 187.653 45.1714C187.249 45.6309 186.794 45.6352 186.291 45.1846V45.1846Z" fill="white"/>
<path d="M188.148 60.8701C187.808 60.4976 187.826 60.1374 188.202 59.7844L189.825 58.2863L189.139 57.5356C188.885 57.2589 188.599 57.0831 188.27 57.0129C187.941 56.9427 187.614 56.948 187.288 57.0342L185.613 57.4198C185.332 57.4758 185.103 57.4429 184.933 57.3159C184.762 57.1889 184.653 57.0218 184.609 56.8149C184.566 56.608 184.592 56.41 184.692 56.2264C184.792 56.0428 184.965 55.9166 185.219 55.8592L186.46 55.5921C186.703 55.5396 186.961 55.5308 187.223 55.5546C187.489 55.584 187.732 55.6553 187.951 55.7686C187.583 55.2061 187.422 54.6593 187.47 54.1337C187.517 53.608 187.777 53.1306 188.243 52.6957C188.782 52.1999 189.372 51.9867 190.027 52.0569C190.678 52.127 191.333 52.5205 191.994 53.243L193.961 55.3935C194.337 55.8055 194.323 56.2035 193.913 56.5819L189.24 60.8974C189.06 61.0662 188.869 61.1429 188.677 61.128C188.484 61.1184 188.312 61.0291 188.159 60.8599L188.148 60.8701ZM189.364 56.1351L190.645 57.5403L192.678 55.6639L191.397 54.2586C191.001 53.8241 190.616 53.5841 190.254 53.5391C189.886 53.4993 189.548 53.6226 189.233 53.9141C188.908 54.2104 188.752 54.5475 188.76 54.9251C188.768 55.2973 188.968 55.7005 189.369 56.1407L189.364 56.1351Z" fill="white"/>
<path d="M196.697 72.0706C196.426 71.5938 196.53 71.2218 197.004 70.949L202.492 67.8109C202.966 67.5381 203.332 67.6263 203.583 68.0752C203.839 68.5243 203.725 68.885 203.25 69.1578L198.171 72.063L199.654 74.6852L204.733 71.78C205.208 71.5072 205.573 71.5954 205.824 72.0443C206.08 72.4935 205.966 72.8542 205.492 73.127L200.412 76.0321L201.895 78.6543L206.974 75.7492C207.449 75.4764 207.814 75.5646 208.065 76.0135C208.316 76.4624 208.207 76.8233 207.733 77.0961L202.245 80.2342C201.77 80.507 201.395 80.4022 201.129 79.9256L196.686 72.0647L196.697 72.0706Z" fill="white"/>
<path d="M203.831 86.2778C203.637 85.767 203.788 85.4082 204.302 85.2128L210.263 82.8956C210.771 82.6999 211.128 82.8523 211.322 83.3685C211.517 83.8684 211.355 84.2214 210.847 84.4171L208.568 85.3007L209.043 86.5366L212.539 87.5669C212.793 87.628 212.964 87.7497 213.057 87.9267C213.15 88.1037 213.173 88.2827 213.137 88.4695C213.101 88.6563 212.998 88.7966 212.838 88.8964C212.677 89.0016 212.467 89.0181 212.213 88.957L209.286 88.1058C209.272 88.3907 209.188 88.6775 209.04 88.9718C208.891 89.2662 208.671 89.6001 208.363 89.9727L207.065 91.6163C206.9 91.8182 206.723 91.9172 206.525 91.9128C206.327 91.9029 206.159 91.8407 206.016 91.7043C205.872 91.5678 205.784 91.4018 205.751 91.2008C205.718 90.9998 205.788 90.7931 205.959 90.5754L207.411 88.7455C207.703 88.3667 207.875 88.0465 207.926 87.7742C207.976 87.5074 207.928 87.1817 207.781 86.8026L207.382 85.7645L204.88 86.7393C204.372 86.935 204.02 86.7882 203.825 86.2829L203.831 86.2778Z" fill="white"/>
<path d="M208.171 99.7801C207.984 99.0057 207.982 98.2998 208.164 97.6515C208.351 97.0088 208.695 96.4601 209.21 96.0062C209.721 95.552 210.385 95.224 211.194 95.0271C212.002 94.8247 212.742 94.8076 213.404 94.9752C214.066 95.1374 214.628 95.4616 215.087 95.9478C215.545 96.4339 215.872 97.0644 216.059 97.8334C216.242 98.586 216.239 99.2863 216.057 99.9292C215.87 100.572 215.526 101.126 215.01 101.585C214.5 102.045 213.84 102.373 213.027 102.57C212.213 102.772 211.478 102.784 210.817 102.616C210.155 102.449 209.593 102.119 209.129 101.633C208.671 101.147 208.348 100.527 208.166 99.7744L208.171 99.7801ZM209.386 99.4794C209.542 100.128 209.904 100.594 210.469 100.875C211.034 101.156 211.756 101.187 212.64 100.972C213.524 100.752 214.148 100.389 214.516 99.8797C214.879 99.3697 214.988 98.7878 214.828 98.1386C214.668 97.4787 214.305 97.0081 213.751 96.7274C213.192 96.4464 212.47 96.4105 211.585 96.6306C210.701 96.8507 210.072 97.2128 209.704 97.7279C209.335 98.243 209.226 98.8249 209.386 99.4848L209.386 99.4794Z" fill="white"/>
<path d="M210.569 114.296C210.51 113.76 210.755 113.465 211.294 113.405L217.086 112.766L216.777 109.928L215.834 110.032C214.25 110.206 212.998 110.165 212.089 109.91C211.18 109.655 210.487 109.136 210.012 108.352C209.894 108.136 209.856 107.935 209.908 107.749C209.955 107.557 210.059 107.412 210.208 107.311C210.358 107.206 210.526 107.171 210.712 107.196C210.899 107.222 211.07 107.338 211.22 107.539C211.611 108.082 212.152 108.415 212.837 108.536C213.523 108.661 214.482 108.655 215.721 108.517L216.998 108.376C217.602 108.309 217.942 108.579 218.008 109.191L218.462 113.33C218.528 113.942 218.259 114.279 217.65 114.346L211.475 115.031C210.931 115.09 210.632 114.849 210.574 114.302L210.569 114.296Z" fill="white"/>
<path d="M210.87 121.17C210.879 120.664 211.176 120.42 211.754 120.433L218.161 120.579C218.686 120.588 218.941 120.844 218.932 121.339C218.918 121.834 218.655 122.074 218.13 122.064L213.12 121.95L218.292 126.022C218.427 126.12 218.549 126.244 218.655 126.384C218.76 126.524 218.81 126.721 218.803 126.968C218.794 127.464 218.498 127.702 217.92 127.69L211.513 127.544C210.988 127.534 210.733 127.284 210.741 126.8C210.75 126.294 211.019 126.048 211.544 126.058L216.538 126.172L211.365 122.1C211.236 122.002 211.125 121.878 211.019 121.738C210.913 121.598 210.864 121.407 210.87 121.17V121.17Z" fill="white"/>
<path d="M201.999 161.582C202.238 161.076 202.609 160.944 203.122 161.19L212.022 165.415C212.536 165.656 212.672 166.034 212.433 166.54C212.193 167.045 211.822 167.178 211.309 166.931L202.409 162.707C201.896 162.46 201.76 162.087 201.999 161.582Z" fill="white"/>
<path d="M197.342 170.208C197.752 169.518 198.254 169.004 198.844 168.672C199.434 168.34 200.074 168.194 200.768 168.24C201.463 168.274 202.164 168.514 202.882 168.943C203.949 169.583 204.605 170.391 204.862 171.374C205.119 172.357 204.935 173.36 204.321 174.397C204.128 174.721 203.876 175.032 203.572 175.329C203.263 175.627 202.908 175.862 202.508 176.036C202.327 176.13 202.16 176.143 202.002 176.081C201.845 176.019 201.726 175.917 201.643 175.772C201.559 175.628 201.534 175.481 201.574 175.327C201.608 175.173 201.722 175.038 201.915 174.929C202.205 174.804 202.449 174.643 202.657 174.454C202.864 174.265 203.03 174.063 203.158 173.849C203.55 173.195 203.645 172.564 203.445 171.961C203.25 171.359 202.772 170.834 202.017 170.381C201.263 169.929 200.57 169.755 199.927 169.852C199.29 169.95 198.773 170.328 198.386 170.988C198.258 171.202 198.16 171.44 198.093 171.706C198.021 171.972 197.996 172.267 198.017 172.591C198.006 172.812 197.945 172.97 197.827 173.072C197.705 173.168 197.569 173.21 197.408 173.197C197.248 173.183 197.107 173.122 196.973 173.013C196.844 172.905 196.777 172.751 196.776 172.546C196.738 172.124 196.78 171.711 196.891 171.307C197.003 170.903 197.16 170.544 197.353 170.22L197.342 170.208Z" fill="white"/>
<path d="M191.969 178.164C192.302 177.728 192.685 177.677 193.119 178.005L197.754 181.555L199.079 179.81C199.366 179.431 199.679 179.376 200.03 179.647C200.371 179.906 200.398 180.226 200.111 180.605L196.481 185.398C196.194 185.777 195.881 185.831 195.54 185.572C195.189 185.307 195.157 184.982 195.443 184.608L196.768 182.863L192.132 179.314C191.698 178.98 191.642 178.6 191.969 178.175L191.969 178.164Z" fill="white"/>
<path d="M184.691 186.612C185.244 186.041 185.836 185.661 186.478 185.478C187.119 185.294 187.767 185.299 188.422 185.493C189.077 185.687 189.701 186.079 190.299 186.664C190.897 187.249 191.305 187.867 191.519 188.519C191.733 189.171 191.76 189.819 191.594 190.468C191.428 191.117 191.071 191.729 190.517 192.3C189.98 192.855 189.389 193.225 188.752 193.414C188.111 193.598 187.463 193.592 186.802 193.403C186.147 193.209 185.518 192.822 184.92 192.238C184.322 191.653 183.919 191.035 183.705 190.378C183.497 189.721 183.47 189.067 183.636 188.418C183.802 187.769 184.154 187.167 184.691 186.612V186.612ZM185.59 187.486C185.127 187.964 184.928 188.52 184.988 189.148C185.048 189.776 185.407 190.414 186.062 191.05C186.716 191.686 187.353 192.024 187.978 192.066C188.603 192.108 189.15 191.887 189.607 191.409C190.076 190.92 190.281 190.365 190.226 189.737C190.166 189.109 189.812 188.477 189.158 187.841C188.503 187.205 187.867 186.861 187.236 186.819C186.606 186.777 186.059 186.998 185.591 187.481L185.59 187.486Z" fill="white"/>
<path d="M175.995 190.889C176.413 190.554 176.797 190.606 177.134 191.037L182.9 198.387C183.237 198.819 183.203 199.194 182.79 199.524C182.371 199.859 181.988 199.808 181.65 199.376L181.272 198.894C181.365 199.394 181.314 199.893 181.112 200.389C180.911 200.88 180.584 201.311 180.121 201.681C179.575 202.112 178.994 202.364 178.38 202.425C177.766 202.486 177.161 202.364 176.565 202.065C175.969 201.766 175.409 201.286 174.895 200.625C174.376 199.963 174.044 199.305 173.889 198.651C173.735 197.991 173.76 197.373 173.966 196.791C174.171 196.208 174.55 195.704 175.092 195.268C175.544 194.908 176.032 194.684 176.539 194.601C177.047 194.519 177.537 194.576 177.994 194.776L175.857 192.051C175.519 191.62 175.565 191.234 175.995 190.894L175.995 190.889ZM176.18 196.006C175.65 196.427 175.378 196.952 175.362 197.582C175.347 198.212 175.619 198.888 176.184 199.606C176.748 200.323 177.333 200.746 177.943 200.873C178.553 201 179.123 200.851 179.653 200.43C180.183 200.009 180.455 199.489 180.476 198.86C180.496 198.236 180.224 197.559 179.659 196.842C179.095 196.124 178.51 195.702 177.895 195.569C177.28 195.436 176.71 195.585 176.181 196.001L176.18 196.006Z" fill="white"/>
<path d="M167.62 200.592C168.074 200.302 168.454 200.413 168.772 200.913L172.109 206.241C172.417 206.73 172.344 207.12 171.89 207.41C171.431 207.705 171.044 207.605 170.737 207.11L167.4 201.783C167.087 201.282 167.161 200.887 167.62 200.592ZM172.784 208.823C173.055 208.653 173.311 208.585 173.544 208.629C173.778 208.673 173.975 208.812 174.128 209.062C174.456 209.579 174.333 210.02 173.762 210.385C173.193 210.745 172.746 210.669 172.418 210.152C172.09 209.634 172.214 209.193 172.784 208.828L172.784 208.823Z" fill="white"/>
<path d="M157.274 206.28C157.724 206.054 158.061 206.173 158.29 206.637L159.269 208.62L160.175 208.169C160.511 208.003 160.758 207.773 160.917 207.474C161.077 207.18 161.162 206.861 161.174 206.516L161.27 204.792C161.295 204.502 161.392 204.291 161.559 204.159C161.726 204.028 161.917 203.967 162.125 203.983C162.333 203.993 162.517 204.078 162.665 204.225C162.813 204.373 162.883 204.575 162.87 204.833L162.78 206.106C162.763 206.358 162.702 206.603 162.604 206.852C162.506 207.1 162.367 207.314 162.197 207.499C162.839 207.3 163.407 207.295 163.896 207.487C164.385 207.678 164.773 208.064 165.05 208.632C165.377 209.29 165.41 209.922 165.165 210.529C164.915 211.142 164.359 211.664 163.485 212.1L160.88 213.404C160.38 213.654 160.006 213.528 159.763 213.025L156.944 207.314C156.837 207.093 156.815 206.893 156.877 206.707C156.94 206.522 157.076 206.383 157.279 206.28L157.274 206.28ZM161.459 208.767L159.761 209.614L160.988 212.1L162.686 211.252C163.213 210.987 163.55 210.686 163.69 210.343C163.83 210 163.805 209.638 163.616 209.251C163.421 208.853 163.144 208.608 162.784 208.515C162.425 208.416 161.981 208.502 161.453 208.766L161.459 208.767Z" fill="white"/>
<path d="M144.195 211.417C144.726 211.293 145.054 211.492 145.183 212.026L146.639 218.198C146.768 218.732 146.581 219.057 146.076 219.178C145.577 219.298 145.261 219.089 145.137 218.555L143.787 212.835L140.864 213.536L142.214 219.255C142.343 219.79 142.156 220.114 141.651 220.235C141.152 220.356 140.836 220.146 140.712 219.612L139.362 213.893L136.439 214.593L137.789 220.312C137.918 220.847 137.73 221.172 137.226 221.292C136.727 221.413 136.41 221.203 136.287 220.669L134.83 214.497C134.702 213.963 134.905 213.634 135.437 213.504L144.185 211.411L144.195 211.417Z" fill="white"/>
<path d="M128.612 214.329C129.156 214.28 129.449 214.532 129.496 215.078L130.036 221.479C130.084 222.026 129.833 222.321 129.29 222.369C128.757 222.413 128.469 222.167 128.422 221.615L128.216 219.169L126.903 219.282L124.938 222.368C124.809 222.594 124.642 222.726 124.447 222.764C124.252 222.803 124.071 222.778 123.91 222.689C123.748 222.6 123.637 222.465 123.587 222.28C123.532 222.094 123.574 221.891 123.704 221.661L125.338 219.075C125.075 218.981 124.82 218.817 124.579 218.595C124.338 218.373 124.086 218.064 123.816 217.663L122.61 215.954C122.465 215.742 122.421 215.541 122.479 215.35C122.537 215.159 122.651 215.019 122.822 214.914C122.993 214.815 123.177 214.775 123.374 214.801C123.577 214.828 123.753 214.955 123.913 215.178L125.249 217.087C125.53 217.473 125.791 217.729 126.031 217.854C126.271 217.979 126.596 218.022 126.999 217.988L128.103 217.892L127.877 215.208C127.829 214.662 128.074 214.367 128.607 214.318L128.612 214.329Z" fill="white"/>
<path d="M114.514 214.749C115.305 214.778 115.982 214.962 116.548 215.319C117.115 215.676 117.546 216.155 117.843 216.774C118.139 217.392 118.274 218.12 118.243 218.959C118.218 219.799 118.032 220.517 117.697 221.114C117.362 221.712 116.9 222.169 116.31 222.484C115.721 222.8 115.034 222.943 114.242 222.915C113.472 222.887 112.801 222.698 112.239 222.347C111.678 221.996 111.241 221.51 110.94 220.892C110.638 220.274 110.503 219.545 110.528 218.706C110.554 217.866 110.74 217.148 111.08 216.551C111.421 215.954 111.888 215.497 112.477 215.182C113.066 214.866 113.743 214.722 114.514 214.749ZM114.473 216.008C113.809 215.986 113.267 216.212 112.842 216.681C112.417 217.151 112.195 217.845 112.16 218.76C112.131 219.674 112.31 220.378 112.698 220.872C113.087 221.365 113.615 221.623 114.278 221.645C114.952 221.668 115.499 221.447 115.924 220.983C116.349 220.519 116.571 219.83 116.606 218.916C116.635 218.001 116.456 217.297 116.068 216.799C115.68 216.3 115.146 216.042 114.472 216.019L114.473 216.008Z" fill="white"/>
<path d="M99.9577 213.057C100.484 213.147 100.704 213.465 100.607 214.005L99.6184 219.78L102.418 220.264L102.578 219.324C102.849 217.742 103.235 216.549 103.731 215.739C104.227 214.928 104.917 214.402 105.792 214.16C106.031 214.102 106.233 214.123 106.4 214.222C106.566 214.322 106.678 214.457 106.739 214.633C106.794 214.808 106.786 214.98 106.707 215.154C106.629 215.328 106.473 215.455 106.243 215.551C105.615 215.778 105.149 216.213 104.839 216.839C104.529 217.47 104.269 218.4 104.058 219.629L103.839 220.9C103.734 221.504 103.384 221.756 102.784 221.651L98.7031 220.947C98.1028 220.842 97.8523 220.49 97.9573 219.886L99.0132 213.732C99.1043 213.192 99.421 212.965 99.9574 213.062L99.9577 213.057Z" fill="white"/>
<path d="M66.972 199.187C67.4333 199.501 67.505 199.893 67.192 200.368L61.7091 208.587C61.3908 209.061 61.0065 209.139 60.5395 208.831C60.0782 208.517 60.0065 208.125 60.3195 207.65L65.8024 199.431C66.1207 198.957 66.5104 198.879 66.972 199.187Z" fill="white"/>
<path d="M59.1737 193.278C59.7968 193.788 60.2237 194.364 60.4602 194.996C60.6968 195.627 60.7444 196.287 60.6034 196.969C60.4623 197.652 60.1237 198.319 59.5932 198.967C58.8059 199.93 57.911 200.467 56.909 200.574C55.907 200.68 54.9427 200.352 54.0159 199.589C53.7278 199.349 53.4584 199.055 53.2133 198.704C52.9681 198.352 52.789 197.966 52.6762 197.54C52.6107 197.348 52.6246 197.177 52.7016 197.029C52.7839 196.883 52.9068 196.781 53.06 196.719C53.2131 196.656 53.3631 196.658 53.5103 196.714C53.6576 196.77 53.7688 196.905 53.8498 197.108C53.9311 197.414 54.0516 197.684 54.2064 197.912C54.3609 198.146 54.5336 198.338 54.7239 198.498C55.3106 198.986 55.9176 199.172 56.5339 199.063C57.1503 198.953 57.7431 198.562 58.3022 197.879C58.8613 197.195 59.1354 196.53 59.1357 195.878C59.1305 195.226 58.837 194.662 58.2503 194.175C58.0597 194.02 57.8414 193.885 57.5896 193.775C57.3378 193.666 57.0518 193.598 56.7316 193.571C56.5138 193.533 56.3681 193.445 56.289 193.312C56.2099 193.179 56.1903 193.032 56.2302 192.878C56.27 192.724 56.3518 192.588 56.4752 192.475C56.5987 192.363 56.7668 192.323 56.9641 192.343C57.3861 192.37 57.783 192.47 58.1602 192.645C58.5373 192.82 58.8701 193.025 59.1638 193.261L59.1737 193.278Z" fill="white"/>
<path d="M52.1505 186.765C52.5327 187.161 52.5242 187.548 52.1356 187.928L47.9565 192.015L49.4806 193.588C49.8067 193.928 49.8174 194.251 49.502 194.559C49.1979 194.856 48.8771 194.841 48.551 194.501L44.3764 190.188C44.0503 189.849 44.0393 189.53 44.3437 189.227C44.6591 188.92 44.9798 188.936 45.3059 189.275L46.8301 190.849L51.0092 186.762C51.4034 186.377 51.7838 186.38 52.1558 186.765L52.1505 186.765Z" fill="white"/>
<path d="M44.9193 178.286C45.4023 178.919 45.6808 179.568 45.7712 180.23C45.8563 180.892 45.7545 181.539 45.4664 182.16C45.1783 182.782 44.7002 183.345 44.0371 183.856C43.374 184.368 42.7048 184.679 42.0345 184.797C41.3641 184.914 40.7192 184.845 40.1052 184.583C39.491 184.326 38.9452 183.878 38.4622 183.245C37.9944 182.63 37.7153 181.991 37.6306 181.324C37.5455 180.662 37.642 180.015 37.9303 179.388C38.2187 178.761 38.6917 178.192 39.3545 177.686C40.0173 177.18 40.6868 176.863 41.3622 176.751C42.0377 176.639 42.6823 176.715 43.2965 176.971C43.9108 177.228 44.4515 177.67 44.9193 178.286V178.286ZM43.9221 179.05C43.5198 178.518 43.0032 178.239 42.3724 178.208C41.7416 178.177 41.0641 178.439 40.3451 178.996C39.6209 179.553 39.1954 180.135 39.0629 180.754C38.9303 181.372 39.068 181.945 39.4706 182.471C39.8779 183.009 40.3994 183.299 41.0249 183.33C41.6503 183.361 42.3275 183.103 43.0465 182.546C43.7708 181.99 44.2018 181.402 44.3344 180.784C44.4722 180.166 44.3348 179.588 43.9277 179.045L43.9221 179.05Z" fill="white"/>
<path d="M42.0036 169.014C42.2699 169.48 42.1656 169.852 41.6912 170.124L33.6043 174.777C33.1299 175.05 32.7648 174.956 32.5033 174.501C32.2371 174.035 32.3413 173.663 32.8157 173.391L33.3452 173.088C32.8406 173.106 32.3592 172.98 31.901 172.709C31.4429 172.439 31.0711 172.049 30.7805 171.533C30.4354 170.929 30.2785 170.312 30.3092 169.694C30.3399 169.076 30.5457 168.493 30.9321 167.941C31.3183 167.395 31.8729 166.91 32.5955 166.494C33.3182 166.077 34.0158 165.842 34.6886 165.784C35.3613 165.726 35.9661 165.848 36.5039 166.133C37.0468 166.424 37.4908 166.872 37.8356 167.481C38.1213 167.986 38.2673 168.5 38.2788 169.023C38.2904 169.546 38.1597 170.019 37.8922 170.442L40.8877 168.716C41.3621 168.443 41.732 168.548 42.0033 169.019L42.0036 169.014ZM36.9464 168.445C36.6112 167.857 36.1357 167.505 35.5194 167.399C34.9033 167.287 34.1979 167.462 33.4092 167.913C32.6203 168.37 32.1176 168.889 31.9008 169.477C31.6841 170.064 31.7459 170.654 32.0811 171.242C32.4163 171.83 32.8918 172.182 33.5025 172.293C34.1133 172.404 34.8183 172.235 35.6073 171.778C36.3963 171.322 36.9043 170.803 37.1213 170.21C37.3383 169.617 37.2819 169.027 36.9467 168.439L36.9464 168.445Z" fill="white"/>
<path d="M24.8348 163.177C24.9647 163.475 24.9893 163.734 24.9137 163.962C24.8381 164.19 24.6689 164.36 24.4003 164.481C23.8414 164.728 23.4274 164.541 23.1529 163.918C22.8837 163.296 23.0285 162.861 23.5874 162.614C24.1463 162.367 24.5603 162.555 24.8295 163.177L24.8348 163.177ZM33.6996 159.264C33.9161 159.76 33.7534 160.123 33.2111 160.36L27.4747 162.893C26.9434 163.126 26.5745 163 26.358 162.504C26.1415 162.008 26.294 161.633 26.8254 161.401L32.5618 158.868C33.0987 158.631 33.478 158.763 33.6996 159.264Z" fill="white"/>
<path d="M29.6493 148.125C29.8022 148.607 29.6362 148.927 29.1461 149.086L27.0547 149.763L27.3656 150.732C27.4816 151.094 27.6714 151.373 27.94 151.574C28.2086 151.776 28.5075 151.91 28.8421 151.969L30.5233 152.322C30.8039 152.39 30.9958 152.518 31.0993 152.701C31.2025 152.89 31.2356 153.085 31.1878 153.293C31.14 153.501 31.0352 153.668 30.8682 153.794C30.7011 153.921 30.4903 153.959 30.2358 153.903L29.001 153.626C28.7572 153.571 28.5209 153.473 28.2919 153.338C28.0628 153.202 27.8727 153.037 27.7166 152.835C27.8175 153.503 27.736 154.064 27.4719 154.525C27.2079 154.986 26.7739 155.31 26.1746 155.506C25.4829 155.731 24.8535 155.672 24.2914 155.337C23.7293 155.002 23.2946 154.366 22.9982 153.43L22.1074 150.649C21.9355 150.118 22.1191 149.766 22.6475 149.593L28.6822 147.635C28.9164 147.56 29.1198 147.565 29.2865 147.66C29.4587 147.754 29.5744 147.906 29.6442 148.119L29.6493 148.125ZM26.578 151.916L25.9981 150.104L23.3676 150.954L23.9475 152.766C24.1285 153.33 24.3776 153.709 24.6898 153.897C25.0071 154.09 25.3647 154.119 25.7731 153.988C26.1924 153.853 26.4723 153.614 26.6232 153.271C26.7742 152.928 26.7539 152.475 26.5782 151.911L26.578 151.916Z" fill="white"/>
<path d="M26.5605 134.356C26.603 134.902 26.358 135.197 25.8143 135.246L19.5235 135.779C18.9798 135.828 18.6861 135.592 18.6419 135.078C18.5978 134.564 18.8477 134.28 19.3964 134.237L25.219 133.745L24.9665 130.737L19.1439 131.229C18.6005 131.272 18.3065 131.042 18.2624 130.528C18.2182 130.014 18.4678 129.735 19.0115 129.687L24.8341 129.195L24.5816 126.186L18.759 126.678C18.2153 126.727 17.9216 126.491 17.8774 125.977C17.8333 125.463 18.0832 125.179 18.6319 125.137L24.9228 124.603C25.4664 124.555 25.7594 124.806 25.8073 125.353L26.5549 134.361L26.5605 134.356Z" fill="white"/>
<path d="M26.017 118.434C25.9845 118.982 25.6931 119.237 25.1482 119.205L18.7698 118.802C18.2248 118.769 17.9714 118.476 18.004 117.928C18.0361 117.391 18.3271 117.142 18.8721 117.174L21.3081 117.327L21.3898 116.006L18.6423 113.601C18.4362 113.435 18.3325 113.257 18.3209 113.057C18.3094 112.857 18.361 112.682 18.4757 112.531C18.585 112.381 18.7392 112.297 18.9282 112.268C19.1171 112.24 19.312 112.309 19.518 112.475L21.8245 114.481C21.9603 114.229 22.1538 114.002 22.405 113.799C22.6616 113.596 23.0042 113.387 23.4326 113.176L25.2966 112.224C25.5272 112.111 25.7317 112.094 25.9097 112.179C26.0877 112.263 26.2149 112.399 26.2863 112.58C26.3577 112.761 26.3697 112.95 26.3171 113.147C26.2644 113.344 26.1118 113.503 25.87 113.626L23.7922 114.676C23.3686 114.897 23.0789 115.12 22.9233 115.339C22.7622 115.562 22.6716 115.876 22.646 116.284L22.5747 117.396L25.2512 117.561C25.7962 117.593 26.0499 117.881 26.0178 118.418L26.017 118.434Z" fill="white"/>
<path d="M27.6817 104.335C27.5302 105.12 27.2411 105.763 26.8033 106.269C26.3709 106.776 25.8227 107.131 25.1698 107.33C24.5168 107.53 23.7818 107.547 22.9591 107.388C22.1364 107.228 21.4597 106.936 20.9288 106.511C20.3927 106.086 20.0171 105.555 19.8022 104.919C19.5872 104.284 19.5527 103.576 19.6986 102.797C19.8437 102.033 20.1323 101.401 20.57 100.895C21.0025 100.388 21.5506 100.033 22.2038 99.8284C22.8571 99.6237 23.5977 99.6012 24.415 99.7604C25.2324 99.9195 25.9091 100.212 26.4451 100.642C26.981 101.073 27.3563 101.609 27.5715 102.239C27.7864 102.875 27.8215 103.572 27.6766 104.33L27.6817 104.335ZM26.4504 104.096C26.5741 103.44 26.4417 102.868 26.0429 102.374C25.6441 101.88 25.0013 101.551 24.1096 101.378C23.218 101.204 22.4963 101.276 21.9503 101.588C21.4043 101.901 21.0694 102.385 20.9457 103.042C20.8161 103.709 20.9482 104.287 21.3417 104.78C21.7351 105.274 22.3726 105.602 23.2696 105.776C24.1613 105.949 24.8829 105.877 25.434 105.571C25.9851 105.264 26.3202 104.774 26.4498 104.107L26.4504 104.096Z" fill="white"/>
<path d="M31.5113 90.1288C31.3414 90.6376 31.0006 90.8093 30.4786 90.6379L24.9488 88.7954L24.053 91.5096L24.9546 91.8076C26.4674 92.3137 27.5865 92.8704 28.3063 93.4827C29.0262 94.0949 29.4437 94.8592 29.5485 95.7696C29.5686 96.0131 29.5157 96.2152 29.3957 96.3655C29.2703 96.5155 29.1209 96.6105 28.9427 96.6394C28.7644 96.6682 28.5947 96.6328 28.4391 96.5281C28.2836 96.4234 28.1742 96.251 28.1221 96.0059C27.9887 95.3473 27.6342 94.8233 27.0649 94.4178C26.49 94.0175 25.6146 93.6238 24.4391 93.2314L23.2214 92.826C22.6413 92.6356 22.4465 92.2434 22.6413 91.6657L23.9469 87.7111C24.1367 87.1278 24.5269 86.9317 25.1013 87.1272L31.0002 89.0905C31.5169 89.2616 31.6925 89.6098 31.522 90.1294L31.5113 90.1288Z" fill="white"/>
<path d="M34.0838 83.7584C33.8631 84.2108 33.4937 84.311 32.9757 84.059L27.216 81.2352C26.745 81.007 26.6172 80.6666 26.8324 80.2193C27.0475 79.772 27.3904 79.6651 27.8611 79.8986L32.3654 82.1051L29.3563 76.2282C29.2726 76.0786 29.2162 75.9195 29.1766 75.7451C29.1424 75.571 29.179 75.3735 29.2864 75.1525C29.5016 74.7052 29.8707 74.6104 30.3884 74.8678L36.1482 77.6916C36.6188 77.9251 36.7472 78.2548 36.5379 78.6916C36.3172 79.144 35.974 79.2563 35.4977 79.0279L31.0092 76.8275L34.0183 82.7045C34.0915 82.8482 34.1479 83.0073 34.1822 83.1814C34.2164 83.3555 34.1854 83.5479 34.0785 83.7581L34.0838 83.7584Z" fill="white"/>
<g clip-path="url(#clip1_127_1021)">
<path d="M70.0674 43.111L62.8272 30.7555L70.9589 25.9866C73.7479 24.351 76.5931 23.9469 79.6583 24.746C80.9843 25.0917 82.3649 25.665 83.8915 26.4971L84.0726 26.5941L84.0688 26.7995C84.0342 30.5906 83.3336 35.3254 78.2009 38.3355L70.0624 43.1026L70.0674 43.111ZM63.7667 31.0004L70.314 42.1648L77.8578 37.7408C82.5957 34.9622 83.3195 30.5751 83.3837 26.9981C81.9782 26.2474 80.7057 25.7236 79.4863 25.4057C76.6077 24.6553 73.9314 25.0393 71.3105 26.5764L63.7667 31.0004Z" fill="white"/>
<path d="M78.2835 24.3235L77.6895 24.6719L82.6361 33.1068L83.2301 32.7585L78.2835 24.3235Z" fill="white"/>
<path d="M73.0801 35.812C72.2072 35.5844 71.4762 35.0309 71.0247 34.2514C70.5732 33.4719 70.447 32.5637 70.6728 31.6974C70.8986 30.8312 71.4539 30.0935 72.2267 29.6402C72.9996 29.187 73.9144 29.0626 74.7807 29.2884C75.6469 29.5142 76.3846 30.0694 76.8379 30.8423C77.296 31.6235 77.4222 32.5317 77.1964 33.398C76.9706 34.2643 76.4154 35.002 75.6358 35.4535C74.8546 35.9116 73.9464 36.0378 73.0801 35.812ZM74.6087 29.9481C73.9157 29.7674 73.1915 29.8704 72.5716 30.2283C71.9499 30.5929 71.5131 31.1764 71.3325 31.8694C71.1518 32.5624 71.2548 33.2867 71.6127 33.9066C72.3369 35.1415 74.0494 35.5879 75.2843 34.8637C75.906 34.4991 76.3427 33.9156 76.5234 33.2226C76.704 32.5296 76.6011 31.8053 76.2432 31.1854C75.8786 30.5638 75.2951 30.127 74.6021 29.9463L74.6087 29.9481Z" fill="white"/>
<path d="M75.1119 32.2498L74.9395 31.9558C74.6144 31.4014 73.8947 31.2138 73.3403 31.5389L73.0462 31.7114L72.6965 31.1149L72.9905 30.9425C73.8725 30.4252 75.012 30.7222 75.5359 31.606L75.7084 31.9001L75.1119 32.2498Z" fill="white"/>
<path d="M66.3071 42.6857L61.3609 34.2515L64.5699 32.3696L69.5161 40.8038L66.3071 42.6857V42.6857ZM62.3004 34.4965L66.5471 41.7378L68.5632 40.5554L64.325 33.3092L62.3088 34.4915L62.3004 34.4965Z" fill="white"/>
<path d="M65.4455 35.3677L63.5447 36.4824L63.893 37.0764L65.7939 35.9617L65.4455 35.3677Z" fill="white"/>
<path d="M66.9765 37.98L65.0757 39.0947L65.424 39.6887L67.3249 38.574L66.9765 37.98Z" fill="white"/>
<path d="M63.2376 31.3107L60.5559 28.5763L63.2189 27.0146C63.9245 26.6008 64.7803 26.5392 65.5504 26.8609L68.629 28.1545L63.2275 31.3223L63.2376 31.3107ZM61.6635 28.7227L63.3498 30.4433L67.0965 28.246L65.2869 27.4897C64.7231 27.2502 64.0912 27.299 63.5637 27.6027L61.6568 28.721L61.6635 28.7227Z" fill="white"/>
<path d="M70.867 46.1587L69.7898 42.4834L75.1914 39.3157L74.8174 42.634C74.7257 43.4498 74.2507 44.18 73.5451 44.5938L70.8821 46.1555L70.867 46.1587ZM70.6034 42.8022L71.2817 45.1139L73.1886 43.9956C73.7095 43.6902 74.064 43.1492 74.1285 42.5469L74.3518 40.5983L70.6051 42.7955L70.6034 42.8022Z" fill="white"/>
<path d="M61.0482 42.6029C60.3819 42.4292 59.6486 42.1028 58.751 41.6696L58.5433 41.5656L58.5539 41.3336C58.7131 38.621 58.9843 37.3894 61.1097 36.143L61.4037 35.9706L61.7535 36.567L61.4594 36.7395C59.7289 37.7543 59.4168 38.5696 59.2573 41.1469C61.5844 42.2659 62.4483 42.3914 64.1789 41.3766L64.4729 41.2042L64.8227 41.8006L64.5287 41.973C63.1846 42.7613 62.2077 42.9051 61.0482 42.6029Z" fill="white"/>
<path d="M62.9507 38.5914L60.3965 40.0894L60.7448 40.6834L63.2991 39.1854L62.9507 38.5914Z" fill="white"/>
</g>
</g>
<defs>
<clipPath id="clip0_127_1021">
<rect width="208.693" height="206.179" fill="white" transform="translate(32.8792 0.89502) rotate(8.91758)"/>
</clipPath>
<clipPath id="clip1_127_1021">
<rect width="23" height="23" fill="white" transform="translate(62.7219 20.2668) rotate(14.6107)"/>
</clipPath>
</defs>
</svg>
