<svg width="394" height="324" viewBox="0 0 394 324" fill="none" xmlns="http://www.w3.org/2000/svg">
<path d="M196.149 202.988C238.833 203.987 274.249 170.017 275.253 127.114C276.257 84.2101 242.47 48.6201 199.786 47.6209C157.103 46.6217 121.687 80.5919 120.683 123.495C119.678 166.399 153.466 201.989 196.149 202.988Z" fill="url(#paint0_linear_127_1019)"/>
<g clip-path="url(#clip0_127_1019)">
<path d="M211.042 36.1585C210.494 36.072 210.264 35.748 210.351 35.1812L211.897 25.4087C211.984 24.8472 212.307 24.6046 212.855 24.6965C213.402 24.7829 213.632 25.1123 213.546 25.6737L211.999 35.4463C211.912 36.0077 211.589 36.2503 211.042 36.1585Z" fill="white"/>
<path d="M220.585 38.2327C219.807 38.0324 219.181 37.6888 218.701 37.2178C218.221 36.7413 217.901 36.1651 217.748 35.4839C217.594 34.8028 217.62 34.0552 217.832 33.2467C218.144 32.0391 218.733 31.174 219.595 30.6564C220.457 30.1388 221.47 30.0275 222.633 30.3331C222.998 30.4267 223.361 30.5794 223.73 30.7971C224.1 31.0148 224.424 31.2842 224.702 31.6266C224.839 31.7735 224.901 31.9329 224.887 32.0992C224.874 32.2656 224.807 32.4131 224.694 32.5314C224.581 32.6498 224.444 32.7184 224.288 32.7268C224.132 32.7352 223.975 32.6628 223.811 32.5091C223.609 32.2674 223.388 32.0732 223.149 31.9267C222.91 31.7801 222.674 31.6768 222.436 31.6165C221.7 31.4237 221.075 31.5058 220.553 31.8678C220.032 32.2244 219.664 32.8366 219.444 33.6878C219.225 34.5444 219.248 35.2621 219.524 35.8524C219.801 36.4426 220.301 36.8338 221.037 37.0212C221.275 37.0816 221.53 37.1104 221.804 37.1025C222.078 37.0945 222.365 37.0387 222.67 36.9299C222.882 36.8758 223.053 36.8897 223.182 36.9769C223.307 37.0639 223.386 37.1918 223.416 37.3495C223.445 37.5072 223.427 37.6626 223.36 37.8209C223.293 37.9739 223.159 38.0857 222.969 38.1463C222.575 38.2992 222.17 38.376 221.757 38.3825C221.339 38.3833 220.949 38.3424 220.59 38.2437L220.585 38.2327Z" fill="white"/>
<path d="M229.677 41.1897C229.167 40.9919 229.013 40.6395 229.204 40.1263L231.303 34.6593L229.263 33.8683C228.822 33.6956 228.681 33.4084 228.84 32.996C228.994 32.5942 229.289 32.4795 229.731 32.6469L235.32 34.8103C235.756 34.9828 235.903 35.2649 235.749 35.6668C235.589 36.0791 235.294 36.1991 234.852 36.0317L232.812 35.2407L230.719 40.708C230.522 41.2209 230.176 41.3815 229.677 41.1843L229.677 41.1897Z" fill="white"/>
<path d="M239.771 45.8558C239.072 45.4816 238.543 45.0135 238.191 44.4465C237.839 43.8794 237.661 43.2509 237.668 42.567C237.675 41.8831 237.872 41.1654 238.267 40.4254C238.658 39.6851 239.136 39.1215 239.702 38.7294C240.262 38.3423 240.878 38.1358 241.544 38.115C242.209 38.0941 242.892 38.2681 243.591 38.6423C244.27 39.0047 244.788 39.4722 245.146 40.0396C245.498 40.6067 245.676 41.2351 245.679 41.925C245.677 42.6145 245.481 43.3268 245.09 44.0671C244.7 44.8074 244.216 45.3707 243.651 45.7575C243.085 46.1443 242.464 46.3451 241.798 46.366C241.133 46.3868 240.461 46.2187 239.777 45.8561L239.771 45.8558ZM240.363 44.7429C240.947 45.0575 241.535 45.0921 242.12 44.8571C242.705 44.6222 243.213 44.0978 243.639 43.2892C244.065 42.4806 244.213 41.7713 244.077 41.1557C243.942 40.5402 243.579 40.0749 242.994 39.7657C242.399 39.4452 241.812 39.4053 241.227 39.6349C240.642 39.8644 240.14 40.3837 239.714 41.1923C239.288 42.0009 239.14 42.7155 239.27 43.3308C239.4 43.9515 239.768 44.417 240.363 44.7375L240.363 44.7429Z" fill="white"/>
<path d="M246.257 53.0585C245.822 52.7459 245.766 52.366 246.083 51.9184L251.509 44.3051C251.826 43.8575 252.199 43.7898 252.623 44.0964C253.058 44.4089 253.114 44.7889 252.797 45.2365L252.44 45.7361C252.891 45.5052 253.383 45.4219 253.91 45.475C254.438 45.5282 254.937 45.7308 255.419 46.0726C255.983 46.4777 256.381 46.9717 256.61 47.5488C256.839 48.1259 256.894 48.7429 256.77 49.3994C256.646 50.0614 256.345 50.7307 255.855 51.4123C255.366 52.0938 254.832 52.6007 254.247 52.9327C253.663 53.2646 253.061 53.4125 252.452 53.3769C251.837 53.341 251.248 53.1178 250.684 52.7072C250.213 52.3713 249.869 51.9609 249.646 51.4919C249.423 51.0228 249.345 50.534 249.407 50.0414L247.397 52.8619C247.08 53.3095 246.697 53.3713 246.252 53.0528L246.257 53.0585ZM251.095 51.456C251.643 51.8497 252.221 51.97 252.829 51.8116C253.437 51.6532 254.006 51.2019 254.536 50.4577C255.066 49.7136 255.309 49.0306 255.26 48.4031C255.211 47.781 254.914 47.2706 254.366 46.877C253.817 46.4834 253.245 46.3633 252.637 46.5163C252.034 46.6696 251.465 47.1209 250.935 47.8651C250.406 48.6092 250.162 49.2976 250.206 49.9248C250.25 50.552 250.546 51.0678 251.094 51.4614L251.095 51.456Z" fill="white"/>
<path d="M257.853 58.4566C257.453 58.0973 257.451 57.6985 257.843 57.2546L262.01 52.553C262.396 52.1196 262.789 52.0798 263.184 52.4389C263.589 52.8039 263.601 53.2032 263.22 53.6369L259.054 58.3385C258.662 58.7824 258.264 58.8165 257.853 58.4566ZM264.291 51.1846C264.05 50.9679 263.916 50.7403 263.896 50.5022C263.876 50.2642 263.957 50.0365 264.144 49.8195C264.547 49.36 265.003 49.3557 265.506 49.8063C266.009 50.257 266.056 50.7119 265.653 51.1714C265.249 51.6309 264.794 51.6352 264.291 51.1846Z" fill="white"/>
<path d="M266.148 66.8701C265.808 66.4976 265.826 66.1374 266.202 65.7844L267.825 64.2863L267.139 63.5356C266.885 63.2589 266.599 63.0831 266.27 63.0129C265.941 62.9427 265.614 62.948 265.288 63.0342L263.613 63.4198C263.332 63.4758 263.103 63.4429 262.933 63.3159C262.762 63.1889 262.653 63.0218 262.609 62.8149C262.566 62.608 262.592 62.41 262.692 62.2264C262.792 62.0428 262.965 61.9166 263.219 61.8592L264.46 61.5921C264.703 61.5396 264.961 61.5308 265.223 61.5546C265.489 61.584 265.732 61.6553 265.951 61.7686C265.583 61.2061 265.422 60.6593 265.47 60.1337C265.517 59.608 265.777 59.1306 266.243 58.6957C266.782 58.1999 267.372 57.9867 268.027 58.0569C268.678 58.127 269.333 58.5205 269.994 59.243L271.961 61.3935C272.337 61.8055 272.323 62.2035 271.913 62.5819L267.24 66.8974C267.06 67.0662 266.869 67.1429 266.677 67.128C266.484 67.1184 266.312 67.0291 266.159 66.8599L266.148 66.8701ZM267.364 62.1351L268.645 63.5403L270.678 61.6639L269.397 60.2586C269.001 59.8241 268.616 59.5841 268.254 59.5391C267.886 59.4993 267.548 59.6226 267.233 59.9141C266.908 60.2104 266.752 60.5475 266.76 60.9251C266.768 61.2973 266.968 61.7005 267.369 62.1407L267.364 62.1351Z" fill="white"/>
<path d="M274.697 78.0706C274.426 77.5938 274.53 77.2218 275.004 76.949L280.492 73.8109C280.966 73.5381 281.332 73.6263 281.583 74.0752C281.839 74.5243 281.725 74.885 281.25 75.1578L276.171 78.063L277.654 80.6852L282.733 77.78C283.208 77.5072 283.573 77.5954 283.824 78.0443C284.08 78.4935 283.966 78.8542 283.492 79.127L278.412 82.0321L279.895 84.6543L284.974 81.7492C285.449 81.4764 285.814 81.5646 286.065 82.0135C286.316 82.4624 286.207 82.8233 285.733 83.0961L280.245 86.2342C279.77 86.507 279.395 86.4022 279.129 85.9256L274.686 78.0647L274.697 78.0706Z" fill="white"/>
<path d="M281.831 92.2778C281.637 91.767 281.788 91.4082 282.302 91.2128L288.263 88.8956C288.771 88.6999 289.128 88.8523 289.322 89.3685C289.517 89.8684 289.355 90.2214 288.847 90.4171L286.568 91.3007L287.043 92.5366L290.539 93.5669C290.793 93.628 290.964 93.7497 291.057 93.9267C291.15 94.1037 291.173 94.2827 291.137 94.4695C291.101 94.6563 290.998 94.7966 290.838 94.8964C290.677 95.0016 290.467 95.0181 290.213 94.957L287.286 94.1058C287.272 94.3907 287.188 94.6775 287.04 94.9718C286.891 95.2662 286.671 95.6001 286.363 95.9727L285.065 97.6163C284.9 97.8182 284.723 97.9172 284.525 97.9128C284.327 97.9029 284.159 97.8407 284.016 97.7043C283.872 97.5678 283.784 97.4018 283.751 97.2008C283.718 96.9998 283.788 96.7931 283.959 96.5754L285.411 94.7455C285.703 94.3667 285.875 94.0465 285.926 93.7742C285.976 93.5074 285.928 93.1817 285.781 92.8026L285.382 91.7645L282.88 92.7393C282.372 92.935 282.02 92.7882 281.825 92.2829L281.831 92.2778Z" fill="white"/>
<path d="M286.171 105.78C285.984 105.006 285.982 104.3 286.164 103.651C286.351 103.009 286.695 102.46 287.21 102.006C287.721 101.552 288.385 101.224 289.194 101.027C290.002 100.825 290.742 100.808 291.404 100.975C292.066 101.137 292.628 101.462 293.087 101.948C293.545 102.434 293.872 103.064 294.059 103.833C294.242 104.586 294.239 105.286 294.057 105.929C293.87 106.572 293.526 107.126 293.01 107.585C292.5 108.045 291.84 108.373 291.027 108.57C290.213 108.772 289.478 108.784 288.817 108.616C288.155 108.449 287.593 108.119 287.129 107.633C286.671 107.147 286.348 106.527 286.166 105.774L286.171 105.78ZM287.386 105.479C287.542 106.128 287.904 106.594 288.469 106.875C289.034 107.156 289.756 107.187 290.64 106.972C291.524 106.752 292.148 106.389 292.516 105.88C292.879 105.37 292.988 104.788 292.828 104.139C292.668 103.479 292.305 103.008 291.751 102.727C291.192 102.446 290.47 102.411 289.585 102.631C288.701 102.851 288.072 103.213 287.704 103.728C287.335 104.243 287.226 104.825 287.386 105.485L287.386 105.479Z" fill="white"/>
<path d="M288.569 120.296C288.51 119.76 288.755 119.465 289.294 119.405L295.086 118.766L294.777 115.928L293.834 116.032C292.25 116.206 290.998 116.165 290.089 115.91C289.18 115.655 288.487 115.136 288.012 114.352C287.894 114.136 287.856 113.935 287.908 113.749C287.955 113.557 288.059 113.412 288.208 113.311C288.358 113.206 288.526 113.171 288.712 113.196C288.899 113.222 289.07 113.338 289.22 113.539C289.611 114.082 290.152 114.415 290.837 114.536C291.523 114.661 292.482 114.655 293.721 114.517L294.998 114.376C295.602 114.309 295.942 114.579 296.008 115.191L296.462 119.33C296.528 119.942 296.259 120.279 295.65 120.346L289.475 121.031C288.931 121.09 288.632 120.849 288.574 120.302L288.569 120.296Z" fill="white"/>
<path d="M288.87 127.17C288.879 126.664 289.176 126.42 289.754 126.433L296.161 126.579C296.686 126.588 296.941 126.844 296.932 127.339C296.918 127.834 296.655 128.074 296.13 128.064L291.12 127.95L296.292 132.022C296.427 132.12 296.549 132.244 296.655 132.384C296.76 132.524 296.81 132.721 296.803 132.968C296.794 133.464 296.498 133.702 295.92 133.69L289.513 133.544C288.988 133.534 288.733 133.284 288.741 132.8C288.75 132.294 289.019 132.048 289.544 132.058L294.538 132.172L289.365 128.1C289.236 128.002 289.125 127.878 289.019 127.738C288.913 127.598 288.864 127.407 288.87 127.17Z" fill="white"/>
<path d="M279.999 167.582C280.238 167.076 280.609 166.944 281.122 167.19L290.022 171.415C290.536 171.656 290.672 172.034 290.433 172.54C290.193 173.045 289.822 173.178 289.309 172.931L280.409 168.707C279.896 168.46 279.76 168.087 279.999 167.582Z" fill="white"/>
<path d="M275.342 176.208C275.752 175.518 276.254 175.004 276.844 174.672C277.434 174.34 278.074 174.194 278.768 174.24C279.463 174.274 280.164 174.514 280.882 174.943C281.949 175.583 282.605 176.391 282.862 177.374C283.119 178.357 282.935 179.36 282.321 180.397C282.128 180.721 281.876 181.032 281.572 181.329C281.263 181.627 280.908 181.862 280.508 182.036C280.327 182.13 280.16 182.143 280.002 182.081C279.845 182.019 279.726 181.917 279.643 181.772C279.559 181.628 279.534 181.481 279.574 181.327C279.608 181.173 279.722 181.038 279.915 180.929C280.205 180.804 280.449 180.643 280.657 180.454C280.864 180.265 281.03 180.063 281.158 179.849C281.55 179.195 281.645 178.564 281.445 177.961C281.25 177.359 280.772 176.834 280.017 176.381C279.263 175.929 278.57 175.755 277.927 175.852C277.29 175.95 276.773 176.328 276.386 176.988C276.258 177.202 276.16 177.44 276.093 177.706C276.021 177.972 275.996 178.267 276.017 178.591C276.006 178.812 275.945 178.97 275.827 179.072C275.705 179.168 275.569 179.21 275.408 179.197C275.248 179.183 275.107 179.122 274.973 179.013C274.844 178.905 274.777 178.751 274.776 178.546C274.738 178.124 274.78 177.711 274.891 177.307C275.003 176.903 275.16 176.544 275.353 176.22L275.342 176.208Z" fill="white"/>
<path d="M269.969 184.164C270.302 183.728 270.685 183.677 271.119 184.005L275.754 187.555L277.079 185.81C277.366 185.431 277.679 185.376 278.03 185.647C278.371 185.906 278.398 186.226 278.111 186.605L274.481 191.398C274.194 191.777 273.881 191.831 273.54 191.572C273.189 191.307 273.157 190.982 273.443 190.608L274.768 188.863L270.132 185.314C269.698 184.98 269.642 184.6 269.969 184.175L269.969 184.164Z" fill="white"/>
<path d="M262.691 192.612C263.244 192.041 263.836 191.661 264.478 191.478C265.119 191.294 265.767 191.299 266.422 191.493C267.077 191.687 267.701 192.079 268.299 192.664C268.897 193.249 269.305 193.867 269.519 194.519C269.733 195.171 269.76 195.819 269.594 196.468C269.428 197.117 269.071 197.729 268.517 198.3C267.98 198.855 267.389 199.225 266.752 199.414C266.111 199.598 265.463 199.592 264.802 199.403C264.147 199.209 263.518 198.822 262.92 198.238C262.322 197.653 261.919 197.035 261.705 196.378C261.497 195.721 261.47 195.067 261.636 194.418C261.802 193.769 262.154 193.167 262.691 192.612ZM263.59 193.486C263.127 193.964 262.928 194.52 262.988 195.148C263.048 195.776 263.407 196.414 264.062 197.05C264.716 197.686 265.353 198.024 265.978 198.066C266.603 198.108 267.15 197.887 267.607 197.409C268.076 196.92 268.281 196.365 268.226 195.737C268.166 195.109 267.812 194.477 267.158 193.841C266.503 193.205 265.867 192.861 265.236 192.819C264.606 192.777 264.059 192.998 263.591 193.481L263.59 193.486Z" fill="white"/>
<path d="M253.995 196.889C254.413 196.554 254.797 196.606 255.134 197.037L260.9 204.387C261.237 204.819 261.203 205.194 260.79 205.524C260.371 205.859 259.988 205.808 259.65 205.376L259.272 204.894C259.365 205.394 259.314 205.893 259.112 206.389C258.911 206.88 258.584 207.311 258.121 207.681C257.575 208.112 256.994 208.364 256.38 208.425C255.766 208.486 255.161 208.364 254.565 208.065C253.969 207.766 253.409 207.286 252.895 206.625C252.376 205.963 252.044 205.305 251.889 204.651C251.735 203.991 251.76 203.373 251.966 202.791C252.171 202.208 252.55 201.704 253.092 201.268C253.544 200.908 254.032 200.684 254.539 200.601C255.047 200.519 255.537 200.576 255.994 200.776L253.857 198.051C253.519 197.62 253.565 197.234 253.995 196.894L253.995 196.889ZM254.18 202.006C253.65 202.427 253.378 202.952 253.362 203.582C253.347 204.212 253.619 204.888 254.184 205.606C254.748 206.323 255.333 206.746 255.943 206.873C256.553 207 257.123 206.851 257.653 206.43C258.183 206.009 258.455 205.489 258.476 204.86C258.496 204.236 258.224 203.559 257.659 202.842C257.095 202.124 256.51 201.702 255.895 201.569C255.28 201.436 254.71 201.585 254.181 202.001L254.18 202.006Z" fill="white"/>
<path d="M245.62 206.592C246.074 206.302 246.454 206.413 246.772 206.913L250.109 212.241C250.417 212.73 250.344 213.12 249.89 213.41C249.431 213.705 249.044 213.605 248.737 213.11L245.4 207.783C245.087 207.282 245.161 206.887 245.62 206.592ZM250.784 214.823C251.055 214.653 251.311 214.585 251.544 214.629C251.778 214.673 251.975 214.812 252.128 215.062C252.456 215.579 252.333 216.02 251.762 216.385C251.193 216.745 250.746 216.669 250.418 216.152C250.09 215.634 250.214 215.193 250.784 214.828L250.784 214.823Z" fill="white"/>
<path d="M235.274 212.28C235.724 212.054 236.061 212.173 236.29 212.637L237.269 214.62L238.175 214.169C238.511 214.003 238.758 213.773 238.917 213.474C239.077 213.18 239.162 212.861 239.174 212.516L239.27 210.792C239.295 210.502 239.392 210.291 239.559 210.159C239.726 210.028 239.917 209.967 240.125 209.983C240.333 209.993 240.517 210.078 240.665 210.225C240.813 210.373 240.883 210.575 240.87 210.833L240.78 212.106C240.763 212.358 240.702 212.603 240.604 212.852C240.506 213.1 240.367 213.314 240.197 213.499C240.839 213.3 241.407 213.295 241.896 213.487C242.385 213.678 242.773 214.064 243.05 214.632C243.377 215.29 243.41 215.922 243.165 216.529C242.915 217.142 242.359 217.664 241.485 218.1L238.88 219.404C238.38 219.654 238.006 219.528 237.763 219.025L234.944 213.314C234.837 213.093 234.815 212.893 234.877 212.707C234.94 212.522 235.076 212.383 235.279 212.28L235.274 212.28ZM239.459 214.767L237.761 215.614L238.988 218.1L240.686 217.252C241.213 216.987 241.55 216.686 241.69 216.343C241.83 216 241.805 215.638 241.616 215.251C241.421 214.853 241.144 214.608 240.784 214.515C240.425 214.416 239.981 214.502 239.453 214.766L239.459 214.767Z" fill="white"/>
<path d="M222.195 217.417C222.726 217.293 223.054 217.492 223.183 218.026L224.639 224.198C224.768 224.732 224.581 225.057 224.076 225.178C223.577 225.298 223.261 225.089 223.137 224.555L221.787 218.835L218.864 219.536L220.214 225.255C220.343 225.79 220.156 226.114 219.651 226.235C219.152 226.356 218.836 226.146 218.712 225.612L217.362 219.893L214.439 220.593L215.789 226.312C215.918 226.847 215.73 227.172 215.226 227.292C214.727 227.413 214.41 227.203 214.287 226.669L212.83 220.497C212.702 219.963 212.905 219.634 213.437 219.504L222.185 217.411L222.195 217.417Z" fill="white"/>
<path d="M206.612 220.329C207.156 220.28 207.449 220.532 207.496 221.078L208.036 227.479C208.084 228.026 207.833 228.321 207.29 228.369C206.757 228.413 206.469 228.167 206.422 227.615L206.216 225.169L204.903 225.282L202.938 228.368C202.809 228.594 202.642 228.726 202.447 228.764C202.252 228.803 202.071 228.778 201.91 228.689C201.748 228.6 201.637 228.465 201.587 228.28C201.532 228.094 201.574 227.891 201.704 227.661L203.338 225.075C203.075 224.981 202.82 224.817 202.579 224.595C202.338 224.373 202.086 224.064 201.816 223.663L200.61 221.954C200.465 221.742 200.421 221.541 200.479 221.35C200.537 221.159 200.651 221.019 200.822 220.914C200.993 220.815 201.177 220.775 201.374 220.801C201.577 220.828 201.753 220.955 201.913 221.178L203.249 223.087C203.53 223.473 203.791 223.729 204.031 223.854C204.271 223.979 204.596 224.022 204.999 223.988L206.103 223.892L205.877 221.208C205.829 220.662 206.074 220.367 206.607 220.318L206.612 220.329Z" fill="white"/>
<path d="M192.514 220.749C193.305 220.778 193.982 220.962 194.548 221.319C195.115 221.676 195.546 222.155 195.843 222.774C196.139 223.392 196.274 224.12 196.243 224.959C196.218 225.799 196.032 226.517 195.697 227.114C195.362 227.712 194.9 228.169 194.31 228.484C193.721 228.8 193.034 228.943 192.242 228.915C191.472 228.887 190.801 228.698 190.239 228.347C189.678 227.996 189.241 227.51 188.94 226.892C188.638 226.274 188.503 225.545 188.528 224.706C188.554 223.866 188.74 223.148 189.08 222.551C189.421 221.954 189.888 221.497 190.477 221.182C191.066 220.866 191.743 220.722 192.514 220.749ZM192.473 222.008C191.809 221.986 191.267 222.212 190.842 222.681C190.417 223.151 190.195 223.845 190.16 224.76C190.131 225.674 190.31 226.378 190.698 226.872C191.087 227.365 191.615 227.623 192.278 227.645C192.952 227.668 193.499 227.447 193.924 226.983C194.349 226.519 194.571 225.83 194.606 224.916C194.635 224.001 194.456 223.297 194.068 222.799C193.68 222.3 193.146 222.042 192.472 222.019L192.473 222.008Z" fill="white"/>
<path d="M177.958 219.057C178.484 219.147 178.704 219.465 178.607 220.005L177.618 225.78L180.418 226.264L180.578 225.324C180.849 223.742 181.235 222.549 181.731 221.739C182.227 220.928 182.917 220.402 183.792 220.16C184.031 220.102 184.233 220.123 184.4 220.222C184.566 220.322 184.678 220.457 184.739 220.633C184.794 220.808 184.786 220.98 184.707 221.154C184.629 221.328 184.473 221.455 184.243 221.551C183.615 221.778 183.149 222.213 182.839 222.839C182.529 223.47 182.269 224.4 182.058 225.629L181.839 226.9C181.734 227.504 181.384 227.756 180.784 227.651L176.703 226.947C176.103 226.842 175.852 226.49 175.957 225.886L177.013 219.732C177.104 219.192 177.421 218.965 177.957 219.062L177.958 219.057Z" fill="white"/>
<path d="M144.972 205.187C145.433 205.501 145.505 205.893 145.192 206.368L139.709 214.587C139.391 215.061 139.007 215.139 138.54 214.831C138.078 214.517 138.007 214.125 138.319 213.65L143.802 205.431C144.121 204.957 144.51 204.879 144.972 205.187Z" fill="white"/>
<path d="M137.174 199.278C137.797 199.788 138.224 200.364 138.46 200.996C138.697 201.627 138.744 202.287 138.603 202.969C138.462 203.652 138.124 204.319 137.593 204.967C136.806 205.93 135.911 206.467 134.909 206.574C133.907 206.68 132.943 206.352 132.016 205.589C131.728 205.349 131.458 205.055 131.213 204.704C130.968 204.352 130.789 203.966 130.676 203.54C130.611 203.348 130.625 203.177 130.702 203.029C130.784 202.883 130.907 202.781 131.06 202.719C131.213 202.656 131.363 202.658 131.51 202.714C131.658 202.77 131.769 202.905 131.85 203.108C131.931 203.414 132.052 203.684 132.206 203.912C132.361 204.146 132.534 204.338 132.724 204.498C133.311 204.986 133.918 205.172 134.534 205.063C135.15 204.953 135.743 204.562 136.302 203.879C136.861 203.195 137.135 202.53 137.136 201.878C137.131 201.226 136.837 200.662 136.25 200.175C136.06 200.02 135.841 199.885 135.59 199.775C135.338 199.666 135.052 199.598 134.732 199.571C134.514 199.533 134.368 199.445 134.289 199.312C134.21 199.179 134.19 199.032 134.23 198.878C134.27 198.724 134.352 198.588 134.475 198.475C134.599 198.363 134.767 198.323 134.964 198.343C135.386 198.37 135.783 198.47 136.16 198.645C136.537 198.82 136.87 199.025 137.164 199.261L137.174 199.278Z" fill="white"/>
<path d="M130.15 192.765C130.533 193.161 130.524 193.548 130.136 193.928L125.956 198.015L127.481 199.588C127.807 199.928 127.817 200.251 127.502 200.559C127.198 200.856 126.877 200.841 126.551 200.501L122.376 196.188C122.05 195.849 122.039 195.53 122.344 195.227C122.659 194.92 122.98 194.936 123.306 195.275L124.83 196.849L129.009 192.762C129.403 192.377 129.784 192.38 130.156 192.765L130.15 192.765Z" fill="white"/>
<path d="M122.919 184.286C123.402 184.919 123.681 185.568 123.771 186.23C123.856 186.892 123.754 187.539 123.466 188.16C123.178 188.782 122.7 189.345 122.037 189.856C121.374 190.368 120.705 190.679 120.034 190.797C119.364 190.914 118.719 190.845 118.105 190.583C117.491 190.326 116.945 189.878 116.462 189.245C115.994 188.63 115.715 187.991 115.631 187.324C115.546 186.662 115.642 186.015 115.93 185.388C116.219 184.761 116.692 184.192 117.355 183.686C118.017 183.18 118.687 182.863 119.362 182.751C120.038 182.639 120.682 182.715 121.297 182.971C121.911 183.228 122.452 183.67 122.919 184.286ZM121.922 185.05C121.52 184.518 121.003 184.239 120.372 184.208C119.742 184.177 119.064 184.439 118.345 184.996C117.621 185.553 117.195 186.135 117.063 186.754C116.93 187.372 117.068 187.945 117.471 188.471C117.878 189.009 118.399 189.299 119.025 189.33C119.65 189.361 120.328 189.103 121.046 188.546C121.771 187.99 122.202 187.402 122.334 186.784C122.472 186.166 122.335 185.588 121.928 185.045L121.922 185.05Z" fill="white"/>
<path d="M120.004 175.014C120.27 175.48 120.166 175.852 119.691 176.124L111.604 180.777C111.13 181.05 110.765 180.956 110.503 180.501C110.237 180.035 110.341 179.663 110.816 179.391L111.345 179.088C110.841 179.106 110.359 178.98 109.901 178.709C109.443 178.439 109.071 178.049 108.781 177.533C108.435 176.929 108.279 176.312 108.309 175.694C108.34 175.076 108.546 174.493 108.932 173.941C109.318 173.395 109.873 172.91 110.596 172.494C111.318 172.077 112.016 171.842 112.689 171.784C113.361 171.726 113.966 171.848 114.504 172.133C115.047 172.424 115.491 172.872 115.836 173.481C116.121 173.986 116.267 174.5 116.279 175.023C116.29 175.546 116.16 176.019 115.892 176.442L118.888 174.716C119.362 174.443 119.732 174.548 120.003 175.019L120.004 175.014ZM114.946 174.445C114.611 173.857 114.136 173.505 113.519 173.399C112.903 173.287 112.198 173.462 111.409 173.913C110.62 174.37 110.118 174.889 109.901 175.477C109.684 176.064 109.746 176.654 110.081 177.242C110.416 177.83 110.892 178.182 111.503 178.293C112.113 178.404 112.818 178.235 113.607 177.778C114.396 177.322 114.904 176.803 115.121 176.21C115.338 175.617 115.282 175.027 114.947 174.439L114.946 174.445Z" fill="white"/>
<path d="M102.835 169.177C102.965 169.475 102.989 169.734 102.914 169.962C102.838 170.19 102.669 170.36 102.4 170.481C101.841 170.728 101.427 170.541 101.153 169.918C100.884 169.296 101.029 168.861 101.587 168.614C102.146 168.367 102.56 168.555 102.829 169.177L102.835 169.177ZM111.7 165.264C111.916 165.76 111.753 166.123 111.211 166.36L105.475 168.893C104.943 169.126 104.575 169 104.358 168.504C104.141 168.008 104.294 167.633 104.825 167.401L110.562 164.868C111.099 164.631 111.478 164.763 111.7 165.264Z" fill="white"/>
<path d="M107.649 154.125C107.802 154.607 107.636 154.927 107.146 155.086L105.055 155.763L105.366 156.732C105.482 157.094 105.671 157.373 105.94 157.574C106.209 157.776 106.507 157.91 106.842 157.969L108.523 158.322C108.804 158.39 108.996 158.518 109.099 158.701C109.202 158.89 109.236 159.085 109.188 159.293C109.14 159.501 109.035 159.668 108.868 159.794C108.701 159.921 108.49 159.959 108.236 159.903L107.001 159.626C106.757 159.571 106.521 159.473 106.292 159.338C106.063 159.202 105.873 159.037 105.717 158.835C105.817 159.503 105.736 160.064 105.472 160.525C105.208 160.986 104.774 161.31 104.175 161.506C103.483 161.731 102.853 161.672 102.291 161.337C101.729 161.002 101.295 160.366 100.998 159.43L100.107 156.649C99.9355 156.118 100.119 155.766 100.648 155.593L106.682 153.635C106.916 153.56 107.12 153.565 107.287 153.66C107.459 153.754 107.574 153.906 107.644 154.119L107.649 154.125ZM104.578 157.916L103.998 156.104L101.368 156.954L101.947 158.766C102.128 159.33 102.378 159.709 102.69 159.897C103.007 160.09 103.365 160.119 103.773 159.988C104.192 159.853 104.472 159.614 104.623 159.271C104.774 158.928 104.754 158.475 104.578 157.911L104.578 157.916Z" fill="white"/>
<path d="M104.561 140.356C104.603 140.902 104.358 141.197 103.814 141.246L97.5235 141.779C96.9798 141.828 96.6861 141.592 96.6419 141.078C96.5978 140.564 96.8477 140.28 97.3964 140.237L103.219 139.745L102.966 136.737L97.1439 137.229C96.6005 137.272 96.3065 137.042 96.2624 136.528C96.2182 136.014 96.4678 135.735 97.0115 135.687L102.834 135.195L102.582 132.186L96.759 132.678C96.2153 132.727 95.9216 132.491 95.8774 131.977C95.8333 131.463 96.0832 131.179 96.6319 131.137L102.923 130.603C103.466 130.555 103.759 130.806 103.807 131.353L104.555 140.361L104.561 140.356Z" fill="white"/>
<path d="M104.017 124.434C103.984 124.982 103.693 125.237 103.148 125.205L96.7698 124.802C96.2248 124.769 95.9714 124.476 96.004 123.928C96.0361 123.391 96.3271 123.142 96.8721 123.174L99.3081 123.327L99.3898 122.006L96.6423 119.601C96.4362 119.435 96.3325 119.257 96.3209 119.057C96.3094 118.857 96.361 118.682 96.4757 118.531C96.585 118.381 96.7392 118.297 96.9282 118.268C97.1171 118.24 97.312 118.309 97.518 118.475L99.8245 120.481C99.9603 120.229 100.154 120.002 100.405 119.799C100.662 119.596 101.004 119.387 101.433 119.176L103.297 118.224C103.527 118.111 103.732 118.094 103.91 118.179C104.088 118.263 104.215 118.399 104.286 118.58C104.358 118.761 104.37 118.95 104.317 119.147C104.264 119.344 104.112 119.503 103.87 119.626L101.792 120.676C101.369 120.897 101.079 121.12 100.923 121.339C100.762 121.562 100.672 121.876 100.646 122.284L100.575 123.396L103.251 123.561C103.796 123.593 104.05 123.881 104.018 124.418L104.017 124.434Z" fill="white"/>
<path d="M105.682 110.335C105.53 111.12 105.241 111.763 104.803 112.269C104.371 112.776 103.823 113.131 103.17 113.33C102.517 113.53 101.782 113.547 100.959 113.388C100.136 113.228 99.4597 112.936 98.9288 112.511C98.3927 112.086 98.0171 111.555 97.8022 110.919C97.5872 110.284 97.5527 109.576 97.6986 108.797C97.8437 108.033 98.1323 107.401 98.57 106.895C99.0025 106.388 99.5506 106.033 100.204 105.828C100.857 105.624 101.598 105.601 102.415 105.76C103.232 105.919 103.909 106.212 104.445 106.642C104.981 107.073 105.356 107.609 105.571 108.239C105.786 108.875 105.821 109.572 105.677 110.33L105.682 110.335ZM104.45 110.096C104.574 109.44 104.442 108.868 104.043 108.374C103.644 107.88 103.001 107.551 102.11 107.378C101.218 107.204 100.496 107.276 99.9503 107.588C99.4043 107.901 99.0694 108.385 98.9457 109.042C98.8161 109.709 98.9482 110.287 99.3417 110.78C99.7351 111.274 100.373 111.602 101.27 111.776C102.161 111.949 102.883 111.877 103.434 111.571C103.985 111.264 104.32 110.774 104.45 110.107L104.45 110.096Z" fill="white"/>
<path d="M109.511 96.1288C109.341 96.6376 109.001 96.8093 108.479 96.6379L102.949 94.7954L102.053 97.5096L102.955 97.8076C104.467 98.3137 105.587 98.8704 106.306 99.4827C107.026 100.095 107.444 100.859 107.549 101.77C107.569 102.013 107.516 102.215 107.396 102.366C107.27 102.516 107.121 102.61 106.943 102.639C106.764 102.668 106.595 102.633 106.439 102.528C106.284 102.423 106.174 102.251 106.122 102.006C105.989 101.347 105.634 100.823 105.065 100.418C104.49 100.017 103.615 99.6238 102.439 99.2314L101.221 98.826C100.641 98.6356 100.446 98.2434 100.641 97.6657L101.947 93.7111C102.137 93.1278 102.527 92.9317 103.101 93.1272L109 95.0905C109.517 95.2616 109.692 95.6098 109.522 96.1294L109.511 96.1288Z" fill="white"/>
<path d="M112.084 89.7584C111.863 90.2108 111.494 90.311 110.976 90.059L105.216 87.2352C104.745 87.007 104.617 86.6666 104.832 86.2193C105.048 85.772 105.39 85.6651 105.861 85.8986L110.365 88.1051L107.356 82.2282C107.273 82.0786 107.216 81.9195 107.177 81.7451C107.142 81.571 107.179 81.3735 107.286 81.1525C107.502 80.7052 107.871 80.6104 108.388 80.8678L114.148 83.6916C114.619 83.9251 114.747 84.2548 114.538 84.6916C114.317 85.144 113.974 85.2563 113.498 85.0279L109.009 82.8275L112.018 88.7045C112.092 88.8482 112.148 89.0073 112.182 89.1814C112.216 89.3555 112.185 89.5479 112.078 89.7581L112.084 89.7584Z" fill="white"/>
<g clip-path="url(#clip1_127_1019)">
<path d="M148.067 49.111L140.827 36.7555L148.959 31.9866C151.748 30.351 154.593 29.9469 157.658 30.746C158.984 31.0917 160.365 31.665 161.891 32.4971L162.073 32.5941L162.069 32.7995C162.034 36.5906 161.334 41.3254 156.201 44.3355L148.062 49.1026L148.067 49.111ZM141.767 37.0004L148.314 48.1648L155.858 43.7408C160.596 40.9622 161.319 36.5751 161.384 32.9981C159.978 32.2474 158.706 31.7236 157.486 31.4057C154.608 30.6553 151.931 31.0393 149.31 32.5764L141.767 37.0004Z" fill="white"/>
<path d="M156.283 30.3235L155.689 30.6719L160.636 39.1068L161.23 38.7585L156.283 30.3235Z" fill="white"/>
<path d="M151.08 41.812C150.207 41.5844 149.476 41.0309 149.025 40.2514C148.573 39.4719 148.447 38.5637 148.673 37.6974C148.899 36.8312 149.454 36.0935 150.227 35.6402C151 35.187 151.914 35.0626 152.781 35.2884C153.647 35.5142 154.385 36.0694 154.838 36.8423C155.296 37.6235 155.422 38.5317 155.196 39.398C154.971 40.2643 154.415 41.002 153.636 41.4535C152.855 41.9116 151.946 42.0378 151.08 41.812ZM152.609 35.9481C151.916 35.7674 151.191 35.8704 150.572 36.2283C149.95 36.5929 149.513 37.1764 149.332 37.8694C149.152 38.5624 149.255 39.2867 149.613 39.9066C150.337 41.1415 152.049 41.5879 153.284 40.8637C153.906 40.4991 154.343 39.9156 154.523 39.2226C154.704 38.5296 154.601 37.8053 154.243 37.1854C153.879 36.5638 153.295 36.127 152.602 35.9463L152.609 35.9481Z" fill="white"/>
<path d="M153.112 38.2498L152.94 37.9558C152.614 37.4014 151.895 37.2138 151.34 37.5389L151.046 37.7114L150.696 37.1149L150.99 36.9425C151.873 36.4252 153.012 36.7222 153.536 37.606L153.708 37.9001L153.112 38.2498Z" fill="white"/>
<path d="M144.307 48.6857L139.361 40.2515L142.57 38.3696L147.516 46.8038L144.307 48.6857ZM140.3 40.4965L144.547 47.7378L146.563 46.5554L142.325 39.3092L140.309 40.4915L140.3 40.4965Z" fill="white"/>
<path d="M143.446 41.3677L141.545 42.4824L141.893 43.0764L143.794 41.9617L143.446 41.3677Z" fill="white"/>
<path d="M144.977 43.98L143.076 45.0947L143.424 45.6887L145.325 44.574L144.977 43.98Z" fill="white"/>
<path d="M141.238 37.3107L138.556 34.5763L141.219 33.0146C141.925 32.6008 142.78 32.5392 143.55 32.8609L146.629 34.1545L141.227 37.3223L141.238 37.3107ZM139.663 34.7227L141.35 36.4433L145.097 34.246L143.287 33.4897C142.723 33.2502 142.091 33.299 141.564 33.6027L139.657 34.721L139.663 34.7227Z" fill="white"/>
<path d="M148.867 52.1587L147.79 48.4834L153.191 45.3157L152.817 48.634C152.726 49.4498 152.251 50.18 151.545 50.5938L148.882 52.1555L148.867 52.1587ZM148.603 48.8022L149.282 51.1139L151.189 49.9956C151.709 49.6902 152.064 49.1492 152.128 48.5469L152.352 46.5983L148.605 48.7955L148.603 48.8022Z" fill="white"/>
<path d="M139.048 48.6029C138.382 48.4292 137.649 48.1028 136.751 47.6696L136.543 47.5656L136.554 47.3336C136.713 44.621 136.984 43.3894 139.11 42.143L139.404 41.9706L139.753 42.567L139.459 42.7395C137.729 43.7543 137.417 44.5696 137.257 47.1469C139.584 48.2659 140.448 48.3914 142.179 47.3766L142.473 47.2042L142.823 47.8006L142.529 47.973C141.185 48.7613 140.208 48.9051 139.048 48.6029Z" fill="white"/>
<path d="M140.951 44.5914L138.396 46.0894L138.745 46.6834L141.299 45.1854L140.951 44.5914Z" fill="white"/>
</g>
</g>
<path d="M198 117.242C192.113 117.242 186.816 113.309 185.134 107.659L184.794 106.515L211.206 106.515L210.866 107.659C209.184 113.291 203.887 117.242 198 117.242ZM187.263 108.303C189.053 112.576 193.312 115.455 198 115.455C202.688 115.455 206.947 112.576 208.737 108.303L187.263 108.303Z" fill="white"/>
<path d="M211.206 153L184.794 153L185.134 151.856C186.816 146.224 192.113 142.273 198 142.273C203.887 142.273 209.184 146.206 210.866 151.856L211.206 153ZM187.263 151.212L208.737 151.212C206.947 146.939 202.688 144.061 198 144.061C193.312 144.061 189.053 146.939 187.263 151.212Z" fill="white"/>
<path d="M215 153L181 153L181 143.167C181 137.356 183.935 132.01 188.838 128.882C190.645 127.719 191.737 125.842 191.737 123.84L191.737 123.16C191.737 121.176 190.645 119.281 188.838 118.118C183.935 114.972 181 109.644 181 103.833L181 94L215 94L215 103.833C215 109.644 212.065 114.972 207.162 118.118C205.355 119.281 204.263 121.158 204.263 123.16L204.263 123.84C204.263 125.824 205.355 127.702 207.162 128.882C212.065 132.028 215 137.374 215 143.167L215 153ZM182.789 151.212L213.211 151.212L213.211 143.167C213.211 137.982 210.58 133.19 206.196 130.383C203.869 128.899 202.474 126.45 202.474 123.84L202.474 123.16C202.474 120.55 203.869 118.118 206.196 116.617C210.58 113.81 213.211 109.018 213.211 103.833L213.211 95.7879L182.789 95.7879L182.789 103.833C182.789 109.018 185.402 113.81 189.804 116.617C192.131 118.118 193.526 120.55 193.526 123.16L193.526 123.84C193.526 126.45 192.131 128.882 189.804 130.383C185.42 133.19 182.789 137.982 182.789 143.167L182.789 151.212Z" fill="white"/>
<path d="M198.895 119.03L197.105 119.03L197.105 135.121L198.895 135.121L198.895 119.03Z" fill="white"/>
<path d="M198.895 136.909L197.105 136.909L197.105 140.485L198.895 140.485L198.895 136.909Z" fill="white"/>
<defs>
<linearGradient id="paint0_linear_127_1019" x1="189.424" y1="47.3783" x2="139.355" y2="175.015" gradientUnits="userSpaceOnUse">
<stop stop-color="#FFF507"/>
<stop offset="0.883333" stop-color="#117FFF"/>
</linearGradient>
<clipPath id="clip0_127_1019">
<rect width="208.693" height="206.179" fill="white" transform="translate(110.879 6.89502) rotate(8.91758)"/>
</clipPath>
<clipPath id="clip1_127_1019">
<rect width="23" height="23" fill="white" transform="translate(140.722 26.2668) rotate(14.6107)"/>
</clipPath>
</defs>
</svg>
