<svg width="28" height="28" viewBox="0 0 28 28" fill="white" xmlns="http://www.w3.org/2000/svg">
<path fill-rule="evenodd" clip-rule="evenodd" d="M21.6008 1.90596H6.35317C3.89704 1.90596 1.90596 3.89704 1.90596 6.35318V21.6008C1.90596 24.057 3.89704 26.0481 6.35318 26.0481H21.6008C24.057 26.0481 26.0481 24.057 26.0481 21.6008V6.35317C26.0481 3.89704 24.057 1.90596 21.6008 1.90596ZM6.35317 0C2.84441 0 0 2.84441 0 6.35318V21.6008C0 25.1096 2.84441 27.954 6.35318 27.954H21.6008C25.1096 27.954 27.954 25.1096 27.954 21.6008V6.35317C27.954 2.84441 25.1096 0 21.6008 0H6.35317Z" />
<path d="M15.6852 5.12917C14.9657 5.31829 14.4485 5.60847 13.8552 6.17649C13.0222 6.98418 12.8075 7.71641 12.7194 10.0135L12.6563 11.9443H11.6086H10.5483V13.5849V15.2256H11.6213H12.6942L12.7194 20.678L12.7573 26.143L14.8144 26.1807L16.8592 26.2061V20.7158V15.2256H18.4873H20.1153L20.1911 14.8722C20.2289 14.6828 20.292 13.9509 20.3426 13.2316L20.4183 11.9443H18.6388H16.8592V10.758C16.8592 9.38231 16.9981 8.89005 17.4525 8.6504C17.7806 8.47358 18.7273 8.42338 19.7622 8.53672L20.3303 8.59988L20.57 7.05997C20.7089 6.20175 20.7847 5.46985 20.7341 5.43196C20.456 5.1418 16.5308 4.91445 15.6852 5.12917Z" />
</svg>
