<svg width="39" height="39" viewBox="0 0 39 39" fill="none" xmlns="http://www.w3.org/2000/svg">
<mask id="mask0_302_47" style="mask-type:alpha" maskUnits="userSpaceOnUse" x="0" y="0" width="39" height="39">
<circle cx="19.5" cy="19.5" r="19.5" fill="#D9D9D9"/>
</mask>
<g mask="url(#mask0_302_47)">
<path d="M-7 19.5C-7 8.73045 1.73045 0 12.5 0H25.5C36.2696 0 45 8.73045 45 19.5C45 30.2696 36.2696 39 25.5 39H12.5C1.73045 39 -7 30.2696 -7 19.5Z" fill="#117FFF"/>
<path d="M-2.41965 0C-1.43684 0 -0.480104 0.316116 0.309231 0.901648L5.24442 4.56259C13.3621 10.5843 24.4673 10.5734 32.5731 4.53573L37.3971 0.942528C38.2187 0.33055 39.2159 0 40.2403 0H41.6454C43.4981 0 45 1.5019 45 3.3546C45 4.41363 44.4999 5.41048 43.651 6.04364L39.6601 9.0202C32.6038 14.283 32.618 24.8604 39.6884 30.1043L43.6671 33.0552C44.5056 33.6771 45 34.6593 45 35.7032C45 37.524 43.524 39 41.7032 39H40.1196C39.068 39 38.0447 38.6604 37.2018 38.0317L32.4541 34.4907C24.4757 28.5402 13.5324 28.5512 5.56605 34.5177L0.89706 38.0145C0.0429063 38.6542 -0.995529 39 -2.06269 39H-3.75454C-5.54696 39 -7 37.547 -7 35.7545C-7 34.7292 -6.51544 33.7641 -5.69309 33.1517L-1.71479 30.1887C5.33216 24.9404 5.33216 14.3846 -1.71479 9.13627L-5.60597 6.23823C-6.48314 5.58494 -7 4.55554 -7 3.46182C-7 1.54991 -5.45009 0 -3.53818 0H-2.41965Z" fill="white"/>
<path d="M27.0158 22.8312C27.2979 22.8312 27.5725 22.9214 27.7997 23.0886L44.4665 35.3573C44.802 35.6042 45 35.9959 45 36.4124C45 37.486 43.7797 38.1039 42.9144 37.4685L26.2332 25.2192C25.2036 24.4631 25.7384 22.8312 27.0158 22.8312ZM10.8174 25.7112C11.5874 25.1369 12.6924 25.5783 12.8547 26.5251C12.9362 27.0008 12.7446 27.4821 12.3585 27.7717L-2.26291 38.7378C-2.48983 38.908 -2.76584 39 -3.04949 39C-4.31113 39 -4.8446 37.3924 -3.83327 36.6381L10.8174 25.7112ZM44.8373 0C44.9271 0 45 0.0728509 45 0.162717C45 0.21375 44.9761 0.261827 44.9353 0.292577L27.105 13.7548C26.1754 14.4567 24.8488 13.7579 24.9017 12.5944C24.9204 12.1825 25.1228 11.8008 25.4533 11.5542L40.126 0.605535C40.6529 0.212393 41.2926 0 41.95 0H44.8373ZM-7 2.72341C-7 1.59454 -5.71604 0.94551 -4.80704 1.6149L8.88014 11.6942C10.0023 12.5205 9.41783 14.3 8.0242 14.3C7.71231 14.3 7.40881 14.199 7.15913 14.0121L-6.44836 3.82546C-6.79558 3.56553 -7 3.15715 -7 2.72341Z" fill="#DC143C"/>
<path d="M19.0812 0C15.4914 0 12.5812 2.91015 12.5812 6.5V32.5C12.5812 36.0898 15.4914 39 19.0812 39C22.6711 39 25.5812 36.0898 25.5812 32.5V6.5C25.5812 2.91015 22.6711 0 19.0812 0ZM-0.5 13C-4.08985 13 -7 15.9101 -7 19.5C-7 23.0898 -4.08985 26 -0.5 26H38.5C42.0898 26 45 23.0898 45 19.5C45 15.9101 42.0898 13 38.5 13H-0.5Z" fill="white"/>
<path d="M-3.1 15.6812C-5.25391 15.6812 -7 17.4273 -7 19.5812C-7 21.7352 -5.25391 23.4812 -3.1 23.4812H41.1C43.2539 23.4812 45 21.7352 45 19.5812C45 17.4273 43.2539 15.6812 41.1 15.6812H-3.1ZM19.0812 0C16.9273 0 15.1812 1.74609 15.1812 3.9V35.1C15.1812 37.2539 16.9273 39 19.0812 39C21.2352 39 22.9812 37.2539 22.9812 35.1V3.9C22.9812 1.74609 21.2352 0 19.0812 0Z" fill="#DC143C"/>
</g>
</svg>
