<svg width="394" height="324" viewBox="0 0 394 324" fill="none" xmlns="http://www.w3.org/2000/svg">
<path d="M196.149 202.988C238.833 203.987 274.249 170.017 275.253 127.114C276.257 84.2101 242.47 48.6201 199.786 47.6209C157.103 46.6217 121.687 80.5919 120.683 123.495C119.678 166.399 153.466 201.989 196.149 202.988Z" fill="url(#paint0_linear_127_1019)"/>
<path d="M198 117.242C192.113 117.242 186.816 113.309 185.134 107.659L184.794 106.515L211.206 106.515L210.866 107.659C209.184 113.291 203.887 117.242 198 117.242ZM187.263 108.303C189.053 112.576 193.312 115.455 198 115.455C202.688 115.455 206.947 112.576 208.737 108.303L187.263 108.303Z" fill="white"/>
<path d="M211.206 153L184.794 153L185.134 151.856C186.816 146.224 192.113 142.273 198 142.273C203.887 142.273 209.184 146.206 210.866 151.856L211.206 153ZM187.263 151.212L208.737 151.212C206.947 146.939 202.688 144.061 198 144.061C193.312 144.061 189.053 146.939 187.263 151.212Z" fill="white"/>
<path d="M215 153L181 153L181 143.167C181 137.356 183.935 132.01 188.838 128.882C190.645 127.719 191.737 125.842 191.737 123.84L191.737 123.16C191.737 121.176 190.645 119.281 188.838 118.118C183.935 114.972 181 109.644 181 103.833L181 94L215 94L215 103.833C215 109.644 212.065 114.972 207.162 118.118C205.355 119.281 204.263 121.158 204.263 123.16L204.263 123.84C204.263 125.824 205.355 127.702 207.162 128.882C212.065 132.028 215 137.374 215 143.167L215 153ZM182.789 151.212L213.211 151.212L213.211 143.167C213.211 137.982 210.58 133.19 206.196 130.383C203.869 128.899 202.474 126.45 202.474 123.84L202.474 123.16C202.474 120.55 203.869 118.118 206.196 116.617C210.58 113.81 213.211 109.018 213.211 103.833L213.211 95.7879L182.789 95.7879L182.789 103.833C182.789 109.018 185.402 113.81 189.804 116.617C192.131 118.118 193.526 120.55 193.526 123.16L193.526 123.84C193.526 126.45 192.131 128.882 189.804 130.383C185.42 133.19 182.789 137.982 182.789 143.167L182.789 151.212Z" fill="white"/>
<path d="M198.895 119.03L197.105 119.03L197.105 135.121L198.895 135.121L198.895 119.03Z" fill="white"/>
<path d="M198.895 136.909L197.105 136.909L197.105 140.485L198.895 140.485L198.895 136.909Z" fill="white"/>
<defs>
<linearGradient id="paint0_linear_127_1019" x1="189.424" y1="47.3783" x2="139.355" y2="175.015" gradientUnits="userSpaceOnUse">
<stop stop-color="#FFF507"/>
<stop offset="0.883333" stop-color="#117FFF"/>
</linearGradient>
</defs>
</svg>
