<svg width="394" height="399" viewBox="0 0 394 399" fill="none" xmlns="http://www.w3.org/2000/svg">
<path d="M196.149 277.777C238.833 278.776 274.249 244.806 275.253 201.903C276.257 158.999 242.47 123.409 199.786 122.41C157.103 121.411 121.687 155.381 120.683 198.284C119.678 241.188 153.466 276.778 196.149 277.777Z" fill="url(#paint0_linear_127_1152)"/>
<path d="M185.65 197.97C180.159 197.97 175.68 193.506 175.68 188.034C175.68 182.561 180.159 178.098 185.65 178.098C191.141 178.098 195.62 182.561 195.62 188.034C195.62 193.506 191.141 197.97 185.65 197.97ZM185.65 179.808C181.103 179.808 177.396 183.502 177.396 188.034C177.396 192.566 181.103 196.26 185.65 196.26C190.197 196.26 193.904 192.566 193.904 188.034C193.904 183.502 190.197 179.808 185.65 179.808Z" fill="white"/>
<path d="M207.529 197.97C202.038 197.97 197.559 193.506 197.559 188.034C197.559 182.561 202.038 178.098 207.529 178.098C213.021 178.098 217.5 182.561 217.5 188.034C217.5 193.506 213.021 197.97 207.529 197.97ZM207.529 179.808C202.982 179.808 199.275 183.502 199.275 188.034C199.275 192.566 202.982 196.26 207.529 196.26C212.077 196.26 215.783 192.566 215.783 188.034C215.783 183.502 212.077 179.808 207.529 179.808Z" fill="white"/>
<path d="M198.417 187.162L194.779 187.162L194.779 188.872L198.417 188.872L198.417 187.162Z" fill="white"/>
<path d="M196.804 221.587L196.41 221.587C188.773 221.587 181.789 217.431 178.168 210.728L179.678 209.924C183.007 216.063 189.408 219.877 196.41 219.877L196.804 219.877C203.806 219.877 210.206 216.063 213.535 209.924L215.046 210.728C211.425 217.431 204.423 221.587 196.804 221.587Z" fill="white"/>
<path d="M210.224 176.166L182.973 176.166L182.973 169L210.206 169L210.206 176.166L210.224 176.166ZM184.706 174.455L208.508 174.455L208.508 170.71L184.689 170.71L184.689 174.455L184.706 174.455Z" fill="white"/>
<path d="M222.339 169L174.29 169L174.29 170.71L222.339 170.71L222.339 169Z" fill="white"/>
<path d="M190.163 189.847L188.447 189.847C188.447 188.307 187.194 187.076 185.667 187.076C184.14 187.076 182.887 188.325 182.887 189.847L181.171 189.847C181.171 187.367 183.196 185.366 185.667 185.366C188.138 185.366 190.163 187.384 190.163 189.847Z" fill="white"/>
<path d="M212.042 189.847L210.326 189.847C210.326 188.307 209.074 187.076 207.547 187.076C206.019 187.076 204.767 188.325 204.767 189.847L203.051 189.847C203.051 187.367 205.075 185.366 207.547 185.366C210.018 185.366 212.042 187.384 212.042 189.847Z" fill="white"/>
<path d="M196.598 201.954L190.524 195.9L191.742 194.686L196.598 199.543L201.455 194.686L202.673 195.9L196.598 201.954Z" fill="white"/>
<path d="M170 220.971L170 198.928C170 196.448 172.025 194.447 174.496 194.447L174.496 196.157C172.952 196.157 171.716 197.406 171.716 198.928L171.716 216.85L176.692 211.891C178.254 210.334 179.112 208.265 179.112 206.076L179.112 200.757L180.828 200.757L180.828 206.076C180.828 208.727 179.798 211.224 177.911 213.105L170 220.971Z" fill="white"/>
<path d="M223.197 220.971L215.286 213.088C213.398 211.206 212.369 208.71 212.369 206.059L212.369 200.74L214.085 200.74L214.085 206.059C214.085 208.265 214.943 210.317 216.504 211.873L221.481 216.833L221.481 198.911C221.481 197.371 220.228 196.14 218.701 196.14L218.701 194.43C221.189 194.43 223.197 196.448 223.197 198.911L223.197 220.954L223.197 220.971Z" fill="white"/>
<path d="M179.215 228L177.499 228L177.499 226.187C177.499 223.707 179.524 221.707 181.995 221.707L187.469 221.707L187.469 223.417L181.995 223.417C180.451 223.417 179.215 224.665 179.215 226.187L179.215 228Z" fill="white"/>
<path d="M215.681 228L213.965 228L213.965 226.187C213.965 224.648 212.712 223.417 211.185 223.417L205.71 223.417L205.71 221.707L211.185 221.707C213.673 221.707 215.681 223.725 215.681 226.187L215.681 228Z" fill="white"/>
<path d="M182.87 228L181.154 228L181.154 226.187C181.154 223.707 183.179 221.707 185.65 221.707L185.65 223.417C184.106 223.417 182.87 224.665 182.87 226.187L182.87 228Z" fill="white"/>
<path d="M212.043 228L210.327 228L210.327 226.187C210.327 224.648 209.074 223.417 207.547 223.417L207.547 221.707C210.035 221.707 212.043 223.725 212.043 226.187L212.043 228Z" fill="white"/>
<defs>
<linearGradient id="paint0_linear_127_1152" x1="189.424" y1="122.167" x2="139.355" y2="249.804" gradientUnits="userSpaceOnUse">
<stop stop-color="#FFF507"/>
<stop offset="0.883333" stop-color="#117FFF"/>
</linearGradient>
<clipPath id="clip0_127_1152">
<rect width="208.693" height="206.179" fill="white" transform="translate(110.879 81.6841) rotate(8.91758)"/>
</clipPath>
<clipPath id="clip1_127_1152">
<rect width="23" height="23" fill="white" transform="translate(140.722 101.056) rotate(14.6107)"/>
</clipPath>
</defs>
</svg>
