<svg width="240" height="237" viewBox="0 0 240 237" fill="none" xmlns="http://www.w3.org/2000/svg">
<g clip-path="url(#clip0_127_1154)">
<path d="M135.64 30.4001C135.094 30.3061 134.868 29.9784 134.962 29.4171L135.612 25.525L133.989 25.2488C133.538 25.1733 133.154 25.1799 132.843 25.2742C132.532 25.3685 132.228 25.6026 131.941 25.9767L129.692 28.863C129.51 29.0947 129.31 29.224 129.086 29.2507C128.861 29.2774 128.665 29.2296 128.493 29.1019C128.326 28.9743 128.223 28.8053 128.181 28.5896C128.143 28.3739 128.213 28.1501 128.394 27.9077L130.127 25.685C130.567 25.1161 131.044 24.7843 131.558 24.6896C130.745 24.3797 130.155 23.9142 129.781 23.293C129.408 22.6772 129.292 21.9443 129.436 21.0943C129.611 20.0571 130.071 19.3062 130.818 18.8415C131.564 18.3767 132.537 18.2451 133.736 18.4464L137.47 19.0807C138.048 19.1808 138.284 19.5248 138.184 20.1182L136.579 29.6931C136.486 30.2545 136.171 30.4883 135.635 30.3999L135.64 30.4001ZM133.113 23.8315L135.823 24.2902L136.497 20.2753L133.787 19.8166C132.169 19.5405 131.251 20.0707 131.026 21.4073C130.801 22.7491 131.495 23.5607 133.113 23.8368L133.113 23.8315Z" fill="white"/>
<path d="M141.194 31.7607C140.676 31.603 140.492 31.2656 140.649 30.738L142.473 24.5988C142.63 24.0766 142.965 23.8916 143.488 24.0494C143.996 24.2015 144.173 24.5441 144.022 25.0665L143.325 27.4113L144.578 27.7911L147.512 25.6518C147.719 25.4904 147.917 25.4256 148.108 25.4625C148.304 25.4995 148.462 25.5893 148.581 25.7318C148.7 25.8743 148.749 26.0419 148.734 26.2294C148.713 26.4222 148.607 26.5967 148.401 26.7581L145.949 28.555C146.163 28.7428 146.338 28.9833 146.475 29.2766C146.611 29.5698 146.74 29.9542 146.846 30.4238L147.345 32.4545C147.402 32.7083 147.371 32.9115 147.244 33.064C147.123 33.2167 146.961 33.3094 146.769 33.3422C146.576 33.375 146.391 33.3382 146.217 33.2427C146.039 33.147 145.921 32.9616 145.853 32.6969L145.307 30.4341C145.19 29.975 145.039 29.6384 144.862 29.4354C144.686 29.2325 144.403 29.0698 144.012 28.9528L142.954 28.6368L142.188 31.2108C142.031 31.733 141.701 31.9181 141.189 31.7659L141.194 31.7607Z" fill="white"/>
<path d="M156.263 37.3235C155.837 37.1036 155.744 36.7631 155.979 36.3019L158.922 30.5875C159.185 30.0733 159.534 29.9316 159.971 30.1571C160.176 30.2642 160.311 30.4017 160.371 30.5642C160.431 30.7267 160.464 30.8993 160.47 31.0713L160.678 36.2567L164.993 33.4321C165.15 33.3339 165.311 33.2628 165.477 33.2239C165.643 33.1851 165.824 33.2164 166.023 33.3179C166.46 33.5434 166.541 33.9158 166.278 34.4301L163.336 40.1444C163.101 40.6003 162.768 40.7209 162.347 40.4958C161.932 40.2762 161.839 39.9411 162.079 39.4854L164.216 35.3401L160.579 37.6822C160.487 37.7444 160.385 37.7902 160.278 37.8144C160.17 37.8386 160.048 37.8195 159.917 37.7518C159.775 37.6785 159.687 37.5851 159.652 37.4769C159.617 37.3686 159.599 37.2662 159.59 37.164L159.384 32.8106L157.247 36.9559C157.012 37.4118 156.684 37.5325 156.269 37.3129L156.263 37.3235Z" fill="white"/>
<path d="M166.995 43.3805C166.581 43.0911 166.543 42.709 166.869 42.2339L170.498 36.9499C170.797 36.517 171.145 36.4397 171.548 36.7234C171.951 37.0018 172.001 37.3627 171.708 37.7957L168.868 41.9236L175.067 39.8271C175.223 39.7666 175.388 39.7331 175.564 39.7267C175.74 39.7203 175.925 39.7839 176.129 39.9231C176.533 40.2015 176.571 40.5836 176.24 41.0585L172.61 46.3426C172.312 46.7755 171.969 46.8529 171.571 46.5801C171.158 46.2907 171.102 45.935 171.401 45.5022L174.229 41.3847L168.031 43.4812C167.881 43.5312 167.715 43.5646 167.544 43.5712C167.374 43.5777 167.189 43.5195 166.995 43.3805V43.3805Z" fill="white"/>
<path d="M180.368 54.0172C179.983 53.6265 179.987 53.2401 180.375 52.8578L184.913 48.3262C185.3 47.9385 185.684 47.9426 186.063 48.3331C186.437 48.7127 186.433 49.0991 186.045 49.4815L184.309 51.2155L187.042 53.9939L188.778 52.2598C189.166 51.8721 189.544 51.8707 189.918 52.2557C190.303 52.6463 190.299 53.0327 189.911 53.4151L185.373 57.9467C184.986 58.3344 184.602 58.3303 184.223 57.9398C183.849 57.5601 183.853 57.1737 184.241 56.7914L186.135 54.9002L183.402 52.1219L181.508 54.0131C181.12 54.4008 180.742 54.4022 180.368 54.0172V54.0172Z" fill="white"/>
<path d="M188.947 63.564C188.612 63.1316 188.399 62.6808 188.304 62.2114C188.209 61.742 188.226 61.2915 188.358 60.8707C188.486 60.4498 188.735 60.0909 189.093 59.8098C189.544 59.4505 189.99 59.2844 190.432 59.3114C190.873 59.3384 191.357 59.5758 191.895 60.0185C192.427 60.4611 193.049 61.1421 193.762 62.0508L194.098 62.4831L194.424 62.2227C194.902 61.8427 195.166 61.4734 195.218 61.1043C195.27 60.7351 195.115 60.318 194.754 59.8528C194.542 59.5845 194.293 59.326 194 59.088C193.708 58.85 193.356 58.6373 192.956 58.4503C192.735 58.3375 192.611 58.2056 192.577 58.0437C192.549 57.882 192.58 57.7324 192.674 57.5898C192.768 57.4471 192.898 57.3484 193.075 57.2937C193.252 57.239 193.433 57.2649 193.622 57.3716C194.079 57.6083 194.488 57.8814 194.848 58.1802C195.208 58.479 195.515 58.7925 195.768 59.1101C196.424 59.953 196.713 60.7385 196.632 61.4559C196.55 62.1732 196.085 62.8703 195.238 63.5419L192.006 66.098C191.577 66.4364 191.21 66.4059 190.9 66.0117C190.585 65.6067 190.642 65.2323 191.066 64.8992L191.533 64.5296C191.061 64.6575 190.604 64.6355 190.15 64.474C189.701 64.3126 189.298 64.0075 188.953 63.5587L188.947 63.564ZM190.05 63.1027C190.407 63.557 190.858 63.8151 191.416 63.8664C191.969 63.9176 192.49 63.7533 192.979 63.3681L193.315 63.1026L192.99 62.6866C192.51 62.0682 192.106 61.6127 191.773 61.3038C191.439 61.0004 191.15 60.8268 190.896 60.7883C190.641 60.7498 190.394 60.8243 190.15 61.0169C189.829 61.2667 189.656 61.5845 189.631 61.9596C189.606 62.3348 189.746 62.7194 190.045 63.1079L190.05 63.1027Z" fill="white"/>
<path d="M194.16 70.553C193.873 70.0896 193.962 69.7107 194.427 69.4215L199.663 66.1687C200.134 65.8743 200.515 65.9642 200.796 66.4275L202.455 69.1417C202.957 69.9647 203.174 70.6572 203.101 71.2298C203.029 71.797 202.714 72.2509 202.162 72.597C201.816 72.8139 201.457 72.9017 201.08 72.8656C200.703 72.8294 200.349 72.6811 200.026 72.4155C200.184 72.8972 200.189 73.3428 200.052 73.7421C199.908 74.1465 199.645 74.4675 199.255 74.7102C198.682 75.0665 198.1 75.1326 197.509 74.9087C196.918 74.6848 196.376 74.1775 195.89 73.3818L194.165 70.5585L194.16 70.553ZM195.41 70.6053L196.715 72.7418C197.243 73.603 197.845 73.8165 198.537 73.388C199.219 72.9646 199.293 72.3223 198.771 71.4666L197.465 69.33L195.41 70.6053ZM198.347 68.7828L199.576 70.7993C199.806 71.1754 200.066 71.4126 200.368 71.5113C200.663 71.6099 200.963 71.5689 201.265 71.3831C201.574 71.1921 201.745 70.944 201.785 70.6337C201.824 70.3286 201.726 69.988 201.496 69.6119L200.267 67.5954L198.347 68.7881L198.347 68.7828Z" fill="white"/>
<path d="M201.389 84.313C201.156 83.8188 201.303 83.4466 201.826 83.2019L203.868 82.243C203.324 81.8592 202.9 81.3334 202.597 80.6763C202.121 79.6446 202.01 78.7669 202.273 78.0379C202.536 77.309 203.168 76.7126 204.171 76.238L205.346 75.6872C205.836 75.4578 206.195 75.5847 206.423 76.0681C206.65 76.5622 206.519 76.9294 206.028 77.1589L204.972 77.6589C204.304 77.9753 203.89 78.3408 203.72 78.7554C203.55 79.1752 203.611 79.7028 203.91 80.3437C204.057 80.6533 204.215 80.9149 204.396 81.1287C204.578 81.3371 204.802 81.5198 205.07 81.666L207.544 80.4977C208.056 80.258 208.425 80.3852 208.653 80.8793C208.88 81.3681 208.733 81.7295 208.227 81.9693L202.509 84.6627C201.986 84.9075 201.616 84.791 201.399 84.3186L201.389 84.313Z" fill="white"/>
<path d="M203.967 91.1994C203.793 90.6798 203.742 90.1846 203.812 89.7086C203.877 89.2324 204.042 88.8177 204.306 88.4646C204.571 88.1114 204.918 87.857 205.353 87.712C205.901 87.5269 206.375 87.5225 206.78 87.6989C207.186 87.8753 207.565 88.2605 207.924 88.8598C208.282 89.4591 208.639 90.3054 209.006 91.4095L209.179 91.9292L209.572 91.7939C210.146 91.5987 210.52 91.3395 210.693 91.011C210.867 90.6824 210.856 90.2366 210.673 89.6791C210.564 89.3543 210.412 89.0285 210.218 88.707C210.018 88.3853 209.765 88.0677 209.447 87.7539C209.276 87.5726 209.2 87.4043 209.226 87.2439C209.251 87.0834 209.329 86.9511 209.464 86.8471C209.6 86.7431 209.756 86.6986 209.937 86.7031C210.118 86.7076 210.281 86.7975 210.426 86.9621C210.779 87.3412 211.072 87.735 211.313 88.1381C211.553 88.5413 211.74 88.9378 211.869 89.3275C212.206 90.345 212.218 91.1774 211.898 91.8298C211.578 92.4822 210.911 92.9757 209.891 93.321L205.997 94.6314C205.481 94.8066 205.144 94.6533 204.986 94.1717C204.822 93.6845 205.001 93.3507 205.516 93.1755L206.075 92.9853C205.591 92.9465 205.164 92.7696 204.793 92.4652C204.423 92.1608 204.146 91.7353 203.967 91.1994V91.1994ZM205.162 91.1376C205.345 91.6897 205.687 92.0792 206.192 92.3172C206.698 92.5551 207.246 92.574 207.831 92.3791L208.24 92.2388L208.071 91.7354C207.823 90.9939 207.597 90.4193 207.384 90.0221C207.175 89.6251 206.952 89.3619 206.726 89.2436C206.5 89.1253 206.24 89.1081 205.95 89.2084C205.568 89.3385 205.296 89.5734 205.149 89.9187C205.002 90.264 205.003 90.672 205.156 91.1375L205.162 91.1376Z" fill="white"/>
<path d="M206.98 102.268C206.809 101.458 206.821 100.729 207.018 100.079C207.216 99.4285 207.581 98.8739 208.108 98.4252C208.636 97.9766 209.315 97.6605 210.134 97.4821C211.339 97.2165 212.369 97.3654 213.218 97.9178C214.067 98.4755 214.626 99.3751 214.893 100.622C214.989 101.064 215.02 101.527 214.986 102.02C214.953 102.507 214.863 102.919 214.7 103.253C214.61 103.449 214.49 103.575 214.339 103.636C214.189 103.696 214.039 103.703 213.892 103.652C213.744 103.6 213.634 103.511 213.557 103.386C213.48 103.26 213.479 103.105 213.547 102.924C213.683 102.589 213.761 102.242 213.781 101.883C213.8 101.523 213.782 101.196 213.715 100.893C213.552 100.127 213.225 99.5875 212.732 99.28C212.239 98.9673 211.672 98.8352 211.027 98.8783L211.71 102.057C211.81 102.516 211.665 102.791 211.28 102.873C210.894 102.955 210.654 102.766 210.553 102.308L209.87 99.1289C209.161 99.3799 208.656 99.7647 208.361 100.273C208.066 100.781 207.987 101.396 208.14 102.109C208.207 102.411 208.322 102.72 208.485 103.03C208.648 103.34 208.865 103.619 209.125 103.872C209.26 104.004 209.32 104.145 209.306 104.295C209.286 104.44 209.219 104.567 209.1 104.671C208.98 104.776 208.84 104.831 208.68 104.838C208.52 104.845 208.362 104.771 208.206 104.623C207.914 104.379 207.656 104.04 207.437 103.605C207.219 103.17 207.06 102.726 206.964 102.273L206.98 102.268Z" fill="white"/>
<path d="M208.2 108.976C208.153 108.497 208.389 108.229 208.896 108.183L215.26 107.577C215.831 107.522 216.14 107.744 216.186 108.234C216.207 108.47 216.165 108.657 216.06 108.794C215.956 108.931 215.83 109.052 215.695 109.15L211.483 112.138L216.176 114.262C216.344 114.341 216.491 114.441 216.611 114.562C216.736 114.678 216.806 114.852 216.827 115.078C216.873 115.567 216.611 115.84 216.034 115.896L209.671 116.501C209.164 116.548 208.887 116.331 208.84 115.852C208.798 115.384 209.028 115.122 209.535 115.075L214.148 114.636L210.225 112.827C210.125 112.781 210.03 112.72 209.952 112.643C209.869 112.566 209.824 112.452 209.806 112.301C209.789 112.14 209.819 112.017 209.89 111.927C209.961 111.838 210.038 111.765 210.119 111.702L213.638 109.169L209.026 109.608C208.519 109.655 208.242 109.444 208.195 108.976L208.2 108.976Z" fill="white"/>
<path d="M208.847 124.007C208.877 123.213 209.069 122.536 209.424 121.971C209.779 121.405 210.263 120.977 210.878 120.686C211.492 120.395 212.214 120.268 213.044 120.299C213.875 120.33 214.584 120.52 215.172 120.861C215.76 121.203 216.206 121.671 216.511 122.263C216.816 122.856 216.953 123.552 216.923 124.346C216.894 125.118 216.701 125.784 216.347 126.35C215.992 126.916 215.507 127.349 214.893 127.645C214.278 127.942 213.556 128.074 212.726 128.038C211.896 128.001 211.187 127.812 210.599 127.47C210.011 127.122 209.564 126.655 209.259 126.062C208.954 125.47 208.817 124.79 208.846 124.018L208.847 124.007ZM210.092 124.059C210.064 124.724 210.28 125.272 210.744 125.696C211.207 126.121 211.888 126.358 212.793 126.391C213.697 126.43 214.394 126.253 214.883 125.863C215.372 125.472 215.63 124.947 215.657 124.282C215.685 123.607 215.469 123.054 215.011 122.629C214.553 122.199 213.871 121.967 212.967 121.934C212.062 121.896 211.36 122.072 210.866 122.462C210.372 122.853 210.108 123.383 210.081 124.059L210.092 124.059Z" fill="white"/>
<path d="M199.813 161.609C200.038 161.099 200.404 160.958 200.92 161.185L204.503 162.777L205.169 161.258C205.355 160.833 205.439 160.459 205.426 160.131C205.413 159.804 205.261 159.451 204.972 159.079L202.754 156.173C202.578 155.944 202.504 155.711 202.531 155.486C202.558 155.261 202.658 155.076 202.821 154.946C202.984 154.816 203.172 154.75 203.39 154.767C203.603 154.777 203.808 154.906 203.994 155.141L205.701 157.379C206.14 157.948 206.34 158.495 206.311 159.02C206.813 158.303 207.405 157.84 208.092 157.631C208.779 157.417 209.512 157.489 210.292 157.836C211.245 158.262 211.858 158.894 212.12 159.738C212.387 160.582 212.272 161.567 211.781 162.682L210.251 166.171C210.014 166.713 209.622 166.859 209.079 166.62L200.265 162.704C199.749 162.477 199.598 162.108 199.818 161.609L199.813 161.609ZM206.753 160.749L205.646 163.283L209.345 164.925L210.451 162.392C211.112 160.878 210.828 159.851 209.601 159.306C208.362 158.754 207.413 159.235 206.753 160.749Z" fill="white"/>
<path d="M197.131 166.696C197.409 166.225 197.784 166.132 198.246 166.412L203.704 169.698C204.171 169.978 204.263 170.356 203.985 170.821C203.713 171.282 203.343 171.375 202.876 171.089L200.792 169.835L200.12 170.968L201.458 174.361C201.564 174.6 201.575 174.81 201.496 174.99C201.412 175.171 201.286 175.302 201.124 175.384C200.957 175.465 200.787 175.472 200.607 175.408C200.427 175.345 200.287 175.191 200.176 174.952L199.048 172.117C198.815 172.278 198.54 172.389 198.224 172.456C197.909 172.524 197.509 172.546 197.035 172.534L194.958 172.521C194.702 172.514 194.513 172.434 194.394 172.276C194.275 172.117 194.227 171.939 194.242 171.746C194.258 171.548 194.336 171.378 194.473 171.231C194.61 171.084 194.814 171.009 195.086 171.01L197.397 171.035C197.871 171.03 198.229 170.969 198.467 170.846C198.704 170.723 198.933 170.487 199.139 170.133L199.706 169.181L197.418 167.804C196.951 167.524 196.853 167.151 197.131 166.691L197.131 166.696Z" fill="white"/>
<path d="M188.077 180.071C188.395 179.708 188.746 179.701 189.127 180.043L193.905 184.316C194.338 184.702 194.387 185.079 194.064 185.447C193.91 185.626 193.743 185.723 193.572 185.741C193.401 185.758 193.231 185.748 193.061 185.712L188.017 184.648L189.68 189.553C189.735 189.731 189.762 189.909 189.763 190.076C189.759 190.247 189.686 190.417 189.538 190.585C189.214 190.953 188.836 190.949 188.404 190.563L183.625 186.29C183.245 185.948 183.211 185.598 183.529 185.235C183.841 184.883 184.187 184.876 184.568 185.218L188.033 188.315L186.665 184.191C186.63 184.088 186.612 183.975 186.609 183.862C186.607 183.749 186.657 183.632 186.756 183.522C186.86 183.401 186.973 183.339 187.086 183.331C187.198 183.323 187.304 183.331 187.405 183.345L191.644 184.206L188.179 181.109C187.799 180.767 187.759 180.422 188.072 180.065L188.077 180.071Z" fill="white"/>
<path d="M179.642 189.08C180.017 188.745 180.394 188.798 180.772 189.236L184.973 194.064C185.315 194.459 185.306 194.818 184.935 195.147C184.565 195.477 184.209 195.441 183.867 195.041L180.584 191.266L181.093 197.839C181.11 198.006 181.106 198.177 181.07 198.348C181.033 198.519 180.928 198.688 180.743 198.85C180.373 199.174 180.001 199.122 179.623 198.683L175.423 193.855C175.081 193.46 175.085 193.101 175.449 192.782C175.825 192.448 176.186 192.484 176.528 192.879L179.801 196.642L179.292 190.07C179.28 189.908 179.29 189.742 179.326 189.571C179.362 189.4 179.467 189.236 179.642 189.08V189.08Z" fill="white"/>
<path d="M166.142 199.58C166.607 199.302 166.983 199.397 167.259 199.865L170.515 205.405C170.791 205.874 170.696 206.252 170.232 206.531C169.772 206.804 169.407 206.709 169.131 206.235L167.884 204.116L164.543 206.111L165.79 208.23C166.066 208.699 165.977 209.072 165.518 209.346C165.053 209.624 164.677 209.529 164.401 209.06L161.145 203.521C160.869 203.052 160.963 202.673 161.428 202.395C161.888 202.122 162.253 202.217 162.529 202.69L163.888 205.005L167.229 203.01L165.87 200.695C165.593 200.227 165.683 199.853 166.142 199.58Z" fill="white"/>
<path d="M154.866 205.642C155.362 205.418 155.849 205.317 156.322 205.339C156.796 205.362 157.224 205.485 157.602 205.72C157.98 205.949 158.259 206.278 158.446 206.696C158.678 207.228 158.73 207.702 158.597 208.128C158.464 208.549 158.118 208.97 157.559 209.385C157.001 209.801 156.196 210.243 155.146 210.711L154.65 210.935L154.817 211.32C155.064 211.879 155.359 212.23 155.702 212.367C156.044 212.51 156.482 212.456 157.016 212.217C157.328 212.08 157.631 211.894 157.935 211.665C158.238 211.437 158.523 211.148 158.803 210.801C158.962 210.612 159.124 210.519 159.289 210.528C159.448 210.538 159.591 210.606 159.699 210.732C159.808 210.858 159.873 211.01 159.885 211.193C159.896 211.376 159.828 211.546 159.675 211.708C159.335 212.097 158.976 212.432 158.596 212.712C158.216 212.993 157.843 213.215 157.477 213.383C156.502 213.82 155.68 213.907 155.009 213.655C154.334 213.396 153.779 212.776 153.346 211.783L151.676 208C151.454 207.501 151.575 207.15 152.033 206.941C152.501 206.732 152.844 206.875 153.066 207.374L153.308 207.917C153.304 207.428 153.432 206.981 153.698 206.579C153.963 206.178 154.355 205.86 154.872 205.631L154.866 205.642ZM155.039 206.832C154.511 207.066 154.156 207.449 153.972 207.982C153.783 208.514 153.818 209.062 154.07 209.627L154.247 210.023L154.726 209.809C155.437 209.489 155.977 209.207 156.35 208.958C156.724 208.71 156.959 208.463 157.061 208.224C157.162 207.985 157.148 207.727 157.021 207.44C156.855 207.065 156.6 206.823 156.241 206.706C155.887 206.59 155.486 206.629 155.039 206.832V206.832Z" fill="white"/>
<path d="M146.873 209.036C147.388 208.872 147.73 209.052 147.893 209.571L149.734 215.484C149.902 216.014 149.723 216.364 149.208 216.529L146.191 217.485C145.278 217.774 144.553 217.815 144.025 217.603C143.498 217.392 143.135 216.975 142.943 216.353C142.819 215.963 142.823 215.587 142.955 215.226C143.081 214.864 143.312 214.558 143.649 214.303C143.147 214.339 142.718 214.237 142.367 214.003C142.016 213.764 141.769 213.43 141.631 212.987C141.428 212.343 141.512 211.754 141.871 211.232C142.23 210.704 142.852 210.306 143.738 210.022L146.879 209.025L146.873 209.036ZM146.513 210.246L144.135 210.998C143.179 211.302 142.825 211.84 143.067 212.619C143.304 213.387 143.905 213.622 144.861 213.319L147.239 212.567L146.518 210.246L146.513 210.246ZM147.544 213.562L145.306 214.269C144.887 214.404 144.595 214.6 144.428 214.87C144.262 215.134 144.228 215.439 144.337 215.775C144.445 216.121 144.642 216.352 144.927 216.466C145.212 216.575 145.564 216.568 145.982 216.433L148.221 215.726L147.544 213.562V213.562Z" fill="white"/>
<path d="M131.853 212.729C132.388 212.624 132.707 212.858 132.816 213.429L133.24 215.657C133.741 215.224 134.35 214.933 135.061 214.8C136.169 214.586 137.04 214.699 137.679 215.133C138.318 215.567 138.736 216.335 138.943 217.43L139.183 218.713C139.287 219.252 139.077 219.569 138.552 219.669C138.017 219.774 137.703 219.557 137.599 219.018L137.383 217.863C137.246 217.135 136.997 216.635 136.636 216.369C136.276 216.102 135.75 216.03 135.06 216.164C134.728 216.23 134.433 216.32 134.185 216.448C133.936 216.571 133.708 216.748 133.506 216.973L134.02 219.676C134.123 220.236 133.913 220.564 133.377 220.669C132.853 220.769 132.539 220.541 132.436 219.98L131.253 213.734C131.144 213.163 131.35 212.83 131.858 212.735L131.853 212.729Z" fill="white"/>
<path d="M124.594 213.559C125.133 213.519 125.627 213.585 126.07 213.773C126.512 213.961 126.868 214.217 127.147 214.562C127.426 214.907 127.582 215.308 127.613 215.77C127.657 216.351 127.545 216.816 127.275 217.169C127.005 217.522 126.54 217.8 125.88 217.998C125.215 218.197 124.311 218.341 123.164 218.431L122.625 218.471L122.657 218.891C122.701 219.498 122.861 219.932 123.137 220.18C123.413 220.428 123.842 220.53 124.423 220.486C124.765 220.462 125.113 220.39 125.473 220.275C125.832 220.161 126.204 219.987 126.577 219.755C126.793 219.631 126.975 219.604 127.123 219.666C127.27 219.729 127.379 219.839 127.445 219.996C127.51 220.154 127.517 220.32 127.464 220.496C127.412 220.672 127.292 220.809 127.097 220.911C126.644 221.163 126.197 221.351 125.746 221.49C125.295 221.624 124.873 221.71 124.467 221.737C123.405 221.819 122.601 221.622 122.053 221.152C121.505 220.682 121.194 219.907 121.109 218.826L120.8 214.701C120.761 214.152 120.992 213.862 121.488 213.826C122 213.791 122.271 214.039 122.311 214.587L122.355 215.179C122.51 214.716 122.785 214.342 123.165 214.05C123.551 213.764 124.023 213.599 124.589 213.554L124.594 213.559ZM124.363 214.74C123.792 214.785 123.328 215.021 122.976 215.457C122.625 215.894 122.473 216.422 122.516 217.04L122.548 217.476L123.077 217.435C123.85 217.379 124.46 217.292 124.894 217.185C125.328 217.078 125.635 216.929 125.805 216.735C125.975 216.541 126.05 216.296 126.031 215.984C125.999 215.575 125.841 215.26 125.543 215.027C125.246 214.794 124.859 214.699 124.368 214.735L124.363 214.74Z" fill="white"/>
<path d="M113.228 213.789C114.047 213.82 114.746 214.02 115.323 214.372C115.9 214.73 116.34 215.224 116.639 215.854C116.938 216.484 117.069 217.223 117.037 218.07C116.985 219.314 116.588 220.282 115.842 220.972C115.095 221.662 114.086 221.981 112.82 221.928C112.373 221.912 111.917 221.825 111.457 221.669C110.992 221.518 110.624 221.321 110.348 221.083C110.181 220.945 110.088 220.798 110.071 220.636C110.054 220.475 110.079 220.325 110.167 220.199C110.25 220.066 110.364 219.983 110.504 219.938C110.643 219.899 110.792 219.929 110.949 220.046C111.236 220.262 111.552 220.426 111.89 220.536C112.228 220.647 112.551 220.708 112.86 220.721C113.637 220.751 114.238 220.567 114.658 220.164C115.078 219.761 115.352 219.242 115.474 218.601L112.25 218.468C111.781 218.451 111.558 218.241 111.573 217.844C111.588 217.447 111.832 217.26 112.3 217.277L115.525 217.41C115.458 216.657 115.222 216.066 114.807 215.648C114.391 215.23 113.821 215.001 113.098 214.972C112.789 214.965 112.463 214.994 112.126 215.077C111.788 215.16 111.465 215.297 111.157 215.488C110.994 215.591 110.845 215.615 110.708 215.558C110.57 215.506 110.466 215.407 110.401 215.265C110.33 215.124 110.312 214.973 110.348 214.813C110.378 214.653 110.488 214.516 110.677 214.408C110.987 214.185 111.374 214.023 111.851 213.916C112.322 213.815 112.792 213.768 113.249 213.79L113.228 213.789Z" fill="white"/>
<path d="M106.442 213.364C106.914 213.435 107.115 213.73 107.038 214.238L106.077 220.608C105.994 221.18 105.705 221.43 105.223 221.354C104.989 221.316 104.821 221.231 104.712 221.095C104.604 220.958 104.517 220.811 104.457 220.648L102.6 215.803L99.4162 219.874C99.2954 220.022 99.1648 220.136 99.024 220.23C98.8832 220.323 98.6961 220.35 98.4785 220.318C97.9957 220.242 97.7959 219.92 97.8793 219.348L98.8406 212.978C98.9171 212.47 99.1941 212.251 99.6664 212.322C100.128 212.392 100.323 212.682 100.247 213.19L99.5525 217.805L102.246 214.404C102.312 214.314 102.394 214.241 102.491 214.179C102.589 214.117 102.706 214.099 102.855 214.124C103.014 214.149 103.125 214.206 103.191 214.299C103.258 214.391 103.315 214.484 103.35 214.576L104.938 218.631L105.633 214.015C105.709 213.507 105.981 213.288 106.442 213.359L106.442 213.364Z" fill="white"/>
<path d="M91.8053 210.362C92.5616 210.579 93.1762 210.927 93.6384 211.406C94.1006 211.884 94.4008 212.455 94.5386 213.13C94.6766 213.799 94.6317 214.538 94.4041 215.343C94.1766 216.148 93.8303 216.8 93.3653 217.299C92.9002 217.797 92.3435 218.127 91.7004 218.288C91.0573 218.45 90.3549 218.422 89.5987 218.204C88.8635 217.993 88.2595 217.651 87.7972 217.172C87.335 216.694 87.0297 216.117 86.8864 215.448C86.7431 214.779 86.788 214.039 87.0102 213.234C87.2378 212.429 87.5841 211.777 88.0596 211.284C88.5299 210.786 89.0865 210.461 89.7298 210.295C90.373 210.128 91.0647 210.156 91.7999 210.367L91.8053 210.362ZM91.4666 211.572C90.8319 211.39 90.2545 211.478 89.7345 211.83C89.2145 212.182 88.8318 212.801 88.5812 213.675C88.3358 214.555 88.3392 215.28 88.6021 215.85C88.8597 216.42 89.3085 216.796 89.9431 216.978C90.5884 217.16 91.171 217.078 91.6909 216.731C92.2107 216.385 92.5934 215.771 92.8387 214.892C93.0841 214.012 93.0807 213.287 92.8233 212.712C92.5658 212.136 92.1118 211.755 91.4666 211.572V211.572Z" fill="white"/>
<path d="M57.8802 192.331C58.3191 192.675 58.3627 193.068 58.016 193.521L55.6063 196.634L56.9021 197.654C57.2626 197.936 57.6045 198.111 57.9224 198.178C58.2403 198.245 58.6147 198.185 59.0509 197.991L62.3892 196.528C62.6583 196.411 62.8931 196.395 63.104 196.481C63.315 196.567 63.466 196.704 63.5519 196.894C63.6377 197.084 63.6488 197.283 63.5851 197.491C63.5214 197.699 63.3521 197.867 63.0775 197.989L60.5039 199.112C59.847 199.401 59.2756 199.462 58.7735 199.305C59.343 199.969 59.6401 200.663 59.6756 201.383C59.7111 202.104 59.4647 202.806 58.9421 203.48C58.2984 204.313 57.542 204.75 56.6619 204.804C55.7817 204.857 54.8689 204.507 53.9075 203.753L50.9241 201.409C50.4643 201.049 50.416 200.629 50.7793 200.155L56.7044 192.495C57.051 192.048 57.4411 191.993 57.8697 192.326L57.8802 192.331ZM57.0048 199.32L54.8364 197.619L52.3497 200.832L54.5181 202.534C55.8087 203.548 56.8691 203.526 57.6944 202.456C58.5252 201.382 58.2953 200.335 57.0048 199.32Z" fill="white"/>
<path d="M53.6347 188.469C54.0193 188.854 54.0204 189.24 53.638 189.628L49.148 194.166C48.7656 194.554 48.3821 194.556 47.9976 194.165C47.6182 193.785 47.6222 193.404 48.01 193.016L49.7251 191.282L48.8002 190.346L45.2091 190.827C44.9523 190.874 44.7456 190.832 44.5942 190.71C44.4429 190.583 44.3454 190.43 44.3072 190.252C44.2691 190.068 44.3053 189.897 44.4104 189.739C44.5155 189.581 44.6938 189.478 44.9506 189.43L47.9542 189.016C47.8542 188.75 47.8135 188.454 47.8269 188.127C47.8403 187.8 47.914 187.404 48.0426 186.94L48.5613 184.913C48.6314 184.663 48.7526 184.499 48.9356 184.423C49.1185 184.347 49.2998 184.341 49.4846 184.405C49.6695 184.468 49.8157 184.585 49.9233 184.759C50.031 184.928 50.0521 185.149 49.987 185.415L49.3987 187.672C49.2861 188.136 49.2611 188.5 49.3185 188.765C49.3812 189.029 49.5501 189.307 49.836 189.594L50.6155 190.38L52.5 188.478C52.8824 188.09 53.2659 188.089 53.6401 188.463L53.6347 188.469Z" fill="white"/>
<path d="M42.977 176.38C43.2494 176.778 43.1716 177.125 42.7491 177.416L37.477 181.054C37.0002 181.381 36.6283 181.345 36.3508 180.935C36.2171 180.738 36.1631 180.555 36.1886 180.383C36.2141 180.212 36.2608 180.047 36.3393 179.888L38.585 175.214L33.4613 175.646C33.2746 175.657 33.0993 175.637 32.9351 175.601C32.771 175.559 32.6248 175.443 32.5015 175.257C32.224 174.848 32.3236 174.48 32.8004 174.153L38.0724 170.515C38.495 170.225 38.8399 170.276 39.1124 170.675C39.3745 171.062 39.2968 171.404 38.8742 171.694L35.0489 174.332L39.35 173.998C39.4621 173.99 39.5684 173.998 39.6795 174.028C39.7906 174.057 39.8846 174.135 39.9722 174.255C40.0595 174.386 40.099 174.51 40.075 174.623C40.0509 174.735 40.0218 174.836 39.9821 174.932L38.1221 178.869L41.9474 176.231C42.37 175.941 42.7097 175.987 42.977 176.38V176.38Z" fill="white"/>
<path d="M36.3532 165.936C36.5818 166.388 36.4398 166.744 35.9274 167.005L30.2573 169.936C29.7934 170.177 29.4496 170.077 29.2261 169.636C29.0026 169.196 29.1229 168.856 29.5867 168.62L34.0213 166.33L27.5718 165.231C27.4072 165.211 27.2434 165.159 27.0854 165.085C26.9274 165.011 26.7926 164.863 26.6809 164.64C26.4574 164.2 26.5992 163.849 27.1118 163.583L32.7818 160.652C33.2458 160.411 33.5897 160.505 33.8081 160.935C34.0367 161.386 33.9164 161.727 33.4525 161.968L29.0287 164.253L35.4782 165.351C35.6373 165.377 35.7958 165.429 35.9538 165.502C36.1118 165.576 36.2414 165.719 36.348 165.931L36.3532 165.936Z" fill="white"/>
<path d="M29.5509 150.195C29.703 150.72 29.5189 151.059 28.9984 151.218L22.8708 153.048C22.3504 153.201 22.0139 153.021 21.8566 152.491C21.7041 151.977 21.8881 151.644 22.414 151.485L24.7587 150.786L23.6582 147.033L21.3135 147.732C20.793 147.886 20.4565 147.711 20.3042 147.192C20.152 146.668 20.3361 146.328 20.8567 146.17L26.9842 144.34C27.5047 144.186 27.8411 144.366 27.9985 144.896C28.1509 145.41 27.9669 145.744 27.441 145.902L24.8816 146.666L25.9822 150.419L28.5416 149.655C29.062 149.502 29.3985 149.676 29.5509 150.195V150.195Z" fill="white"/>
<path d="M26.4931 137.693C26.5864 138.232 26.5634 138.73 26.4243 139.189C26.2852 139.647 26.0626 140.033 25.746 140.342C25.4295 140.651 25.0466 140.846 24.5972 140.926C24.0302 141.025 23.5579 140.954 23.1855 140.719C22.8132 140.485 22.4937 140.047 22.2328 139.397C21.9718 138.751 21.7435 137.855 21.548 136.712L21.4548 136.173L21.0483 136.243C20.4492 136.346 20.0395 136.546 19.8244 136.846C19.6039 137.147 19.5451 137.586 19.6426 138.168C19.6982 138.507 19.8016 138.848 19.9474 139.201C20.0932 139.553 20.2976 139.902 20.5657 140.263C20.7098 140.465 20.7532 140.649 20.7068 140.803C20.6604 140.958 20.5615 141.079 20.4105 141.155C20.2647 141.238 20.099 141.26 19.9188 141.224C19.7386 141.187 19.5921 141.082 19.4743 140.891C19.1867 140.46 18.9523 140.03 18.7767 139.591C18.6011 139.151 18.4782 138.735 18.4083 138.331C18.2266 137.274 18.3429 136.445 18.757 135.854C19.1711 135.257 19.905 134.873 20.9642 134.684L25.008 133.984C25.543 133.89 25.8521 134.096 25.9358 134.592C26.0245 135.099 25.7987 135.399 25.2638 135.494L24.6808 135.592C25.152 135.706 25.551 135.941 25.8724 136.298C26.1938 136.655 26.4008 137.116 26.4935 137.677L26.4931 137.693ZM25.3084 137.572C25.2106 137.001 24.9286 136.559 24.4676 136.247C24.0065 135.935 23.4659 135.83 22.8613 135.939L22.4387 136.014L22.527 136.537C22.6571 137.308 22.7968 137.907 22.946 138.335C23.0953 138.763 23.2693 139.052 23.4731 139.207C23.677 139.362 23.9315 139.412 24.2363 139.36C24.6375 139.29 24.9352 139.098 25.1348 138.781C25.3343 138.464 25.3921 138.063 25.3084 137.572V137.572Z" fill="white"/>
<path d="M25.1991 129.045C25.2282 129.593 24.9761 129.882 24.4321 129.912L18.293 130.265C17.7384 130.294 17.4464 130.04 17.4173 129.492L17.2401 126.309C17.1839 125.347 17.3241 124.631 17.6551 124.167C17.9861 123.703 18.477 123.452 19.1224 123.414C19.5277 123.392 19.8876 123.486 20.2019 123.698C20.5162 123.91 20.7538 124.211 20.9146 124.602C21.0068 124.105 21.2083 123.707 21.519 123.419C21.8297 123.132 22.217 122.975 22.6757 122.949C23.3477 122.911 23.8908 123.134 24.3052 123.611C24.7194 124.094 24.9577 124.798 25.0092 125.733L25.1938 129.045L25.1991 129.045ZM20.6777 128.595L20.5443 126.23C20.5178 125.789 20.3982 125.458 20.1855 125.228C19.9675 124.997 19.6877 124.893 19.3358 124.912C18.973 124.935 18.7034 125.068 18.5268 125.321C18.3501 125.574 18.2723 125.921 18.2988 126.357L18.4322 128.722L20.683 128.595L20.6777 128.595ZM24.1233 128.395L23.9828 125.885C23.9277 124.88 23.4922 124.397 22.6867 124.447C21.8867 124.491 21.5168 125.019 21.5773 126.024L21.7179 128.529L24.1287 128.39L24.1233 128.395Z" fill="white"/>
<path d="M25.3171 113.458C25.2876 114.005 24.9831 114.261 24.4086 114.23L22.1587 114.105C22.4582 114.703 22.5857 115.366 22.5411 116.095C22.4757 117.232 22.1572 118.056 21.5852 118.573C21.0132 119.091 20.1714 119.317 19.0651 119.252L17.7727 119.177C17.2302 119.148 16.9762 118.862 17.0054 118.326C17.0349 117.779 17.3235 117.524 17.866 117.553L19.0308 117.619C19.7649 117.659 20.3058 117.538 20.6537 117.251C21.0017 116.965 21.195 116.47 21.2337 115.763C21.2528 115.419 21.2337 115.113 21.1713 114.838C21.1088 114.562 20.9981 114.302 20.834 114.046L18.1054 113.892C17.5416 113.862 17.2771 113.571 17.3066 113.025C17.3358 112.488 17.6349 112.238 18.1987 112.268L24.4961 112.627C25.0705 112.658 25.3406 112.938 25.3116 113.464L25.3171 113.458Z" fill="white"/>
<path d="M26.2749 106.154C26.1817 106.694 25.9945 107.157 25.7133 107.547C25.4321 107.932 25.0895 108.219 24.6907 108.408C24.2919 108.596 23.8645 108.65 23.4138 108.569C22.8463 108.469 22.4257 108.25 22.1519 107.905C21.8781 107.56 21.7206 107.035 21.6899 106.337C21.6592 105.638 21.7404 104.722 21.9337 103.578L22.0269 103.038L21.6185 102.969C21.0191 102.868 20.5704 102.922 20.2617 103.129C19.9583 103.336 19.7515 103.734 19.6572 104.316C19.601 104.653 19.5814 105.012 19.604 105.394C19.6265 105.776 19.7019 106.175 19.8352 106.602C19.9039 106.84 19.8886 107.028 19.7895 107.159C19.6904 107.291 19.5606 107.368 19.395 107.391C19.2292 107.419 19.0649 107.383 18.9074 107.293C18.7499 107.198 18.6472 107.045 18.5992 106.829C18.4678 106.327 18.3946 105.842 18.3689 105.369C18.3486 104.896 18.37 104.462 18.4386 104.055C18.6192 102.997 18.9995 102.26 19.5852 101.834C20.1708 101.414 20.994 101.295 22.0547 101.477L26.1014 102.172C26.6371 102.266 26.8641 102.561 26.7773 103.059C26.6902 103.566 26.3815 103.774 25.8459 103.68L25.2625 103.58C25.6713 103.847 25.9661 104.203 26.1522 104.648C26.3383 105.093 26.3791 105.599 26.2854 106.16L26.2749 106.154ZM25.1957 105.639C25.295 105.067 25.1744 104.56 24.8394 104.106C24.5043 103.657 24.0318 103.377 23.4271 103.277L23.0029 103.202L22.9154 103.726C22.7846 104.495 22.7161 105.111 22.7156 105.562C22.7152 106.013 22.7868 106.348 22.9254 106.56C23.0693 106.773 23.2896 106.907 23.5919 106.963C23.9896 107.032 24.3379 106.949 24.6313 106.715C24.9246 106.481 25.1145 106.126 25.1959 105.634L25.1957 105.639Z" fill="white"/>
<path d="M28.8088 94.9703C28.5815 95.7646 28.2303 96.4001 27.7497 96.8821C27.2691 97.3642 26.6915 97.6774 26.0115 97.8217C25.3315 97.9659 24.5923 97.9209 23.783 97.6915C22.593 97.3508 21.7562 96.729 21.2722 95.8366C20.7829 94.9442 20.7133 93.8796 21.0631 92.6535C21.1856 92.2217 21.3772 91.797 21.6325 91.3792C21.8878 90.9614 22.1672 90.6462 22.4602 90.4279C22.6285 90.2979 22.7949 90.2429 22.9542 90.263C23.1135 90.283 23.2505 90.3454 23.3541 90.4607C23.4632 90.5761 23.5185 90.7063 23.5256 90.8515C23.5327 90.9966 23.4654 91.1345 23.3185 91.2597C23.041 91.4944 22.8107 91.7625 22.6222 92.0639C22.4337 92.3652 22.2984 92.6679 22.2165 92.9665C22.0009 93.7181 22.0385 94.3524 22.3296 94.8589C22.6154 95.3652 23.0532 95.7517 23.6431 96.024L24.5298 92.8947C24.6581 92.4415 24.9127 92.2707 25.2936 92.3767C25.6743 92.4881 25.7952 92.7702 25.6668 93.2233L24.7801 96.3526C25.5229 96.4676 26.1485 96.3702 26.6461 96.0604C27.1489 95.7561 27.5023 95.2495 27.7008 94.5458C27.788 94.2473 27.828 93.9208 27.8314 93.5666C27.8294 93.2176 27.7741 92.8673 27.6655 92.5211C27.6061 92.3371 27.6204 92.1871 27.7033 92.0657C27.7862 91.9443 27.9053 91.8667 28.0606 91.8329C28.2159 91.7992 28.3645 91.819 28.512 91.887C28.6594 91.9551 28.7624 92.0972 28.8266 92.3028C28.9724 92.6553 29.0366 93.0756 29.0245 93.5638C29.0125 94.052 28.9424 94.5173 28.8197 94.9599L28.8088 94.9703Z" fill="white"/>
<path d="M30.8758 88.4828C30.689 88.9291 30.3611 89.0499 29.892 88.8504L24.0043 86.354C23.4718 86.1315 23.3045 85.7891 23.4968 85.3322C23.5874 85.1144 23.7136 84.9672 23.8698 84.8958C24.026 84.8245 24.1923 84.775 24.3633 84.7523L29.4759 84.1269L26.3389 80.018C26.2308 79.865 26.1495 79.7073 26.0949 79.5449C26.0403 79.3825 26.0609 79.1952 26.1459 78.9879C26.3383 78.531 26.698 78.4164 27.225 78.6441L33.1127 81.1406C33.5818 81.34 33.7284 81.6603 33.5416 82.1067C33.3604 82.5424 33.0327 82.6578 32.5636 82.4583L28.2941 80.646L30.9037 84.1084C30.9708 84.1959 31.0217 84.2938 31.0563 84.402C31.0909 84.5102 31.0825 84.6335 31.0259 84.7717C30.9636 84.9205 30.8814 85.0151 30.7737 85.0607C30.6661 85.1064 30.5696 85.1308 30.4679 85.1498L26.1774 85.7043L30.4469 87.5167C30.916 87.7161 31.0625 88.0365 30.8815 88.4668L30.8758 88.4828Z" fill="white"/>
<path d="M37.3674 74.911C36.9722 75.5992 36.491 76.108 35.9128 76.4427C35.34 76.7775 34.7131 76.9284 34.0374 76.901C33.3616 76.8736 32.6588 76.647 31.9395 76.2266C31.2202 75.8063 30.6785 75.3098 30.3146 74.7318C29.9507 74.1537 29.769 73.5319 29.7749 72.861C29.7753 72.1954 29.9732 71.5131 30.3684 70.825C30.7523 70.1581 31.2334 69.6546 31.8063 69.3198C32.3791 68.985 33.0061 68.8287 33.6872 68.8562C34.3682 68.8837 35.0658 69.1049 35.7853 69.5199C36.5046 69.9403 37.0461 70.4421 37.4047 71.02C37.7685 71.6034 37.9449 72.2251 37.9443 72.8961C37.9438 73.5671 37.7463 74.2332 37.3623 74.9002L37.3674 74.911ZM36.291 74.2832C36.6195 73.7062 36.6818 73.1226 36.4674 72.5268C36.2531 71.931 35.76 71.4089 34.9724 70.9493C34.1848 70.4897 33.4912 70.3223 32.8759 70.4359C32.2606 70.5496 31.7887 70.8976 31.4603 71.4693C31.1263 72.0569 31.0585 72.6458 31.2676 73.236C31.4768 73.8263 31.9697 74.3538 32.7521 74.808C33.5344 75.2674 34.2333 75.435 34.8538 75.3268C35.4691 75.2132 35.9464 74.8653 36.2857 74.2831L36.291 74.2832Z" fill="white"/>
<g clip-path="url(#clip1_127_1154)">
<path d="M70.0674 42.9L62.8272 30.5445L70.9589 25.7757C73.7479 24.1401 76.5931 23.736 79.6583 24.5351C80.9843 24.8807 82.3649 25.4541 83.8915 26.2861L84.0726 26.3832L84.0688 26.5886C84.0342 30.3797 83.3336 35.1145 78.2009 38.1245L70.0624 42.8916L70.0674 42.9ZM63.7667 30.7894L70.314 41.9538L77.8578 37.5298C82.5957 34.7513 83.3195 30.3641 83.3837 26.7871C81.9782 26.0365 80.7057 25.5126 79.4863 25.1947C76.6077 24.4443 73.9314 24.8284 71.3105 26.3654L63.7667 30.7894Z" fill="white"/>
<path d="M78.2835 24.1126L77.6895 24.4609L82.6361 32.8959L83.2301 32.5475L78.2835 24.1126Z" fill="white"/>
<path d="M73.0801 35.6011C72.2072 35.3735 71.4762 34.82 71.0247 34.0405C70.5732 33.261 70.447 32.3528 70.6728 31.4865C70.8986 30.6202 71.4539 29.8825 72.2267 29.4293C72.9996 28.9761 73.9144 28.8516 74.7807 29.0774C75.6469 29.3033 76.3846 29.8585 76.8379 30.6313C77.296 31.4126 77.4222 32.3208 77.1964 33.1871C76.9706 34.0533 76.4154 34.791 75.6358 35.2425C74.8546 35.7007 73.9464 35.8269 73.0801 35.6011ZM74.6087 29.7371C73.9157 29.5565 73.1915 29.6595 72.5716 30.0174C71.9499 30.3819 71.5131 30.9655 71.3325 31.6585C71.1518 32.3515 71.2548 33.0757 71.6127 33.6956C72.3369 34.9305 74.0494 35.3769 75.2843 34.6527C75.906 34.2882 76.3427 33.7046 76.5234 33.0116C76.704 32.3186 76.6011 31.5944 76.2432 30.9745C75.8786 30.3528 75.2951 29.9161 74.6021 29.7354L74.6087 29.7371Z" fill="white"/>
<path d="M75.1119 32.0389L74.9395 31.7449C74.6144 31.1904 73.8947 31.0028 73.3403 31.328L73.0462 31.5004L72.6965 30.904L72.9905 30.7315C73.8725 30.2143 75.012 30.5113 75.5359 31.3951L75.7084 31.6891L75.1119 32.0389Z" fill="white"/>
<path d="M66.3071 42.4748L61.3609 34.0406L64.5699 32.1587L69.5161 40.5929L66.3071 42.4748V42.4748ZM62.3004 34.2855L66.5471 41.5268L68.5632 40.3445L64.325 33.0982L62.3088 34.2806L62.3004 34.2855Z" fill="white"/>
<path d="M65.4455 35.1567L63.5447 36.2715L63.893 36.8655L65.7939 35.7508L65.4455 35.1567Z" fill="white"/>
<path d="M66.9765 37.7691L65.0757 38.8838L65.424 39.4778L67.3249 38.3631L66.9765 37.7691Z" fill="white"/>
<path d="M63.2376 31.0997L60.5559 28.3654L63.2189 26.8037C63.9245 26.3899 64.7803 26.3283 65.5504 26.65L68.629 27.9436L63.2275 31.1113L63.2376 31.0997ZM61.6635 28.5118L63.3498 30.2323L67.0965 28.0351L65.2869 27.2787C64.7231 27.0392 64.0912 27.088 63.5637 27.3917L61.6568 28.51L61.6635 28.5118Z" fill="white"/>
<path d="M70.867 45.9478L69.7898 42.2724L75.1914 39.1047L74.8174 42.4231C74.7257 43.2389 74.2507 43.969 73.5451 44.3829L70.8821 45.9446L70.867 45.9478ZM70.6034 42.5913L71.2817 44.903L73.1886 43.7847C73.7095 43.4792 74.064 42.9383 74.1285 42.336L74.3518 40.3874L70.6051 42.5846L70.6034 42.5913Z" fill="white"/>
<path d="M61.0482 42.392C60.3819 42.2183 59.6486 41.8919 58.751 41.4586L58.5433 41.3547L58.5539 41.1226C58.7131 38.4101 58.9843 37.1785 61.1097 35.9321L61.4037 35.7597L61.7535 36.3561L61.4594 36.5285C59.7289 37.5434 59.4168 38.3587 59.2573 40.9359C61.5844 42.0549 62.4483 42.1805 64.1789 41.1657L64.4729 40.9932L64.8227 41.5897L64.5287 41.7621C63.1846 42.5503 62.2077 42.6942 61.0482 42.392Z" fill="white"/>
<path d="M62.9507 38.3805L60.3965 39.8784L60.7448 40.4724L63.2991 38.9745L62.9507 38.3805Z" fill="white"/>
</g>
</g>
<defs>
<clipPath id="clip0_127_1154">
<rect width="208.693" height="206.179" fill="white" transform="translate(32.8792 0.684082) rotate(8.91758)"/>
</clipPath>
<clipPath id="clip1_127_1154">
<rect width="23" height="23" fill="white" transform="translate(62.7219 20.0559) rotate(14.6107)"/>
</clipPath>
</defs>
</svg>
