<svg width="80" height="90" viewBox="0 0 80 90" fill="none" xmlns="http://www.w3.org/2000/svg">
<path d="M18.9491 90.0001H0V87.6314H16.5804V37.8901H0V35.5215H18.9491V90.0001Z" fill="#FFF507"/>
<path d="M68.1692 85.2632H16.5803V35.5219H22.265C28.684 32.869 31.5975 30.4056 35.7189 24.1998L36.0505 23.8682C44.1039 18.6098 48.5332 12.1435 53.6731 4.63489L55.1891 2.43206C56.5866 0.418724 59.2631 -0.505043 61.6081 0.276606C64.4504 1.22406 66.0374 4.04273 65.3979 6.8851L59.6184 35.5219H73.8539C75.583 35.5219 77.2174 36.2798 78.3306 37.5826C79.4676 38.8853 79.965 40.6144 79.7044 42.3199L74.0197 80.218C73.5697 83.1314 71.1063 85.2632 68.1692 85.2632ZM18.949 82.8946H68.1692C69.9457 82.8946 71.4142 81.6155 71.6748 79.8627L77.3595 41.9646C77.5016 40.9461 77.2174 39.9039 76.5305 39.1222C75.8436 38.3406 74.8724 37.8905 73.8302 37.8905H56.705L63.0766 6.41137C63.4556 4.72964 62.5318 3.09528 60.9212 2.57418C59.2631 2.0294 57.9367 2.62155 57.1313 3.80587L55.6154 6.0087C50.5939 13.3278 45.8566 20.2442 37.5427 25.7394C33.1844 32.2532 29.8684 34.9771 22.9283 37.8195L22.4782 37.9142H18.9253V82.9183L18.949 82.8946Z" fill="#FFF507"/>
<path d="M76.9806 47.3647H67.5061V49.7334H76.9806V47.3647Z" fill="#FFF507"/>
<path d="M75.7961 59.208H66.0847V61.5766H75.7961V59.208Z" fill="#FFF507"/>
<path d="M73.6645 71.0508H63.9531V73.4194H73.6645V71.0508Z" fill="#FFF507"/>
<path d="M8.29023 80.5254H1.18433V82.894H8.29023V80.5254Z" fill="#FFF507"/>
</svg>
