<svg width="106" height="90" viewBox="0 0 106 90" fill="none" xmlns="http://www.w3.org/2000/svg">
<path d="M52.7097 16.3638C30.9734 16.3638 11.8279 31.0092 5.037 52.7729L4.90063 53.182L5.037 53.591C11.8279 75.382 30.9734 90.0001 52.7097 90.0001C74.4461 90.0001 93.5916 75.3547 100.382 53.591L100.519 53.182L100.382 52.7729C93.5916 30.982 74.4461 16.3638 52.7097 16.3638ZM52.7097 87.2729C32.3097 87.2729 14.3097 73.582 7.76427 53.182C14.3097 32.782 32.3097 19.091 52.7097 19.091C73.1097 19.091 91.1097 32.782 97.6552 53.182C91.1097 73.582 73.1097 87.2729 52.7097 87.2729Z" fill="#FFF507"/>
<path d="M70.2729 38.318L70.3274 38.2634L68.3911 36.3271L68.3365 36.3816C64.2456 32.7271 58.8729 30.4907 52.9547 30.4907C47.0365 30.4907 41.6638 32.7271 37.5729 36.3816L37.5183 36.3271L35.582 38.2634L35.6365 38.318C31.982 42.4089 29.7456 47.7816 29.7456 53.6998C29.7456 59.618 31.982 64.9907 35.6365 69.0816L35.582 69.1362L37.5183 71.0725L37.5729 71.018C41.6638 74.6725 47.0365 76.9089 52.9547 76.9089C58.8729 76.9089 64.2456 74.6725 68.3365 71.018L68.3911 71.0725L70.3274 69.1362L70.2729 69.0816C73.9274 64.9907 76.1638 59.618 76.1638 53.6998C76.1638 47.7816 73.9274 42.4089 70.2729 38.318ZM52.982 33.2453C58.1365 33.2453 62.8274 35.1816 66.4274 38.318L60.5911 44.1544C58.4911 42.4635 55.8729 41.4271 52.982 41.4271C50.0911 41.4271 47.4729 42.4635 45.3729 44.1544L39.5365 38.318C43.1365 35.1544 47.8274 33.2453 52.982 33.2453ZM52.982 63.2453C47.7183 63.2453 43.4365 58.9635 43.4365 53.6998C43.4365 48.4362 47.7183 44.1544 52.982 44.1544C58.2456 44.1544 62.5274 48.4362 62.5274 53.6998C62.5274 58.9635 58.2456 63.2453 52.982 63.2453ZM32.5274 53.6998C32.5274 48.5453 34.4638 43.8544 37.6002 40.2544L43.4365 46.0907C41.7456 48.1907 40.7092 50.8089 40.7092 53.6998C40.7092 56.5907 41.7456 59.2089 43.4365 61.3089L37.6002 67.1453C34.4365 63.5453 32.5274 58.8544 32.5274 53.6998ZM52.982 74.1544C47.8274 74.1544 43.1365 72.218 39.5365 69.0816L45.3729 63.2453C47.4729 64.9362 50.0911 65.9725 52.982 65.9725C55.8729 65.9725 58.4911 64.9362 60.5911 63.2453L66.4274 69.0816C62.8274 72.2453 58.1365 74.1544 52.982 74.1544ZM62.5274 61.3089C64.2183 59.2089 65.2547 56.5907 65.2547 53.6998C65.2547 50.8089 64.2183 48.1907 62.5274 46.0907L68.3638 40.2544C71.5274 43.8544 73.4365 48.5453 73.4365 53.6998C73.4365 58.8544 71.5002 63.5453 68.3638 67.1453L62.5274 61.3089Z" fill="#FFF507"/>
<path d="M104.279 25.1391L94.5051 30.2837L95.7754 32.6971L105.55 27.5524L104.279 25.1391Z" fill="#FFF507"/>
<path d="M1.27028 24.9406L0 27.354L9.77419 32.4986L11.0445 30.0853L1.27028 24.9406Z" fill="#FFF507"/>
<path d="M54.3183 0H51.5911V10.9091H54.3183V0Z" fill="#FFF507"/>
<path d="M80.4514 6.11446L74.7344 15.4695L77.0615 16.8916L82.7786 7.53661L80.4514 6.11446Z" fill="#FFF507"/>
<path d="M25.3706 5.93795L23.0435 7.36011L28.7605 16.7151L31.0876 15.293L25.3706 5.93795Z" fill="#FFF507"/>
<path d="M58.4093 52.3363H54.3184V48.2454H51.5912V52.3363H47.5002V55.0635H51.5912V59.1545H54.3184V55.0635H58.4093V52.3363Z" fill="#FFF507"/>
</svg>
