<svg width="95" height="100" viewBox="0 0 95 100" fill="none" xmlns="http://www.w3.org/2000/svg">
<path d="M61.4287 99.9999C43.3144 99.9999 28.5715 85.2571 28.5715 67.1428C28.5715 49.0285 43.3144 34.2856 61.4287 34.2856C79.543 34.2856 94.2858 49.0285 94.2858 67.1428C94.2858 85.2571 79.543 99.9999 61.4287 99.9999ZM61.4287 37.1428C44.8858 37.1428 31.4287 50.5999 31.4287 67.1428C31.4287 83.6856 44.8858 97.1428 61.4287 97.1428C77.9715 97.1428 91.4287 83.6856 91.4287 67.1428C91.4287 50.5999 77.9715 37.1428 61.4287 37.1428Z" fill="#FFF507"/>
<path d="M61.4286 88.5715C51.9429 88.5715 43.7143 82.4858 40.9429 73.4287L43.6857 72.6001C46.0857 80.4572 53.2286 85.7144 61.4572 85.7144C69.6857 85.7144 76.8 80.4572 79.2286 72.6001L81.9429 73.4287C79.1714 82.4858 70.9429 88.5715 61.4572 88.5715H61.4286Z" fill="#FFF507"/>
<path d="M24.2857 77.1429H0V0H54.2857V27.1429H51.4286V2.85714H2.85714V74.2857H24.2857V77.1429Z" fill="#FFF507"/>
<path d="M62.8571 35.7144H60V50.0001H62.8571V35.7144Z" fill="#FFF507"/>
<path d="M51.4287 38.5715H48.5715V50.0001H51.4287V38.5715Z" fill="#FFF507"/>
<path d="M74.2856 38.5715H71.4285V50.0001H74.2856V38.5715Z" fill="#FFF507"/>
<path d="M24.2857 57.1428H1.42859V60H24.2857V57.1428Z" fill="#FFF507"/>
<path d="M47.1428 70.0001C43.9999 70.0001 41.4285 67.4287 41.4285 64.2858C41.4285 61.143 43.9999 58.5715 47.1428 58.5715C50.2856 58.5715 52.857 61.143 52.857 64.2858C52.857 67.4287 50.2856 70.0001 47.1428 70.0001ZM47.1428 61.4287C45.5713 61.4287 44.2856 62.7144 44.2856 64.2858C44.2856 65.8572 45.5713 67.143 47.1428 67.143C48.7142 67.143 49.9999 65.8572 49.9999 64.2858C49.9999 62.7144 48.7142 61.4287 47.1428 61.4287Z" fill="#FFF507"/>
<path d="M75.7143 70.0001C72.5714 70.0001 70 67.4287 70 64.2858C70 61.143 72.5714 58.5715 75.7143 58.5715C78.8571 58.5715 81.4286 61.143 81.4286 64.2858C81.4286 67.4287 78.8571 70.0001 75.7143 70.0001ZM75.7143 61.4287C74.1429 61.4287 72.8571 62.7144 72.8571 64.2858C72.8571 65.8572 74.1429 67.143 75.7143 67.143C77.2857 67.143 78.5714 65.8572 78.5714 64.2858C78.5714 62.7144 77.2857 61.4287 75.7143 61.4287Z" fill="#FFF507"/>
<path d="M32.8857 42.4287L21.7714 31.343L16.6571 36.4573L14.0857 13.543L37 16.1144L31.8857 21.2287L43.5143 32.8573L41.4857 34.8858L27.8286 21.2287L30.8 18.2858L17.3428 16.8001L18.8286 30.2573L21.7714 27.2858L34.8857 40.4287L32.8857 42.4287Z" fill="#FFF507"/>
</svg>
