<svg width="117" height="100" viewBox="0 0 117 100" fill="none" xmlns="http://www.w3.org/2000/svg">
<path d="M34.3939 100H0V40.1516H65.6061C70.3333 40.1516 74.2121 44.0001 74.2121 48.7577C74.2121 53.5152 70.3636 57.4849 65.6061 57.4849H42.6667V91.6971C42.6667 96.2728 38.9394 99.9698 34.3939 99.9698V100ZM3.0303 96.9698H34.3939C37.303 96.9698 39.6364 94.6062 39.6364 91.7274V54.4849H65.6061C68.6667 54.4849 71.1818 52.0001 71.1818 48.9092C71.1818 45.8183 68.697 43.2122 65.6061 43.2122H3.0303V97.0001V96.9698Z" fill="#FFF507"/>
<path d="M41.8482 68.7573H28.5149V71.7876H41.8482V68.7573Z" fill="#FFF507"/>
<path d="M41.8482 54.4551H28.5149V57.4854H41.8482V54.4551Z" fill="#FFF507"/>
<path d="M41.8482 83.061H28.5149V86.0913H41.8482V83.061Z" fill="#FFF507"/>
<path d="M67.4543 69.5753C58.9391 69.5753 51.4239 64.4541 48.3027 56.545L51.1209 55.4238C53.7876 62.1814 60.2118 66.545 67.4543 66.545C77.1209 66.545 84.9997 58.6663 84.9997 48.9996C84.9997 39.3329 77.1209 31.4541 67.4543 31.4541C60.333 31.4541 53.9694 35.6966 51.2421 42.2723L48.4543 41.1208C51.6664 33.4238 59.1209 28.4238 67.4543 28.4238C78.7876 28.4238 88.03 37.6663 88.03 48.9996C88.03 60.3329 78.7876 69.5753 67.4543 69.5753Z" fill="#FFF507"/>
<path d="M67.4545 97.9697C57.7575 97.9697 48.3636 95.1515 40.3333 89.7879L42 87.2727C49.5454 92.303 58.3333 94.9697 67.4545 94.9697C92.7878 94.9697 113.424 74.3636 113.424 49C113.424 23.6364 92.7878 3.0303 67.4545 3.0303C44.9697 3.0303 25.4545 19.7576 22.0303 41.9091L19.0303 41.4545C22.6969 17.8182 43.5151 0 67.4545 0C94.4545 0 116.455 21.9697 116.455 49C116.455 76.0303 94.4848 98 67.4545 98V97.9697Z" fill="#FFF507"/>
<path d="M68.9698 75.1821H65.9395V83.3033H68.9698V75.1821Z" fill="#FFF507"/>
<path d="M68.9698 14.6663H65.9395V22.7875H68.9698V14.6663Z" fill="#FFF507"/>
<path d="M87.0472 66.4506L84.9041 68.593L90.6456 74.3366L92.7887 72.1942L87.0472 66.4506Z" fill="#FFF507"/>
<path d="M44.2574 23.6645L42.115 25.8076L47.8586 31.5492L50.0009 29.4061L44.2574 23.6645Z" fill="#FFF507"/>
<path d="M101.757 47.4846H93.636V50.5149H101.757V47.4846Z" fill="#FFF507"/>
<path d="M90.6605 23.6608L84.918 29.4033L87.0607 31.5461L92.8033 25.8035L90.6605 23.6608Z" fill="#FFF507"/>
</svg>
