<svg width="114" height="100" viewBox="0 0 114 100" fill="none" xmlns="http://www.w3.org/2000/svg">
<path d="M55.1509 60.9314H49.9454V57.178L51.2879 56.1917C57.7262 51.3697 61.5619 43.6985 61.5619 35.6437V26.1368H60.192C45.8632 25.9998 39.1783 23.5889 29.1782 14.8491L27.37 16.9039C37.5344 25.7533 44.7673 28.5478 58.8221 28.8218V35.6163C58.8221 42.7944 55.3975 49.6711 49.644 53.9725L47.2057 55.7807V63.6437H52.0276L42.7947 79.8082L33.5618 63.6437H38.3837V55.7807L35.9454 53.9725C30.1919 49.6711 26.7673 42.7944 26.7673 35.6163V24.5752H24.0275V35.6163C24.0275 43.6437 27.8632 51.3424 34.3015 56.1643L35.644 57.1506V60.904H30.4385C20.5207 60.904 12.4385 68.9862 12.4385 78.904V100H15.1782V78.904C15.1782 72.767 18.8221 67.4794 24.0549 65.0684V81.7534L37.1235 75.3698L42.8221 85.3424L48.5207 75.3698L61.5893 81.7534V65.0684C66.7948 67.4794 70.4386 72.767 70.4386 78.904V100H73.1783V78.904C73.1783 68.9862 65.0961 60.904 55.1783 60.904L55.1509 60.9314ZM26.7399 77.3698V64.1095C27.918 63.8355 29.1234 63.6437 30.3837 63.6437L35.7262 72.9862L26.7673 77.3698H26.7399ZM58.7947 77.3698L49.8358 72.9862L55.1783 63.6437C56.4386 63.6437 57.644 63.8081 58.7947 64.1095V77.3698Z" fill="#FFF507"/>
<path d="M13.7535 63.8083C10.0822 63.8083 6.27399 61.096 4.35617 59.507C12.9589 53.2604 18.0274 44.6302 18.0274 36.1644V18.4384C18.0274 15.3151 19.3973 12.3562 21.7809 10.3288C24.1644 8.30137 27.3151 7.45205 30.3836 7.9452L33.8357 8.52054L34.274 5.80821L30.822 5.23287C26.9316 4.57533 22.9864 5.67122 20 8.21917C16.9863 10.7671 15.2877 14.4658 15.2877 18.411V36.1644C15.2877 44.0549 9.97262 52.5206 1.39726 58.2193L0 59.1508L1.17808 60.3289C1.42466 60.5755 7.45207 66.5207 13.7535 66.5207V63.7809V63.8083Z" fill="#FFF507"/>
<path d="M78.2739 53.4517L76.3287 55.3695C77.8082 56.8489 79.4246 58.2462 81.178 59.5339C79.2602 61.1229 75.452 63.8352 71.7808 63.8352V66.575C78.0821 66.575 84.1096 60.6298 84.3561 60.3832L85.5342 59.2051L84.1369 58.2736C82 56.8489 80.0274 55.2325 78.2739 53.4791V53.4517Z" fill="#FFF507"/>
<path d="M67.5066 21.7535V36.1919C67.5066 39.3425 68.2189 42.548 69.6162 45.6987L72.1367 44.6028C70.9038 41.8083 70.2737 38.959 70.2737 36.1919V21.7535C70.2737 9.75344 60.5203 0 48.5202 0H31.1777V2.73973H48.5202C58.986 2.73973 67.534 11.2603 67.534 21.7535H67.5066Z" fill="#FFF507"/>
<path d="M38.3287 31.9175H32.6848V34.6572H38.3287V31.9175Z" fill="#FFF507"/>
<path d="M52.8494 31.9175H47.2056V34.6572H52.8494V31.9175Z" fill="#FFF507"/>
<path d="M92.2738 2.9043H67.5066V5.64403H92.2738C102.603 5.64403 111.014 14.055 111.014 24.3838V24.7948C111.014 35.1235 102.603 43.5345 92.2738 43.5345H76.8217L69.8628 54.0003L72.1367 55.5071L78.3011 46.2743H92.2738C104.109 46.2743 113.753 36.6304 113.753 24.7948V24.3838C113.753 12.5482 104.109 2.9043 92.2738 2.9043Z" fill="#FFF507"/>
<path d="M99.2333 17.3975H76.1921V20.1372H99.2333V17.3975Z" fill="#FFF507"/>
<path d="M99.2333 23.2061H76.1921V25.9458H99.2333V23.2061Z" fill="#FFF507"/>
<path d="M99.2333 29.0132H76.1921V31.7529H99.2333V29.0132Z" fill="#FFF507"/>
</svg>
