<svg width="90" height="100" viewBox="0 0 90 100" fill="none" xmlns="http://www.w3.org/2000/svg">
<path d="M64.8648 36.4864H62.1621V27.0269H52.7026V24.3242H64.8648V36.4864Z" fill="#FFF507"/>
<path d="M64.8649 99.9999H0V24.3242H39.1892V27.0269H2.7027V97.2972H62.1622V49.9999H64.8649V99.9999Z" fill="#FFF507"/>
<path d="M40.5406 8.10811H37.8379V0H45.946V2.7027H40.5406V8.10811Z" fill="#FFF507"/>
<path d="M82.4323 44.5947H44.5945V6.75684H82.4323V44.5947ZM47.2972 41.892H79.7296V9.45954H47.2972V41.892Z" fill="#FFF507"/>
<path d="M20.2703 60.0271L7.54053 47.2974L20.2703 34.5676L33 47.2974L20.2703 60.0271ZM11.3784 47.2974L20.2703 56.1893L29.1621 47.2974L20.2703 38.4055L11.3784 47.2974Z" fill="#FFF507"/>
<path d="M89.1892 8.10811H86.4865V2.7027H81.0811V0H89.1892V8.10811Z" fill="#FFF507"/>
<path d="M89.1892 51.3513H81.0811V48.6486H86.4865V43.2432H89.1892V51.3513Z" fill="#FFF507"/>
<path d="M45.946 51.3513H37.8379V43.2432H40.5406V48.6486H45.946V51.3513Z" fill="#FFF507"/>
<path d="M47.2973 86.4865C42.0811 86.4865 37.8379 82.2433 37.8379 77.0271C37.8379 71.8109 42.0811 67.5676 47.2973 67.5676C52.5136 67.5676 56.7568 71.8109 56.7568 77.0271C56.7568 82.2433 52.5136 86.4865 47.2973 86.4865ZM47.2973 70.2703C43.5676 70.2703 40.5406 73.2974 40.5406 77.0271C40.5406 80.7568 43.5676 83.7838 47.2973 83.7838C51.0271 83.7838 54.0541 80.7568 54.0541 77.0271C54.0541 73.2974 51.0271 70.2703 47.2973 70.2703Z" fill="#FFF507"/>
<path d="M32.4325 67.5676H8.10815V70.2703H32.4325V67.5676Z" fill="#FFF507"/>
<path d="M32.4325 75.6758H8.10815V78.3785H32.4325V75.6758Z" fill="#FFF507"/>
<path d="M32.4325 83.7837H8.10815V86.4864H32.4325V83.7837Z" fill="#FFF507"/>
</svg>
