<svg width="91" height="90" viewBox="0 0 91 90" fill="none" xmlns="http://www.w3.org/2000/svg">
<path d="M88.1872 20.0772L69.95 1.84007C67.4693 -0.613358 63.1895 -0.613358 60.736 1.84007L52.4761 10.1L48.9323 13.6438L46.9968 15.5793L2.48069 60.0682L0 90L29.9318 87.5193L74.448 43.0304L76.3835 41.095L79.9273 37.5511L88.1872 29.2912C89.4139 28.0645 90.0954 26.4289 90.0954 24.6842C90.0954 22.9396 89.4139 21.304 88.1872 20.0772ZM3.70741 78.2508L11.7492 86.2926L2.97138 87.0286L3.70741 78.2508ZM28.7324 84.9023L15.3203 86.02L4.00727 74.707L5.12494 61.2949L48.905 17.4875L72.5125 41.095L28.7324 84.9023ZM74.448 39.1595L50.8405 15.5793L54.3844 12.0354L58.8005 16.4516L77.9918 35.6429L74.448 39.1867V39.1595ZM86.2517 27.3557L79.9273 33.6801L62.5625 16.3153L56.3199 10.0727L62.6443 3.7483C64.0618 2.33076 66.5697 2.3035 68.0145 3.7483L86.2517 21.9855C86.9605 22.6942 87.3694 23.6483 87.3694 24.657C87.3694 25.6656 86.9605 26.6197 86.2517 27.3285V27.3557Z" fill="#FFF507"/>
<path d="M55.1234 32.9442L17.7087 70.3589L19.6363 72.2865L57.051 34.8718L55.1234 32.9442Z" fill="#FFF507"/>
<path d="M48.639 26.5033L11.2244 63.918L13.152 65.8456L50.5666 28.4309L48.639 26.5033Z" fill="#FFF507"/>
<path d="M61.6002 39.4335L24.1855 76.8481L26.1131 78.7757L63.5278 41.3611L61.6002 39.4335Z" fill="#FFF507"/>
</svg>
