<svg width="98" height="80" viewBox="0 0 98 80" fill="none" xmlns="http://www.w3.org/2000/svg">
<path d="M58.163 0H39.6148C17.7778 0 0 17.7778 0 39.6148V40.3852C0 62.2222 17.7778 80 39.6148 80H91.8519V61.1556C95.7333 54.8741 97.7778 47.7037 97.7778 40.3852V39.6148C97.7778 17.7778 80 0 58.163 0V0ZM94.8148 40.3852C94.8148 47.2889 92.8593 54.0741 89.1259 59.9407L88.8889 60.2963V77.037H39.6148C19.4074 77.037 2.96296 60.5926 2.96296 40.3852V39.6148C2.96296 19.4074 19.4074 2.96296 39.6148 2.96296H58.163C78.3704 2.96296 94.8148 19.4074 94.8148 39.6148V40.3852Z" fill="#FFF507"/>
<path d="M35.2001 29.6301L38.6372 37.6301L41.3631 36.4746L31.1112 12.5635L20.8594 36.4746L23.5853 37.6301L27.0223 29.6301H35.2297H35.2001ZM33.926 26.6672H28.2668L31.1112 20.0598L33.9557 26.6672H33.926Z" fill="#FFF507"/>
<path d="M68.1482 50.637V45.9259C68.1482 43.4666 66.1631 41.4814 63.7038 41.4814H56.2964V65.1851H66.6668C69.126 65.1851 71.1112 63.2 71.1112 60.7407V54.8148C71.1112 52.8889 69.8668 51.2296 68.1482 50.637ZM59.2593 44.4444H63.7038C64.5334 44.4444 65.1853 45.0963 65.1853 45.9259V50.3703H59.2593V44.4444ZM68.1482 60.7407C68.1482 61.5703 67.4964 62.2222 66.6668 62.2222H59.2593V53.3333H66.6668C67.4964 53.3333 68.1482 53.9851 68.1482 54.8148V60.7407Z" fill="#FFF507"/>
<path d="M60.4457 24.8612L33.7747 51.5322L35.8698 53.6274L62.5408 26.9563L60.4457 24.8612Z" fill="#FFF507"/>
</svg>
