<svg width="30" height="28" viewBox="0 0 30 28" fill="white" xmlns="http://www.w3.org/2000/svg">
<path d="M14.5025 0C10.6494 0 10.1659 0.0165979 8.65256 0.0844446C7.1422 0.152582 6.11126 0.388153 5.20919 0.733791C4.27606 1.09079 3.48453 1.56834 2.69596 2.34551C1.90679 3.1224 1.42205 3.9022 1.0585 4.82118C0.706775 5.71018 0.467364 6.72613 0.399383 8.21352C0.331698 9.70439 0.313965 10.1811 0.313965 13.977C0.313965 17.7728 0.331107 18.2478 0.39968 19.7388C0.469137 21.2266 0.708253 22.2423 1.0588 23.1311C1.42146 24.0503 1.9062 24.8301 2.69508 25.6069C3.48335 26.3844 4.27489 26.8632 5.2074 27.2202C6.11007 27.5658 7.14131 27.8014 8.65137 27.8695C10.1647 27.9373 10.648 27.954 14.5007 27.954C18.354 27.954 18.836 27.9373 20.3495 27.8695C21.8597 27.8014 22.8919 27.5658 23.7946 27.2202C24.7274 26.8632 25.5177 26.3844 26.306 25.6069C27.0952 24.8301 27.5799 24.0503 27.9434 23.1313C28.2922 22.2423 28.5317 21.2263 28.6026 19.7391C28.6705 18.2481 28.6884 17.7728 28.6884 13.977C28.6884 10.1811 28.6705 9.70469 28.6026 8.21382C28.5317 6.72585 28.2922 5.71018 27.9434 4.82148C27.5799 3.9022 27.0952 3.1224 26.306 2.34551C25.5169 1.56805 24.7277 1.0905 23.7936 0.733791C22.8892 0.388153 21.8577 0.152582 20.3474 0.0844446C18.834 0.0165979 18.3523 0 14.498 0H14.5025ZM13.2298 2.51877C13.6075 2.51818 14.029 2.51877 14.5025 2.51877C18.2905 2.51877 18.7394 2.53216 20.2353 2.59913C21.6186 2.66145 22.3693 2.88916 22.8695 3.08047C23.5315 3.3338 24.0035 3.63664 24.4997 4.12583C24.9963 4.61502 25.3037 5.08093 25.5614 5.73319C25.7556 6.22529 25.9871 6.96491 26.0501 8.32767C26.118 9.80107 26.1328 10.2437 26.1328 13.9738C26.1328 17.7039 26.118 18.1465 26.0501 19.6199C25.9868 20.9827 25.7556 21.7222 25.5614 22.2144C25.3044 22.8667 24.9963 23.3312 24.4997 23.8201C24.0033 24.3091 23.5318 24.612 22.8695 24.8654C22.3699 25.0575 21.6186 25.2846 20.2353 25.347C18.7397 25.4139 18.2905 25.4285 14.5025 25.4285C10.7142 25.4285 10.2652 25.4139 8.7696 25.347C7.38633 25.284 6.63559 25.0564 6.13519 24.8651C5.47312 24.6117 5.00021 24.3088 4.50365 23.8198C4.0071 23.3305 3.69971 22.8657 3.44197 22.2132C3.24779 21.7212 3.01636 20.9815 2.95339 19.6187C2.88542 18.1454 2.87182 17.7027 2.87182 13.9703C2.87182 10.2379 2.88542 9.79757 2.95339 8.32417C3.01664 6.96141 3.24779 6.2218 3.44197 5.72911C3.69911 5.07685 4.0071 4.61095 4.50365 4.12176C5.00021 3.63256 5.47312 3.32973 6.13519 3.07582C6.63529 2.88363 7.38633 2.6565 8.7696 2.59389C10.0784 2.53566 10.5856 2.51818 13.2298 2.51527V2.51877ZM22.0756 4.83954C21.1356 4.83954 20.373 5.58992 20.373 6.51619C20.373 7.44217 21.1356 8.19342 22.0756 8.19342C23.0155 8.19342 23.778 7.44217 23.778 6.51619C23.778 5.59022 23.0155 4.83954 22.0756 4.83954ZM14.5025 6.79922C10.4789 6.79922 7.21669 10.013 7.21669 13.977C7.21669 17.9408 10.4789 21.1532 14.5025 21.1532C18.5261 21.1532 21.7871 17.9408 21.7871 13.977C21.7871 10.013 18.5261 6.79922 14.5025 6.79922ZM14.5025 9.318C17.114 9.318 19.2316 11.4038 19.2316 13.977C19.2316 16.5499 17.114 18.636 14.5025 18.636C11.8905 18.636 9.77335 16.5499 9.77335 13.977C9.77335 11.4038 11.8905 9.318 14.5025 9.318Z" />
</svg>
