<svg width="186" height="66" viewBox="0 0 186 66" fill="none" xmlns="http://www.w3.org/2000/svg">
<path d="M30.3706 64.6549C47.1439 64.6549 60.7413 51.0575 60.7413 34.2842C60.7413 17.511 47.1439 3.91357 30.3706 3.91357C13.5974 3.91357 0 17.511 0 34.2842C0 51.0575 13.5974 64.6549 30.3706 64.6549Z" fill="url(#paint0_linear_126_455)"/>
<mask id="mask0_126_455" style="mask-type:alpha" maskUnits="userSpaceOnUse" x="1" y="0" width="77" height="65">
<path d="M29.4493 64.6549C45.132 64.6549 77.5944 23.5363 77.5944 7.85008C77.5944 -7.83615 45.132 7.85006 29.4493 7.85006C13.7666 7.85006 1.05334 20.5663 1.05334 36.2525C1.05334 51.9387 13.7666 64.6549 29.4493 64.6549Z" fill="url(#paint1_linear_126_455)"/>
</mask>
<g mask="url(#mask0_126_455)">
<path d="M64.8918 4.53289C64.5445 4.32962 64.1595 4.42264 63.8638 4.66726C60.6801 7.28223 57.0563 9.32874 53.1918 10.7379C49.6162 12.0402 45.8824 12.8326 42.1314 13.4459C38.4354 14.0488 34.7119 14.4863 31.0297 15.1582C27.3097 15.8369 23.6481 16.7878 20.1653 18.2831C16.7374 19.7576 13.4747 21.7731 10.7826 24.3743C8.54784 26.5345 6.70844 29.1082 5.34007 31.8989C4.07828 34.476 3.18093 37.2219 2.6102 40.0332C2.1048 42.5207 1.83663 45.0599 1.7713 47.5956C1.72317 49.4974 1.78506 51.4027 1.96728 53.2942C2.06354 54.3002 2.16325 55.32 2.3661 56.3122C2.3661 56.4225 2.3936 56.5293 2.44861 56.6223C2.44861 56.6292 2.45549 56.6326 2.45893 56.6395C2.47612 56.6671 2.49331 56.6981 2.51394 56.7257C2.60333 56.8531 2.73054 56.9496 2.87838 57.0116C2.89213 57.0185 2.90588 57.0254 2.91964 57.0289C2.9437 57.0357 2.96433 57.0426 2.9884 57.0495C3.02965 57.0633 3.07091 57.0736 3.11217 57.0771H3.11905C3.14999 57.084 3.18437 57.0874 3.21531 57.0874C3.2325 57.0874 3.24626 57.084 3.26345 57.084C3.28064 57.084 3.29439 57.084 3.31158 57.0805C3.3494 57.0771 3.39066 57.0702 3.42504 57.0633C3.42848 57.0633 3.43535 57.0633 3.43879 57.0633C3.44911 57.0633 3.45942 57.053 3.46973 57.0495C3.50755 57.0357 3.54537 57.0254 3.57975 57.0082C3.60726 56.9944 3.63476 56.9772 3.66227 56.9599C3.67258 56.9531 3.68634 56.9462 3.69665 56.9358C3.89606 56.7946 4.01296 56.5775 4.0439 56.3363C4.05078 56.3053 4.05765 56.2743 4.06109 56.2433C4.05078 56.3191 4.04734 56.3639 4.04046 56.4018C4.0439 56.3742 4.04734 56.3467 4.05422 56.3157C4.07828 56.1744 4.10579 56.0332 4.13329 55.8919C4.24331 55.3648 4.38084 54.8445 4.53555 54.3277C4.64557 53.9694 4.76247 53.6111 4.88968 53.2563C4.96532 53.0495 5.04096 52.8428 5.12003 52.6395C5.16129 52.5362 5.19911 52.4363 5.24037 52.3364C5.26443 52.2743 5.36414 52.047 5.3607 52.047C5.79047 51.0926 6.23742 50.152 6.76002 49.239C7.07289 48.6912 7.40638 48.1503 7.75707 47.6232C7.94617 47.3372 8.14214 47.0547 8.34155 46.7757C8.43782 46.6413 8.53752 46.5069 8.63379 46.3726C8.68536 46.3036 8.7335 46.2382 8.78507 46.1693C8.80914 46.1348 8.83664 46.1004 8.86071 46.0694C8.86758 46.0625 8.88821 46.0349 8.9054 46.0108C8.93291 45.9763 9.01199 45.8764 9.02574 45.8592C9.08075 45.7903 9.13232 45.7214 9.18733 45.6559C9.30423 45.5078 9.42456 45.3631 9.54146 45.2184C9.789 44.9221 10.04 44.6292 10.2978 44.3398C10.8342 43.7404 11.3946 43.1581 11.9756 42.6C13.2924 41.3321 14.5783 40.2813 15.9948 39.2856C17.6967 38.0901 19.4948 37.0358 21.3548 36.1125C23.4934 35.0513 25.6903 34.1797 27.9698 33.4389C30.5346 32.6052 33.1098 31.8369 35.6299 30.8687C39.8863 29.2391 44.0293 27.2753 47.904 24.8636C50.9055 22.9997 53.7523 20.867 56.3274 18.4415C58.2665 16.6155 60.0406 14.6173 61.5946 12.4536C62.6089 11.0411 63.5234 9.54924 64.2763 7.97818C64.6442 7.21333 65.0224 6.41057 65.2493 5.59059C65.2597 5.55959 65.27 5.52513 65.2768 5.49413C65.3765 5.13237 65.2115 4.72583 64.8883 4.53633L64.8918 4.53289Z" fill="#117FFF"/>
<path d="M62.2811 24.5421C59.0557 26.2385 55.5579 27.3362 51.9462 27.8249C48.6311 28.2756 45.2643 28.2275 41.9286 28.0761C35.2951 27.7767 28.5718 27.1401 22.1004 29.043C19.2442 29.8826 16.488 31.1386 14.1112 32.9452C12.1242 34.4559 10.4167 36.2556 8.98167 38.2927C6.57042 41.7131 5.00431 45.7117 4.08327 49.7756C3.74521 51.2691 3.49684 52.7832 3.32781 54.3076C3.24847 55.0302 3.16569 55.7666 3.16569 56.4961C3.15534 56.5821 3.15879 56.6682 3.17948 56.7507C3.21743 56.9779 3.33471 57.143 3.4934 57.2532C3.50029 57.26 3.51064 57.2635 3.52099 57.2704C3.53479 57.2772 3.54859 57.2876 3.56239 57.2979C3.63483 57.3461 3.71072 57.3874 3.79351 57.408C4.08672 57.4871 4.36269 57.408 4.56621 57.2256C4.68695 57.1327 4.78009 57.0019 4.82838 56.8333C4.82838 56.8265 4.83528 56.8196 4.83528 56.8161C4.84908 56.7783 4.86288 56.7404 4.87668 56.7026C4.89047 56.6682 4.90427 56.6303 4.91807 56.5959C4.92152 56.5856 4.92497 56.5787 4.93187 56.5684C5.1147 56.1589 5.31477 55.7563 5.5321 55.364C5.8667 54.7618 6.23236 54.1802 6.62561 53.6159C6.7429 53.4473 6.86363 53.2787 6.98782 53.1135C7.05336 53.0275 7.1189 52.9415 7.18099 52.8554L7.19479 52.8382L7.18099 52.8589C7.21549 52.8141 7.24999 52.7694 7.28448 52.7281C7.58459 52.3461 7.89851 51.9745 8.22277 51.6132C8.95753 50.7976 9.74748 50.0303 10.5823 49.318C10.8134 49.1218 11.048 48.9291 11.286 48.7399C11.3481 48.6917 11.4067 48.6435 11.4688 48.5953C11.4826 48.585 11.4964 48.5747 11.5102 48.5644C11.6482 48.4611 11.7827 48.3579 11.9207 48.2581C12.4623 47.8624 13.0142 47.4873 13.5834 47.1294C16.3672 45.3848 19.1959 44.2389 22.3729 43.3993C24.2806 42.8969 26.2261 42.5356 28.1855 42.3153C30.4656 42.0572 32.7389 41.837 35.0018 41.4585C38.7136 40.8357 42.3805 39.9169 45.9094 38.6024C48.6863 37.5701 51.3873 36.3106 53.909 34.7552C55.7993 33.5887 57.6 32.257 59.2351 30.7532C60.3459 29.7312 61.367 28.6266 62.2846 27.4326C62.6882 26.9095 63.0952 26.3624 63.4057 25.7774C63.4195 25.7533 63.4333 25.7292 63.4471 25.7017C63.8369 24.9447 63.0504 24.1394 62.2846 24.5421H62.2811Z" fill="#268AFF"/>
<path d="M35.6808 31.1754C38.113 30.2382 40.5035 29.189 42.8351 28.0139C42.2556 27.9964 41.6762 27.9754 41.1003 27.9474C34.4283 27.6432 27.666 26.9962 21.1571 28.9302C18.2843 29.7835 15.5121 31.06 13.1215 32.8961C11.123 34.4314 9.40557 36.2605 7.96222 38.3308C5.53698 41.8071 3.96179 45.871 3.03541 50.0012C2.69539 51.5191 2.44558 53.0579 2.27557 54.6072C2.19577 55.3416 2.1125 56.09 2.1125 56.8314C2.10209 56.9188 2.10556 57.0063 2.12637 57.0902C2.13331 57.1462 2.15066 57.1951 2.16454 57.2441C2.16454 57.2511 2.17148 57.2581 2.17495 57.2651C2.18883 57.3001 2.20617 57.3315 2.22352 57.3595C2.23393 57.377 2.24434 57.398 2.25822 57.4155C2.25822 57.4155 2.26169 57.4225 2.26516 57.426C2.30332 57.4784 2.3519 57.5274 2.40047 57.5693C2.41435 57.5798 2.42476 57.5903 2.43864 57.6008C2.49762 57.6428 2.56007 57.6813 2.62599 57.7127C2.63987 57.7197 2.65375 57.7267 2.66763 57.7302C2.69192 57.7372 2.71273 57.7442 2.73702 57.7512C2.77519 57.7617 2.80988 57.7687 2.84458 57.7757C2.8654 57.7757 2.88621 57.7827 2.90356 57.7827C2.92438 57.7827 2.94173 57.7897 2.96254 57.7897C3.01806 57.7897 3.07357 57.7827 3.12909 57.7687C3.14296 57.7687 3.15684 57.7652 3.17072 57.7617C3.2991 57.7267 3.42053 57.6603 3.52115 57.5728C3.56625 57.5379 3.60095 57.4959 3.63565 57.4504C3.72585 57.328 3.78831 57.1811 3.80565 57.0238C3.81259 56.9923 3.81953 56.9608 3.823 56.9293C3.81259 57.0063 3.80912 57.0517 3.80219 57.0902C3.80566 57.0622 3.80913 57.0343 3.81606 57.0028C3.84035 56.8594 3.86811 56.716 3.89586 56.5726C4.00689 56.0375 4.14567 55.5094 4.30181 54.9849C4.41283 54.6211 4.5308 54.2574 4.65917 53.8972C4.73551 53.6874 4.81184 53.4775 4.89164 53.2712C4.93327 53.1663 4.97144 53.0649 5.01307 52.9634C5.03736 52.9005 5.13798 52.6697 5.13451 52.6697C5.56821 51.7009 6.01925 50.7462 6.54663 49.8194C6.86236 49.2633 7.19891 48.7142 7.55281 48.1792C7.74364 47.8889 7.94141 47.6021 8.14264 47.3188C8.23979 47.1824 8.34041 47.046 8.43756 46.9097C8.4896 46.8397 8.53818 46.7733 8.59022 46.7033C8.61451 46.6683 8.64226 46.6334 8.66655 46.6019C8.67349 46.5949 8.69431 46.5669 8.71165 46.5424C8.73941 46.5075 8.81921 46.406 8.83309 46.3886C8.88861 46.3186 8.94065 46.2487 8.99616 46.1822C9.11413 46.0318 9.23556 45.885 9.35353 45.7381C9.60334 45.4373 9.85662 45.14 10.1168 44.8463C10.6581 44.2377 11.2236 43.6467 11.81 43.0801C13.1389 41.7931 14.4365 40.7265 15.8659 39.7158C17.5834 38.5022 19.398 37.432 21.275 36.4948C23.4331 35.4176 25.6502 34.5328 27.9505 33.7809C30.5388 32.9346 33.1376 32.1547 35.6808 31.1719V31.1754Z" fill="#10A9FF"/>
<path d="M55.0817 42.3902C52.4027 43.0433 49.6676 43.2399 46.9149 43.0011C44.5239 42.794 42.0767 42.2252 39.6997 41.5511C34.9176 40.1958 30.2163 38.4227 25.2096 38.1138C20.431 37.8188 15.6244 38.9178 11.7412 41.7828C8.69707 44.0299 6.30604 47.0494 4.52242 50.3709C3.87287 51.5787 3.30759 52.8286 2.81253 54.1066C2.57378 54.7281 2.32801 55.3636 2.15948 56.0096V56.0201C2.12437 56.1009 2.11032 56.1852 2.10681 56.2694C2.10681 56.2905 2.10681 56.3151 2.10681 56.3361C2.10681 56.3537 2.10681 56.3748 2.10681 56.3923C2.11734 56.5503 2.17001 56.6872 2.25779 56.8031C2.32801 56.912 2.42281 57.0068 2.53165 57.0735C2.75285 57.2034 2.99862 57.2174 3.21631 57.1437C3.43048 57.0945 3.62008 56.9611 3.73594 56.7329C3.74999 56.7153 3.76052 56.6943 3.77456 56.6767C3.79563 56.6486 3.81319 56.624 3.83425 56.596C4.05896 56.3186 4.29069 56.0482 4.53646 55.7884C4.92268 55.3776 5.33347 54.9914 5.75831 54.6227C5.88471 54.5139 6.01111 54.4086 6.13751 54.3067C6.20773 54.2506 6.27795 54.1944 6.34817 54.1382C6.37275 54.1172 6.40084 54.0961 6.42892 54.075L6.4535 54.054C6.75896 53.8257 7.06794 53.601 7.38744 53.3904C8.1353 52.8918 8.91826 52.4424 9.72581 52.0456C10.6913 51.5716 11.4076 51.2837 12.5276 50.9256C15.0942 50.1075 17.5344 49.7775 20.2063 49.7599C23.6823 49.7354 27.0775 50.4657 30.5323 50.7184C33.5448 50.9361 36.5819 50.9186 39.5838 50.571C43.748 50.0865 47.8805 49.0121 51.5776 47.0002C52.666 46.4104 53.6983 45.7327 54.6673 44.9673C55.0852 44.6373 55.5135 44.2897 55.8752 43.893C55.8892 43.8754 55.9067 43.8578 55.9208 43.8438C56.4861 43.2013 55.9454 42.1866 55.0781 42.3972L55.0817 42.3902Z" fill="#ADFF00"/>
<path d="M37.7335 40.9717C33.6221 39.7323 29.5317 38.377 25.2096 38.1102C20.431 37.8152 15.6244 38.9142 11.7412 41.7792C8.69707 44.0263 6.30604 47.0458 4.52242 50.3673C3.87287 51.5751 3.30759 52.825 2.81253 54.103C2.57378 54.7245 2.32801 55.36 2.15948 56.006V56.0165C2.12437 56.0973 2.11032 56.1816 2.10681 56.2658C2.10681 56.2869 2.10681 56.3115 2.10681 56.3325C2.10681 56.3501 2.10681 56.3712 2.10681 56.3887C2.11734 56.5467 2.17001 56.6836 2.25779 56.7995C2.32801 56.9084 2.42281 57.0031 2.53165 57.0699C2.75285 57.1998 2.99862 57.2138 3.21631 57.1401C3.29004 57.1225 3.35675 57.0944 3.42346 57.0558C3.59901 56.6661 3.79212 56.2799 3.99927 55.9042C4.33984 55.2898 4.71202 54.6964 5.11228 54.1206C5.23165 53.9485 5.35454 53.7765 5.48094 53.608C5.54765 53.5202 5.61436 53.4324 5.67756 53.3446L5.6916 53.3271L5.67756 53.3481C5.71267 53.3025 5.74778 53.2569 5.78289 53.2147C6.08835 52.825 6.40786 52.4458 6.7379 52.0771C7.48575 51.245 8.28978 50.4621 9.13946 49.7353C9.3747 49.5351 9.61345 49.3385 9.85571 49.1454C9.91891 49.0963 9.9786 49.0471 10.0418 48.9979C10.0558 48.9874 10.0699 48.9769 10.0839 48.9663C10.2244 48.861 10.3613 48.7557 10.5017 48.6539C11.053 48.2501 11.6148 47.8674 12.1941 47.5022C15.0275 45.7221 17.9066 44.5529 21.1403 43.6962C23.0819 43.1836 25.0621 42.815 27.0564 42.5903C29.3772 42.3269 31.691 42.1022 33.9942 41.716C35.2477 41.5053 36.4941 41.2561 37.7335 40.9752V40.9717Z" fill="#04E9A4"/>
<path d="M33.6882 58.0039C33.1124 56.9822 32.2662 56.0658 31.4411 55.2442C29.2994 53.1165 26.6977 51.4593 23.9345 50.262C22.1544 49.4896 20.3146 48.8084 18.38 48.5732C16.7755 48.3766 15.1288 48.5275 13.5664 48.9208C10.7119 49.6335 8.12421 51.1538 5.83501 52.9655C4.60614 53.9381 3.40886 55.016 2.39768 56.2167C2.38364 56.2343 2.36608 56.2554 2.35204 56.2729C2.32746 56.3045 2.30639 56.3361 2.28533 56.3677C2.28182 56.3712 2.2783 56.3783 2.27479 56.3853C2.26426 56.4028 2.25022 56.4239 2.23968 56.4415C2.12733 56.624 2.08169 56.8382 2.12031 57.0489C2.12733 57.098 2.14137 57.1437 2.15893 57.1893C2.16946 57.2139 2.17999 57.2385 2.19404 57.263C2.20457 57.2806 2.20808 57.3017 2.21862 57.3192C2.21862 57.3262 2.22564 57.3298 2.22915 57.3333C2.2467 57.3614 2.26777 57.3894 2.29235 57.4175C2.30288 57.4316 2.31693 57.4491 2.32746 57.4632C2.33799 57.4737 2.3415 57.4842 2.35204 57.4948C2.37661 57.5194 2.40821 57.5404 2.4363 57.5615L2.44332 57.5685C2.47843 57.5931 2.51355 57.6141 2.55217 57.6352C2.56972 57.6457 2.59079 57.6563 2.60834 57.6633C2.6259 57.6703 2.64345 57.6773 2.6575 57.6844C2.80496 57.7441 2.96998 57.7616 3.12447 57.7335C3.14202 57.7335 3.15958 57.723 3.18065 57.7195C3.20522 57.7125 3.2298 57.7089 3.25438 57.6984C3.33513 57.6738 3.40886 57.6317 3.47557 57.579C3.82317 57.3578 4.19534 57.1718 4.56751 56.9962C4.66231 56.9506 4.75711 56.9084 4.85542 56.8663C4.9116 56.8417 4.96777 56.8171 5.02746 56.7926L5.04151 56.7855H5.05204C5.31888 56.6732 5.58572 56.5679 5.85607 56.4695C6.52317 56.2273 7.20081 56.0236 7.88546 55.8446C8.73865 55.6269 9.60237 55.4513 10.4731 55.3214C10.5855 55.3039 10.6978 55.2898 10.8067 55.2723H10.8172C10.8734 55.2653 10.9331 55.2547 10.9892 55.2477C11.2526 55.2161 11.5124 55.188 11.7757 55.1634C12.334 55.1108 12.8957 55.0721 13.454 55.0511C14.6688 55.0019 15.8872 55.023 17.0985 55.1073C18.5415 55.2056 19.7915 55.3671 21.1889 55.6234C25.0861 56.3326 28.8781 57.5825 32.5015 59.1766C32.8596 59.3346 33.2564 59.3346 33.5513 59.0396C33.8252 58.7658 33.8743 58.3269 33.6882 57.9898V58.0039Z" fill="#FFF507"/>
<path d="M12.4504 50.922C15.017 50.104 17.4572 49.7739 20.1291 49.7564C21.0876 49.7493 22.0391 49.8055 22.9906 49.8863C21.4914 49.2789 19.9465 48.7733 18.3384 48.5767C16.7339 48.38 15.0872 48.531 13.5248 48.9243C10.6703 49.637 8.08263 51.1573 5.79342 52.969C4.56455 53.9416 3.36728 55.0194 2.3561 56.2202C2.34205 56.2378 2.3245 56.2589 2.31045 56.2764C2.28588 56.308 2.26481 56.3396 2.24374 56.3712C2.24023 56.3747 2.23672 56.3817 2.23321 56.3888C2.22268 56.4063 2.20863 56.4274 2.1981 56.4449C2.15597 56.5116 2.12788 56.5819 2.10681 56.6556C2.12788 56.7048 2.15246 56.7539 2.18405 56.796C2.25428 56.9049 2.34907 56.9997 2.45792 57.0664C2.67911 57.1963 2.92489 57.2103 3.14257 57.1366C3.35675 57.0875 3.54635 56.954 3.66221 56.7258C3.67625 56.7083 3.68679 56.6872 3.70083 56.6696C3.7219 56.6416 3.73945 56.617 3.76052 56.5889C3.98523 56.3115 4.21696 56.0412 4.46273 55.7813C4.84895 55.3706 5.25974 54.9843 5.68458 54.6157C5.81098 54.5068 5.93737 54.4015 6.06377 54.2997C6.13399 54.2435 6.20422 54.1873 6.27444 54.1312C6.29901 54.1101 6.3271 54.089 6.35519 54.0679L6.37977 54.0469C6.68523 53.8187 6.9942 53.594 7.31371 53.3833C8.06156 52.8847 8.84453 52.4353 9.65207 52.0386C10.6176 51.5646 11.3339 51.2767 12.4539 50.9185L12.4504 50.922Z" fill="#5FFF82"/>
</g>
<path d="M92.8807 56.0487C92.3954 56.4262 91.7551 56.6149 90.9597 56.6149C90.2722 56.6149 89.3757 56.0285 88.2703 54.8557L74.9848 40.7614V54.4108C74.9848 55.0714 74.7759 55.5971 74.358 55.9881C73.8996 56.406 73.3132 56.6149 72.5987 56.6149C71.8708 56.6149 71.2843 56.4127 70.8395 56.0083C70.4081 55.6039 70.1924 55.0714 70.1924 54.4108V28.9521C70.1924 28.2242 70.4013 27.658 70.8192 27.2536C71.2506 26.8491 71.8438 26.6469 72.5987 26.6469C73.3537 26.6469 73.9401 26.8491 74.358 27.2536C74.7759 27.658 74.9848 28.2242 74.9848 28.9521V40.8221L87.6838 27.5771C88.277 26.957 88.9106 26.6469 89.5847 26.6469C91.1619 26.6469 91.9505 27.3816 91.9505 28.851C91.9505 29.5116 91.3102 30.462 90.0295 31.7022L80.8895 40.5592L91.8899 51.8427C92.9684 52.9347 93.5076 53.8311 93.5076 54.5321C93.5076 55.2062 93.2986 55.7117 92.8807 56.0487Z" fill="#117FFF"/>
<path d="M113.284 53.0155C111.41 55.2534 109.051 56.3723 106.207 56.3723C102.89 56.3723 100.572 55.4354 99.2505 53.5615L99.2707 62.8431C99.2707 63.6115 99.0685 64.2249 98.664 64.6833C98.2596 65.1551 97.7001 65.391 96.9857 65.391C96.3116 65.391 95.7724 65.1618 95.368 64.7035C94.9231 64.2047 94.7006 63.5846 94.7006 62.8431V36.6767C94.7006 35.9218 94.9231 35.2882 95.368 34.7759C95.7724 34.331 96.3116 34.1086 96.9857 34.1086C98.3877 34.1086 99.1898 35.0185 99.392 36.8385C100.834 34.8433 103.173 33.8457 106.409 33.8457C109.415 33.8457 111.794 35.0455 113.547 37.4451C115.151 39.629 115.953 42.2848 115.953 45.4123C115.953 48.3781 115.064 50.9125 113.284 53.0155ZM109.948 40.3368C108.788 38.6112 107.251 37.7484 105.337 37.7484C103.369 37.7484 101.812 38.5505 100.666 40.1548C99.7358 41.4624 99.2707 43.0532 99.2707 44.927C99.2707 46.8413 99.729 48.4927 100.646 49.8812C101.778 51.5933 103.342 52.4493 105.337 52.4493C107.211 52.4493 108.714 51.6742 109.846 50.1239C110.871 48.7354 111.383 47.0705 111.383 45.1292C111.383 43.3767 110.905 41.7792 109.948 40.3368Z" fill="#117FFF"/>
<path d="M135.871 56.6756C134.604 56.6756 133.91 55.8061 133.789 54.0671C132.346 55.9948 129.94 56.9587 126.569 56.9587C124.116 56.9587 122.168 56.2577 120.726 54.8557C119.283 53.4537 118.562 51.5663 118.562 49.1937V36.798C118.562 36.0296 118.791 35.3825 119.249 34.8568C119.64 34.3984 120.186 34.1693 120.887 34.1693C121.588 34.1693 122.141 34.3984 122.545 34.8568C122.963 35.3556 123.172 36.0027 123.172 36.798V48.0815C123.172 49.6453 123.637 50.926 124.568 51.9236C125.511 52.9616 126.792 53.4806 128.41 53.4806C130.041 53.4806 131.322 52.9549 132.252 51.9034C133.141 50.9058 133.586 49.6318 133.586 48.0815V36.798C133.586 36.0296 133.809 35.3825 134.254 34.8568C134.658 34.3984 135.197 34.1693 135.871 34.1693C136.599 34.1693 137.165 34.3984 137.57 34.8568C137.988 35.3556 138.197 36.0027 138.197 36.798V54.0671C138.197 54.8085 137.988 55.4286 137.57 55.9274C137.152 56.4262 136.586 56.6756 135.871 56.6756Z" fill="#117FFF"/>
<path d="M159.308 56.4127C157.838 56.4127 157.104 55.86 157.104 54.7546V37.708H148.752L148.671 46.8076C148.671 51.135 147.519 54.0266 145.214 55.4826C144.27 56.0757 143.205 56.3723 142.019 56.3723C141.992 56.3723 141.965 56.3723 141.938 56.3723C141.237 56.3588 140.677 56.1566 140.259 55.7656C139.976 55.496 139.821 55.1523 139.794 54.7344C139.835 54.303 140.03 53.9525 140.381 53.6828C140.462 53.602 140.832 53.5009 141.493 53.3795C143.434 53.0021 144.405 51.2158 144.405 48.0209V47.8389L144.304 35.7263C144.304 34.6343 145.045 34.0884 146.528 34.0884H159.308C160.764 34.0884 161.492 34.6411 161.492 35.7465V54.7546C161.492 55.86 160.764 56.4127 159.308 56.4127Z" fill="#117FFF"/>
<path d="M183.836 56.5947C182.273 56.5947 181.45 55.5567 181.369 53.4806C180.277 55.7454 178.006 56.8778 174.555 56.8778C172.411 56.8778 170.531 56.2577 168.913 55.0175C167.376 53.8177 166.244 52.1865 165.516 50.1239C165.004 48.668 164.747 47.0907 164.747 45.3921C164.747 42.3589 165.603 39.7301 167.315 37.5058C169.189 35.0657 171.602 33.8457 174.555 33.8457C177.736 33.8457 180.035 34.9781 181.45 37.2429C181.45 36.0431 181.76 35.1803 182.38 34.6546C182.812 34.2906 183.297 34.1086 183.836 34.1086C184.793 34.1086 185.42 34.4186 185.717 35.0388C185.906 35.4432 186 36.2251 186 37.3844V53.3391C186 54.7276 185.771 55.6645 185.312 56.1499C185.029 56.4464 184.537 56.5947 183.836 56.5947ZM178.174 38.5775C177.392 38.0922 176.476 37.8495 175.424 37.8495C173.483 37.8495 171.946 38.6449 170.814 40.2357C169.816 41.6646 169.317 43.3834 169.317 45.3921C169.317 47.3333 169.796 48.9982 170.753 50.3868C171.886 52.0314 173.443 52.8538 175.424 52.8538C177.312 52.8538 178.815 52.0584 179.934 50.4677C180.931 49.0522 181.43 47.3603 181.43 45.3921C181.43 42.2376 180.345 39.966 178.174 38.5775Z" fill="#117FFF"/>
<path d="M99.522 25.2898C99.4084 25.2898 99.3205 25.2588 99.2585 25.1968C99.1965 25.1296 99.1655 25.0366 99.1655 24.9178V20.0818C99.1655 19.963 99.1965 19.8726 99.2585 19.8106C99.3205 19.7486 99.4084 19.7176 99.522 19.7176C99.6409 19.7176 99.7313 19.7486 99.7933 19.8106C99.8553 19.8726 99.8863 19.963 99.8863 20.0818V22.1743H100.909L100.716 22.3061L102.289 19.9036C102.34 19.8261 102.4 19.7744 102.467 19.7486C102.539 19.7227 102.609 19.7176 102.676 19.7331C102.749 19.7486 102.808 19.7821 102.855 19.8338C102.906 19.8803 102.935 19.9397 102.94 20.0121C102.945 20.0792 102.922 20.1541 102.87 20.2368L101.405 22.4301L101.134 22.2053C101.449 22.2466 101.72 22.3629 101.948 22.5541C102.175 22.7401 102.371 22.9984 102.537 23.3291L103.25 24.7861C103.296 24.8791 103.309 24.9617 103.289 25.0341C103.273 25.1064 103.237 25.1658 103.18 25.2123C103.123 25.2536 103.056 25.2769 102.979 25.2821C102.906 25.2872 102.836 25.2717 102.769 25.2356C102.702 25.2046 102.645 25.1451 102.599 25.0573L101.932 23.6391C101.788 23.3342 101.62 23.1172 101.429 22.9881C101.237 22.8589 101.002 22.7943 100.723 22.7943H99.8863V24.9178C99.8863 25.0366 99.8553 25.1296 99.7933 25.1968C99.7364 25.2588 99.646 25.2898 99.522 25.2898Z" fill="#117FFF"/>
<path d="M105.663 25.2898C105.617 25.2898 105.573 25.2821 105.531 25.2666C105.495 25.2511 105.464 25.2278 105.438 25.1968C105.413 25.1658 105.392 25.1271 105.376 25.0806C105.366 25.0341 105.361 24.9798 105.361 24.9178V20.0663C105.361 19.9526 105.389 19.8674 105.446 19.8106C105.508 19.7486 105.591 19.7176 105.694 19.7176C105.803 19.7176 105.885 19.7486 105.942 19.8106C105.999 19.8674 106.027 19.9526 106.027 20.0663V24.2823H105.857L109.127 19.9268C109.184 19.8493 109.239 19.7951 109.29 19.7641C109.347 19.7331 109.417 19.7176 109.499 19.7176C109.561 19.7176 109.613 19.7305 109.654 19.7563C109.696 19.7821 109.729 19.8209 109.755 19.8726C109.781 19.9242 109.794 19.9862 109.794 20.0586V24.9411C109.794 25.0496 109.766 25.1348 109.709 25.1968C109.652 25.2588 109.569 25.2898 109.461 25.2898C109.352 25.2898 109.267 25.2588 109.205 25.1968C109.148 25.1348 109.12 25.0496 109.12 24.9411V20.7173H109.29L106.027 25.0728C105.971 25.1503 105.916 25.2046 105.865 25.2356C105.818 25.2717 105.751 25.2898 105.663 25.2898Z" fill="#117FFF"/>
<path d="M112.624 25.2898C112.511 25.2898 112.423 25.2588 112.361 25.1968C112.299 25.1296 112.268 25.0366 112.268 24.9178V20.0896C112.268 19.9656 112.299 19.8726 112.361 19.8106C112.423 19.7486 112.511 19.7176 112.624 19.7176C112.743 19.7176 112.834 19.7486 112.896 19.8106C112.958 19.8726 112.989 19.9656 112.989 20.0896V24.9178C112.989 25.0366 112.958 25.1296 112.896 25.1968C112.839 25.2588 112.748 25.2898 112.624 25.2898ZM113.314 19.0433C113.19 19.0433 113.095 19.0097 113.027 18.9426C112.96 18.8754 112.927 18.7798 112.927 18.6558C112.927 18.537 112.96 18.444 113.027 18.3768C113.095 18.3096 113.19 18.2761 113.314 18.2761C113.438 18.2761 113.534 18.3096 113.601 18.3768C113.668 18.444 113.702 18.537 113.702 18.6558C113.702 18.7798 113.668 18.8754 113.601 18.9426C113.539 19.0097 113.443 19.0433 113.314 19.0433ZM111.942 19.0433C111.818 19.0433 111.72 19.0097 111.648 18.9426C111.581 18.8754 111.547 18.7798 111.547 18.6558C111.547 18.537 111.581 18.444 111.648 18.3768C111.72 18.3096 111.818 18.2761 111.942 18.2761C112.066 18.2761 112.162 18.3096 112.229 18.3768C112.296 18.444 112.33 18.537 112.33 18.6558C112.33 18.7798 112.296 18.8754 112.229 18.9426C112.162 19.0097 112.066 19.0433 111.942 19.0433Z" fill="#117FFF"/>
<path d="M115.846 25.2356C115.722 25.2356 115.627 25.202 115.559 25.1348C115.492 25.0676 115.459 24.9721 115.459 24.8481V20.1593C115.459 20.0353 115.492 19.9397 115.559 19.8726C115.627 19.8054 115.722 19.7718 115.846 19.7718H117.683C118.06 19.7718 118.38 19.8286 118.644 19.9423C118.913 20.056 119.117 20.2187 119.256 20.4306C119.396 20.6424 119.465 20.8981 119.465 21.1978C119.465 21.5336 119.367 21.8152 119.171 22.0426C118.975 22.2699 118.706 22.4223 118.365 22.4998V22.3836C118.747 22.4301 119.047 22.5721 119.264 22.8098C119.486 23.0423 119.597 23.3471 119.597 23.7243C119.597 24.21 119.437 24.5846 119.117 24.8481C118.802 25.1064 118.355 25.2356 117.776 25.2356H115.846ZM116.156 24.6698H117.698C118.101 24.6698 118.401 24.5923 118.597 24.4373C118.794 24.2771 118.892 24.0343 118.892 23.7088C118.892 23.3833 118.794 23.1431 118.597 22.9881C118.401 22.8331 118.101 22.7556 117.698 22.7556H116.156V24.6698ZM116.156 22.1821H117.574C117.967 22.1821 118.262 22.1046 118.458 21.9496C118.659 21.7894 118.76 21.5595 118.76 21.2598C118.76 20.9601 118.659 20.7328 118.458 20.5778C118.262 20.4176 117.967 20.3376 117.574 20.3376H116.156V22.1821Z" fill="#117FFF"/>
<path d="M124.284 25.3053C123.741 25.3053 123.276 25.1916 122.889 24.9643C122.501 24.737 122.202 24.4141 121.99 23.9956C121.783 23.5719 121.68 23.0733 121.68 22.4998C121.68 22.071 121.739 21.6861 121.858 21.3451C121.977 20.9989 122.147 20.7044 122.369 20.4616C122.592 20.2136 122.863 20.025 123.183 19.8958C123.509 19.7666 123.876 19.7021 124.284 19.7021C124.594 19.7021 124.891 19.746 125.175 19.8338C125.464 19.9216 125.712 20.0456 125.919 20.2058C126.002 20.2626 126.056 20.3272 126.082 20.3996C126.108 20.4719 126.11 20.5416 126.089 20.6088C126.074 20.6708 126.04 20.7251 125.989 20.7716C125.942 20.8129 125.883 20.8361 125.81 20.8413C125.738 20.8413 125.661 20.8129 125.578 20.7561C125.397 20.6166 125.198 20.5158 124.981 20.4538C124.769 20.3866 124.542 20.3531 124.299 20.3531C123.901 20.3531 123.563 20.4383 123.284 20.6088C123.01 20.7741 122.801 21.017 122.656 21.3373C122.517 21.6525 122.447 22.04 122.447 22.4998C122.447 22.9545 122.517 23.3446 122.656 23.6701C122.801 23.9904 123.01 24.2358 123.284 24.4063C123.563 24.5716 123.901 24.6543 124.299 24.6543C124.542 24.6543 124.772 24.6207 124.989 24.5536C125.211 24.4864 125.415 24.3831 125.601 24.2436C125.684 24.1867 125.759 24.1609 125.826 24.1661C125.898 24.1712 125.958 24.1945 126.004 24.2358C126.051 24.272 126.082 24.3236 126.097 24.3908C126.118 24.4528 126.118 24.5174 126.097 24.5846C126.077 24.6517 126.03 24.7111 125.958 24.7628C125.746 24.9436 125.493 25.0806 125.198 25.1736C124.909 25.2614 124.604 25.3053 124.284 25.3053Z" fill="#117FFF"/>
<path d="M128.661 25.2356C128.537 25.2356 128.441 25.202 128.374 25.1348C128.307 25.0676 128.273 24.9721 128.273 24.8481V20.0896C128.273 19.9656 128.304 19.8726 128.366 19.8106C128.428 19.7486 128.516 19.7176 128.63 19.7176C128.749 19.7176 128.839 19.7486 128.901 19.8106C128.963 19.8726 128.994 19.9656 128.994 20.0896V22.1511H130.591C130.973 22.1511 131.301 22.2105 131.575 22.3293C131.849 22.443 132.055 22.6135 132.195 22.8408C132.34 23.063 132.412 23.3446 132.412 23.6856C132.412 24.1919 132.252 24.5768 131.931 24.8403C131.616 25.1038 131.169 25.2356 130.591 25.2356H128.661ZM128.994 24.6466H130.513C130.916 24.6466 131.216 24.5691 131.412 24.4141C131.609 24.2539 131.707 24.0136 131.707 23.6933C131.707 23.3678 131.609 23.1276 131.412 22.9726C131.216 22.8176 130.916 22.7401 130.513 22.7401H128.994V24.6466Z" fill="#117FFF"/>
<path d="M134.931 25.2898C134.818 25.2898 134.73 25.2588 134.668 25.1968C134.606 25.1296 134.575 25.0366 134.575 24.9178V20.0818C134.575 19.963 134.606 19.8726 134.668 19.8106C134.73 19.7486 134.818 19.7176 134.931 19.7176C135.05 19.7176 135.141 19.7486 135.203 19.8106C135.265 19.8726 135.296 19.963 135.296 20.0818V22.1743H136.319L136.125 22.3061L137.698 19.9036C137.75 19.8261 137.809 19.7744 137.876 19.7486C137.949 19.7227 138.018 19.7176 138.086 19.7331C138.158 19.7486 138.217 19.7821 138.264 19.8338C138.316 19.8803 138.344 19.9397 138.349 20.0121C138.354 20.0792 138.331 20.1541 138.279 20.2368L136.815 22.4301L136.543 22.2053C136.859 22.2466 137.13 22.3629 137.357 22.5541C137.584 22.7401 137.781 22.9984 137.946 23.3291L138.659 24.7861C138.706 24.8791 138.719 24.9617 138.698 25.0341C138.682 25.1064 138.646 25.1658 138.589 25.2123C138.533 25.2536 138.465 25.2769 138.388 25.2821C138.316 25.2872 138.246 25.2717 138.179 25.2356C138.111 25.2046 138.055 25.1451 138.008 25.0573L137.342 23.6391C137.197 23.3342 137.029 23.1172 136.838 22.9881C136.647 22.8589 136.412 22.7943 136.133 22.7943H135.296V24.9178C135.296 25.0366 135.265 25.1296 135.203 25.1968C135.146 25.2588 135.055 25.2898 134.931 25.2898Z" fill="#117FFF"/>
<path d="M141.073 25.2898C141.026 25.2898 140.982 25.2821 140.941 25.2666C140.905 25.2511 140.874 25.2278 140.848 25.1968C140.822 25.1658 140.801 25.1271 140.786 25.0806C140.775 25.0341 140.77 24.9798 140.77 24.9178V20.0663C140.77 19.9526 140.799 19.8674 140.856 19.8106C140.918 19.7486 141 19.7176 141.104 19.7176C141.212 19.7176 141.295 19.7486 141.352 19.8106C141.408 19.8674 141.437 19.9526 141.437 20.0663V24.2823H141.266L144.537 19.9268C144.594 19.8493 144.648 19.7951 144.7 19.7641C144.756 19.7331 144.826 19.7176 144.909 19.7176C144.971 19.7176 145.022 19.7305 145.064 19.7563C145.105 19.7821 145.139 19.8209 145.165 19.8726C145.19 19.9242 145.203 19.9862 145.203 20.0586V24.9411C145.203 25.0496 145.175 25.1348 145.118 25.1968C145.061 25.2588 144.979 25.2898 144.87 25.2898C144.762 25.2898 144.676 25.2588 144.614 25.1968C144.557 25.1348 144.529 25.0496 144.529 24.9411V20.7173H144.7L141.437 25.0728C141.38 25.1503 141.326 25.2046 141.274 25.2356C141.228 25.2717 141.16 25.2898 141.073 25.2898Z" fill="#117FFF"/>
<path d="M147.979 25.2898C147.933 25.2898 147.889 25.2821 147.848 25.2666C147.812 25.2511 147.781 25.2278 147.755 25.1968C147.729 25.1658 147.708 25.1271 147.693 25.0806C147.682 25.0341 147.677 24.9798 147.677 24.9178V20.0663C147.677 19.9526 147.706 19.8674 147.762 19.8106C147.824 19.7486 147.907 19.7176 148.01 19.7176C148.119 19.7176 148.202 19.7486 148.258 19.8106C148.315 19.8674 148.344 19.9526 148.344 20.0663V24.2823H148.173L151.444 19.9268C151.501 19.8493 151.555 19.7951 151.606 19.7641C151.663 19.7331 151.733 19.7176 151.816 19.7176C151.878 19.7176 151.929 19.7305 151.971 19.7563C152.012 19.7821 152.046 19.8209 152.071 19.8726C152.097 19.9242 152.11 19.9862 152.11 20.0586V24.9411C152.11 25.0496 152.082 25.1348 152.025 25.1968C151.968 25.2588 151.885 25.2898 151.777 25.2898C151.668 25.2898 151.583 25.2588 151.521 25.1968C151.464 25.1348 151.436 25.0496 151.436 24.9411V20.7173H151.606L148.344 25.0728C148.287 25.1503 148.233 25.2046 148.181 25.2356C148.134 25.2717 148.067 25.2898 147.979 25.2898ZM149.886 19.3456C149.571 19.3456 149.289 19.2758 149.041 19.1363C148.793 18.9916 148.605 18.7798 148.475 18.5008C148.439 18.4181 148.434 18.351 148.46 18.2993C148.486 18.2425 148.527 18.2037 148.584 18.1831C148.651 18.1624 148.708 18.165 148.754 18.1908C148.801 18.2115 148.845 18.258 148.886 18.3303C148.984 18.5215 149.116 18.6661 149.281 18.7643C149.447 18.8625 149.651 18.9116 149.894 18.9116C150.142 18.9116 150.348 18.8625 150.514 18.7643C150.679 18.6661 150.808 18.5215 150.901 18.3303C150.943 18.258 150.986 18.2115 151.033 18.1908C151.079 18.165 151.136 18.1624 151.203 18.1831C151.265 18.2037 151.307 18.2425 151.327 18.2993C151.348 18.351 151.34 18.4156 151.304 18.4931C151.165 18.7772 150.971 18.9916 150.723 19.1363C150.48 19.2758 150.201 19.3456 149.886 19.3456Z" fill="#117FFF"/>
<path d="M161.852 25.2898C161.738 25.2898 161.65 25.2588 161.588 25.1968C161.526 25.1296 161.495 25.0366 161.495 24.9178V20.3841H159.201V21.6008C159.201 22.1123 159.17 22.5644 159.108 22.9571C159.051 23.3446 158.963 23.683 158.845 23.9723C158.731 24.2565 158.586 24.5019 158.411 24.7086C158.24 24.9152 158.041 25.0883 157.814 25.2278C157.726 25.2898 157.638 25.3105 157.55 25.2898C157.462 25.2743 157.39 25.2252 157.333 25.1426C157.271 25.0496 157.251 24.9617 157.271 24.8791C157.297 24.7964 157.357 24.7241 157.45 24.6621C157.625 24.5536 157.78 24.4192 157.915 24.2591C158.049 24.0937 158.163 23.8871 158.256 23.6391C158.349 23.3911 158.418 23.0862 158.465 22.7246C158.511 22.3577 158.535 21.9211 158.535 21.4148V20.1593C158.535 20.0353 158.568 19.9397 158.635 19.8726C158.702 19.8054 158.801 19.7718 158.93 19.7718H161.821C161.95 19.7718 162.048 19.8054 162.115 19.8726C162.182 19.9397 162.216 20.0353 162.216 20.1593V24.9178C162.216 25.0366 162.185 25.1296 162.123 25.1968C162.061 25.2588 161.97 25.2898 161.852 25.2898Z" fill="#117FFF"/>
<path d="M165.046 25.2898C164.932 25.2898 164.844 25.2588 164.782 25.1968C164.72 25.1296 164.689 25.0366 164.689 24.9178V20.0896C164.689 19.9656 164.72 19.8726 164.782 19.8106C164.844 19.7486 164.932 19.7176 165.046 19.7176C165.165 19.7176 165.255 19.7486 165.317 19.8106C165.379 19.8726 165.41 19.9656 165.41 20.0896V24.9178C165.41 25.0366 165.379 25.1296 165.317 25.1968C165.26 25.2588 165.17 25.2898 165.046 25.2898Z" fill="#117FFF"/>
<path d="M172.894 26.5376C172.791 26.5376 172.711 26.5066 172.654 26.4446C172.597 26.3877 172.569 26.3076 172.569 26.2043V25.2356H168.268C168.144 25.2356 168.048 25.202 167.981 25.1348C167.914 25.0676 167.88 24.9721 167.88 24.8481V20.0896C167.88 19.9656 167.911 19.8726 167.973 19.8106C168.035 19.7486 168.123 19.7176 168.237 19.7176C168.355 19.7176 168.446 19.7486 168.508 19.8106C168.57 19.8726 168.601 19.9656 168.601 20.0896V24.6233H171.724V20.0896C171.724 19.9656 171.755 19.8726 171.817 19.8106C171.879 19.7486 171.967 19.7176 172.081 19.7176C172.199 19.7176 172.29 19.7486 172.352 19.8106C172.414 19.8726 172.445 19.9656 172.445 20.0896V24.9488L172.119 24.6233H172.863C172.977 24.6233 173.065 24.6543 173.127 24.7163C173.189 24.7731 173.22 24.861 173.22 24.9798V26.2043C173.22 26.4265 173.111 26.5376 172.894 26.5376Z" fill="#117FFF"/>
<path d="M175.598 25.2356C175.474 25.2356 175.379 25.202 175.312 25.1348C175.244 25.0676 175.211 24.9721 175.211 24.8481V20.1593C175.211 20.0353 175.244 19.9397 175.312 19.8726C175.379 19.8054 175.474 19.7718 175.598 19.7718H178.45C178.549 19.7718 178.623 19.7976 178.675 19.8493C178.732 19.8958 178.76 19.9656 178.76 20.0586C178.76 20.1567 178.732 20.2316 178.675 20.2833C178.623 20.335 178.549 20.3608 178.45 20.3608H175.908V22.1666H178.288C178.386 22.1666 178.461 22.1924 178.512 22.2441C178.564 22.2957 178.59 22.3681 178.59 22.4611C178.59 22.5592 178.564 22.6341 178.512 22.6858C178.461 22.7323 178.386 22.7556 178.288 22.7556H175.908V24.6466H178.45C178.549 24.6466 178.623 24.6724 178.675 24.7241C178.732 24.7706 178.76 24.8429 178.76 24.9411C178.76 25.0392 178.732 25.1141 178.675 25.1658C178.623 25.2123 178.549 25.2356 178.45 25.2356H175.598Z" fill="#117FFF"/>
<path d="M181.217 25.2898C181.17 25.2898 181.126 25.2821 181.085 25.2666C181.049 25.2511 181.018 25.2278 180.992 25.1968C180.966 25.1658 180.945 25.1271 180.93 25.0806C180.92 25.0341 180.914 24.9798 180.914 24.9178V20.0663C180.914 19.9526 180.943 19.8674 181 19.8106C181.062 19.7486 181.144 19.7176 181.248 19.7176C181.356 19.7176 181.439 19.7486 181.496 19.8106C181.552 19.8674 181.581 19.9526 181.581 20.0663V24.2823H181.41L184.681 19.9268C184.738 19.8493 184.792 19.7951 184.844 19.7641C184.9 19.7331 184.97 19.7176 185.053 19.7176C185.115 19.7176 185.167 19.7305 185.208 19.7563C185.249 19.7821 185.283 19.8209 185.309 19.8726C185.334 19.9242 185.347 19.9862 185.347 20.0586V24.9411C185.347 25.0496 185.319 25.1348 185.262 25.1968C185.205 25.2588 185.123 25.2898 185.014 25.2898C184.906 25.2898 184.82 25.2588 184.758 25.1968C184.702 25.1348 184.673 25.0496 184.673 24.9411V20.7173H184.844L181.581 25.0728C181.524 25.1503 181.47 25.2046 181.418 25.2356C181.372 25.2717 181.304 25.2898 181.217 25.2898ZM183.123 19.3456C182.808 19.3456 182.526 19.2758 182.278 19.1363C182.03 18.9916 181.842 18.7798 181.713 18.5008C181.676 18.4181 181.671 18.351 181.697 18.2993C181.723 18.2425 181.764 18.2037 181.821 18.1831C181.888 18.1624 181.945 18.165 181.992 18.1908C182.038 18.2115 182.082 18.258 182.123 18.3303C182.222 18.5215 182.353 18.6661 182.519 18.7643C182.684 18.8625 182.888 18.9116 183.131 18.9116C183.379 18.9116 183.586 18.8625 183.751 18.7643C183.916 18.6661 184.045 18.5215 184.138 18.3303C184.18 18.258 184.224 18.2115 184.27 18.1908C184.317 18.165 184.373 18.1624 184.441 18.1831C184.503 18.2037 184.544 18.2425 184.565 18.2993C184.585 18.351 184.578 18.4156 184.541 18.4931C184.402 18.7772 184.208 18.9916 183.96 19.1363C183.717 19.2758 183.438 19.3456 183.123 19.3456Z" fill="#117FFF"/>
<defs>
<linearGradient id="paint0_linear_126_455" x1="26.2986" y1="3.91357" x2="7.97442" y2="54.3051" gradientUnits="userSpaceOnUse">
<stop stop-color="#FFF507"/>
<stop offset="0.298625" stop-color="#B0FF07"/>
<stop offset="0.883333" stop-color="#117FFF"/>
</linearGradient>
<linearGradient id="paint1_linear_126_455" x1="29.5711" y1="25.5903" x2="29.4492" y2="64.6549" gradientUnits="userSpaceOnUse">
<stop stop-color="#83FF07"/>
<stop offset="1" stop-color="#1162FF"/>
</linearGradient>
</defs>
</svg>
