<svg width="177" height="180" viewBox="0 0 177 180" fill="none" xmlns="http://www.w3.org/2000/svg">
<path d="M144.886 0L116.477 22.7273L88.0682 0L59.6591 22.7273L31.25 0L0 25V180L31.25 155L59.6591 177.727L88.0682 155L116.477 177.727L144.886 155L176.136 180V25L144.886 0ZM144.886 147.727L116.477 170.455L88.0682 147.727L59.6591 170.455L31.25 147.727L5.68182 168.182V73.4091L6.76136 72.7841L5.68182 71.0227V27.7273L31.25 7.27273L59.6591 30L88.0682 7.27273L116.477 30L144.886 7.27273L170.455 27.7273V93.5227L169.318 94.9432L170.455 95.8523V168.125L144.886 147.67V147.727Z" fill="#0D6DED"/>
<path d="M103.523 66.3636C103.523 57.7841 96.591 50.7954 88.0683 50.7954C79.5456 50.7954 72.6138 57.7841 72.6138 66.3636C72.6138 74.9431 79.5456 81.9318 88.0683 81.9318C96.591 81.9318 103.523 74.9431 103.523 66.3636ZM78.2388 66.3636C78.2388 60.909 82.6138 56.4772 88.0115 56.4772C93.4092 56.4772 97.7842 60.909 97.7842 66.3636C97.7842 71.8181 93.4092 76.25 88.0115 76.25C82.6138 76.25 78.2388 71.8181 78.2388 66.3636Z" fill="#0D6DED"/>
<path d="M22.65 56.586L17.9219 59.418L20.8414 64.2923L25.5695 61.4604L22.65 56.586Z" fill="#0D6DED"/>
<path d="M13.2574 62.2899L8.53174 65.126L11.4555 69.9978L16.1812 67.1617L13.2574 62.2899Z" fill="#0D6DED"/>
<path d="M34.8296 56.5908L32.841 50.5112L27.3296 53.8067L28.6364 55.9658L29.4319 58.3521L30 58.1817L30.2841 58.693L32.4432 57.3862L34.8296 56.5908Z" fill="#0D6DED"/>
<path d="M47.2605 93.857L41.8701 95.6533L43.6484 100.99L49.0388 99.1935L47.2605 93.857Z" fill="#0D6DED"/>
<path d="M50.764 104.486L45.3721 106.277L47.1457 111.615L52.5377 109.824L50.764 104.486Z" fill="#0D6DED"/>
<path d="M57.8765 125.802L52.4849 127.594L54.2595 132.932L59.6511 131.139L57.8765 125.802Z" fill="#0D6DED"/>
<path d="M54.3691 115.108L48.979 116.905L50.7583 122.241L56.1483 120.444L54.3691 115.108Z" fill="#0D6DED"/>
<path d="M36.6309 61.922L31.2405 63.7183L33.0188 69.0548L38.4092 67.2585L36.6309 61.922Z" fill="#0D6DED"/>
<path d="M43.7234 83.1886L38.333 84.9849L40.1113 90.3214L45.5017 88.5251L43.7234 83.1886Z" fill="#0D6DED"/>
<path d="M40.1502 72.5357L34.7598 74.332L36.5381 79.6685L41.9285 77.8722L40.1502 72.5357Z" fill="#0D6DED"/>
<path d="M61.4773 136.42L60.625 136.704L60.1137 136.022L58.2955 137.443L56.0796 138.182L58.2387 144.772L63.6364 140.454L62.216 138.636L61.4773 136.42Z" fill="#0D6DED"/>
<path d="M69.7131 128.345L64.9241 132.182L68.4766 136.616L73.2656 132.78L69.7131 128.345Z" fill="#0D6DED"/>
<path d="M79.2985 120.71L74.5095 124.546L78.062 128.981L82.851 125.144L79.2985 120.71Z" fill="#0D6DED"/>
<path d="M90.5681 118.75C93.2954 115.341 119.318 82.4999 119.318 66.3635C119.318 49.034 105.284 34.8862 88.0681 34.8862C70.8522 34.8862 56.8181 49.034 56.8181 66.3635C56.8181 80.7953 77.7272 108.693 84.0908 116.818L87.6136 121.25L88.0681 121.761L88.9772 120.682L89.659 120.966L90.5681 118.75ZM88.0681 40.568C102.159 40.568 113.636 52.159 113.636 66.3635C113.636 77.4999 96.8181 101.42 88.0681 112.67C79.3181 101.364 62.4999 77.4431 62.4999 66.3635C62.4999 52.159 73.9772 40.568 88.0681 40.568Z" fill="#0D6DED"/>
<path d="M96.3994 117.553L94.2893 122.828L98.9317 124.685L101.042 119.409L96.3994 117.553Z" fill="#0D6DED"/>
<path d="M105.623 121.26L103.514 126.536L108.157 128.392L110.266 123.116L105.623 121.26Z" fill="#0D6DED"/>
<path d="M112.784 130.227L117.841 132.273L120.284 127.386C120.284 127.386 115.227 124.829 114.886 124.943L112.784 130.227Z" fill="#0D6DED"/>
<path d="M119.908 115.373L117.546 120.099L122.628 122.64L124.991 117.913L119.908 115.373Z" fill="#0D6DED"/>
<path d="M134.044 87.1368L131.681 91.8633L136.763 94.4038L139.126 89.6774L134.044 87.1368Z" fill="#0D6DED"/>
<path d="M124.664 106.003L122.304 110.731L127.388 113.268L129.748 108.54L124.664 106.003Z" fill="#0D6DED"/>
<path d="M129.362 96.564L126.999 101.29L132.08 103.831L134.444 99.1054L129.362 96.564Z" fill="#0D6DED"/>
<path d="M138.723 77.7784L136.36 82.5044L141.442 85.0458L143.805 80.3198L138.723 77.7784Z" fill="#0D6DED"/>
<path d="M141.08 73.068L143.352 74.2044L145.341 75.7953L145.682 75.3976L146.136 75.6249L147.273 73.3521L148.864 71.3635L143.92 67.3862L141.08 73.068Z" fill="#0D6DED"/>
<path d="M153.64 75.1679L150.09 79.604L154.881 83.4382L158.431 79.0021L153.64 75.1679Z" fill="#0D6DED"/>
<path d="M163.207 82.9057L159.657 87.3418L164.448 91.176L167.998 86.7399L163.207 82.9057Z" fill="#0D6DED"/>
</svg>
