<svg width="394" height="399" viewBox="0 0 394 399" fill="none" xmlns="http://www.w3.org/2000/svg">
<path d="M196.149 277.777C238.833 278.776 274.249 244.806 275.253 201.903C276.257 158.999 242.47 123.409 199.786 122.41C157.103 121.411 121.687 155.381 120.683 198.285C119.678 241.188 153.466 276.778 196.149 277.777Z" fill="url(#paint0_linear_127_1712)"/>
<path d="M217.931 193.397C220.169 193.397 222 191.566 222 189.328C222 187.09 220.169 185.259 217.931 185.259C215.693 185.259 213.862 187.09 213.862 189.328C213.862 191.566 215.693 193.397 217.931 193.397ZM217.931 187.293C219.05 187.293 219.966 188.209 219.966 189.328C219.966 190.447 219.05 191.362 217.931 191.362C216.812 191.362 215.897 190.447 215.897 189.328C215.897 188.209 216.812 187.293 217.931 187.293Z" fill="white"/>
<path d="M225.052 178.138L168.086 178.138C165.279 178.138 163 180.416 163 183.224L163 223.914C163 226.721 165.279 229 168.086 229L225.052 229C227.859 229 230.138 226.721 230.138 223.914L230.138 183.224C230.138 180.416 227.859 178.138 225.052 178.138ZM228.103 223.914C228.103 225.602 226.74 226.965 225.052 226.965L168.086 226.965C166.398 226.965 165.034 225.602 165.034 223.914L165.034 183.224C165.034 181.535 166.398 180.172 168.086 180.172L225.052 180.172C226.74 180.172 228.103 181.535 228.103 183.224L228.103 223.914Z" fill="white"/>
<path d="M184.789 172.034L208.349 172.034L212.845 176.531L214.289 175.086L209.203 170L183.935 170L178.849 175.086L180.293 176.531L184.789 172.034Z" fill="white"/>
<path d="M196.569 186.276C187.027 186.276 179.276 194.027 179.276 203.569C179.276 213.111 187.027 220.862 196.569 220.862C206.111 220.862 213.862 213.111 213.862 203.569C213.862 194.027 206.111 186.276 196.569 186.276ZM196.569 218.828C188.146 218.828 181.31 211.992 181.31 203.569C181.31 195.146 188.146 188.31 196.569 188.31C204.992 188.31 211.828 195.146 211.828 203.569C211.828 211.992 204.992 218.828 196.569 218.828Z" fill="white"/>
<path d="M196.569 191.708C190.018 191.708 184.708 197.038 184.708 203.569C184.708 210.1 190.038 215.43 196.569 215.43C203.1 215.43 208.43 210.1 208.43 203.569C208.43 197.038 203.1 191.708 196.569 191.708ZM196.569 213.416C191.157 213.416 186.742 209.001 186.742 203.589C186.742 198.178 191.157 193.763 196.569 193.763C201.981 193.763 206.396 198.178 206.396 203.589C206.396 209.001 201.981 213.416 196.569 213.416Z" fill="white"/>
<path d="M167.069 202.552L167.069 204.586L179.276 204.586L179.276 203.569L179.276 202.552L167.069 202.552Z" fill="white"/>
<path d="M213.862 203.569L213.862 204.586L226.069 204.586L226.069 202.552L213.862 202.552L213.862 203.569Z" fill="white"/>
<path d="M174.19 174.069L166.052 174.069L166.052 176.103L174.19 176.103L174.19 174.069Z" fill="white"/>
<defs>
<linearGradient id="paint0_linear_127_1712" x1="189.424" y1="122.168" x2="139.355" y2="249.805" gradientUnits="userSpaceOnUse">
<stop stop-color="#FFF507"/>
<stop offset="0.883333" stop-color="#117FFF"/>
</linearGradient>
<clipPath id="clip0_127_1712">
<rect width="208.693" height="206.179" fill="white" transform="translate(110.879 81.6841) rotate(8.91758)"/>
</clipPath>
<clipPath id="clip1_127_1712">
<rect width="23" height="23" fill="white" transform="translate(140.722 101.056) rotate(14.6107)"/>
</clipPath>
</defs>
</svg>
