<svg width="240" height="237" viewBox="0 0 240 237" fill="none" xmlns="http://www.w3.org/2000/svg">
<g clip-path="url(#clip0_127_1714)">
<path d="M139.545 31.6078C139.004 31.4808 138.8 31.1387 138.932 30.5921L139.058 30.0611C138.017 29.8157 137.17 29.4138 136.506 28.8599C135.841 28.306 135.395 27.6296 135.162 26.8302C134.928 26.0309 134.932 25.1425 135.162 24.1644C135.516 22.6819 136.228 21.6282 137.303 21.0143C138.377 20.4004 139.709 20.2826 141.296 20.6607L141.399 20.2243C141.532 19.6777 141.864 19.4622 142.405 19.5945C142.947 19.7215 143.151 20.0636 143.018 20.6155L142.915 21.0519C144.503 21.4301 145.637 22.1376 146.318 23.1745C146.999 24.2115 147.16 25.471 146.806 26.9535C146.57 27.9419 146.167 28.7355 145.596 29.3396C145.025 29.9438 144.32 30.345 143.481 30.5379C142.642 30.7308 141.707 30.7076 140.666 30.4568L140.54 30.9879C140.407 31.5398 140.075 31.75 139.534 31.6177L139.545 31.6078ZM139.19 28.7597L139.364 28.7997L141.008 21.9181L140.834 21.878C139.867 21.6489 139.023 21.7559 138.304 22.1988C137.585 22.6418 137.092 23.4285 136.818 24.5585C136.558 25.6574 136.653 26.58 137.105 27.3211C137.557 28.0622 138.254 28.5436 139.19 28.765L139.19 28.7597ZM142.78 22.337L142.606 22.297L140.967 29.179L141.141 29.219C142.087 29.4465 142.926 29.3285 143.662 28.8708C144.398 28.4131 144.896 27.6375 145.157 26.5386C145.425 25.4082 145.341 24.481 144.898 23.762C144.455 23.043 143.752 22.5665 142.785 22.3374L142.78 22.337Z" fill="white"/>
<path d="M153.208 35.6488C152.477 35.3467 151.909 34.934 151.499 34.4103C151.089 33.8865 150.857 33.2853 150.796 32.6062C150.736 31.9271 150.86 31.2033 151.176 30.4351C151.492 29.6669 151.912 29.0621 152.433 28.6254C152.953 28.1887 153.541 27.9231 154.2 27.8396C154.86 27.7508 155.553 27.8625 156.285 28.1593C156.996 28.4491 157.554 28.861 157.963 29.3848C158.373 29.9085 158.605 30.5151 158.676 31.195C158.748 31.8749 158.618 32.5983 158.302 33.3718C157.986 34.14 157.565 34.7448 157.039 35.1811C156.513 35.6174 155.921 35.8773 155.261 35.9661C154.601 36.0549 153.919 35.9493 153.207 35.6595L153.208 35.6488ZM153.682 34.4913C154.295 34.7414 154.88 34.7219 155.437 34.4325C155.994 34.1432 156.444 33.578 156.792 32.7373C157.135 31.8963 157.21 31.1848 157.021 30.5868C156.825 29.9937 156.424 29.5723 155.811 29.3168C155.189 29.0605 154.599 29.0744 154.047 29.3588C153.49 29.6428 153.04 30.208 152.698 31.0438C152.355 31.8848 152.274 32.6012 152.469 33.1996C152.659 33.7976 153.071 34.2251 153.688 34.481L153.682 34.4913Z" fill="white"/>
<path d="M163.23 40.4709C162.758 40.2047 162.653 39.8326 162.919 39.3605L165.763 34.2941L163.863 33.2284C163.453 32.999 163.358 32.692 163.569 32.312C163.779 31.9427 164.085 31.8696 164.496 32.099L169.706 35.0233C170.116 35.2528 170.216 35.5548 170.006 35.9242C169.79 36.3038 169.479 36.3818 169.068 36.1523L167.169 35.0866L164.325 40.153C164.058 40.6305 163.692 40.7363 163.224 40.4758L163.23 40.4709Z" fill="white"/>
<path d="M172.519 46.4905C171.88 46.0242 171.428 45.4866 171.159 44.8772C170.89 44.2678 170.805 43.6297 170.909 42.9578C171.014 42.286 171.307 41.6124 171.802 40.9436C172.297 40.2748 172.843 39.7865 173.455 39.4853C174.067 39.1841 174.702 39.0719 175.36 39.1436C176.018 39.2152 176.672 39.49 177.305 39.9559C177.924 40.4099 178.37 40.9418 178.64 41.5512C178.909 42.1606 178.994 42.7987 178.894 43.4763C178.794 44.1539 178.502 44.8274 178.006 45.4962C177.516 46.1707 176.96 46.6529 176.349 46.9488C175.737 47.2447 175.097 47.3565 174.433 47.2844C173.775 47.2127 173.132 46.9442 172.513 46.4901L172.519 46.4905ZM173.254 45.4814C173.787 45.87 174.361 45.9941 174.971 45.848C175.582 45.6966 176.156 45.2587 176.694 44.5289C177.232 43.7937 177.476 43.1165 177.427 42.4971C177.378 41.8725 177.09 41.3687 176.558 40.9748C176.016 40.5748 175.442 40.4506 174.831 40.5967C174.221 40.7375 173.652 41.1759 173.114 41.911C172.577 42.6408 172.332 43.3234 172.376 43.9476C172.418 44.5772 172.711 45.0867 173.254 45.4868L173.254 45.4814Z" fill="white"/>
<path d="M179.911 52.4507C179.511 52.0776 179.509 51.6866 179.894 51.2717L184.103 46.7699C184.517 46.325 184.946 46.3096 185.391 46.7237L188.434 49.5682C188.779 49.8889 188.803 50.2066 188.511 50.5162C188.214 50.8361 187.893 50.833 187.548 50.5123L185.02 48.1513L181.073 52.3734C180.688 52.7883 180.301 52.8123 179.912 52.4453L179.911 52.4507Z" fill="white"/>
<path d="M188.038 60.8539C187.685 60.4361 187.456 59.9958 187.341 59.5321C187.227 59.0683 187.229 58.6241 187.347 58.1996C187.46 57.7746 187.696 57.4125 188.045 57.118C188.486 56.7448 188.928 56.5644 189.371 56.5769C189.814 56.5893 190.312 56.8039 190.863 57.2207C191.415 57.6429 192.066 58.2922 192.807 59.1731L193.161 59.5908L193.481 59.3209C193.945 58.928 194.199 58.5459 194.238 58.1795C194.276 57.8131 194.104 57.4039 193.726 56.9575C193.505 56.6944 193.245 56.455 192.941 56.2284C192.637 56.0018 192.283 55.8035 191.873 55.633C191.646 55.53 191.516 55.4023 191.48 55.2444C191.444 55.0864 191.472 54.9332 191.558 54.7899C191.643 54.6466 191.774 54.5442 191.945 54.4822C192.116 54.4203 192.302 54.4399 192.497 54.5405C192.962 54.7633 193.382 55.0148 193.756 55.3003C194.13 55.5858 194.45 55.8833 194.711 56.1922C195.398 57.0048 195.719 57.7734 195.659 58.4915C195.604 59.2099 195.165 59.9151 194.341 60.6123L191.199 63.2685C190.782 63.6167 190.414 63.6047 190.09 63.2213C189.761 62.8322 189.8 62.4604 190.218 62.1069L190.67 61.7239C190.204 61.865 189.743 61.8673 189.284 61.7198C188.823 61.5776 188.412 61.2892 188.049 60.8547L188.038 60.8539ZM189.126 60.3534C189.499 60.7941 189.963 61.0276 190.522 61.0596C191.082 61.0916 191.594 60.9058 192.069 60.5085L192.4 60.2287L192.057 59.8224C191.551 59.2271 191.129 58.788 190.788 58.4943C190.446 58.2059 190.148 58.044 189.893 58.0138C189.638 57.9837 189.391 58.0719 189.156 58.2681C188.847 58.5335 188.684 58.8476 188.671 59.2214C188.659 59.5951 188.812 59.9708 189.126 60.3428L189.126 60.3534Z" fill="white"/>
<path d="M197.02 73.1288C196.734 72.6787 196.815 72.3102 197.271 72.0131L202.153 68.8581L200.617 66.4765L199.823 66.9887C198.489 67.8504 197.357 68.3742 196.427 68.5549C195.498 68.7356 194.654 68.5801 193.887 68.104C193.683 67.9654 193.562 67.8062 193.523 67.6159C193.484 67.4255 193.508 67.2507 193.595 67.0914C193.682 66.9321 193.819 66.8248 193.995 66.7633C194.176 66.7075 194.372 66.7332 194.599 66.8415C195.191 67.149 195.819 67.2023 196.487 67.007C197.155 66.8118 198.007 66.379 199.049 65.7037L200.124 65.0096C200.636 64.6794 201.058 64.7704 201.388 65.2828L203.628 68.7512C203.959 69.2636 203.867 69.6849 203.355 70.0151L198.152 73.3811C197.696 73.6782 197.317 73.5957 197.025 73.1399L197.02 73.1288Z" fill="white"/>
<path d="M201.575 81.7579C201.021 80.6021 200.915 79.5342 201.247 78.5584C201.578 77.5827 202.311 76.825 203.438 76.2901C204.16 75.9437 204.868 75.789 205.562 75.8152C206.256 75.8467 206.883 76.0445 207.438 76.4187C207.993 76.793 208.434 77.3191 208.752 77.9911C209.213 78.9631 209.272 79.8776 208.918 80.7338C208.563 81.59 207.841 82.279 206.753 82.7954C206.425 82.9524 206.172 82.8367 205.987 82.4532L203.795 77.859C202.379 78.6609 202.02 79.7898 202.707 81.234C202.846 81.5229 203.027 81.8098 203.252 82.0946C203.476 82.3794 203.752 82.6253 204.09 82.8277C204.304 82.9725 204.425 83.1317 204.466 83.2954C204.502 83.4587 204.475 83.6065 204.374 83.738C204.273 83.8694 204.138 83.9501 203.959 83.9793C203.78 84.0085 203.586 83.9615 203.387 83.8339C203.008 83.6123 202.662 83.3075 202.343 82.9245C202.024 82.5415 201.771 82.1475 201.581 81.7529L201.575 81.7579ZM207.757 78.5415C207.466 77.9358 207.052 77.5402 206.504 77.3645C205.955 77.1888 205.354 77.2071 204.689 77.4294L206.572 81.3738C207.214 81.032 207.637 80.6146 207.85 80.1277C208.064 79.6409 208.03 79.1083 207.757 78.5415V78.5415Z" fill="white"/>
<path d="M202.232 90.6941C202.067 90.1838 202.243 89.8492 202.759 89.6798L211.591 86.8103C212.107 86.6409 212.448 86.8061 212.608 87.3054C212.772 87.8158 212.597 88.1504 212.081 88.3197L211.504 88.5059C212.001 88.592 212.45 88.8136 212.84 89.1646C213.231 89.5156 213.517 89.9764 213.699 90.5363C213.911 91.1949 213.944 91.8236 213.786 92.4165C213.634 93.0098 213.31 93.5364 212.825 93.9919C212.341 94.4474 211.698 94.8052 210.908 95.0607C210.117 95.3162 209.388 95.405 208.72 95.3219C208.052 95.2388 207.486 95.0029 207.018 94.6139C206.55 94.2195 206.205 93.6953 205.993 93.0368C205.815 92.4879 205.775 91.9603 205.873 91.4485C205.971 90.9367 206.191 90.5039 206.535 90.1447L203.258 91.2061C202.742 91.3754 202.397 91.1992 202.227 90.6831L202.232 90.6941ZM207.057 92.2776C207.265 92.9145 207.66 93.3514 208.236 93.5881C208.818 93.8199 209.538 93.7945 210.404 93.5181C211.271 93.2416 211.864 92.8372 212.194 92.3057C212.523 91.7795 212.584 91.1952 212.375 90.5584C212.167 89.9162 211.778 89.4797 211.201 89.2483C210.625 89.0116 209.906 89.037 209.044 89.3192C208.182 89.6013 207.584 90.0053 207.249 90.5311C206.914 91.0623 206.854 91.6465 207.062 92.2833L207.057 92.2776Z" fill="white"/>
<path d="M208.846 104.603C208.616 103.343 208.787 102.286 209.361 101.43C209.935 100.575 210.838 100.034 212.065 99.8061C212.853 99.6627 213.578 99.6914 214.242 99.9026C214.906 100.114 215.457 100.466 215.895 100.971C216.338 101.476 216.623 102.097 216.759 102.83C216.957 103.889 216.771 104.785 216.206 105.523C215.641 106.256 214.764 106.735 213.581 106.95C213.223 107.014 213.006 106.837 212.931 106.419L212.007 101.413C210.434 101.823 209.791 102.812 210.083 104.387C210.139 104.702 210.243 105.025 210.384 105.357C210.524 105.689 210.731 105.999 211.003 106.288C211.17 106.483 211.247 106.67 211.245 106.836C211.237 107.007 211.168 107.141 211.043 107.238C210.912 107.341 210.759 107.377 210.579 107.363C210.398 107.35 210.223 107.251 210.06 107.078C209.752 106.765 209.492 106.381 209.286 105.927C209.08 105.472 208.931 105.027 208.852 104.598L208.846 104.603ZM215.652 103.104C215.531 102.442 215.225 101.958 214.746 101.643C214.267 101.328 213.678 101.192 212.979 101.235L213.769 105.535C214.478 105.37 214.998 105.083 215.324 104.664C215.65 104.244 215.76 103.723 215.646 103.104L215.652 103.104Z" fill="white"/>
<path d="M210.298 118.048C210.272 117.548 210.512 117.283 211.023 117.252L213.216 117.13L213.159 116.125C213.139 115.754 213.024 115.435 212.82 115.173C212.615 114.911 212.357 114.71 212.047 114.568L210.51 113.803C210.258 113.666 210.105 113.499 210.051 113.292C209.997 113.084 210.018 112.888 210.112 112.702C210.207 112.517 210.351 112.383 210.544 112.302C210.738 112.22 210.951 112.236 211.183 112.35L212.306 112.928C212.527 113.047 212.73 113.196 212.919 113.382C213.108 113.568 213.247 113.777 213.347 114.009C213.42 113.34 213.636 112.821 214.007 112.448C214.378 112.075 214.876 111.872 215.505 111.834C216.231 111.793 216.819 112.004 217.281 112.473C217.743 112.942 217.999 113.657 218.054 114.625L218.213 117.517C218.246 118.071 217.982 118.367 217.429 118.394L211.112 118.747C210.865 118.76 210.671 118.703 210.532 118.569C210.392 118.44 210.314 118.263 210.299 118.037L210.298 118.048ZM214.211 115.183L214.318 117.07L217.071 116.916L216.963 115.029C216.928 114.443 216.789 114.015 216.531 113.754C216.278 113.489 215.933 113.371 215.509 113.392C215.073 113.418 214.74 113.575 214.509 113.867C214.278 114.16 214.18 114.597 214.216 115.183L214.211 115.183Z" fill="white"/>
<path d="M199.296 163.801C199.558 163.312 199.936 163.197 200.435 163.465L200.918 163.721C201.419 162.78 202.02 162.055 202.722 161.552C203.424 161.049 204.194 160.781 205.026 160.759C205.857 160.737 206.718 160.958 207.608 161.427C208.956 162.14 209.799 163.093 210.125 164.29C210.452 165.482 210.233 166.804 209.47 168.244L209.866 168.457C210.365 168.719 210.486 169.098 210.224 169.587C209.962 170.075 209.584 170.191 209.085 169.923L208.688 169.716C207.925 171.156 206.956 172.078 205.785 172.481C204.614 172.879 203.352 172.724 202.004 172.01C201.109 171.535 200.436 170.949 199.998 170.241C199.554 169.538 199.346 168.751 199.363 167.896C199.38 167.041 199.642 166.134 200.142 165.193L199.664 164.937C199.165 164.674 199.044 164.296 199.306 163.807L199.296 163.801ZM207.466 169.248L207.548 169.093L201.291 165.784L201.21 165.938C200.753 166.797 200.657 167.641 200.915 168.464C201.173 169.287 201.801 169.966 202.799 170.497C203.828 171.042 204.743 171.192 205.554 170.943C206.36 170.694 206.997 170.133 207.461 169.253L207.466 169.248ZM202.148 164.168L202.066 164.323L208.323 167.632L208.404 167.478C208.868 166.598 208.974 165.76 208.731 164.949C208.482 164.143 207.844 163.463 206.814 162.919C205.817 162.388 204.901 162.253 204.068 162.506C203.235 162.758 202.598 163.314 202.148 164.163L202.148 164.168Z" fill="white"/>
<path d="M191.978 176.009C192.449 175.376 192.991 174.931 193.6 174.667C194.209 174.403 194.852 174.323 195.524 174.433C196.195 174.544 196.863 174.846 197.531 175.347C198.2 175.847 198.676 176.403 198.972 177.014C199.268 177.626 199.375 178.266 199.292 178.923C199.21 179.581 198.936 180.229 198.465 180.862C198.006 181.475 197.469 181.915 196.86 182.179C196.251 182.443 195.608 182.523 194.931 182.418C194.253 182.312 193.586 182.01 192.917 181.515C192.249 181.014 191.772 180.458 191.482 179.842C191.192 179.226 191.085 178.586 191.168 177.923C191.251 177.26 191.518 176.627 191.978 176.009V176.009ZM192.981 176.755C192.581 177.287 192.458 177.855 192.598 178.471C192.739 179.081 193.176 179.661 193.9 180.203C194.625 180.746 195.301 181.001 195.925 180.957C196.549 180.919 197.058 180.632 197.457 180.1C197.862 179.563 197.992 178.99 197.856 178.38C197.721 177.77 197.288 177.196 196.559 176.654C195.835 176.111 195.153 175.856 194.529 175.894C193.9 175.931 193.386 176.219 192.986 176.756L192.981 176.755Z" fill="white"/>
<path d="M184.808 184.525C185.186 184.131 185.566 184.122 185.96 184.5L190.161 188.514L191.668 186.938C191.994 186.599 192.311 186.58 192.63 186.883C192.94 187.179 192.932 187.495 192.606 187.834L188.481 192.155C188.155 192.494 187.838 192.518 187.528 192.221C187.214 191.919 187.217 191.598 187.543 191.259L189.05 189.682L184.849 185.668C184.454 185.295 184.441 184.909 184.813 184.525L184.808 184.525Z" fill="white"/>
<path d="M176.665 192.039C177.276 191.535 177.91 191.23 178.561 191.119C179.212 191.008 179.859 191.084 180.481 191.351C181.103 191.618 181.684 192.069 182.213 192.715C182.742 193.36 183.077 194.012 183.214 194.675C183.356 195.339 183.307 195.983 183.072 196.608C182.837 197.232 182.414 197.789 181.803 198.293C181.209 198.783 180.587 199.078 179.93 199.194C179.274 199.31 178.632 199.229 177.999 198.966C177.366 198.704 176.79 198.253 176.261 197.608C175.733 196.963 175.402 196.311 175.266 195.637C175.13 194.968 175.179 194.324 175.414 193.7C175.649 193.075 176.061 192.523 176.655 192.033L176.665 192.039ZM177.459 193.005C176.945 193.426 176.69 193.952 176.68 194.578C176.67 195.203 176.956 195.873 177.534 196.57C178.112 197.273 178.708 197.677 179.32 197.788C179.933 197.899 180.496 197.738 181.01 197.317C181.53 196.891 181.795 196.366 181.805 195.74C181.815 195.114 181.534 194.451 180.956 193.753C180.378 193.051 179.782 192.647 179.165 192.53C178.548 192.413 177.979 192.573 177.459 192.999L177.459 193.005Z" fill="white"/>
<path d="M169.064 197.723C169.52 197.425 169.903 197.519 170.209 197.997L173.534 203.187C173.864 203.699 173.768 204.12 173.256 204.445L169.75 206.688C169.355 206.941 169.039 206.885 168.809 206.53C168.575 206.159 168.652 205.849 169.046 205.595L171.961 203.73L168.843 198.862C168.537 198.384 168.608 198.004 169.059 197.717L169.064 197.723Z" fill="white"/>
<path d="M158.922 203.517C159.411 203.281 159.896 203.163 160.372 203.167C160.848 203.171 161.279 203.284 161.664 203.501C162.048 203.718 162.34 204.034 162.539 204.446C162.788 204.963 162.86 205.434 162.736 205.863C162.612 206.293 162.285 206.717 161.739 207.147C161.192 207.576 160.401 208.046 159.367 208.55L158.878 208.786L159.058 209.158C159.322 209.703 159.633 210.043 159.977 210.171C160.326 210.299 160.764 210.231 161.287 209.976C161.593 209.828 161.897 209.632 162.188 209.397C162.484 209.158 162.764 208.863 163.026 208.508C163.18 208.317 163.338 208.216 163.503 208.224C163.664 208.225 163.803 208.289 163.922 208.411C164.042 208.532 164.11 208.682 164.123 208.865C164.141 209.049 164.075 209.22 163.934 209.386C163.604 209.784 163.256 210.127 162.886 210.419C162.516 210.712 162.15 210.947 161.788 211.123C160.827 211.59 160.004 211.704 159.326 211.475C158.642 211.241 158.067 210.64 157.595 209.673L155.795 205.971C155.56 205.481 155.662 205.125 156.117 204.908C156.579 204.687 156.927 204.815 157.168 205.31L157.427 205.843C157.406 205.355 157.52 204.908 157.771 204.499C158.021 204.09 158.405 203.766 158.911 203.516L158.922 203.517ZM159.137 204.695C158.62 204.944 158.274 205.341 158.105 205.874C157.935 206.407 157.985 206.951 158.258 207.507L158.448 207.897L158.921 207.665C159.621 207.322 160.153 207.02 160.52 206.765C160.888 206.504 161.116 206.254 161.204 206.014C161.292 205.774 161.274 205.516 161.14 205.238C160.965 204.872 160.694 204.637 160.337 204.535C159.976 204.432 159.575 204.487 159.136 204.7L159.137 204.695Z" fill="white"/>
<path d="M144.813 209.174C145.318 209.004 145.658 209.179 145.833 209.696L147.676 215.211L150.362 214.313L150.061 213.418C149.556 211.907 149.333 210.686 149.389 209.743C149.445 208.799 149.804 208.019 150.462 207.394C150.646 207.232 150.834 207.155 151.026 207.164C151.218 207.174 151.384 207.24 151.514 207.362C151.644 207.484 151.718 207.64 151.73 207.828C151.742 208.017 151.669 208.204 151.505 208.395C151.065 208.891 150.854 209.485 150.876 210.183C150.898 210.875 151.11 211.812 151.502 212.987L151.907 214.201C152.099 214.778 151.909 215.165 151.332 215.356L147.415 216.669C146.838 216.86 146.451 216.67 146.26 216.093L144.294 210.216C144.12 209.699 144.296 209.354 144.812 209.179L144.813 209.174Z" fill="white"/>
<path d="M135.321 211.431C136.576 211.184 137.64 211.345 138.496 211.914C139.352 212.482 139.904 213.376 140.148 214.604C140.302 215.392 140.279 216.113 140.073 216.777C139.872 217.442 139.52 217.998 139.02 218.442C138.52 218.885 137.904 219.181 137.17 219.323C136.11 219.531 135.214 219.356 134.475 218.796C133.736 218.236 133.251 217.37 133.02 216.185C132.951 215.827 133.128 215.61 133.547 215.529L138.546 214.557C138.119 212.988 137.119 212.355 135.548 212.663C135.233 212.725 134.909 212.828 134.582 212.975C134.25 213.121 133.944 213.333 133.662 213.6C133.467 213.768 133.284 213.85 133.113 213.848C132.942 213.845 132.808 213.776 132.705 213.65C132.602 213.525 132.561 213.366 132.575 213.186C132.588 213.005 132.682 212.83 132.855 212.666C133.162 212.358 133.547 212.093 133.996 211.881C134.451 211.669 134.891 211.521 135.32 211.436L135.321 211.431ZM136.89 218.22C137.548 218.088 138.037 217.783 138.342 217.298C138.652 216.813 138.777 216.223 138.729 215.523L134.436 216.357C134.607 217.061 134.905 217.582 135.325 217.903C135.749 218.23 136.266 218.333 136.886 218.209L136.89 218.22Z" fill="white"/>
<path d="M126.498 209.836C127.03 209.802 127.316 210.059 127.349 210.603L127.915 219.874C127.949 220.418 127.702 220.704 127.18 220.739C126.648 220.773 126.362 220.516 126.329 219.973L126.29 219.365C126.083 219.826 125.76 220.202 125.315 220.49C124.876 220.777 124.36 220.941 123.774 220.977C123.08 221.02 122.469 220.893 121.93 220.59C121.39 220.292 120.964 219.847 120.644 219.266C120.325 218.685 120.138 217.975 120.089 217.141C120.04 216.313 120.133 215.581 120.379 214.958C120.625 214.334 120.994 213.843 121.492 213.485C121.991 213.127 122.584 212.926 123.278 212.888C123.853 212.852 124.376 212.945 124.841 213.168C125.311 213.391 125.672 213.713 125.934 214.135L125.725 210.698C125.692 210.155 125.95 209.864 126.493 209.831L126.498 209.836ZM123.762 214.113C123.09 214.153 122.571 214.429 122.201 214.931C121.831 215.433 121.675 216.138 121.729 217.047C121.783 217.956 122.026 218.633 122.457 219.083C122.883 219.533 123.435 219.736 124.107 219.696C124.779 219.656 125.298 219.386 125.668 218.884C126.038 218.382 126.193 217.682 126.139 216.779C126.085 215.875 125.843 215.193 125.412 214.737C124.981 214.281 124.434 214.074 123.762 214.119L123.762 214.113Z" fill="white"/>
<path d="M111.365 212.777C112.644 212.853 113.629 213.276 114.32 214.035C115.011 214.8 115.32 215.803 115.246 217.05C115.196 217.849 114.993 218.546 114.632 219.139C114.271 219.732 113.792 220.183 113.196 220.491C112.6 220.799 111.931 220.93 111.185 220.883C110.109 220.817 109.283 220.422 108.706 219.698C108.13 218.975 107.877 218.008 107.947 216.809C107.969 216.446 108.191 216.276 108.617 216.303L113.701 216.611C113.681 214.982 112.874 214.123 111.275 214.028C110.956 214.003 110.616 214.031 110.258 214.089C109.901 214.148 109.554 214.276 109.207 214.469C108.973 214.585 108.778 214.619 108.616 214.569C108.454 214.519 108.338 214.424 108.274 214.275C108.211 214.126 108.207 213.965 108.263 213.792C108.319 213.62 108.453 213.475 108.666 213.357C109.041 213.134 109.476 212.975 109.97 212.884C110.464 212.793 110.927 212.759 111.365 212.782L111.365 212.777ZM111.187 219.743C111.858 219.784 112.402 219.606 112.822 219.215C113.243 218.824 113.514 218.283 113.642 217.597L109.278 217.333C109.265 218.06 109.424 218.634 109.751 219.056C110.077 219.477 110.558 219.706 111.187 219.743V219.743Z" fill="white"/>
<path d="M97.9677 210.865C98.4582 210.962 98.6549 211.26 98.5577 211.761L98.1365 213.913L99.1281 214.107C99.4974 214.178 99.8319 214.144 100.136 214.012C100.441 213.875 100.697 213.675 100.915 213.413L102.032 212.112C102.225 211.902 102.431 211.795 102.64 211.789C102.854 211.79 103.036 211.857 103.197 211.998C103.352 212.138 103.446 212.311 103.478 212.517C103.511 212.723 103.442 212.926 103.272 213.122L102.434 214.07C102.264 214.255 102.07 214.417 101.84 214.549C101.61 214.687 101.374 214.771 101.13 214.811C101.76 215.041 102.21 215.386 102.481 215.835C102.752 216.284 102.829 216.819 102.707 217.436C102.567 218.148 102.216 218.673 101.651 218.999C101.085 219.331 100.325 219.401 99.3751 219.216L96.5322 218.662C95.9889 218.556 95.7676 218.229 95.8733 217.686L97.0859 211.478C97.1312 211.235 97.2351 211.066 97.3983 210.961C97.5616 210.856 97.7512 210.827 97.9726 210.871L97.9677 210.865ZM99.7818 215.361L97.9251 215L97.3978 217.7L99.2545 218.062C99.8293 218.175 100.276 218.14 100.596 217.955C100.915 217.771 101.114 217.47 101.194 217.053C101.28 216.626 101.207 216.262 100.983 215.967C100.759 215.671 100.357 215.469 99.7822 215.356L99.7818 215.361Z" fill="white"/>
<path d="M56.4035 188.817C56.814 189.191 56.8265 189.588 56.4468 190.004L56.079 190.404C56.8699 191.123 57.4222 191.882 57.7354 192.688C58.0487 193.493 58.1155 194.301 57.9301 195.117C57.7447 195.932 57.3162 196.708 56.6387 197.448C55.6102 198.58 54.4799 199.152 53.2416 199.175C52.0036 199.193 50.7814 198.655 49.5698 197.557L49.2662 197.887C48.8862 198.307 48.4887 198.325 48.0783 197.951C47.6679 197.577 47.6554 197.18 48.035 196.765L48.3386 196.435C47.1323 195.336 46.4775 194.168 46.3842 192.935C46.2857 191.701 46.7562 190.517 47.7789 189.39C48.4625 188.64 49.1966 188.139 49.9923 187.884C50.788 187.629 51.5969 187.621 52.4247 187.855C53.2526 188.09 54.0622 188.564 54.8478 189.282L55.2156 188.882C55.5956 188.461 55.9935 188.438 56.4035 188.817ZM49.0941 195.374L49.2243 195.491L53.9867 190.255L53.8564 190.138C53.1355 189.483 52.3453 189.177 51.4852 189.224C50.6199 189.27 49.81 189.711 49.0503 190.547C48.2672 191.408 47.8969 192.263 47.9342 193.106C47.9769 193.95 48.3633 194.708 49.0941 195.374ZM55.3379 191.488L55.2076 191.371L50.4453 196.606L50.5755 196.723C51.3116 197.39 52.101 197.707 52.9447 197.664C53.7884 197.622 54.604 197.175 55.387 196.314C56.1467 195.478 56.5064 194.623 56.4654 193.758C56.4244 192.893 56.0485 192.136 55.3379 191.488Z" fill="white"/>
<path d="M46.3947 178.702C46.8883 179.318 47.1933 179.951 47.2931 180.607C47.393 181.262 47.3119 181.904 47.0396 182.525C46.7674 183.147 46.3059 183.722 45.6611 184.245C45.0109 184.769 44.3541 185.098 43.6856 185.229C43.0168 185.366 42.3732 185.311 41.755 185.066C41.1363 184.826 40.5801 184.398 40.0811 183.782C39.5969 183.183 39.3075 182.556 39.2023 181.9C39.0971 181.245 39.1782 180.603 39.4509 179.976C39.7183 179.349 40.1797 178.774 40.8245 178.25C41.4747 177.727 42.1312 177.402 42.8049 177.272C43.4733 177.141 44.1218 177.201 44.7405 177.441C45.3592 177.681 45.9104 178.103 46.3947 178.702V178.702ZM45.4249 179.485C45.0091 178.971 44.4887 178.707 43.8582 178.691C43.2278 178.675 42.564 178.956 41.8569 179.523C41.1494 180.095 40.7404 180.685 40.6241 181.297C40.5078 181.909 40.6571 182.477 41.073 182.991C41.4933 183.515 42.0187 183.785 42.6438 183.801C43.2685 183.822 43.9323 183.541 44.6394 182.974C45.3468 182.401 45.7558 181.812 45.8779 181.195C45.9999 180.578 45.8452 180.009 45.4249 179.485V179.485Z" fill="white"/>
<path d="M39.9124 169.653C40.1984 170.114 40.1159 170.493 39.6498 170.779L34.72 173.86L35.8743 175.71C36.1222 176.109 36.0605 176.425 35.6898 176.654C35.3301 176.878 35.0206 176.795 34.7727 176.396L31.6102 171.332C31.3623 170.933 31.4182 170.621 31.7779 170.397C32.149 170.163 32.4586 170.246 32.7065 170.645L33.8607 172.494L38.7906 169.412C39.2518 169.121 39.6252 169.208 39.9067 169.658L39.9124 169.653Z" fill="white"/>
<path d="M34.645 159.905C34.9811 160.621 35.1215 161.306 35.0654 161.971C35.015 162.631 34.7763 163.234 34.3656 163.775C33.955 164.316 33.3694 164.764 32.6143 165.119C31.8593 165.473 31.1458 165.633 30.463 165.602C29.7855 165.572 29.1693 165.37 28.6258 164.986C28.0823 164.602 27.6424 164.054 27.3063 163.338C26.9792 162.644 26.8437 161.964 26.8998 161.299C26.9502 160.64 27.1893 160.032 27.6 159.49C28.011 158.943 28.5913 158.495 29.3463 158.141C30.1014 157.786 30.8202 157.627 31.5026 157.663C32.185 157.699 32.7955 157.906 33.3447 158.285C33.8939 158.664 34.3237 159.206 34.6507 159.9L34.645 159.905ZM33.5126 160.434C33.2318 159.834 32.7899 159.453 32.1815 159.288C31.5731 159.124 30.858 159.236 30.0362 159.623C29.2144 160.009 28.6751 160.482 28.4176 161.051C28.16 161.621 28.1689 162.205 28.4497 162.804C28.735 163.415 29.1765 163.802 29.7796 163.966C30.3827 164.129 31.0921 164.023 31.9139 163.636C32.7356 163.249 33.2753 162.771 33.5382 162.202C33.8011 161.634 33.7876 161.038 33.502 160.433L33.5126 160.434Z" fill="white"/>
<path d="M31.0272 151.128C31.1965 151.644 31.0146 151.994 30.4768 152.167L24.6231 154.097C24.0464 154.289 23.6599 154.093 23.4684 153.517L22.1642 149.563C22.0162 149.118 22.1454 148.828 22.5518 148.693C22.9689 148.559 23.2465 148.709 23.3942 149.159L24.4764 152.443L29.9674 150.635C30.5056 150.456 30.857 150.622 31.0218 151.127L31.0272 151.128Z" fill="white"/>
<path d="M27.9417 139.865C28.0509 140.398 28.0397 140.895 27.9188 141.357C27.7926 141.818 27.5808 142.209 27.2727 142.528C26.9646 142.847 26.5906 143.049 26.1391 143.143C25.5738 143.255 25.1014 143.203 24.7169 142.981C24.3323 142.759 24.0009 142.332 23.723 141.695C23.4397 141.058 23.1858 140.177 22.9563 139.046L22.8471 138.513L22.4394 138.594C21.8414 138.714 21.4395 138.93 21.2293 139.23C21.0187 139.535 20.969 139.975 21.086 140.546C21.1513 140.883 21.2649 141.218 21.4202 141.568C21.576 141.911 21.796 142.255 22.0693 142.602C22.22 142.801 22.2709 142.976 22.2268 143.133C22.1827 143.291 22.0878 143.412 21.9425 143.492C21.7968 143.577 21.6343 143.602 21.4546 143.572C21.2748 143.542 21.1221 143.44 20.9971 143.254C20.6972 142.835 20.4456 142.414 20.2591 141.982C20.0673 141.55 19.9327 141.138 19.8506 140.741C19.6412 139.697 19.7312 138.869 20.1251 138.268C20.519 137.666 21.2462 137.256 22.301 137.042L26.3352 136.226C26.8681 136.116 27.1851 136.312 27.2869 136.801C27.3879 137.302 27.1716 137.612 26.639 137.716L26.0574 137.832C26.5368 137.933 26.9373 138.156 27.2695 138.502C27.6017 138.849 27.8243 139.3 27.9372 139.854L27.9417 139.865ZM26.7495 139.774C26.6374 139.209 26.3437 138.78 25.8686 138.481C25.3932 138.188 24.854 138.099 24.2449 138.223L23.8209 138.309L23.926 138.825C24.082 139.587 24.2399 140.182 24.4007 140.601C24.5614 141.02 24.7486 141.302 24.9567 141.452C25.1647 141.602 25.4239 141.643 25.7284 141.581C26.1255 141.498 26.4189 141.301 26.6094 140.979C26.8 140.656 26.8464 140.258 26.7495 139.774V139.774Z" fill="white"/>
<path d="M25.9927 124.793C26.0323 125.326 25.775 125.611 25.2367 125.65L19.4403 126.059L19.6368 128.884L20.5787 128.817C22.1662 128.708 23.4071 128.792 24.3054 129.085C25.2041 129.373 25.8746 129.917 26.3118 130.711C26.4237 130.928 26.4513 131.128 26.3941 131.316C26.3369 131.505 26.2301 131.641 26.0779 131.742C25.926 131.837 25.7578 131.867 25.5732 131.832C25.3885 131.796 25.2263 131.677 25.0813 131.473C24.7113 130.92 24.1867 130.57 23.5075 130.422C22.8283 130.273 21.8728 130.238 20.6349 130.326L19.3594 130.416C18.7511 130.46 18.4304 130.173 18.3854 129.57L18.0952 125.448C18.0506 124.839 18.3321 124.518 18.9404 124.474L25.124 124.041C25.6676 124.002 25.9588 124.255 25.9976 124.798L25.9927 124.793Z" fill="white"/>
<path d="M26.1762 115.026C26.1 116.305 25.6822 117.291 24.9224 117.987C24.1577 118.678 23.1541 118.993 21.9071 118.919C21.1076 118.874 20.4115 118.665 19.8182 118.304C19.2248 117.943 18.7742 117.465 18.4664 116.868C18.1586 116.272 18.0276 115.604 18.0685 114.857C18.1293 113.781 18.5243 112.954 19.2481 112.378C19.9719 111.801 20.9334 111.548 22.1378 111.619C22.5001 111.641 22.6705 111.863 22.6433 112.289L22.3463 117.373C23.9755 117.348 24.8347 116.541 24.9247 114.942C24.9437 114.622 24.9214 114.283 24.8627 113.931C24.8043 113.573 24.6756 113.226 24.4822 112.884C24.3662 112.651 24.3329 112.456 24.3828 112.293C24.4273 112.131 24.5271 112.015 24.6765 111.952C24.8259 111.888 24.9871 111.879 25.1591 111.94C25.3311 112.002 25.4765 112.131 25.5941 112.343C25.817 112.719 25.9765 113.154 26.0726 113.648C26.1687 114.143 26.2029 114.606 26.1749 115.042L26.1762 115.026ZM19.2086 114.859C19.1681 115.53 19.3461 116.074 19.7369 116.494C20.1276 116.915 20.669 117.186 21.3556 117.308L21.6084 112.943C20.8814 112.931 20.3072 113.09 19.8857 113.422C19.4647 113.749 19.2353 114.229 19.198 114.858L19.2086 114.859Z" fill="white"/>
<path d="M29.8975 106.879C29.7987 107.402 29.4828 107.613 28.9445 107.513L19.8211 105.784C19.288 105.684 19.0656 105.373 19.1635 104.861C19.2623 104.339 19.5786 104.122 20.1166 104.227L20.7127 104.342C20.3138 104.028 20.0343 103.621 19.8584 103.121C19.6878 102.621 19.6539 102.083 19.7674 101.508C19.8943 100.827 20.1728 100.265 20.5925 99.8151C21.0119 99.3707 21.5492 99.0638 22.1938 98.8935C22.8381 98.7286 23.5721 98.7204 24.3897 98.8791C25.2077 99.0326 25.8878 99.3093 26.4362 99.6991C26.9792 100.089 27.3651 100.573 27.5894 101.141C27.8136 101.71 27.8623 102.335 27.7297 103.02C27.6223 103.585 27.4032 104.071 27.0731 104.469C26.743 104.867 26.3419 105.141 25.8647 105.292L29.2469 105.936C29.7799 106.035 29.9963 106.357 29.8967 106.89L29.8975 106.879ZM26.428 103.173C26.5533 102.513 26.415 101.94 26.018 101.46C25.6215 100.975 24.9769 100.653 24.0852 100.483C23.1935 100.313 22.4763 100.382 21.9337 100.688C21.3911 100.995 21.0598 101.478 20.9345 102.138C20.8092 102.797 20.9422 103.369 21.3338 103.849C21.7254 104.329 22.3696 104.656 23.2613 104.826C24.153 104.996 24.8701 104.927 25.4181 104.621C25.9661 104.315 26.3023 103.838 26.428 103.173Z" fill="white"/>
<path d="M30.7841 91.4766C30.3807 92.6931 29.7275 93.5372 28.8079 94.013C27.8937 94.4892 26.8416 94.5267 25.6563 94.1365C24.8939 93.8856 24.2747 93.5118 23.7938 93.0093C23.3129 92.5069 22.9982 91.9315 22.8557 91.2729C22.7129 90.6197 22.7542 89.9376 22.9904 89.2277C23.3255 88.204 23.9195 87.5053 24.7671 87.1311C25.6147 86.7568 26.6102 86.7579 27.7587 87.1399C28.1035 87.2519 28.2068 87.5114 28.074 87.9188L26.4791 92.7539C28.0546 93.1526 29.0985 92.5899 29.6003 91.0651C29.6984 90.7621 29.7666 90.4301 29.7995 90.0686C29.8325 89.7071 29.802 89.3354 29.7023 88.9584C29.6518 88.7083 29.6672 88.5061 29.7584 88.3632C29.8443 88.2199 29.9687 88.133 30.1312 88.1079C30.2937 88.0829 30.446 88.1213 30.5992 88.2186C30.7519 88.3213 30.8572 88.4845 30.9143 88.7191C31.032 89.1402 31.0773 89.5987 31.0391 90.099C31.0009 90.5992 30.9181 91.0533 30.7791 91.4709L30.7841 91.4766ZM24.0918 89.5259C23.8826 90.1629 23.9136 90.7381 24.1857 91.2406C24.4574 91.7485 24.9088 92.147 25.5443 92.4471L26.9104 88.2957C26.2135 88.098 25.6134 88.1057 25.1264 88.3147C24.6394 88.5238 24.2924 88.9309 24.0971 89.5263L24.0918 89.5259Z" fill="white"/>
<path d="M35.9601 78.998C35.7434 79.4525 35.4029 79.5657 34.9431 79.3486L32.9649 78.4054L32.5315 79.3144C32.372 79.6502 32.3198 79.9834 32.3749 80.3142C32.4299 80.6449 32.557 80.9437 32.761 81.2162L33.7402 82.6238C33.8984 82.8661 33.9509 83.0896 33.8978 83.2943C33.8447 83.499 33.7359 83.662 33.5608 83.7825C33.3857 83.9029 33.1949 83.9472 32.9878 83.9261C32.7806 83.9049 32.6025 83.7843 32.4525 83.5747L31.7457 82.5251C31.6064 82.3164 31.5007 82.0889 31.4293 81.8319C31.3575 81.5801 31.3287 81.3263 31.3531 81.0766C30.9736 81.6311 30.5296 81.9773 30.0253 82.1315C29.5215 82.2804 28.9856 82.2181 28.4172 81.9499C27.7612 81.6375 27.3475 81.167 27.1654 80.5375C26.9886 79.9084 27.1048 79.1571 27.5251 78.2792L28.7738 75.6659C29.0154 75.1651 29.3842 75.0326 29.885 75.2743L35.5919 78.001C35.8139 78.1089 35.9527 78.2534 36.0138 78.4347C36.075 78.616 36.0546 78.8125 35.9589 79.014L35.9601 78.998ZM31.1529 79.6321L31.9682 77.9278L29.4838 76.7425L28.6686 78.4468C28.4139 78.9787 28.3376 79.4172 28.4336 79.7725C28.5296 80.1277 28.7712 80.3978 29.159 80.5772C29.5566 80.7682 29.9243 80.7909 30.2623 80.6401C30.6053 80.4949 30.8986 80.1587 31.1533 79.6268L31.1529 79.6321Z" fill="white"/>
<g clip-path="url(#clip1_127_1714)">
<path d="M70.0674 42.8996L62.8272 30.544L70.9589 25.7752C73.7479 24.1396 76.5931 23.7355 79.6583 24.5346C80.9843 24.8802 82.3649 25.4536 83.8915 26.2857L84.0726 26.3827L84.0688 26.5881C84.0342 30.3792 83.3336 35.114 78.2009 38.124L70.0624 42.8912L70.0674 42.8996ZM63.7667 30.789L70.314 41.9533L77.8578 37.5293C82.5957 34.7508 83.3195 30.3637 83.3837 26.7867C81.9782 26.036 80.7057 25.5121 79.4863 25.1943C76.6077 24.4438 73.9314 24.8279 71.3105 26.365L63.7667 30.789Z" fill="white"/>
<path d="M78.2835 24.1121L77.6895 24.4604L82.6361 32.8954L83.2301 32.5471L78.2835 24.1121Z" fill="white"/>
<path d="M73.0801 35.6011C72.2072 35.3735 71.4762 34.82 71.0247 34.0405C70.5732 33.261 70.447 32.3528 70.6728 31.4865C70.8986 30.6202 71.4539 29.8825 72.2267 29.4293C72.9996 28.9761 73.9144 28.8516 74.7807 29.0774C75.6469 29.3033 76.3846 29.8585 76.8379 30.6313C77.296 31.4126 77.4222 32.3208 77.1964 33.1871C76.9706 34.0533 76.4154 34.791 75.6358 35.2425C74.8546 35.7007 73.9464 35.8269 73.0801 35.6011ZM74.6087 29.7371C73.9157 29.5565 73.1915 29.6595 72.5716 30.0174C71.9499 30.3819 71.5131 30.9655 71.3325 31.6585C71.1518 32.3515 71.2548 33.0757 71.6127 33.6956C72.3369 34.9305 74.0494 35.3769 75.2843 34.6527C75.906 34.2882 76.3427 33.7046 76.5234 33.0116C76.704 32.3186 76.6011 31.5944 76.2432 30.9745C75.8786 30.3528 75.2951 29.9161 74.6021 29.7354L74.6087 29.7371Z" fill="white"/>
<path d="M75.1119 32.0384L74.9395 31.7444C74.6144 31.19 73.8947 31.0024 73.3403 31.3275L73.0462 31.4999L72.6965 30.9035L72.9905 30.7311C73.8725 30.2138 75.012 30.5108 75.5359 31.3946L75.7084 31.6886L75.1119 32.0384Z" fill="white"/>
<path d="M66.3071 42.4743L61.3609 34.0401L64.5699 32.1582L69.5161 40.5924L66.3071 42.4743V42.4743ZM62.3004 34.285L66.5471 41.5263L68.5632 40.344L64.325 33.0977L62.3088 34.2801L62.3004 34.285Z" fill="white"/>
<path d="M65.4455 35.1567L63.5447 36.2715L63.893 36.8655L65.7939 35.7508L65.4455 35.1567Z" fill="white"/>
<path d="M66.9765 37.7691L65.0757 38.8838L65.424 39.4778L67.3249 38.3631L66.9765 37.7691Z" fill="white"/>
<path d="M63.2376 31.0995L60.5559 28.3651L63.2189 26.8034C63.9245 26.3896 64.7803 26.328 65.5504 26.6498L68.629 27.9433L63.2275 31.1111L63.2376 31.0995ZM61.6635 28.5115L63.3498 30.2321L67.0965 28.0349L65.2869 27.2785C64.7231 27.039 64.0912 27.0878 63.5637 27.3915L61.6568 28.5098L61.6635 28.5115Z" fill="white"/>
<path d="M70.867 45.9478L69.7898 42.2724L75.1914 39.1047L74.8174 42.4231C74.7257 43.2389 74.2507 43.969 73.5451 44.3829L70.8821 45.9446L70.867 45.9478ZM70.6034 42.5913L71.2817 44.903L73.1886 43.7847C73.7095 43.4792 74.064 42.9383 74.1285 42.336L74.3518 40.3874L70.6051 42.5846L70.6034 42.5913Z" fill="white"/>
<path d="M61.0482 42.3917C60.3819 42.218 59.6486 41.8916 58.751 41.4584L58.5433 41.3544L58.5539 41.1224C58.7131 38.4098 58.9843 37.1782 61.1097 35.9318L61.4037 35.7594L61.7535 36.3559L61.4594 36.5283C59.7289 37.5431 59.4168 38.3584 59.2573 40.9357C61.5844 42.0547 62.4483 42.1803 64.1789 41.1654L64.4729 40.993L64.8227 41.5894L64.5287 41.7619C63.1846 42.5501 62.2077 42.694 61.0482 42.3917Z" fill="white"/>
<path d="M62.9507 38.3805L60.3965 39.8784L60.7448 40.4724L63.2991 38.9745L62.9507 38.3805Z" fill="white"/>
</g>
</g>
<defs>
<clipPath id="clip0_127_1714">
<rect width="208.693" height="206.179" fill="white" transform="translate(32.8792 0.684082) rotate(8.91758)"/>
</clipPath>
<clipPath id="clip1_127_1714">
<rect width="23" height="23" fill="white" transform="translate(62.7219 20.0557) rotate(14.6107)"/>
</clipPath>
</defs>
</svg>
