<svg width="475" height="402" viewBox="0 0 475 402" fill="none" xmlns="http://www.w3.org/2000/svg">
<path d="M20.3626 46.1202C23.6469 43.2651 26.3838 41.5082 28.5733 40.8493C30.7628 40.1904 33.0619 39.7512 35.4703 39.5316C41.82 40.6297 46.5274 43.5946 49.5928 48.4262C52.6581 53.2578 54.1908 58.6385 54.1908 64.5683C54.1908 66.9841 53.7529 69.5097 52.8771 72.1451C52.2202 74.7806 51.016 77.1964 49.2643 79.3926C47.5127 81.3692 45.1042 83.1261 42.0389 84.6635C39.1925 85.9812 35.4703 86.64 30.8723 86.64C21.6763 86.64 14.2319 82.7967 8.53915 75.11C2.84638 67.2037 0 56.6619 0 43.4847C0 37.555 0.985287 32.0645 2.95586 27.0132C5.14539 21.7424 7.8823 17.2402 11.1666 13.5066C14.4509 9.55347 18.2825 6.47879 22.6616 4.28259C27.0407 1.86677 31.5292 0.43924 36.1272 0C40.2873 0 43.1337 1.20791 44.6663 3.62373C46.418 5.81993 47.2938 8.34556 47.2938 11.2006C47.2938 13.8361 46.418 16.3617 44.6663 18.7775C43.1337 21.1933 40.3968 22.4012 36.4556 22.4012C32.5145 22.4012 28.7923 24.1582 25.289 27.6721C21.7858 30.9664 20.0342 36.1275 20.0342 43.1553C20.0342 43.5946 20.0342 44.1436 20.0342 44.8025C20.2531 45.2417 20.3626 45.6809 20.3626 46.1202ZM86.0484 46.1202C89.3327 43.2651 92.0696 41.5082 94.2591 40.8493C96.4486 40.1904 98.7477 39.7512 101.156 39.5316C107.506 40.6297 112.213 43.5946 115.279 48.4262C118.344 53.2578 119.877 58.6385 119.877 64.5683C119.877 66.9841 119.439 69.5097 118.563 72.1451C117.906 74.7806 116.702 77.1964 114.95 79.3926C113.199 81.3692 110.79 83.1261 107.725 84.6635C104.878 85.9812 101.156 86.64 96.5581 86.64C87.3621 86.64 79.9177 82.7967 74.225 75.11C68.5322 67.2037 65.6858 56.6619 65.6858 43.4847C65.6858 37.555 66.6711 32.0645 68.6417 27.0132C70.8312 21.7424 73.5681 17.2402 76.8524 13.5066C80.1367 9.55347 83.9683 6.47879 88.3474 4.28259C92.7264 1.86677 97.215 0.43924 101.813 0C105.973 0 108.819 1.20791 110.352 3.62373C112.104 5.81993 112.98 8.34556 112.98 11.2006C112.98 13.8361 112.104 16.3617 110.352 18.7775C108.819 21.1933 106.083 22.4012 102.141 22.4012C98.2003 22.4012 94.4781 24.1582 90.9748 27.6721C87.4716 30.9664 85.72 36.1275 85.72 43.1553C85.72 43.5946 85.72 44.1436 85.72 44.8025C85.9389 45.2417 86.0484 45.6809 86.0484 46.1202Z" fill="#0D6DED"/>
<path d="M388.952 355.38C385.667 358.235 382.93 359.992 380.741 360.651C378.551 361.31 376.252 361.749 373.844 361.968C367.275 360.87 362.458 358.015 359.393 353.403C356.328 348.572 354.795 343.081 354.795 336.932C354.795 334.736 355.123 332.32 355.78 329.684C356.656 327.049 357.97 324.633 359.721 322.437C361.473 320.241 363.882 318.484 366.947 317.166C370.012 315.629 373.844 314.86 378.442 314.86C387.638 314.86 395.082 318.813 400.775 326.719C406.468 334.406 409.314 344.838 409.314 358.015C409.314 363.945 408.329 369.435 406.358 374.487C404.388 379.538 401.76 384.04 398.476 387.993C395.192 391.947 391.36 395.131 386.981 397.547C382.602 399.963 378.004 401.28 373.187 401.5C369.027 401.5 366.071 400.402 364.319 398.206C362.787 395.79 362.02 393.154 362.02 390.299C362.02 387.664 362.787 385.138 364.319 382.722C366.071 380.307 368.917 379.099 372.859 379.099C376.8 379.099 380.412 377.452 383.697 374.157C387.2 370.643 388.952 365.372 388.952 358.345V355.38ZM454.637 355.38C451.353 358.235 448.616 359.992 446.427 360.651C444.237 361.31 441.938 361.749 439.53 361.968C432.961 360.87 428.144 358.015 425.079 353.403C422.013 348.572 420.481 343.081 420.481 336.932C420.481 334.736 420.809 332.32 421.466 329.684C422.342 327.049 423.656 324.633 425.407 322.437C427.159 320.241 429.567 318.484 432.633 317.166C435.698 315.629 439.53 314.86 444.128 314.86C453.324 314.86 460.768 318.813 466.461 326.719C472.154 334.406 475 344.838 475 358.015C475 363.945 474.015 369.435 472.044 374.487C470.074 379.538 467.446 384.04 464.162 387.993C460.878 391.947 457.046 395.131 452.667 397.547C448.288 399.963 443.69 401.28 438.873 401.5C434.713 401.5 431.757 400.402 430.005 398.206C428.473 395.79 427.706 393.154 427.706 390.299C427.706 387.664 428.473 385.138 430.005 382.722C431.757 380.307 434.603 379.099 438.544 379.099C442.486 379.099 446.098 377.452 449.383 374.157C452.886 370.643 454.637 365.372 454.637 358.345V355.38Z" fill="#0D6DED"/>
</svg>
