<svg width="30" height="34" viewBox="0 0 30 34" fill="none" xmlns="http://www.w3.org/2000/svg">
<path d="M27 29H26V1H16.77L14.77 4H4V29H3V3H14.23L16.23 0H27V29Z" fill="white"/>
<path d="M30 34H29V29H23.71L21.71 31H8.29L6.29 29H1V34H0V28H6.71L8.71 30H21.29L23.29 28H30V34Z" fill="white"/>
<path d="M22 25H10V16H22V25ZM11 24H21V17H11V24Z" fill="white"/>
<path d="M20 18H12V19H20V18Z" fill="white"/>
<path d="M20 22H12V23H20V22Z" fill="white"/>
<path d="M20 20H12V21H20V20Z" fill="white"/>
<path d="M7 26.5H6V25.5H7V26.5ZM7 24.5H6V23.5H7V24.5ZM7 22.5H6V21.5H7V22.5ZM7 20.5H6V19.5H7V20.5ZM7 18.5H6V17.5H7V18.5ZM7 16.5H6V15.5H7V16.5ZM7 14.5H6V13.5H7V14.5ZM7 12.5H6V11.5H7V12.5ZM7 10.5H6V9.5H7V10.5ZM7 8.5H6V7.5H7V8.5ZM7 6.5H6V5.5H7V6.5Z" fill="white"/>
</svg>
