<svg width="140" height="200" viewBox="0 0 140 200" fill="none" xmlns="http://www.w3.org/2000/svg">
<path d="M124.242 0H15.1515C6.78788 0 0 6.78788 0 15.1515V184.848C0 193.212 6.78788 200 15.1515 200H124.242C132.606 200 139.394 193.212 139.394 184.848V15.1515C139.394 6.78788 132.606 0 124.242 0ZM133.333 184.848C133.333 189.879 129.273 193.939 124.242 193.939H15.1515C10.1212 193.939 6.06061 189.879 6.06061 184.848V15.1515C6.06061 10.1212 10.1212 6.06061 15.1515 6.06061H124.242C129.273 6.06061 133.333 10.1212 133.333 15.1515V184.848Z" fill="#0D6DED"/>
<path d="M18.1819 39.3938H24.2425V24.2422H115.152V39.3938H121.212V18.1816H18.1819V39.3938Z" fill="#0D6DED"/>
<path d="M115.152 133.333H24.2425V51.5151H18.1819V181.818H121.212V51.5151H115.152V133.333ZM24.2425 175.758V139.394H115.152V175.758H24.2425Z" fill="#0D6DED"/>
<path d="M69.6969 145.455C63.0302 145.455 57.5757 150.909 57.5757 157.576C57.5757 164.242 63.0302 169.697 69.6969 169.697C76.3636 169.697 81.8181 164.242 81.8181 157.576C81.8181 150.909 76.3636 145.455 69.6969 145.455ZM69.6969 163.636C66.3636 163.636 63.6363 160.909 63.6363 157.576C63.6363 154.242 66.3636 151.515 69.6969 151.515C73.0302 151.515 75.7575 154.242 75.7575 157.576C75.7575 160.909 73.0302 163.636 69.6969 163.636Z" fill="#0D6DED"/>
<path d="M45.4545 154.545H33.3333V160.606H45.4545V154.545Z" fill="#0D6DED"/>
<path d="M106.061 154.545H93.9395V160.606H106.061V154.545Z" fill="#0D6DED"/>
</svg>
