<svg width="39" height="39" viewBox="0 0 39 39" fill="none" xmlns="http://www.w3.org/2000/svg">
<mask id="mask0_302_55" style="mask-type:alpha" maskUnits="userSpaceOnUse" x="0" y="0" width="39" height="39">
<circle cx="19.5" cy="19.5" r="19" fill="#D9D9D9" stroke="black"/>
</mask>
<g mask="url(#mask0_302_55)">
<path fill-rule="evenodd" clip-rule="evenodd" d="M-7 19C-7 7.95431 1.9543 -1 13 -1H26.3333C37.379 -1 46.3333 7.95431 46.3333 19C46.3333 30.0457 37.379 39 26.3333 39H13C1.95429 39 -7 30.0457 -7 19Z" fill="#FFD700"/>
<path fill-rule="evenodd" clip-rule="evenodd" d="M-7 9C-7 3.47715 -2.52285 -1 3 -1H36.3333C41.8562 -1 46.3333 3.47715 46.3333 9C46.3333 14.5228 41.8562 19 36.3333 19H2.99999C-2.52285 19 -7 14.5228 -7 9Z" fill="#117FFF"/>
</g>
</svg>
