<svg width="240" height="238" viewBox="0 0 240 238" fill="none" xmlns="http://www.w3.org/2000/svg">
<g id="screen name">
<path id="Vector" d="M118.448 196.729C161.131 197.729 196.547 163.758 197.552 120.855C198.556 77.9516 164.768 42.3615 122.085 41.3623C79.4015 40.3632 43.9857 74.3333 42.9813 117.237C41.977 160.14 75.7646 195.73 118.448 196.729Z" fill="url(#paint0_linear_127_714)"/>
<g id="Purpose">
<path id="Vector_54" d="M150.481 98.3809L142.771 96.8423L141.233 89.1325L149.382 81L150.921 88.7098L158.631 90.2484L150.481 98.3978L150.481 98.3809ZM144.209 95.4052L149.923 96.5549L155.198 91.2798L149.484 90.13L148.334 84.4153L143.059 89.6904L144.209 95.4052V95.4052Z" fill="white"/>
<path id="Vector_55" d="M143.502 94.9311L119.508 118.926L120.703 120.121L144.698 96.1266L143.502 94.9311Z" fill="white"/>
<path id="Vector_56" d="M120.707 144.42C113.893 144.42 107.486 141.766 102.667 136.947C92.7253 127.005 92.7253 110.825 102.667 100.883C111.577 91.9899 125.864 90.9416 135.941 98.4655L136.617 98.9727L135.603 100.325L134.926 99.8181C125.526 92.8014 112.169 93.7652 103.867 102.084C94.5851 111.366 94.5851 126.481 103.867 135.763C113.15 145.046 128.265 145.046 137.547 135.763C145.849 127.445 146.829 114.105 139.813 104.704L139.305 104.028L140.658 103.014L141.165 103.69C148.689 113.767 147.641 128.07 138.747 136.964C133.929 141.782 127.521 144.437 120.707 144.437L120.707 144.42Z" fill="white"/>
<path id="Vector_57" d="M120.707 138.739C115.415 138.739 110.444 136.676 106.691 132.94C102.937 129.203 100.892 124.216 100.892 118.924C100.892 113.631 102.954 108.661 106.691 104.907C113.454 98.1442 124.072 97.1636 131.934 102.591L132.627 103.064L131.663 104.451L130.97 103.977C123.784 99.0234 114.079 99.9195 107.891 106.108C100.824 113.175 100.824 124.672 107.891 131.739C114.959 138.807 126.456 138.807 133.523 131.739C139.711 125.551 140.607 115.846 135.636 108.661L135.163 107.967L136.55 107.004L137.023 107.697C142.45 115.559 141.47 126.177 134.707 132.94C130.97 136.676 125.982 138.739 120.69 138.739L120.707 138.739Z" fill="white"/>
<path id="Vector_58" d="M120.707 133.041C117.089 133.041 113.471 131.672 110.715 128.916C105.203 123.404 105.203 114.443 110.715 108.948C115.212 104.434 122.229 103.521 127.741 106.682L128.468 107.105L127.622 108.576L126.895 108.153C122.043 105.364 115.872 106.175 111.915 110.149C107.063 115.001 107.063 122.88 111.915 127.732C116.768 132.585 124.647 132.585 129.499 127.732C133.472 123.759 134.284 117.605 131.494 112.752L131.072 112.025L132.543 111.18L132.965 111.907C136.144 117.419 135.214 124.418 130.7 128.933C127.944 131.689 124.325 133.058 120.707 133.058L120.707 133.041Z" fill="white"/>
<path id="Vector_59" d="M120.707 127.36C118.543 127.36 116.396 126.532 114.739 124.892C113.149 123.303 112.27 121.189 112.27 118.924C112.27 116.658 113.149 114.561 114.739 112.955C116.971 110.723 120.234 109.929 123.26 110.876L124.072 111.129L123.564 112.735L122.753 112.482C120.335 111.721 117.731 112.347 115.939 114.139C114.671 115.407 113.961 117.098 113.961 118.907C113.961 120.716 114.654 122.406 115.939 123.675C118.56 126.295 122.837 126.295 125.475 123.675C127.267 121.882 127.893 119.279 127.132 116.861L126.878 116.049L128.485 115.542L128.738 116.354C129.702 119.363 128.907 122.626 126.659 124.875C125.019 126.515 122.854 127.343 120.69 127.343L120.707 127.36Z" fill="white"/>
</g>
</g>
<defs>
<linearGradient id="paint0_linear_127_714" x1="111.723" y1="41.1198" x2="61.6538" y2="168.757" gradientUnits="userSpaceOnUse">
<stop stop-color="#FFF507"/>
<stop offset="0.883333" stop-color="#117FFF"/>
</linearGradient>
</defs>
</svg>
