<svg width="239" height="237" viewBox="0 0 239 237" fill="none" xmlns="http://www.w3.org/2000/svg">
<g clip-path="url(#clip0_127_716)">
<path d="M127.231 27.3224C126.64 27.2204 126.392 26.8716 126.5 26.276L128.194 16.719C128.291 16.1609 128.614 15.9248 129.151 16.0214C129.689 16.118 129.915 16.4454 129.813 17.0034L128.21 26.0721L132.911 26.8985L134.514 17.8298C134.611 17.2717 134.928 17.0356 135.455 17.1268C135.993 17.2234 136.219 17.5508 136.117 18.1088L134.514 27.1775L139.215 28.0039L140.818 18.9352C140.915 18.3771 141.232 18.141 141.759 18.2323C142.297 18.3288 142.523 18.6562 142.421 19.2142L140.726 28.7712C140.624 29.3615 140.28 29.6083 139.694 29.5064L127.221 27.3063L127.231 27.3224Z" fill="white"/>
<path d="M151.398 33.5631C150.892 33.3807 150.731 33.0319 150.919 32.5168L152.92 27.0219L150.236 26.0506L149.913 26.9414C149.365 28.4439 148.773 29.5493 148.138 30.2576C147.504 30.966 146.729 31.3577 145.82 31.4382C145.573 31.4543 145.379 31.3952 145.228 31.2665C145.078 31.1377 144.992 30.9821 144.97 30.805C144.943 30.6225 144.986 30.4562 145.094 30.3006C145.201 30.1449 145.379 30.043 145.626 29.9947C146.288 29.882 146.826 29.5386 147.24 28.9805C147.654 28.4171 148.079 27.5531 148.504 26.3833L148.945 25.1706C149.155 24.5964 149.547 24.414 150.123 24.6233L154.039 26.0399C154.614 26.2492 154.797 26.6409 154.587 27.2151L152.457 33.0695C152.269 33.5846 151.919 33.7456 151.403 33.5631H151.398Z" fill="white"/>
<path d="M162.031 38.5751C161.585 38.3443 161.477 37.9955 161.714 37.5394L162.73 35.5808L161.827 35.114C161.493 34.9422 161.16 34.8778 160.826 34.9208C160.493 34.9637 160.186 35.0871 159.907 35.2803L158.454 36.2194C158.207 36.3696 157.981 36.4179 157.771 36.3589C157.567 36.2999 157.406 36.1818 157.293 36.0047C157.18 35.8276 157.137 35.6345 157.169 35.4252C157.201 35.2159 157.325 35.0442 157.54 34.8993L158.616 34.2232C158.831 34.089 159.068 33.9924 159.326 33.928C159.584 33.8637 159.837 33.8476 160.089 33.8798C159.546 33.4773 159.207 33.0212 159.073 32.5114C158.938 32.0016 159.019 31.465 159.31 30.9016C159.648 30.2523 160.132 29.8498 160.773 29.6942C161.413 29.5386 162.166 29.6781 163.037 30.1289L165.629 31.4704C166.124 31.728 166.248 32.1036 165.99 32.5973L163.058 38.2424C162.946 38.4624 162.795 38.5965 162.607 38.6556C162.418 38.7092 162.225 38.6878 162.026 38.5804L162.031 38.5751ZM161.552 33.7241L163.241 34.5988L164.516 32.1411L162.827 31.2665C162.3 30.9928 161.859 30.9016 161.499 30.9874C161.138 31.0733 160.859 31.3094 160.665 31.6904C160.461 32.0821 160.428 32.4524 160.563 32.7958C160.697 33.1392 161.025 33.4505 161.552 33.7241V33.7241Z" fill="white"/>
<path d="M167.517 41.8108C167.281 41.6445 167.173 41.4298 167.205 41.1669C167.238 40.904 167.437 40.7161 167.802 40.5981L171.497 39.5034L171.229 35.9511C171.191 35.5701 171.293 35.3232 171.53 35.1998C171.766 35.0764 172.003 35.0979 172.234 35.2535C172.401 35.3715 172.519 35.495 172.595 35.6291C172.665 35.7633 172.702 35.9296 172.708 36.1281L172.896 39.1117L175.773 38.237C175.962 38.1726 176.128 38.1458 176.274 38.1619C176.419 38.178 176.575 38.2424 176.747 38.3604C176.978 38.5161 177.08 38.7307 177.048 38.999C177.021 39.2673 176.817 39.4551 176.446 39.5624L173.025 40.5713L173.321 44.3919C173.348 44.7622 173.246 45.0144 173.009 45.1432C172.767 45.272 172.53 45.2559 172.293 45.0895C172.003 44.8856 171.842 44.5958 171.82 44.2148L171.594 40.9684L168.485 41.9182C168.303 41.9772 168.136 41.9986 167.985 41.9879C167.835 41.9772 167.679 41.9128 167.512 41.7947L167.517 41.8108Z" fill="white"/>
<path d="M177.247 49.0389C176.871 48.7009 176.876 48.3145 177.269 47.8852L181.577 43.1148C181.932 42.723 182.292 42.6962 182.658 43.0236C183.024 43.3562 183.035 43.7158 182.68 44.1075L179.313 47.8369L185.794 46.5544C185.961 46.5169 186.127 46.5008 186.305 46.5169C186.482 46.533 186.66 46.6188 186.843 46.7852C187.208 47.1179 187.198 47.4989 186.81 47.9281L182.502 52.6986C182.147 53.0903 181.792 53.1225 181.432 52.8006C181.055 52.4625 181.045 52.0976 181.4 51.7059L184.756 47.9872L178.275 49.2697C178.119 49.3019 177.946 49.3072 177.774 49.2965C177.597 49.2804 177.425 49.1945 177.247 49.0389V49.0389Z" fill="white"/>
<path d="M188.607 63.7366C188.327 63.3556 188.392 63.0176 188.79 62.7278L190.398 61.5687C190.818 61.2682 191.178 61.3273 191.49 61.7565L191.549 61.837C192.178 61.8048 192.808 61.6546 193.437 61.3809C194.066 61.1073 194.782 60.678 195.583 60.0984L196.696 59.2989C197.191 58.9394 197.622 59.0091 197.982 59.5028L200.316 62.7224C200.677 63.2161 200.607 63.6454 200.112 64.0049L195.524 67.3158L195.809 67.7075C196.11 68.1261 196.056 68.4856 195.637 68.7861L194.029 69.9452C193.625 70.235 193.292 70.192 193.017 69.8164C192.749 69.4408 192.813 69.1081 193.211 68.8237L194.4 67.9651L190.807 63.0068L189.618 63.8654C189.215 64.1552 188.881 64.1123 188.612 63.7366H188.607ZM192.426 63.0444L194.61 66.0601L198.912 62.9586L197.24 60.6511L196.142 61.4453C195.54 61.88 194.911 62.2395 194.26 62.5293C193.604 62.8137 192.996 62.9907 192.431 63.0551L192.426 63.0444Z" fill="white"/>
<path d="M199.036 76.0035C198.66 75.3059 198.482 74.619 198.498 73.9536C198.52 73.2829 198.719 72.6711 199.106 72.1023C199.493 71.5389 200.053 71.0559 200.795 70.6589C201.537 70.2618 202.247 70.0579 202.93 70.0525C203.613 70.0471 204.243 70.2188 204.813 70.5676C205.383 70.9218 205.856 71.4477 206.233 72.1453C206.599 72.8268 206.771 73.4975 206.755 74.1683C206.733 74.839 206.534 75.4561 206.152 76.0249C205.77 76.5937 205.211 77.0767 204.469 77.4738C203.726 77.8709 203.016 78.0694 202.328 78.0748C201.639 78.0748 201.01 77.9031 200.445 77.5489C199.875 77.1947 199.407 76.6796 199.042 75.9981L199.036 76.0035ZM200.144 75.4078C200.462 75.9927 200.929 76.3523 201.548 76.4811C202.167 76.6098 202.882 76.4596 203.689 76.0303C204.495 75.601 205.012 75.0912 205.238 74.5063C205.464 73.9214 205.421 73.3365 205.109 72.7516C204.786 72.156 204.318 71.7911 203.705 71.6569C203.092 71.5228 202.382 71.673 201.575 72.1023C200.768 72.5316 200.252 73.0414 200.015 73.6317C199.784 74.2166 199.827 74.8122 200.15 75.4078H200.144Z" fill="white"/>
<path d="M204.098 87.1005C203.807 86.3493 203.71 85.641 203.818 84.9756C203.92 84.3048 204.205 83.7145 204.662 83.1887C205.125 82.6681 205.743 82.255 206.523 81.9491C207.685 81.4983 208.734 81.4769 209.659 81.874C210.59 82.2764 211.273 83.033 211.703 84.1546C211.837 84.5033 211.929 84.8951 211.972 85.319C212.015 85.7429 211.983 86.1668 211.87 86.5908C211.832 86.7893 211.741 86.9288 211.595 87.0147C211.45 87.1005 211.294 87.1327 211.127 87.1059C210.961 87.0844 210.832 87.0093 210.729 86.8859C210.627 86.7625 210.595 86.5908 210.627 86.3707C210.702 86.0649 210.729 85.7697 210.708 85.4907C210.686 85.2117 210.633 84.9541 210.541 84.7287C210.267 84.0204 209.831 83.5589 209.234 83.3443C208.637 83.1296 207.927 83.1833 207.104 83.4999C206.281 83.8165 205.711 84.2619 205.394 84.8253C205.076 85.3887 205.055 86.0273 205.335 86.741C205.426 86.9717 205.55 87.1971 205.716 87.4118C205.883 87.6264 206.098 87.8303 206.367 88.0128C206.539 88.1523 206.625 88.3025 206.625 88.4581C206.625 88.6138 206.572 88.7479 206.464 88.866C206.351 88.984 206.217 89.0592 206.05 89.0967C205.883 89.1343 205.722 89.0913 205.56 88.9679C205.206 88.7372 204.904 88.4528 204.657 88.1147C204.409 87.7767 204.221 87.4332 204.081 87.0844L204.098 87.1005Z" fill="white"/>
<path d="M207.819 99.2654C207.696 98.7771 207.884 98.4712 208.384 98.3425L210.525 97.8005L210.272 96.8185C210.181 96.4536 210.003 96.1638 209.75 95.9438C209.498 95.7238 209.202 95.5736 208.868 95.4931L207.201 95.037C206.927 94.9511 206.738 94.8116 206.647 94.6184C206.555 94.4252 206.534 94.2267 206.598 94.0228C206.658 93.8189 206.776 93.6579 206.953 93.5452C207.131 93.4271 207.341 93.4057 207.594 93.4754L208.814 93.8296C209.057 93.8993 209.288 94.012 209.508 94.1623C209.729 94.3125 209.912 94.4896 210.052 94.6989C209.992 94.0281 210.105 93.4701 210.401 93.03C210.692 92.59 211.149 92.2949 211.762 92.1393C212.472 91.9622 213.096 92.0534 213.639 92.429C214.182 92.7993 214.575 93.4593 214.817 94.4038L215.538 97.2263C215.678 97.7683 215.473 98.1064 214.93 98.2459L208.75 99.8128C208.508 99.8718 208.309 99.8557 208.142 99.7484C207.975 99.6464 207.868 99.4854 207.814 99.2654H207.819ZM211.138 95.6862L211.606 97.5268L214.295 96.8453L213.827 95.0048C213.682 94.4306 213.456 94.0389 213.155 93.8296C212.854 93.6203 212.493 93.5666 212.074 93.674C211.649 93.7813 211.348 94.0013 211.176 94.334C211.004 94.6667 210.993 95.1174 211.138 95.6862Z" fill="white"/>
<path d="M209.073 106.059C209.003 105.517 209.25 105.206 209.815 105.136L215.973 104.326C216.581 104.245 216.925 104.508 217.006 105.114L217.555 109.262C217.614 109.729 217.431 109.992 217.006 110.046C216.57 110.105 216.318 109.896 216.258 109.429L215.801 105.984L210.025 106.74C209.46 106.816 209.143 106.585 209.073 106.054V106.059Z" fill="white"/>
<path d="M210.019 116.067C210.009 115.519 210.283 115.24 210.826 115.235L217.28 115.133C217.829 115.122 218.109 115.396 218.114 115.938C218.125 116.474 217.851 116.748 217.302 116.759L214.833 116.796L214.898 120.708L217.367 120.665C217.915 120.655 218.195 120.923 218.2 121.46C218.211 122.007 217.937 122.286 217.388 122.291L210.934 122.393C210.385 122.404 210.105 122.13 210.1 121.588C210.089 121.052 210.364 120.778 210.912 120.773L213.607 120.73L213.542 116.818L210.848 116.861C210.299 116.872 210.019 116.603 210.014 116.067H210.019Z" fill="white"/>
<path d="M209.325 131.333C209.476 130.056 209.96 129.09 210.767 128.441C211.574 127.792 212.606 127.539 213.854 127.69C214.656 127.786 215.344 128.033 215.92 128.43C216.495 128.827 216.92 129.337 217.194 129.949C217.469 130.566 217.56 131.247 217.469 131.993C217.34 133.072 216.893 133.877 216.135 134.413C215.371 134.95 214.387 135.148 213.182 135.004C212.816 134.961 212.66 134.725 212.714 134.301L213.316 129.219C211.681 129.144 210.767 129.906 210.573 131.505C210.536 131.827 210.536 132.165 210.573 132.524C210.611 132.884 210.719 133.243 210.891 133.598C210.993 133.839 211.014 134.038 210.955 134.199C210.896 134.36 210.794 134.467 210.638 134.526C210.482 134.585 210.32 134.58 210.154 134.51C209.982 134.44 209.847 134.295 209.74 134.081C209.535 133.689 209.406 133.243 209.336 132.744C209.272 132.245 209.266 131.779 209.315 131.339L209.325 131.333ZM216.323 131.918C216.404 131.247 216.258 130.689 215.887 130.244C215.516 129.798 214.989 129.493 214.306 129.326L213.79 133.689C214.521 133.743 215.107 133.619 215.549 133.313C215.99 133.007 216.248 132.541 216.323 131.913V131.918Z" fill="white"/>
<path d="M207.895 139.994C208.029 139.463 208.363 139.264 208.895 139.398L215.15 140.981C215.683 141.116 215.882 141.448 215.747 141.979C215.613 142.5 215.285 142.693 214.752 142.559L212.359 141.953L211.396 145.746L213.79 146.353C214.322 146.487 214.521 146.814 214.387 147.335C214.252 147.866 213.919 148.065 213.386 147.93L207.131 146.347C206.598 146.213 206.399 145.881 206.534 145.349C206.668 144.829 206.996 144.636 207.529 144.77L210.143 145.43L211.106 141.636L208.492 140.976C207.959 140.842 207.76 140.515 207.895 139.994Z" fill="white"/>
<path d="M204.377 151.912C204.582 151.402 204.937 151.252 205.448 151.456L211.434 153.865C211.945 154.069 212.096 154.429 211.891 154.933C211.687 155.432 211.332 155.577 210.826 155.373L208.535 154.45L207.066 158.078L209.358 159.001C209.869 159.205 210.019 159.559 209.82 160.052C209.616 160.562 209.256 160.712 208.75 160.509L202.764 158.099C202.253 157.895 202.102 157.536 202.306 157.031C202.511 156.532 202.866 156.387 203.371 156.591L205.872 157.6L207.341 153.973L204.84 152.964C204.329 152.76 204.178 152.406 204.377 151.912Z" fill="white"/>
<path d="M196.901 167.436C197.148 166.996 197.498 166.905 197.95 167.157L199.875 168.241L200.375 167.361C200.558 167.034 200.639 166.706 200.601 166.368C200.564 166.03 200.461 165.724 200.279 165.435L199.391 163.954C199.251 163.701 199.214 163.476 199.278 163.272C199.343 163.068 199.466 162.913 199.655 162.805C199.838 162.698 200.037 162.666 200.241 162.703C200.451 162.741 200.617 162.87 200.752 163.095L201.392 164.195C201.516 164.415 201.607 164.651 201.661 164.909C201.715 165.166 201.725 165.424 201.682 165.671C202.102 165.145 202.575 164.823 203.092 164.71C203.608 164.592 204.14 164.694 204.694 165.005C205.329 165.365 205.716 165.864 205.856 166.508C205.991 167.152 205.819 167.898 205.34 168.751L203.904 171.289C203.629 171.777 203.248 171.879 202.758 171.606L197.207 168.477C196.992 168.354 196.858 168.204 196.809 168.016C196.761 167.828 196.793 167.635 196.906 167.442L196.901 167.436ZM201.779 167.136L200.843 168.788L203.258 170.151L204.194 168.499C204.485 167.983 204.592 167.549 204.522 167.184C204.447 166.824 204.227 166.535 203.85 166.325C203.468 166.111 203.097 166.062 202.747 166.18C202.392 166.304 202.075 166.62 201.779 167.136Z" fill="white"/>
<path d="M111.59 212.608C112.187 212.683 112.451 213.021 112.37 213.617L111.139 223.243C111.069 223.807 110.757 224.054 110.213 223.984C109.67 223.914 109.433 223.598 109.503 223.034L110.671 213.901L105.932 213.3L104.765 222.433C104.695 222.997 104.388 223.243 103.856 223.179C103.313 223.109 103.076 222.793 103.146 222.229L104.313 213.096L99.5745 212.495L98.4073 221.628C98.3374 222.192 98.0308 222.438 97.4983 222.374C96.9551 222.304 96.7184 221.988 96.7883 221.424L98.02 211.792C98.0953 211.197 98.4288 210.934 99.0151 211.009L111.58 212.608H111.59Z" fill="white"/>
<path d="M87.1497 207.537C87.666 207.692 87.8381 208.036 87.6768 208.556L85.9448 214.137L88.6718 214.98L88.9515 214.073C89.4248 212.543 89.9627 211.411 90.5597 210.676C91.1567 209.941 91.9097 209.512 92.8187 209.383C93.0662 209.356 93.2652 209.404 93.4158 209.522C93.5717 209.64 93.6632 209.791 93.7008 209.973C93.7385 210.155 93.7008 210.322 93.604 210.483C93.5072 210.644 93.3297 210.751 93.0877 210.81C92.4369 210.955 91.9151 211.32 91.5225 211.905C91.1352 212.484 90.7533 213.375 90.3876 214.561L90.0057 215.79C89.8228 216.375 89.441 216.579 88.8547 216.396L84.8799 215.167C84.2936 214.985 84.0946 214.604 84.2721 214.019L86.117 208.068C86.2783 207.548 86.6226 207.365 87.1443 207.526L87.1497 207.537Z" fill="white"/>
<path d="M76.2849 203.04C76.7421 203.249 76.8658 203.587 76.6506 204.06L75.7309 206.067L76.656 206.49C77.0002 206.646 77.3337 206.694 77.6672 206.635C77.9953 206.576 78.2965 206.442 78.5708 206.233L79.9746 205.229C80.2167 205.068 80.4372 205.009 80.647 205.058C80.8567 205.106 81.0181 205.219 81.1418 205.39C81.2655 205.562 81.3139 205.755 81.2978 205.965C81.2816 206.174 81.1633 206.356 80.9535 206.507L79.9101 207.231C79.7057 207.37 79.4744 207.483 79.2162 207.558C78.9634 207.639 78.7107 207.666 78.4579 207.644C79.0172 208.02 79.3776 208.46 79.539 208.964C79.7003 209.469 79.6465 210.005 79.383 210.585C79.0764 211.25 78.6085 211.674 77.9792 211.862C77.3499 212.05 76.5861 211.942 75.6986 211.535L73.0416 210.322C72.5306 210.091 72.3961 209.721 72.6274 209.211L75.2845 203.432C75.3867 203.206 75.5319 203.062 75.7148 202.997C75.8976 202.933 76.0913 202.949 76.2956 203.04H76.2849ZM76.9949 207.864L75.2629 207.07L74.1065 209.587L75.8385 210.381C76.3763 210.628 76.8228 210.697 77.1777 210.596C77.5327 210.494 77.8017 210.247 77.9792 209.855C78.162 209.453 78.1782 209.082 78.0276 208.744C77.877 208.401 77.5327 208.111 76.9949 207.864V207.864Z" fill="white"/>
<path d="M70.6534 200.067C70.9008 200.223 71.0137 200.427 70.9922 200.695C70.9707 200.963 70.7825 201.157 70.4221 201.291L66.7808 202.557L67.2218 206.088C67.281 206.464 67.1895 206.721 66.9529 206.85C66.7162 206.984 66.4849 206.973 66.2429 206.829C66.0708 206.721 65.9417 206.603 65.8664 206.469C65.7911 206.335 65.7427 206.174 65.7265 205.975L65.3931 203.002L62.5585 204.011C62.3757 204.086 62.2089 204.119 62.0583 204.108C61.9131 204.097 61.7517 204.044 61.5796 203.931C61.343 203.786 61.23 203.577 61.2461 203.308C61.2623 203.04 61.4559 202.842 61.8217 202.718L65.1941 201.548L64.7154 197.744C64.667 197.373 64.7584 197.116 64.995 196.976C65.2317 196.837 65.4684 196.842 65.7158 196.998C66.017 197.186 66.1891 197.47 66.2321 197.846L66.614 201.076L69.6745 199.976C69.852 199.912 70.0187 199.879 70.1693 199.885C70.3199 199.885 70.4813 199.944 70.6534 200.051V200.067Z" fill="white"/>
<path d="M60.5954 193.322C60.988 193.639 60.9988 194.025 60.633 194.476L56.556 199.45C56.2225 199.858 55.8622 199.906 55.4803 199.59C55.0984 199.278 55.0715 198.919 55.405 198.511L58.5945 194.621L52.1832 196.209C52.0218 196.257 51.8497 196.279 51.6722 196.273C51.4947 196.273 51.3118 196.188 51.1182 196.032C50.7363 195.721 50.7256 195.34 51.0967 194.889L55.1737 189.915C55.5072 189.507 55.8622 189.459 56.2387 189.764C56.6313 190.086 56.6582 190.446 56.3247 190.854L53.146 194.728L59.5573 193.14C59.7133 193.102 59.88 193.086 60.0575 193.091C60.235 193.091 60.4125 193.172 60.5954 193.322V193.322Z" fill="white"/>
<path d="M48.5313 179.166C48.8271 179.537 48.7787 179.875 48.3968 180.181L46.8477 181.415C46.4443 181.737 46.0786 181.694 45.7505 181.281L45.6913 181.205C45.062 181.265 44.4435 181.447 43.8249 181.753C43.2118 182.059 42.5126 182.52 41.738 183.137L40.6677 183.99C40.189 184.371 39.7587 184.323 39.3768 183.846L36.8919 180.739C36.51 180.261 36.5584 179.832 37.0371 179.451L41.4637 175.925L41.1625 175.55C40.8398 175.147 40.8828 174.788 41.2862 174.466L42.8353 173.232C43.2225 172.926 43.5614 172.952 43.8465 173.312C44.1369 173.672 44.0885 174.004 43.7012 174.315L42.5556 175.228L46.3798 180.009L47.5254 179.097C47.9127 178.791 48.2516 178.818 48.5366 179.177L48.5313 179.166ZM44.7501 180.036L42.4265 177.127L38.2796 180.433L40.0599 182.66L41.1195 181.817C41.7004 181.356 42.3082 180.964 42.9482 180.647C43.5883 180.331 44.1907 180.127 44.7501 180.036Z" fill="white"/>
<path d="M37.5317 167.404C37.9405 168.085 38.1556 168.762 38.1664 169.427C38.1825 170.098 38.0104 170.72 37.6501 171.305C37.2897 171.89 36.7518 172.394 36.0365 172.829C35.3157 173.258 34.6165 173.494 33.9334 173.537C33.2503 173.58 32.6157 173.435 32.0294 173.108C31.4431 172.781 30.9483 172.282 30.5395 171.6C30.1415 170.94 29.9371 170.275 29.921 169.604C29.9048 168.933 30.0769 168.305 30.4319 167.721C30.7869 167.13 31.3248 166.621 32.0455 166.191C32.7663 165.762 33.4655 165.526 34.1539 165.488C34.8424 165.451 35.4771 165.596 36.0634 165.923C36.6496 166.25 37.1391 166.744 37.5371 167.404H37.5317ZM36.4506 168.053C36.1064 167.484 35.6223 167.146 34.9984 167.044C34.3745 166.942 33.6699 167.13 32.8846 167.597C32.0993 168.069 31.6099 168.601 31.4108 169.196C31.2118 169.792 31.2818 170.377 31.626 170.946C31.9756 171.525 32.4597 171.869 33.0836 171.97C33.7075 172.072 34.4067 171.89 35.192 171.423C35.9773 170.951 36.4721 170.42 36.6765 169.819C36.8809 169.223 36.811 168.633 36.4614 168.053H36.4506Z" fill="white"/>
<path d="M31.9434 156.57C32.2715 157.305 32.4006 158.008 32.3253 158.679C32.2554 159.349 32.0026 159.961 31.5669 160.503C31.1313 161.05 30.5342 161.491 29.7651 161.829C28.6248 162.333 27.5814 162.408 26.6347 162.054C25.6881 161.7 24.9727 160.97 24.4833 159.875C24.3327 159.532 24.2197 159.151 24.1552 158.727C24.0906 158.303 24.1014 157.879 24.1982 157.45C24.2251 157.251 24.3112 157.101 24.451 157.01C24.5909 156.919 24.7468 156.881 24.9136 156.892C25.0803 156.903 25.2148 156.972 25.3223 157.09C25.4299 157.208 25.4729 157.375 25.4514 157.595C25.3869 157.906 25.3761 158.196 25.4084 158.475C25.4461 158.754 25.5106 159.006 25.6128 159.231C25.9248 159.929 26.3819 160.369 26.9843 160.551C27.5868 160.734 28.2967 160.648 29.1035 160.294C29.9103 159.934 30.4589 159.467 30.744 158.888C31.0345 158.308 31.0237 157.67 30.7117 156.972C30.6095 156.747 30.4751 156.527 30.2976 156.318C30.1201 156.108 29.8942 155.915 29.6199 155.749C29.4424 155.615 29.3509 155.47 29.3402 155.32C29.3294 155.164 29.3778 155.03 29.48 154.906C29.5822 154.783 29.7167 154.702 29.8834 154.659C30.0448 154.617 30.2115 154.654 30.3783 154.767C30.744 154.981 31.056 155.25 31.3195 155.572C31.5831 155.894 31.7875 156.232 31.9434 156.575V156.57Z" fill="white"/>
<path d="M27.6405 144.598C27.7857 145.081 27.6136 145.398 27.1241 145.548L25.0103 146.192L25.3062 147.163C25.4191 147.523 25.602 147.807 25.8709 148.011C26.1345 148.215 26.4357 148.354 26.7745 148.419L28.458 148.794C28.7377 148.864 28.9314 148.993 29.0336 149.181C29.1358 149.369 29.1626 149.567 29.1142 149.771C29.0658 149.975 28.9583 150.141 28.7861 150.265C28.614 150.388 28.4043 150.42 28.1515 150.367L26.9144 150.071C26.6723 150.012 26.4357 149.911 26.2098 149.776C25.9839 149.637 25.7902 149.47 25.6396 149.267C25.7311 149.932 25.6396 150.495 25.3707 150.946C25.1018 151.397 24.6607 151.719 24.0529 151.901C23.3537 152.116 22.7244 152.052 22.1597 151.703C21.6003 151.359 21.1754 150.721 20.8903 149.787L20.0351 147.002C19.8737 146.465 20.0566 146.122 20.5945 145.956L26.6885 144.094C26.9251 144.024 27.1295 144.035 27.2963 144.126C27.4684 144.222 27.5813 144.373 27.6513 144.593L27.6405 144.598ZM24.4994 148.333L23.94 146.514L21.2883 147.324L21.8477 149.143C22.0198 149.707 22.2619 150.088 22.5792 150.286C22.8912 150.485 23.2569 150.517 23.6657 150.393C24.0852 150.265 24.3757 150.029 24.5316 149.691C24.6876 149.352 24.6769 148.902 24.5048 148.333H24.4994Z" fill="white"/>
<path d="M26.0593 137.88C26.1561 138.416 25.9248 138.738 25.3654 138.84L19.2499 139.94C18.6475 140.048 18.2925 139.801 18.1796 139.2L17.4319 135.079C17.3459 134.612 17.518 134.343 17.9429 134.268C18.3786 134.188 18.6368 134.381 18.7228 134.848L19.3414 138.271L25.075 137.236C25.6344 137.134 25.9625 137.348 26.0593 137.874V137.88Z" fill="white"/>
<path d="M24.6177 127.947C24.65 128.494 24.3918 128.784 23.8432 128.816L17.3996 129.187C16.851 129.219 16.5606 128.961 16.5283 128.414C16.496 127.877 16.7542 127.593 17.3028 127.561L19.7662 127.421L19.5403 123.515L17.0769 123.654C16.5283 123.686 16.2378 123.434 16.2109 122.898C16.1787 122.35 16.4368 122.061 16.9855 122.028L23.4291 121.658C23.9777 121.626 24.2681 121.883 24.3004 122.431C24.3327 122.967 24.0745 123.252 23.5259 123.284L20.8366 123.44L21.0625 127.346L23.7518 127.191C24.3004 127.158 24.5909 127.411 24.6177 127.947V127.947Z" fill="white"/>
<path d="M24.6071 112.638C24.5157 113.92 24.08 114.908 23.3055 115.594C22.5309 116.281 21.5144 116.582 20.2558 116.491C19.449 116.432 18.7498 116.222 18.1581 115.852C17.5665 115.482 17.1147 114.993 16.8135 114.392C16.5123 113.791 16.3885 113.115 16.437 112.364C16.5123 111.285 16.921 110.459 17.6579 109.885C18.3948 109.311 19.3683 109.069 20.5785 109.155C20.9442 109.182 21.111 109.407 21.0787 109.837L20.7183 114.945C22.3588 114.945 23.2355 114.14 23.3485 112.53C23.37 112.208 23.3539 111.87 23.3001 111.511C23.2463 111.151 23.1226 110.797 22.929 110.454C22.816 110.218 22.7837 110.019 22.8322 109.858C22.8806 109.697 22.9828 109.579 23.1334 109.515C23.284 109.45 23.4453 109.45 23.6174 109.509C23.7895 109.568 23.9348 109.708 24.0477 109.917C24.2682 110.298 24.4242 110.738 24.5103 111.232C24.5963 111.725 24.6286 112.192 24.5963 112.632L24.6071 112.638ZM17.588 112.385C17.5396 113.062 17.7117 113.609 18.1043 114.033C18.497 114.457 19.0348 114.741 19.7287 114.875L20.0406 110.491C19.3091 110.47 18.7283 110.625 18.3033 110.947C17.8784 111.269 17.6418 111.752 17.5934 112.38L17.588 112.385Z" fill="white"/>
<path d="M25.6182 103.912C25.5106 104.449 25.1879 104.664 24.65 104.551L18.3248 103.269C17.7869 103.161 17.5718 102.839 17.6847 102.303C17.7923 101.777 18.115 101.567 18.6529 101.675L21.0732 102.168L21.8532 98.3371L19.4328 97.8434C18.8949 97.7361 18.6798 97.4195 18.7873 96.8936C18.8949 96.357 19.2176 96.1424 19.7555 96.255L26.0808 97.5375C26.6186 97.6449 26.8338 97.9668 26.7208 98.5034C26.6132 99.0293 26.2905 99.2386 25.7527 99.1313L23.1118 98.5947L22.3318 102.426L24.9728 102.963C25.5106 103.07 25.7258 103.387 25.6182 103.918V103.912Z" fill="white"/>
<path d="M28.555 91.8442C28.3721 92.3593 28.0225 92.531 27.5061 92.3486L21.4121 90.229C20.8958 90.0465 20.7237 89.6977 20.9065 89.1826C21.084 88.6782 21.4336 88.5118 21.95 88.6943L24.2789 89.5045L25.5698 85.8127L23.2409 85.0024C22.7245 84.82 22.5524 84.4765 22.7299 83.9721C22.9128 83.457 23.2624 83.2853 23.7787 83.4677L29.8727 85.5873C30.3891 85.7698 30.5612 86.1186 30.3783 86.6337C30.2008 87.1381 29.8512 87.3045 29.3349 87.122L26.7908 86.2366L25.4999 89.9285L28.044 90.8139C28.5603 90.9963 28.7324 91.3397 28.555 91.8442Z" fill="white"/>
<path d="M35.2782 75.9766C35.0523 76.4274 34.7081 76.5347 34.2455 76.304L32.2715 75.3112L31.8144 76.2181C31.6422 76.5562 31.5831 76.8889 31.6369 77.2162C31.6853 77.5489 31.809 77.8548 32.008 78.1338L32.9654 79.5665C33.1214 79.8134 33.1698 80.0388 33.1106 80.2427C33.0568 80.4466 32.9385 80.6076 32.761 80.7256C32.5835 80.8437 32.3899 80.8866 32.1801 80.8598C31.9703 80.8329 31.7928 80.7095 31.653 80.4949L30.9645 79.427C30.8301 79.2178 30.7279 78.9816 30.6579 78.7241C30.588 78.4665 30.5665 78.2143 30.5988 77.9621C30.2008 78.5094 29.749 78.8529 29.238 78.9924C28.727 79.1319 28.1892 79.0621 27.6244 78.7724C26.9736 78.445 26.5594 77.9621 26.3927 77.3235C26.226 76.685 26.3658 75.9337 26.8015 75.059L28.1139 72.4565C28.3667 71.9574 28.7432 71.834 29.238 72.0862L34.9286 74.9464C35.1491 75.059 35.289 75.2039 35.3481 75.3917C35.4073 75.5742 35.3804 75.7727 35.2836 75.9713L35.2782 75.9766ZM30.4213 76.5079L31.2765 74.8122L28.7969 73.5673L27.9417 75.263C27.6728 75.7888 27.5867 76.2342 27.6782 76.5884C27.7696 76.9479 28.0063 77.2216 28.3882 77.4147C28.7808 77.6133 29.1519 77.6401 29.5015 77.506C29.8512 77.3665 30.1524 77.0338 30.4213 76.5079V76.5079Z" fill="white"/>
<g clip-path="url(#clip1_127_716)">
<path d="M69.366 42.8518L62.1257 30.4963L70.2575 25.7275C73.0465 24.0919 75.8916 23.6878 78.9569 24.4868C80.2829 24.8325 81.6635 25.4059 83.1901 26.2379L83.3712 26.335L83.3674 26.5404C83.3328 30.3314 82.6322 35.0662 77.4995 38.0763L69.361 42.8434L69.366 42.8518ZM63.0653 30.7412L69.6126 41.9056L77.1563 37.4816C81.8943 34.7031 82.618 30.3159 82.6823 26.7389C81.2768 25.9883 80.0043 25.4644 78.7849 25.1465C75.9063 24.3961 73.23 24.7802 70.609 26.3172L63.0653 30.7412Z" fill="white"/>
<path d="M77.582 24.0644L76.988 24.4128L81.9347 32.8477L82.5287 32.4994L77.582 24.0644Z" fill="white"/>
<path d="M72.3787 35.553C71.5058 35.3255 70.7748 34.772 70.3233 33.9924C69.8718 33.2129 69.7456 32.3047 69.9714 31.4385C70.1972 30.5722 70.7524 29.8345 71.5253 29.3813C72.2981 28.928 73.213 28.8036 74.0793 29.0294C74.9455 29.2552 75.6832 29.8105 76.1365 30.5833C76.5946 31.3646 76.7208 32.2728 76.495 33.139C76.2692 34.0053 75.7139 34.743 74.9344 35.1945C74.1532 35.6526 73.245 35.7788 72.3787 35.553ZM73.9073 29.6891C73.2143 29.5084 72.4901 29.6114 71.8701 29.9693C71.2485 30.3339 70.8117 30.9174 70.6311 31.6104C70.4504 32.3034 70.5534 33.0277 70.9113 33.6476C71.6355 34.8825 73.348 35.3289 74.5829 34.6047C75.2045 34.2401 75.6413 33.6566 75.822 32.9636C76.0026 32.2706 75.8997 31.5463 75.5418 30.9264C75.1772 30.3048 74.5936 29.868 73.9006 29.6874L73.9073 29.6891Z" fill="white"/>
<path d="M74.4105 31.9907L74.2381 31.6967C73.9129 31.1423 73.1933 30.9547 72.6388 31.2798L72.3448 31.4523L71.995 30.8558L72.2891 30.6834C73.1711 30.1661 74.3106 30.4631 74.8345 31.3469L75.007 31.641L74.4105 31.9907Z" fill="white"/>
<path d="M65.6056 42.4266L60.6594 33.9924L63.8685 32.1105L68.8147 40.5447L65.6056 42.4266V42.4266ZM61.599 34.2374L65.8456 41.4787L67.8618 40.2963L63.6235 33.0501L61.6074 34.2324L61.599 34.2374Z" fill="white"/>
<path d="M64.7441 35.1087L62.8433 36.2235L63.1916 36.8175L65.0925 35.7028L64.7441 35.1087Z" fill="white"/>
<path d="M66.2751 37.721L64.3743 38.8358L64.7226 39.4298L66.6235 38.315L66.2751 37.721Z" fill="white"/>
<path d="M62.5362 31.0516L59.8545 28.3173L62.5175 26.7556C63.2231 26.3417 64.0789 26.2802 64.849 26.6019L67.9276 27.8955L62.526 31.0632L62.5362 31.0516ZM60.962 28.4636L62.6484 30.1842L66.3951 27.987L64.5855 27.2306C64.0216 26.9911 63.3898 27.0399 62.8623 27.3436L60.9554 28.4619L60.962 28.4636Z" fill="white"/>
<path d="M70.1656 45.8997L69.0884 42.2244L74.49 39.0567L74.116 42.375C74.0243 43.1908 73.5493 43.921 72.8437 44.3348L70.1807 45.8965L70.1656 45.8997ZM69.902 42.5432L70.5803 44.8549L72.4872 43.7366C73.008 43.4312 73.3625 42.8902 73.427 42.2879L73.6504 40.3393L69.9037 42.5365L69.902 42.5432Z" fill="white"/>
<path d="M60.3468 42.3438C59.6805 42.1701 58.9472 41.8438 58.0496 41.4105L57.8418 41.3066L57.8525 41.0745C58.0117 38.362 58.2829 37.1304 60.4083 35.884L60.7023 35.7115L61.0521 36.308L60.758 36.4804C59.0275 37.4953 58.7154 38.3105 58.5559 40.8878C60.883 42.0068 61.7469 42.1324 63.4775 41.1175L63.7715 40.9451L64.1213 41.5415L63.8272 41.714C62.4831 42.5022 61.5063 42.6461 60.3468 42.3438Z" fill="white"/>
<path d="M62.2493 38.3325L59.6951 39.8304L60.0434 40.4244L62.5977 38.9265L62.2493 38.3325Z" fill="white"/>
</g>
<g clip-path="url(#clip2_127_716)">
<path d="M169.128 198.217L176.364 210.575L168.23 215.341C165.44 216.976 162.595 217.379 159.53 216.579C158.204 216.233 156.824 215.659 155.298 214.826L155.117 214.729L155.12 214.524C155.156 210.733 155.859 205.998 160.992 202.99L169.133 198.226L169.128 198.217ZM175.424 210.33L168.881 199.163L161.335 203.585C156.596 206.362 155.871 210.748 155.806 214.325C157.211 215.077 158.483 215.601 159.702 215.919C162.581 216.671 165.257 216.287 167.879 214.751L175.424 210.33Z" fill="white"/>
<path d="M160.905 217.002L161.499 216.654L156.555 208.217L155.961 208.565L160.905 217.002Z" fill="white"/>
<path d="M166.112 205.515C166.985 205.743 167.716 206.297 168.167 207.076C168.618 207.856 168.744 208.764 168.518 209.63C168.292 210.496 167.736 211.234 166.963 211.687C166.19 212.14 165.275 212.264 164.409 212.038C163.543 211.812 162.806 211.256 162.353 210.483C161.895 209.702 161.769 208.794 161.995 207.927C162.221 207.061 162.777 206.324 163.556 205.873C164.338 205.415 165.246 205.289 166.112 205.515ZM164.582 211.378C165.274 211.559 165.999 211.456 166.619 211.099C167.241 210.734 167.678 210.151 167.858 209.458C168.039 208.765 167.937 208.041 167.579 207.421C166.855 206.186 165.143 205.739 163.908 206.462C163.286 206.827 162.849 207.41 162.668 208.103C162.487 208.796 162.59 209.52 162.947 210.14C163.312 210.762 163.895 211.199 164.588 211.38L164.582 211.378Z" fill="white"/>
<path d="M164.079 209.076L164.252 209.371C164.577 209.925 165.296 210.113 165.851 209.788L166.145 209.616L166.494 210.212L166.2 210.385C165.318 210.902 164.179 210.604 163.655 209.72L163.483 209.426L164.079 209.076Z" fill="white"/>
<path d="M172.888 198.644L177.831 207.08L174.622 208.96L169.678 200.524L172.888 198.644V198.644ZM176.892 206.834L172.648 199.592L170.631 200.773L174.867 208.021L176.883 206.839L176.892 206.834Z" fill="white"/>
<path d="M173.747 205.962L175.648 204.848L175.3 204.254L173.399 205.368L173.747 205.962Z" fill="white"/>
<path d="M172.217 203.349L174.118 202.235L173.77 201.641L171.869 202.755L172.217 203.349Z" fill="white"/>
<path d="M175.953 210.02L178.634 212.755L175.971 214.316C175.265 214.729 174.409 214.791 173.639 214.469L170.561 213.174L175.963 210.008L175.953 210.02ZM177.527 212.608L175.841 210.887L172.093 213.083L173.903 213.84C174.466 214.08 175.098 214.031 175.626 213.728L177.533 212.61L177.527 212.608Z" fill="white"/>
<path d="M168.329 195.169L169.405 198.845L164.002 202.011L164.378 198.692C164.469 197.877 164.945 197.147 165.651 196.733L168.314 195.172L168.329 195.169ZM168.592 198.526L167.914 196.214L166.007 197.331C165.486 197.637 165.131 198.177 165.066 198.78L164.842 200.728L168.59 198.532L168.592 198.526Z" fill="white"/>
<path d="M178.147 198.728C178.813 198.902 179.546 199.229 180.444 199.662L180.651 199.766L180.64 199.999C180.48 202.711 180.209 203.942 178.083 205.188L177.789 205.36L177.439 204.764L177.733 204.592C179.464 203.577 179.777 202.762 179.937 200.185C177.61 199.065 176.746 198.939 175.016 199.954L174.721 200.126L174.372 199.529L174.666 199.357C176.01 198.569 176.987 198.426 178.147 198.728Z" fill="white"/>
<path d="M176.243 202.739L178.797 201.242L178.449 200.648L175.894 202.145L176.243 202.739Z" fill="white"/>
</g>
</g>
<defs>
<clipPath id="clip0_127_716">
<rect width="208.693" height="206.179" fill="white" transform="translate(32.1777 0.6362) rotate(8.91758)"/>
</clipPath>
<clipPath id="clip1_127_716">
<rect width="23" height="23" fill="white" transform="translate(62.0205 20.0078) rotate(14.6107)"/>
</clipPath>
<clipPath id="clip2_127_716">
<rect width="23" height="23" fill="white" transform="translate(176.465 221.064) rotate(-165.369)"/>
</clipPath>
</defs>
</svg>
