<svg width="436" height="436" viewBox="0 0 436 436" fill="none" xmlns="http://www.w3.org/2000/svg">
<g id="Group 21">
<g id="Frame 3" clip-path="url(#clip0_127_696)">
<g id="logo" opacity="0.3">
<g id="Group 1">
<mask id="mask0_127_696" style="mask-type:alpha" maskUnits="userSpaceOnUse" x="118" y="131" width="260" height="189">
<path id="Vector" d="M198.083 318.79C248.226 325.702 370.145 208.539 377.059 158.384C383.973 108.23 273.264 144.076 223.121 137.163C172.977 130.251 126.723 165.306 119.809 215.461C112.895 265.615 147.94 311.878 198.083 318.79Z" fill="url(#paint0_linear_127_696)"/>
</mask>
<g mask="url(#mask0_127_696)">
<g id="Group 3">
<path id="Vector_2" d="M337.906 142.179C336.885 141.376 335.613 141.504 334.56 142.156C323.228 149.113 310.739 154.06 297.762 156.862C285.755 159.45 273.467 160.338 261.204 160.645C249.121 160.944 237.022 160.702 224.953 161.227C212.759 161.757 200.633 163.184 188.838 166.43C177.228 169.634 165.907 174.64 156.153 181.77C148.055 187.692 141.04 195.11 135.434 203.43C130.264 211.114 126.185 219.498 123.121 228.235C120.408 235.966 118.432 243.967 117.105 252.046C116.113 258.105 115.471 264.224 115.22 270.352C115.084 273.611 114.954 276.916 115.165 280.178C115.116 280.53 115.157 280.884 115.292 281.206C115.289 281.228 115.309 281.242 115.317 281.265C115.36 281.361 115.402 281.468 115.455 281.565C115.685 282.012 116.049 282.377 116.495 282.64C116.536 282.668 116.576 282.696 116.619 282.713C116.693 282.746 116.756 282.777 116.83 282.81C116.955 282.872 117.083 282.923 117.213 282.952L117.235 282.955C117.331 282.991 117.44 283.017 117.538 283.031C117.593 283.038 117.639 283.033 117.694 283.041C117.749 283.049 117.793 283.055 117.849 283.051C117.972 283.057 118.107 283.053 118.22 283.046C118.231 283.048 118.253 283.051 118.264 283.052C118.297 283.057 118.334 283.028 118.369 283.022C118.496 282.994 118.621 282.978 118.739 282.938C118.833 282.906 118.928 282.863 119.024 282.82C119.06 282.803 119.107 282.787 119.144 282.758C119.844 282.395 120.314 281.752 120.519 280.995C120.554 280.898 120.59 280.802 120.615 280.705C120.548 280.943 120.518 281.084 120.479 281.202C120.502 281.116 120.525 281.029 120.561 280.933C120.7 280.492 120.85 280.052 121.001 279.613C121.585 277.976 122.254 276.373 122.976 274.789C123.486 273.692 124.018 272.598 124.581 271.519C124.914 270.892 125.247 270.264 125.589 269.649C125.767 269.337 125.931 269.034 126.107 268.732C126.212 268.545 126.631 267.862 126.62 267.86C128.415 264.998 130.258 262.188 132.332 259.499C133.573 257.885 134.878 256.303 136.232 254.772C136.962 253.941 137.714 253.124 138.474 252.32C138.841 251.932 139.219 251.547 139.586 251.16C139.781 250.962 139.964 250.774 140.159 250.576C140.252 250.477 140.355 250.379 140.445 250.29C140.47 250.271 140.548 250.192 140.614 250.123C140.717 250.025 141.014 249.74 141.066 249.691C141.272 249.495 141.467 249.297 141.672 249.112C142.111 248.69 142.56 248.28 142.997 247.869C143.919 247.031 144.851 246.205 145.803 245.394C147.782 243.713 149.83 242.099 151.934 240.57C156.703 237.097 161.278 234.304 166.246 231.744C172.214 228.672 178.428 226.094 184.783 223.961C192.088 221.511 199.497 219.692 207.111 218.329C215.68 216.793 224.252 215.472 232.737 213.487C247.064 210.153 261.176 205.7 274.628 199.696C285.047 195.06 295.089 189.496 304.392 182.875C311.397 177.892 317.95 172.284 323.872 166.051C327.738 161.982 331.32 157.615 334.419 152.924C335.933 150.64 337.496 148.24 338.583 145.719C338.63 145.624 338.678 145.518 338.713 145.422C339.192 144.31 338.843 142.937 337.893 142.189L337.906 142.179Z" fill="#117FFF"/>
<path id="Vector_3" d="M320.739 205.005C309.679 209.008 298.011 210.976 286.247 210.946C275.449 210.927 264.706 209.288 254.107 207.334C233.029 203.453 211.813 198.454 190.282 201.686C180.78 203.112 171.413 205.913 163.018 210.642C155.999 214.596 149.746 219.598 144.26 225.479C135.042 235.352 128.273 247.447 123.536 260.035C121.797 264.661 120.336 269.393 119.123 274.192C118.551 276.468 117.962 278.786 117.64 281.118C117.569 281.389 117.542 281.665 117.572 281.939C117.593 282.681 117.896 283.261 118.354 283.683C118.373 283.708 118.405 283.724 118.435 283.75C118.476 283.779 118.516 283.818 118.555 283.857C118.766 284.043 118.99 284.208 119.246 284.311C120.148 284.693 121.066 284.562 121.797 284.068C122.224 283.824 122.579 283.447 122.808 282.929C122.811 282.907 122.836 282.888 122.838 282.877C122.898 282.762 122.959 282.647 123.02 282.533C123.079 282.429 123.14 282.314 123.199 282.21C123.215 282.178 123.229 282.158 123.256 282.128C124.021 280.899 124.838 279.7 125.706 278.541C127.041 276.764 128.466 275.065 129.972 273.434C130.422 272.947 130.882 272.461 131.352 271.987C131.6 271.741 131.847 271.495 132.083 271.247L132.135 271.199L132.082 271.258C132.212 271.131 132.342 271.003 132.47 270.886C133.598 269.797 134.766 268.747 135.962 267.735C138.671 265.451 141.535 263.346 144.518 261.436C145.343 260.911 146.178 260.398 147.023 259.898C147.242 259.771 147.451 259.643 147.671 259.516C147.72 259.489 147.768 259.462 147.817 259.435C148.304 259.166 148.779 258.895 149.264 258.637C151.171 257.611 153.101 256.655 155.078 255.761C164.748 251.41 174.297 248.993 184.826 247.709C191.147 246.943 197.527 246.645 203.888 246.805C211.293 246.985 218.658 247.283 226.061 247.07C238.203 246.714 250.332 245.393 262.195 242.745C271.529 240.669 280.72 237.832 289.468 233.971C296.027 231.074 302.371 227.61 308.262 223.522C312.264 220.744 316.016 217.662 319.476 214.249C320.997 212.754 322.54 211.184 323.79 209.451C323.845 209.38 323.9 209.309 323.956 209.227C325.536 206.978 323.376 204.057 320.75 205.007L320.739 205.005Z" fill="#268AFF"/>
<path id="Vector_4" d="M232.764 214.49C240.954 212.565 249.06 210.264 257.032 207.535C255.188 207.224 253.344 206.901 251.515 206.558C230.316 202.644 208.98 197.595 187.316 200.91C177.754 202.372 168.328 205.231 159.875 210.048C152.808 214.076 146.511 219.168 140.983 225.151C131.697 235.197 124.869 247.497 120.087 260.294C118.33 264.997 116.853 269.807 115.627 274.686C115.048 276.999 114.452 279.356 114.125 281.726C114.053 282.001 114.026 282.282 114.055 282.56C114.053 282.742 114.087 282.906 114.11 283.069C114.107 283.091 114.126 283.116 114.134 283.14C114.163 283.258 114.204 283.366 114.247 283.464C114.273 283.524 114.297 283.596 114.334 283.658C114.334 283.658 114.342 283.682 114.351 283.694C114.45 283.879 114.584 284.057 114.721 284.213C114.76 284.252 114.789 284.29 114.829 284.33C114.999 284.49 115.182 284.641 115.379 284.77C115.42 284.799 115.461 284.827 115.504 284.845C115.579 284.878 115.642 284.909 115.717 284.942C115.834 284.993 115.942 285.03 116.05 285.068C116.116 285.077 116.18 285.109 116.235 285.116C116.302 285.126 116.354 285.156 116.421 285.165C116.598 285.189 116.779 285.191 116.962 285.171C117.007 285.177 117.053 285.172 117.099 285.167C117.525 285.112 117.942 284.953 118.302 284.718C118.462 284.626 118.591 284.507 118.722 284.377C119.065 284.025 119.329 283.583 119.454 283.087C119.49 282.99 119.526 282.892 119.551 282.793C119.484 283.035 119.453 283.178 119.414 283.298C119.437 283.21 119.461 283.123 119.497 283.025C119.637 282.577 119.789 282.131 119.941 281.685C120.532 280.023 121.209 278.395 121.939 276.787C122.454 275.673 122.992 274.562 123.561 273.467C123.898 272.83 124.234 272.192 124.58 271.568C124.76 271.251 124.926 270.943 125.104 270.637C125.21 270.447 125.633 269.753 125.622 269.751C127.436 266.845 129.299 263.991 131.393 261.26C132.648 259.622 133.966 258.014 135.334 256.46C136.072 255.616 136.83 254.786 137.599 253.969C137.969 253.575 138.351 253.184 138.722 252.79C138.919 252.59 139.104 252.399 139.301 252.198C139.394 252.097 139.498 251.997 139.59 251.907C139.615 251.888 139.694 251.808 139.76 251.737C139.864 251.638 140.164 251.348 140.216 251.299C140.425 251.099 140.622 250.899 140.829 250.711C141.272 250.282 141.725 249.866 142.167 249.448C143.098 248.597 144.039 247.758 145.001 246.933C147 245.226 149.068 243.586 151.193 242.032C156.009 238.503 160.628 235.665 165.644 233.063C171.67 229.94 177.944 227.318 184.359 225.148C191.734 222.656 199.213 220.804 206.899 219.413C215.548 217.848 224.201 216.5 232.766 214.479L232.764 214.49Z" fill="#10A9FF"/>
<path id="Vector_5" d="M289.853 258.899C280.999 259.807 272.168 259.23 263.472 257.253C255.918 255.537 248.344 252.64 241.041 249.436C226.348 242.995 212.098 235.254 196.225 232.059C181.077 229.01 165.224 230.405 151.545 237.854C140.821 243.697 131.845 252.298 124.678 262.132C122.069 265.707 119.711 269.454 117.565 273.323C116.527 275.204 115.461 277.128 114.638 279.119L114.633 279.153C114.485 279.396 114.403 279.659 114.355 279.927C114.346 279.994 114.335 280.073 114.325 280.14C114.318 280.196 114.308 280.264 114.301 280.32C114.265 280.83 114.373 281.291 114.602 281.7C114.779 282.079 115.04 282.424 115.359 282.685C116.009 283.198 116.788 283.351 117.517 283.211C118.223 283.148 118.888 282.805 119.359 282.127C119.412 282.077 119.455 282.014 119.508 281.964C119.587 281.884 119.654 281.813 119.734 281.732C120.575 280.944 121.435 280.182 122.335 279.46C123.751 278.316 125.235 277.263 126.756 276.271C127.208 275.979 127.659 275.698 128.108 275.428C128.357 275.279 128.606 275.131 128.855 274.982C128.943 274.925 129.042 274.87 129.141 274.815L129.229 274.759C130.307 274.164 131.394 273.582 132.508 273.049C135.119 271.784 137.82 270.693 140.577 269.78C143.873 268.69 146.29 268.085 150.029 267.434C158.596 265.949 166.544 265.97 175.095 267.091C186.22 268.545 196.753 272.376 207.689 274.707C217.225 276.731 226.943 278.014 236.695 278.225C250.223 278.512 263.909 276.898 276.617 272.095C280.357 270.689 283.957 268.977 287.392 266.957C288.874 266.086 290.396 265.163 291.728 264.054C291.78 264.004 291.844 263.956 291.895 263.917C293.986 262.112 292.704 258.629 289.839 258.92L289.853 258.899Z" fill="#ADFF00"/>
<path id="Vector_6" d="M235.009 246.717C222.41 240.942 209.929 234.806 196.227 232.048C181.078 228.999 165.225 230.394 151.546 237.843C140.823 243.686 131.847 252.286 124.68 262.12C122.071 265.696 119.712 269.443 117.566 273.311C116.529 275.193 115.463 277.116 114.639 279.108L114.635 279.142C114.487 279.384 114.405 279.647 114.356 279.915C114.347 279.983 114.336 280.061 114.327 280.129C114.319 280.185 114.31 280.252 114.302 280.308C114.266 280.818 114.374 281.279 114.604 281.688C114.78 282.067 115.042 282.412 115.36 282.673C116.01 283.186 116.79 283.339 117.518 283.2C117.762 283.176 117.988 283.116 118.218 283.022C118.951 281.853 119.739 280.703 120.567 279.593C121.926 277.779 123.378 276.046 124.911 274.381C125.369 273.883 125.838 273.387 126.316 272.904C126.568 272.653 126.82 272.402 127.061 272.149L127.113 272.099L127.059 272.16C127.192 272.03 127.324 271.899 127.455 271.78C128.603 270.669 129.792 269.597 131.01 268.564C133.768 266.233 136.684 264.084 139.721 262.134C140.561 261.598 141.411 261.075 142.271 260.564C142.495 260.435 142.707 260.304 142.931 260.175C142.98 260.147 143.03 260.12 143.08 260.092C143.575 259.817 144.059 259.541 144.553 259.277C146.494 258.229 148.459 257.253 150.472 256.341C160.316 251.898 170.037 249.429 180.754 248.115C187.188 247.332 193.682 247.026 200.157 247.186C207.694 247.367 215.191 247.669 222.726 247.449C226.826 247.328 230.921 247.08 235.008 246.728L235.009 246.717Z" fill="#04E9A4"/>
<path id="Vector_7" d="M214.568 299.393C213.177 295.872 210.876 292.569 208.6 289.578C202.689 281.831 195.101 275.386 186.794 270.34C181.443 267.085 175.861 264.097 169.779 262.492C164.735 261.156 159.403 260.913 154.234 261.481C144.793 262.502 135.849 266.222 127.731 271.006C123.374 273.574 119.07 276.493 115.308 279.887C115.255 279.936 115.19 279.996 115.137 280.046C115.045 280.136 114.963 280.228 114.882 280.32C114.869 280.329 114.855 280.35 114.841 280.371C114.799 280.423 114.745 280.484 114.704 280.535C114.264 281.07 114.024 281.734 114.054 282.425C114.055 282.585 114.08 282.737 114.116 282.891C114.139 282.974 114.162 283.057 114.196 283.142C114.222 283.203 114.224 283.272 114.25 283.333C114.246 283.355 114.267 283.369 114.277 283.382C114.321 283.48 114.376 283.579 114.442 283.679C114.469 283.729 114.507 283.791 114.534 283.841C114.563 283.879 114.57 283.914 114.599 283.953C114.666 284.042 114.758 284.123 114.839 284.203L114.858 284.229C114.96 284.323 115.063 284.406 115.177 284.49C115.228 284.531 115.291 284.574 115.344 284.605C115.397 284.635 115.45 284.665 115.492 284.694C115.937 284.949 116.457 285.078 116.963 285.057C117.019 285.064 117.08 285.038 117.149 285.036C117.231 285.025 117.311 285.024 117.394 285.002C117.663 284.959 117.917 284.856 118.154 284.717C119.363 284.163 120.635 283.732 121.902 283.335C122.225 283.231 122.547 283.138 122.88 283.047C123.07 282.993 123.261 282.939 123.463 282.887L123.511 282.871L123.544 282.875C124.447 282.634 125.347 282.414 126.254 282.219C128.494 281.739 130.751 281.386 133.019 281.115C135.842 280.795 138.681 280.615 141.523 280.583C141.89 280.577 142.255 280.581 142.611 280.573L142.645 280.578C142.827 280.58 143.023 280.573 143.206 280.575C144.061 280.59 144.905 280.615 145.757 280.652C147.566 280.73 149.379 280.854 151.173 281.033C155.079 281.411 158.965 282.015 162.801 282.819C167.372 283.769 171.297 284.836 175.652 286.272C187.8 290.257 199.374 295.925 210.257 302.619C211.332 303.282 212.601 303.457 213.674 302.644C214.67 301.889 215.021 300.507 214.574 299.348L214.568 299.393Z" fill="#FFF507"/>
<path id="Vector_8" d="M149.784 267.388C158.351 265.904 166.299 265.924 174.85 267.046C177.917 267.446 180.935 268.045 183.942 268.722C179.416 266.119 174.699 263.822 169.644 262.485C164.6 261.149 159.269 260.906 154.1 261.474C144.659 262.495 135.715 266.215 127.597 270.999C123.239 273.567 118.936 276.486 115.174 279.879C115.121 279.929 115.056 279.989 115.003 280.039C114.91 280.129 114.829 280.221 114.748 280.313C114.735 280.322 114.721 280.343 114.706 280.364C114.665 280.416 114.611 280.477 114.569 280.528C114.405 280.723 114.284 280.935 114.185 281.162C114.23 281.328 114.287 281.496 114.37 281.645C114.546 282.024 114.808 282.369 115.126 282.63C115.776 283.143 116.556 283.296 117.284 283.156C117.991 283.093 118.656 282.75 119.127 282.072C119.179 282.022 119.222 281.959 119.275 281.909C119.355 281.829 119.422 281.758 119.502 281.677C120.342 280.889 121.202 280.127 122.103 279.405C123.519 278.261 125.002 277.208 126.523 276.216C126.975 275.924 127.426 275.643 127.875 275.373C128.124 275.224 128.373 275.076 128.623 274.927C128.711 274.87 128.81 274.815 128.909 274.76L128.997 274.704C130.074 274.109 131.161 273.527 132.275 272.994C134.886 271.729 137.588 270.637 140.345 269.725C143.641 268.635 146.058 268.03 149.797 267.379L149.784 267.388Z" fill="#5FFF82"/>
</g>
</g>
</g>
</g>
</g>
</g>
<defs>
<linearGradient id="paint0_linear_127_696" x1="215.691" y1="193.939" x2="198.083" y2="318.79" gradientUnits="userSpaceOnUse">
<stop stop-color="#83FF07"/>
<stop offset="1" stop-color="#1162FF"/>
</linearGradient>
<clipPath id="clip0_127_696">
<rect width="229.622" height="229.622" fill="white" transform="translate(119.524 88.1666) rotate(7.84893)"/>
</clipPath>
</defs>
</svg>
