<svg width="1440" height="399" viewBox="0 0 1440 399" fill="none" xmlns="http://www.w3.org/2000/svg">
<g opacity="0.2">
<mask id="mask0_127_1929" style="mask-type:alpha" maskUnits="userSpaceOnUse" x="-125" y="87" width="652" height="607">
<path d="M225.515 87.4552C370.98 73.014 562.401 456.509 520.557 614.211C478.714 771.913 219.45 644.104 73.9852 658.545C-71.48 672.987 -155.482 556.851 -113.638 399.148C-71.7944 241.446 80.0495 101.896 225.515 87.4552Z" fill="url(#paint0_linear_127_1929)"/>
</mask>
<g mask="url(#mask0_127_1929)">
<path d="M393.885 659.258C390.121 661.621 386.798 661.04 384.708 658.853C362.153 635.495 333.999 618.258 301.913 607.649C272.221 597.849 239.702 593.321 206.546 590.609C173.872 587.951 140.502 586.981 108.139 583.617C75.444 580.219 44.0173 574.031 15.7009 562.206C-12.1603 550.537 -37.0479 533.279 -55.0793 509.607C-70.0457 489.947 -80.2418 465.766 -85.4899 438.97C-90.3192 414.223 -91.3178 387.443 -89.1122 359.705C-87.1646 335.162 -82.8786 309.881 -76.7204 284.448C-72.0937 265.373 -66.4373 246.161 -59.7015 226.977C-56.125 216.775 -52.4798 206.43 -47.9514 196.268C-47.6573 195.159 -47.1173 194.06 -46.3589 193.074C-46.3405 193.005 -46.2675 192.964 -46.2173 192.892C-45.9843 192.599 -45.7421 192.271 -45.4772 191.975C-44.308 190.611 -42.8708 189.524 -41.334 188.765C-41.1881 188.683 -41.0422 188.601 -40.9054 188.553C-40.6638 188.462 -40.4541 188.374 -40.2124 188.282C-39.793 188.106 -39.3827 187.964 -38.9909 187.891L-38.9271 187.885C-38.6217 187.787 -38.2936 187.721 -38.0066 187.692C-37.8471 187.677 -37.7288 187.699 -37.5693 187.683C-37.4099 187.667 -37.2823 187.654 -37.132 187.673C-36.7904 187.673 -36.4261 187.704 -36.1256 187.742C-36.0937 187.739 -36.0299 187.732 -35.998 187.729C-35.9024 187.72 -35.8343 187.814 -35.7478 187.839C-35.4338 187.943 -35.1105 188.012 -34.8376 188.153C-34.6192 188.267 -34.4101 188.415 -34.2009 188.562C-34.1236 188.622 -34.0144 188.679 -33.9463 188.773C-32.4735 190.01 -31.9682 192.084 -32.3245 194.48C-32.3435 194.786 -32.3624 195.091 -32.4132 195.4C-32.3067 194.647 -32.2191 194.2 -32.1818 193.825C-32.2234 194.099 -32.2651 194.373 -32.284 194.679C-32.4376 196.077 -32.5593 197.471 -32.6809 198.866C-33.0666 204.064 -33.1787 209.168 -33.1222 214.221C-33.0576 217.722 -32.9291 221.217 -32.6958 224.667C-32.5456 226.676 -32.3954 228.685 -32.2042 230.655C-32.0972 231.656 -32.013 232.626 -31.8968 233.593C-31.839 234.194 -31.5207 236.388 -31.5526 236.391C-30.1121 245.59 -28.4753 254.635 -26.0634 263.332C-24.6227 268.552 -22.9722 273.683 -21.1256 278.659C-20.1344 281.36 -19.0703 284.02 -17.9651 286.642C-17.4306 287.904 -16.8642 289.163 -16.3296 290.425C-16.0351 291.071 -15.7632 291.684 -15.4687 292.33C-15.3374 292.654 -15.1742 292.975 -15.0336 293.264C-14.9882 293.327 -14.8704 293.585 -14.7753 293.812C-14.6121 294.133 -14.1451 295.065 -14.0635 295.225C-13.7371 295.867 -13.4425 296.513 -13.1069 297.12C-12.4178 298.502 -11.6877 299.846 -10.9894 301.193C-9.48365 303.944 -7.93682 306.657 -6.31704 309.329C-2.94128 314.862 0.703657 320.2 4.60429 325.276C13.4362 336.81 22.5602 346.19 33.043 354.896C45.6397 365.348 59.5061 374.291 74.2958 381.861C91.301 390.561 109.354 397.301 128.521 402.649C150.087 408.669 171.924 414.022 192.717 421.435C227.85 433.899 261.04 449.827 290.547 470.505C313.415 486.48 334.132 505.299 351.547 527.313C364.663 543.885 375.788 562.341 384.431 582.662C390.07 595.93 394.574 610.086 397.367 625.187C398.739 632.538 400.105 640.26 400.023 648.295C400.036 648.597 400.039 648.934 400.02 649.239C399.98 652.784 397.365 657.024 393.862 659.226L393.885 659.258Z" fill="#117FFF"/>
<path d="M423.044 460.498C397.653 446.413 368.136 438.598 335.939 437.011C306.393 435.532 275.035 439.117 243.691 443.71C181.362 452.829 117.302 465.42 62.3527 452.248C38.0992 446.437 15.8843 436.347 -1.34236 420.374C-15.7428 407.016 -26.7804 390.495 -34.6569 371.336C-47.8984 339.169 -51.7585 300.411 -49.4609 260.402C-48.6128 245.699 -46.8777 230.706 -44.3791 215.536C-43.1874 208.344 -41.9909 201.017 -40.0449 193.683C-39.9114 192.827 -39.6499 191.959 -39.2376 191.11C-38.2799 188.792 -36.7514 187.023 -34.9858 185.77C-34.9034 185.694 -34.7982 185.65 -34.6839 185.571C-34.5375 185.49 -34.382 185.373 -34.2265 185.257C-33.4261 184.706 -32.612 184.221 -31.789 183.937C-28.8581 182.871 -26.5095 183.413 -25.1082 185.059C-24.2362 185.882 -23.7211 187.111 -23.7229 188.761C-23.7413 188.83 -23.6956 188.893 -23.7048 188.928C-23.6778 189.296 -23.6508 189.664 -23.6238 190.031C-23.5876 190.365 -23.5606 190.732 -23.5244 191.066C-23.5199 191.166 -23.5063 191.232 -23.4698 191.33C-22.8663 195.278 -22.0845 199.142 -21.1151 202.885C-19.6178 208.631 -17.7775 214.141 -15.6353 219.453C-14.9972 221.04 -14.327 222.624 -13.6158 224.17C-13.2373 224.975 -12.8589 225.779 -12.5124 226.587L-12.4303 226.747L-12.5032 226.552C-12.3026 226.97 -12.1019 227.388 -11.8921 227.772C-10.1273 231.335 -8.20698 234.783 -6.16311 238.117C-1.52329 245.639 3.75697 252.626 9.60007 259.019C11.2206 260.778 12.8824 262.499 14.5853 264.183C15.0327 264.61 15.4481 265.04 15.8956 265.467C15.996 265.559 16.0965 265.65 16.1969 265.741C17.2014 266.652 18.1739 267.566 19.1876 268.442C23.1554 271.921 27.2744 275.184 31.5992 278.258C52.7666 293.234 75.9472 302.15 103.176 307.665C119.53 310.96 136.613 312.801 154.199 313.21C174.661 313.705 195.159 313.826 215.139 315.548C247.906 318.392 279.468 324.252 308.694 334.218C331.698 342.039 353.392 352.214 372.632 365.529C387.055 375.516 400.204 387.246 411.36 400.859C418.936 410.111 425.461 420.276 430.787 431.435C433.135 436.322 435.451 441.448 436.77 447.043C436.834 447.273 436.898 447.502 436.952 447.766C438.549 455.018 429.105 463.838 423.076 460.495L423.044 460.498Z" fill="#268AFF"/>
<path d="M194.007 418.304C214.067 425.487 233.441 433.834 251.933 443.5C246.512 444.21 241.082 444.954 235.665 445.766C172.967 454.969 108.517 467.7 53.3023 454.25C28.9317 448.317 6.62312 438.036 -10.6527 421.778C-25.0943 408.184 -36.1454 391.376 -44.0104 371.891C-57.2327 339.175 -61.003 299.77 -58.578 259.099C-57.683 244.152 -55.8953 228.912 -53.3395 213.493C-52.1205 206.183 -50.8965 198.735 -48.9187 191.281C-48.782 190.412 -48.5166 189.529 -48.0996 188.666C-47.886 188.097 -47.5945 187.589 -47.3351 187.084C-47.3165 187.014 -47.2335 186.937 -47.1826 186.864C-46.9606 186.499 -46.7157 186.167 -46.4802 185.87C-46.337 185.684 -46.1845 185.464 -46.0091 185.275C-46.0091 185.275 -45.9582 185.202 -45.9167 185.163C-45.4228 184.601 -44.8416 184.064 -44.2791 183.597C-44.1224 183.479 -43.9979 183.364 -43.8412 183.246C-43.1821 182.769 -42.5002 182.325 -41.8048 181.948C-41.6574 181.865 -41.51 181.782 -41.372 181.734C-41.128 181.641 -40.9163 181.552 -40.6723 181.459C-40.2903 181.318 -39.9498 181.216 -39.6094 181.114C-39.4163 181.095 -39.2045 181.005 -39.0436 180.989C-38.8505 180.97 -38.671 180.884 -38.4779 180.864C-37.9629 180.813 -37.4667 180.833 -36.9891 180.922C-36.8604 180.909 -36.7409 180.932 -36.6215 180.954C-35.5241 181.187 -34.575 181.744 -33.8749 182.53C-33.5498 182.84 -33.34 183.23 -33.1394 183.655C-32.6292 184.803 -32.4417 186.222 -32.7006 187.788C-32.7202 188.098 -32.7398 188.408 -32.7916 188.721C-32.6829 187.958 -32.5938 187.504 -32.5556 187.123C-32.598 187.401 -32.6405 187.679 -32.6601 187.99C-32.8173 189.409 -32.9423 190.825 -33.0673 192.241C-33.4649 197.518 -33.5863 202.699 -33.5374 207.829C-33.4778 211.384 -33.3538 214.932 -33.124 218.435C-32.9757 220.474 -32.8275 222.514 -32.6377 224.515C-32.5314 225.531 -32.4479 226.516 -32.3323 227.497C-32.2749 228.108 -31.9574 230.335 -31.9896 230.339C-30.5509 239.679 -28.9141 248.862 -26.4946 257.694C-25.0493 262.993 -23.3923 268.204 -21.5371 273.257C-20.5414 276 -19.472 278.701 -18.361 281.363C-17.8238 282.645 -17.2543 283.924 -16.7171 285.206C-16.4209 285.861 -16.1476 286.484 -15.8514 287.139C-15.7195 287.469 -15.5553 287.795 -15.414 288.089C-15.3683 288.153 -15.2498 288.415 -15.1542 288.645C-14.99 288.971 -14.5204 289.917 -14.4383 290.08C-14.1099 290.732 -13.8138 291.388 -13.4761 292.004C-12.7831 293.408 -12.0485 294.773 -11.3462 296.141C-9.83134 298.934 -8.275 301.69 -6.64497 304.404C-3.2478 310.023 0.421287 315.444 4.34879 320.6C13.2415 332.316 22.4323 341.844 32.9953 350.689C45.6884 361.308 59.6651 370.396 74.5755 378.091C91.7195 386.933 109.924 393.787 129.255 399.228C151.005 405.353 173.029 410.801 193.998 418.339L194.007 418.304Z" fill="#10A9FF"/>
<path d="M403.877 287.69C380.77 283.591 355.925 284.133 329.756 289.068C307.025 293.353 282.808 301.324 258.962 310.291C210.991 328.319 162.654 350.474 115.389 358.191C70.2788 365.556 28.6261 358.934 0.249598 333.706C-21.9918 313.918 -36.1152 285.763 -43.7991 254.013C-46.6021 242.469 -48.5112 230.423 -49.6939 218.03C-50.2507 212.002 -50.8352 205.839 -50.6751 199.5L-50.6469 199.394C-50.7572 198.614 -50.6627 197.78 -50.4705 196.936C-50.4143 196.724 -50.3487 196.477 -50.2925 196.265C-50.2457 196.089 -50.1895 195.877 -50.1427 195.701C-49.6235 194.102 -48.7697 192.677 -47.6465 191.432C-46.7048 190.273 -45.5726 189.232 -44.3851 188.461C-41.9868 186.952 -39.6697 186.584 -37.8472 187.125C-35.9917 187.422 -34.589 188.589 -34.1231 190.776C-34.0397 190.94 -33.9982 191.142 -33.9147 191.306C-33.7942 191.569 -33.697 191.8 -33.5765 192.063C-32.2321 194.644 -30.8039 197.149 -29.2172 199.535C-26.7307 203.309 -23.9506 206.813 -20.9934 210.129C-20.1114 211.107 -19.2199 212.049 -18.3191 212.956C-17.8176 213.456 -17.3161 213.957 -16.8147 214.457C-16.6429 214.646 -16.4385 214.832 -16.2342 215.018L-16.0624 215.207C-13.8379 217.22 -11.5714 219.195 -9.16978 221.018C-3.56297 225.342 2.50063 229.139 8.93269 232.384C16.6242 236.261 22.4999 238.495 31.9334 241.065C53.5576 246.926 75.3113 247.997 100.048 245.713C132.224 242.759 165.664 232.291 198.384 226.568C226.907 221.605 255.031 218.985 281.949 219.715C319.281 220.752 354.746 227.748 383.672 244.57C392.195 249.497 399.962 255.36 406.908 262.162C409.904 265.096 412.949 268.196 415.245 271.851C415.329 272.015 415.445 272.175 415.538 272.304C419.067 278.243 411.345 288.942 403.863 287.623L403.877 287.69Z" fill="#ADFF00"/>
<path d="M239.179 317.927C197.737 334.173 156.181 351.565 115.379 358.228C70.269 365.593 28.6163 358.971 0.239825 333.743C-22.0016 313.955 -36.125 285.8 -43.8089 254.05C-46.6119 242.505 -48.5209 230.46 -49.7037 218.067C-50.2605 212.039 -50.8449 205.876 -50.6848 199.536L-50.6567 199.43C-50.767 198.651 -50.6725 197.817 -50.4802 196.973C-50.424 196.761 -50.3585 196.514 -50.3023 196.302C-50.2555 196.125 -50.1993 195.914 -50.1524 195.737C-49.6333 194.139 -48.7795 192.714 -47.6563 191.468C-46.7146 190.309 -45.5824 189.269 -44.3949 188.498C-41.9966 186.988 -39.6794 186.621 -37.857 187.162C-37.2199 187.27 -36.676 187.491 -36.1603 187.818C-35.5716 191.575 -34.8106 195.28 -33.8913 198.866C-32.3714 204.729 -30.5021 210.352 -28.3255 215.773C-27.6771 217.392 -26.9962 219.009 -26.2734 220.587C-25.8887 221.408 -25.5041 222.229 -25.1521 223.053L-25.0686 223.217L-25.1427 223.018C-24.9388 223.444 -24.7349 223.871 -24.5216 224.262C-22.7279 227.899 -20.7758 231.417 -18.6979 234.819C-13.9809 242.496 -8.61163 249.628 -2.66917 256.152C-1.02104 257.947 0.669041 259.704 2.40103 261.423C2.85612 261.859 3.27864 262.298 3.73372 262.734C3.83589 262.827 3.93804 262.92 4.04022 263.013C5.06192 263.942 6.05106 264.875 7.08212 265.77C11.1181 269.321 15.3079 272.652 19.7074 275.789C41.2404 291.076 64.8265 300.18 92.5354 305.815C109.178 309.18 126.562 311.063 144.461 311.486C165.285 311.996 186.147 312.125 206.481 313.887C217.545 314.85 228.442 316.209 239.188 317.891L239.179 317.927Z" fill="#04E9A4"/>
<path d="M247.091 150.418C239.025 161.22 228.731 171.212 218.886 180.232C193.345 203.595 164.792 222.652 135.968 237.233C117.396 246.638 98.514 255.18 79.9421 259.327C64.5345 262.781 49.6633 262.779 36.22 260.265C11.6443 255.727 -8.30214 242.826 -24.703 226.72C-33.5071 218.074 -41.7371 208.34 -47.9132 197.199C-47.9967 197.035 -48.1033 196.84 -48.1868 196.676C-48.3305 196.381 -48.4416 196.083 -48.5527 195.784C-48.5759 195.752 -48.5897 195.685 -48.6035 195.618C-48.6544 195.451 -48.7285 195.252 -48.7793 195.085C-49.3345 193.353 -49.1865 191.242 -48.2663 189.088C-48.0701 188.588 -47.8181 188.116 -47.5335 187.641C-47.3702 187.384 -47.2069 187.127 -47.0111 186.867C-46.8666 186.681 -46.7778 186.466 -46.6333 186.28C-46.6145 186.209 -46.54 186.168 -46.4981 186.129C-46.2604 185.83 -45.99 185.529 -45.6871 185.224C-45.552 185.073 -45.3749 184.883 -45.2397 184.732C-45.1139 184.617 -45.0532 184.508 -44.9274 184.392C-44.6339 184.122 -44.2846 183.881 -43.9679 183.644L-43.884 183.567C-43.4928 183.287 -43.1109 183.043 -42.6965 182.796C-42.5055 182.674 -42.282 182.548 -42.1005 182.462C-41.9189 182.375 -41.7374 182.288 -41.5884 182.205C-40.0613 181.469 -38.4838 181.14 -37.1258 181.28C-36.963 181.264 -36.8282 181.354 -36.6422 181.37C-36.433 181.418 -36.2144 181.431 -36.0145 181.514C-35.331 181.687 -34.7595 182.042 -34.2812 182.51C-31.6471 184.414 -28.6914 185.942 -25.7076 187.364C-24.9501 187.736 -24.1832 188.072 -23.3837 188.405C-22.9282 188.601 -22.4726 188.796 -21.9846 188.988L-21.873 189.046L-21.7753 189.036C-19.6 189.92 -17.4058 190.733 -15.1604 191.473C-9.61894 193.294 -3.87674 194.717 1.99616 195.887C9.32925 197.29 16.8724 198.259 24.6025 198.764C25.5978 198.837 26.6025 198.874 27.5652 198.951L27.6629 198.941C28.1653 198.96 28.6908 199.011 29.1932 199.03C31.5514 199.105 33.8864 199.148 36.2634 199.153C41.301 199.168 46.4087 199.039 51.5307 198.737C62.6677 198.112 74.0247 196.779 85.4851 194.816C99.1324 192.499 111.157 189.724 124.802 185.86C162.844 175.141 201.35 159.083 239.212 139.721C242.955 137.803 246.635 137.438 248.584 140.131C250.393 142.632 249.679 146.999 247.053 150.559L247.091 150.418Z" fill="#FFF507"/>
<path d="M31.2075 241.172C52.8317 247.033 74.5853 248.104 99.322 245.82C108.194 245.008 117.17 243.567 126.211 241.879C110.684 249.367 95.006 255.872 79.5659 259.33C64.1583 262.784 49.2871 262.782 35.8438 260.268C11.2681 255.731 -8.67833 242.829 -25.0792 226.723C-33.8833 218.077 -42.1133 208.343 -48.2894 197.202C-48.3729 197.038 -48.4795 196.843 -48.5629 196.679C-48.7066 196.384 -48.8177 196.086 -48.9288 195.787C-48.952 195.755 -48.9659 195.688 -48.9797 195.621C-49.0306 195.454 -49.1047 195.255 -49.1555 195.088C-49.3684 194.456 -49.4416 193.776 -49.4403 193.054C-49.1138 192.541 -48.7547 192.024 -48.3492 191.571C-47.4075 190.412 -46.2753 189.372 -45.0878 188.601C-42.6895 187.091 -40.3724 186.724 -38.5499 187.265C-36.6945 187.562 -35.2917 188.728 -34.8258 190.916C-34.7424 191.08 -34.7009 191.282 -34.6174 191.445C-34.497 191.708 -34.3997 191.939 -34.2792 192.202C-32.9348 194.784 -31.5066 197.288 -29.92 199.674C-27.4334 203.449 -24.6533 206.953 -21.6962 210.268C-20.8141 211.246 -19.9227 212.189 -19.0219 213.096C-18.5204 213.596 -18.0189 214.096 -17.5174 214.596C-17.3456 214.785 -17.1413 214.971 -16.937 215.157L-16.7652 215.346C-14.5406 217.36 -12.2742 219.334 -9.87252 221.158C-4.26572 225.482 1.79788 229.279 8.22993 232.524C15.9215 236.4 21.7971 238.635 31.2307 241.204L31.2075 241.172Z" fill="#5FFF82"/>
</g>
</g>
<g opacity="0.2">
<mask id="mask1_127_1929" style="mask-type:alpha" maskUnits="userSpaceOnUse" x="905" y="-263" width="652" height="607">
<path d="M1206.57 343.45C1061.11 357.891 869.686 -25.6038 911.529 -183.306C953.373 -341.008 1212.64 -213.199 1358.1 -227.64C1503.57 -242.081 1587.57 -125.945 1545.72 31.7569C1503.88 189.459 1352.04 329.009 1206.57 343.45Z" fill="url(#paint1_linear_127_1929)"/>
</mask>
<g mask="url(#mask1_127_1929)">
<path d="M1038.2 -228.352C1041.97 -230.716 1045.29 -230.135 1047.38 -227.948C1069.93 -204.59 1098.09 -187.352 1130.17 -176.744C1159.87 -166.944 1192.38 -162.415 1225.54 -159.704C1258.21 -157.046 1291.59 -156.076 1323.95 -152.712C1356.64 -149.314 1388.07 -143.126 1416.39 -131.3C1444.25 -119.632 1469.13 -102.374 1487.17 -78.7013C1502.13 -59.0415 1512.33 -34.8611 1517.58 -8.06485C1522.41 16.6821 1523.4 43.4618 1521.2 71.2004C1519.25 95.7432 1514.97 121.024 1508.81 146.457C1504.18 165.533 1498.52 184.744 1491.79 203.928C1488.21 214.131 1484.57 224.475 1480.04 234.638C1479.74 235.746 1479.2 236.845 1478.45 237.831C1478.43 237.9 1478.35 237.941 1478.3 238.014C1478.07 238.307 1477.83 238.634 1477.56 238.93C1476.39 240.294 1474.96 241.381 1473.42 242.141C1473.27 242.223 1473.13 242.304 1472.99 242.352C1472.75 242.443 1472.54 242.532 1472.3 242.623C1471.88 242.8 1471.47 242.941 1471.08 243.014L1471.01 243.02C1470.71 243.118 1470.38 243.184 1470.09 243.213C1469.93 243.229 1469.82 243.207 1469.66 243.223C1469.5 243.238 1469.37 243.251 1469.22 243.232C1468.88 243.232 1468.51 243.201 1468.21 243.164C1468.18 243.167 1468.12 243.173 1468.08 243.176C1467.99 243.186 1467.92 243.091 1467.83 243.066C1467.52 242.962 1467.2 242.893 1466.92 242.752C1466.71 242.639 1466.5 242.491 1466.29 242.343C1466.21 242.283 1466.1 242.227 1466.03 242.132C1464.56 240.896 1464.05 238.821 1464.41 236.425C1464.43 236.12 1464.45 235.814 1464.5 235.506C1464.39 236.258 1464.31 236.705 1464.27 237.08C1464.31 236.806 1464.35 236.532 1464.37 236.227C1464.52 234.829 1464.65 233.434 1464.77 232.039C1465.15 226.841 1465.27 221.737 1465.21 216.684C1465.14 213.183 1465.02 209.688 1464.78 206.238C1464.63 204.229 1464.48 202.221 1464.29 200.25C1464.18 199.249 1464.1 198.279 1463.98 197.313C1463.93 196.711 1463.61 194.517 1463.64 194.514C1462.2 185.315 1460.56 176.271 1458.15 167.573C1456.71 162.354 1455.06 157.223 1453.21 152.246C1452.22 149.545 1451.16 146.885 1450.05 144.263C1449.52 143.001 1448.95 141.742 1448.42 140.48C1448.12 139.835 1447.85 139.221 1447.56 138.576C1447.42 138.252 1447.26 137.93 1447.12 137.641C1447.07 137.578 1446.96 137.32 1446.86 137.093C1446.7 136.772 1446.23 135.84 1446.15 135.68C1445.82 135.038 1445.53 134.393 1445.19 133.785C1444.5 132.403 1443.77 131.059 1443.08 129.712C1441.57 126.961 1440.02 124.248 1438.4 121.576C1435.03 116.043 1431.38 110.706 1427.48 105.629C1418.65 94.0953 1409.53 84.715 1399.04 76.0091C1386.45 65.5571 1372.58 56.6138 1357.79 49.0438C1340.79 40.3447 1322.73 33.6045 1303.57 28.2564C1282 22.236 1260.16 16.8831 1239.37 9.47066C1204.24 -2.99339 1171.05 -18.9217 1141.54 -39.5999C1118.67 -55.5749 1097.96 -74.394 1080.54 -96.4075C1067.42 -112.98 1056.3 -131.436 1047.66 -151.757C1042.02 -165.024 1037.51 -179.18 1034.72 -194.282C1033.35 -201.632 1031.98 -209.355 1032.06 -217.389C1032.05 -217.692 1032.05 -218.029 1032.07 -218.334C1032.11 -221.879 1034.72 -226.118 1038.22 -228.321L1038.2 -228.352Z" fill="#117FFF"/>
<path d="M1009.04 -29.5931C1034.43 -15.5076 1063.95 -7.69276 1096.15 -6.10604C1125.69 -4.62669 1157.05 -8.21128 1188.4 -12.8052C1250.72 -21.9234 1314.78 -34.5145 1369.73 -21.3425C1393.99 -15.5314 1416.2 -5.44213 1433.43 10.5318C1447.83 23.8894 1458.87 40.4104 1466.74 59.5693C1479.99 91.7366 1483.85 130.494 1481.55 170.503C1480.7 185.206 1478.96 200.199 1476.47 215.369C1475.27 222.561 1474.08 229.888 1472.13 237.223C1472 238.078 1471.74 238.946 1471.32 239.795C1470.37 242.114 1468.84 243.882 1467.07 245.135C1466.99 245.211 1466.89 245.255 1466.77 245.334C1466.62 245.416 1466.47 245.532 1466.31 245.649C1465.51 246.2 1464.7 246.685 1463.88 246.969C1460.94 248.034 1458.6 247.493 1457.2 245.847C1456.32 245.024 1455.81 243.795 1455.81 242.144C1455.83 242.075 1455.78 242.012 1455.79 241.977C1455.76 241.61 1455.74 241.242 1455.71 240.874C1455.67 240.541 1455.65 240.173 1455.61 239.84C1455.61 239.739 1455.59 239.673 1455.56 239.575C1454.95 235.627 1454.17 231.764 1453.2 228.02C1451.7 222.274 1449.86 216.764 1447.72 211.452C1447.08 209.865 1446.41 208.281 1445.7 206.735C1445.32 205.931 1444.95 205.126 1444.6 204.318L1444.52 204.158L1444.59 204.353C1444.39 203.935 1444.19 203.517 1443.98 203.134C1442.21 199.57 1440.29 196.123 1438.25 192.789C1433.61 185.266 1428.33 178.279 1422.49 171.886C1420.87 170.127 1419.2 168.406 1417.5 166.722C1417.05 166.295 1416.64 165.865 1416.19 165.438C1416.09 165.347 1415.99 165.256 1415.89 165.165C1414.89 164.254 1413.91 163.34 1412.9 162.464C1408.93 158.984 1404.81 155.721 1400.49 152.647C1379.32 137.671 1356.14 128.756 1328.91 123.24C1312.56 119.946 1295.47 118.105 1277.89 117.695C1257.43 117.2 1236.93 117.079 1216.95 115.357C1184.18 112.514 1152.62 106.653 1123.39 96.6875C1100.39 88.866 1078.7 78.6913 1059.45 65.3763C1045.03 55.3892 1031.88 43.659 1020.73 30.0465C1013.15 20.7945 1006.63 10.6297 1001.3 -0.529888C998.952 -5.41672 996.636 -10.5425 995.316 -16.1378C995.253 -16.3673 995.189 -16.5968 995.134 -16.8608C993.538 -24.1128 1002.98 -32.9324 1009.01 -29.5899L1009.04 -29.5931Z" fill="#268AFF"/>
<path d="M1238.08 12.6016C1218.02 5.41834 1198.65 -2.92834 1180.15 -12.5951C1185.57 -13.3045 1191 -14.049 1196.42 -14.8606C1259.12 -24.0634 1323.57 -36.7949 1378.78 -23.3452C1403.15 -17.4115 1425.46 -7.13089 1442.74 9.12679C1457.18 22.7217 1468.23 39.5289 1476.1 59.0145C1489.32 91.7303 1493.09 131.136 1490.66 171.807C1489.77 186.753 1487.98 201.993 1485.43 217.413C1484.21 224.723 1482.98 232.17 1481.01 239.624C1480.87 240.494 1480.6 241.376 1480.19 242.239C1479.97 242.808 1479.68 243.316 1479.42 243.821C1479.4 243.891 1479.32 243.968 1479.27 244.042C1479.05 244.406 1478.8 244.738 1478.57 245.036C1478.42 245.221 1478.27 245.442 1478.1 245.63C1478.1 245.63 1478.04 245.704 1478 245.742C1477.51 246.305 1476.93 246.842 1476.37 247.308C1476.21 247.426 1476.08 247.541 1475.93 247.66C1475.27 248.136 1474.59 248.58 1473.89 248.957C1473.74 249.04 1473.6 249.124 1473.46 249.171C1473.21 249.264 1473 249.354 1472.76 249.446C1472.38 249.587 1472.04 249.689 1471.7 249.792C1471.5 249.811 1471.29 249.9 1471.13 249.916C1470.94 249.935 1470.76 250.022 1470.56 250.041C1470.05 250.092 1469.55 250.073 1469.08 249.983C1468.95 249.996 1468.83 249.974 1468.71 249.951C1467.61 249.718 1466.66 249.162 1465.96 248.375C1465.64 248.065 1465.43 247.675 1465.23 247.25C1464.72 246.103 1464.53 244.683 1464.79 243.117C1464.81 242.807 1464.83 242.497 1464.88 242.184C1464.77 242.948 1464.68 243.402 1464.64 243.782C1464.68 243.504 1464.73 243.226 1464.75 242.916C1464.9 241.497 1465.03 240.081 1465.15 238.665C1465.55 233.387 1465.67 228.206 1465.62 223.076C1465.56 219.521 1465.44 215.973 1465.21 212.47C1465.06 210.431 1464.91 208.391 1464.72 206.39C1464.62 205.374 1464.53 204.39 1464.42 203.408C1464.36 202.798 1464.04 200.57 1464.08 200.567C1462.64 191.227 1461 182.043 1458.58 173.212C1457.14 167.912 1455.48 162.702 1453.62 157.648C1452.63 154.905 1451.56 152.205 1450.45 149.542C1449.91 148.26 1449.34 146.981 1448.8 145.7C1448.51 145.044 1448.23 144.421 1447.94 143.766C1447.81 143.437 1447.64 143.111 1447.5 142.816C1447.45 142.753 1447.34 142.49 1447.24 142.26C1447.08 141.934 1446.61 140.988 1446.52 140.825C1446.2 140.173 1445.9 139.518 1445.56 138.901C1444.87 137.498 1444.14 136.133 1443.43 134.765C1441.92 131.971 1440.36 129.215 1438.73 126.502C1435.33 120.882 1431.67 115.461 1427.74 110.305C1418.85 98.5898 1409.65 89.0609 1399.09 80.216C1386.4 69.597 1372.42 60.5089 1357.51 52.8145C1340.37 43.9725 1322.16 37.1186 1302.83 31.6774C1281.08 25.5521 1259.06 20.1045 1238.09 12.5664L1238.08 12.6016Z" fill="#10A9FF"/>
<path d="M1028.21 143.215C1051.32 147.314 1076.16 146.772 1102.33 141.837C1125.06 137.553 1149.28 129.581 1173.12 120.615C1221.1 102.586 1269.43 80.431 1316.7 72.7143C1361.81 65.3489 1403.46 71.9712 1431.84 97.199C1454.08 116.987 1468.2 145.142 1475.89 176.892C1478.69 188.437 1480.6 200.482 1481.78 212.875C1482.34 218.903 1482.92 225.066 1482.76 231.406L1482.73 231.512C1482.84 232.291 1482.75 233.125 1482.56 233.969C1482.5 234.181 1482.44 234.428 1482.38 234.64C1482.33 234.816 1482.28 235.028 1482.23 235.205C1481.71 236.803 1480.86 238.228 1479.73 239.474C1478.79 240.633 1477.66 241.673 1476.47 242.444C1474.07 243.954 1471.76 244.321 1469.93 243.78C1468.08 243.483 1466.68 242.317 1466.21 240.129C1466.13 239.965 1466.08 239.763 1466 239.6C1465.88 239.337 1465.78 239.106 1465.66 238.843C1464.32 236.261 1462.89 233.756 1461.3 231.371C1458.82 227.596 1456.04 224.092 1453.08 220.777C1452.2 219.799 1451.31 218.856 1450.41 217.949C1449.9 217.449 1449.4 216.949 1448.9 216.449C1448.73 216.259 1448.53 216.074 1448.32 215.888L1448.15 215.698C1445.92 213.685 1443.66 211.711 1441.26 209.887C1435.65 205.563 1429.59 201.766 1423.15 198.521C1415.46 194.645 1409.59 192.41 1400.15 189.841C1378.53 183.98 1356.78 182.909 1332.04 185.192C1299.86 188.146 1266.42 198.615 1233.7 204.338C1205.18 209.3 1177.06 211.92 1150.14 211.19C1112.81 210.153 1077.34 203.157 1048.41 186.336C1039.89 181.408 1032.13 175.546 1025.18 168.743C1022.18 165.81 1019.14 162.71 1016.84 159.054C1016.76 158.89 1016.64 158.73 1016.55 158.602C1013.02 152.663 1020.74 141.963 1028.22 143.283L1028.21 143.215Z" fill="#ADFF00"/>
<path d="M1192.91 112.979C1234.35 96.7322 1275.91 79.3403 1316.71 72.6776C1361.82 65.3123 1403.47 71.9346 1431.85 97.1624C1454.09 116.95 1468.21 145.105 1475.9 176.855C1478.7 188.4 1480.61 200.446 1481.79 212.839C1482.35 218.867 1482.93 225.029 1482.77 231.369L1482.74 231.475C1482.85 232.254 1482.76 233.089 1482.57 233.933C1482.51 234.144 1482.45 234.392 1482.39 234.603C1482.34 234.78 1482.29 234.992 1482.24 235.168C1481.72 236.766 1480.87 238.191 1479.74 239.437C1478.8 240.596 1477.67 241.636 1476.48 242.407C1474.08 243.917 1471.77 244.284 1469.94 243.744C1469.31 243.635 1468.76 243.414 1468.25 243.087C1467.66 239.331 1466.9 235.626 1465.98 232.04C1464.46 226.176 1462.59 220.553 1460.41 215.133C1459.76 213.513 1459.08 211.897 1458.36 210.319C1457.98 209.498 1457.59 208.677 1457.24 207.852L1457.16 207.689L1457.23 207.888C1457.03 207.461 1456.82 207.035 1456.61 206.643C1454.81 203.006 1452.86 199.488 1450.78 196.086C1446.07 188.409 1440.7 181.278 1434.76 174.753C1433.11 172.958 1431.42 171.201 1429.69 169.483C1429.23 169.047 1428.81 168.607 1428.35 168.171C1428.25 168.079 1428.15 167.985 1428.05 167.893C1427.02 166.963 1426.04 166.03 1425 165.136C1420.97 161.584 1416.78 158.254 1412.38 155.116C1390.85 139.829 1367.26 130.726 1339.55 125.091C1322.91 121.725 1305.52 119.842 1287.63 119.419C1266.8 118.909 1245.94 118.78 1225.61 117.019C1214.54 116.055 1203.65 114.696 1192.9 113.014L1192.91 112.979Z" fill="#04E9A4"/>
<path d="M1185 280.487C1193.06 269.685 1203.36 259.693 1213.2 250.673C1238.74 227.31 1267.29 208.253 1296.12 193.672C1314.69 184.267 1333.57 175.725 1352.14 171.579C1367.55 168.125 1382.42 168.126 1395.87 170.641C1420.44 175.178 1440.39 188.079 1456.79 204.185C1465.59 212.831 1473.82 222.566 1480 233.707C1480.08 233.87 1480.19 234.066 1480.27 234.229C1480.42 234.524 1480.53 234.823 1480.64 235.121C1480.66 235.153 1480.68 235.22 1480.69 235.288C1480.74 235.455 1480.82 235.653 1480.87 235.82C1481.42 237.552 1481.27 239.663 1480.35 241.817C1480.16 242.318 1479.9 242.789 1479.62 243.264C1479.46 243.521 1479.29 243.778 1479.1 244.038C1478.95 244.224 1478.86 244.439 1478.72 244.625C1478.7 244.696 1478.63 244.738 1478.58 244.776C1478.35 245.075 1478.08 245.377 1477.77 245.682C1477.64 245.833 1477.46 246.022 1477.33 246.173C1477.2 246.289 1477.14 246.398 1477.01 246.513C1476.72 246.783 1476.37 247.024 1476.05 247.261L1475.97 247.339C1475.58 247.618 1475.2 247.862 1474.78 248.109C1474.59 248.231 1474.37 248.357 1474.19 248.444C1474.01 248.53 1473.82 248.617 1473.67 248.701C1472.15 249.436 1470.57 249.765 1469.21 249.625C1469.05 249.641 1468.91 249.551 1468.73 249.535C1468.52 249.487 1468.3 249.475 1468.1 249.391C1467.42 249.219 1466.85 248.863 1466.37 248.395C1463.73 246.491 1460.78 244.963 1457.79 243.541C1457.04 243.169 1456.27 242.833 1455.47 242.5C1455.01 242.305 1454.56 242.109 1454.07 241.917L1453.96 241.859L1453.86 241.869C1451.69 240.985 1449.49 240.172 1447.25 239.433C1441.71 237.611 1435.96 236.188 1430.09 235.018C1422.76 233.615 1415.21 232.646 1407.48 232.142C1406.49 232.069 1405.48 232.031 1404.52 231.955L1404.42 231.964C1403.92 231.945 1403.4 231.894 1402.89 231.876C1400.54 231.8 1398.2 231.757 1395.82 231.753C1390.79 231.737 1385.68 231.866 1380.56 232.169C1369.42 232.793 1358.06 234.127 1346.6 236.089C1332.95 238.406 1320.93 241.181 1307.28 245.045C1269.24 255.764 1230.74 271.822 1192.88 291.184C1189.13 293.102 1185.45 293.468 1183.5 290.774C1181.69 288.273 1182.41 283.906 1185.03 280.346L1185 280.487Z" fill="#FFF507"/>
<path d="M1400.88 189.733C1379.26 183.872 1357.5 182.801 1332.76 185.085C1323.89 185.897 1314.92 187.338 1305.88 189.026C1321.4 181.539 1337.08 175.033 1352.52 171.576C1367.93 168.121 1382.8 168.123 1396.24 170.638C1420.82 175.175 1440.77 188.076 1457.17 204.182C1465.97 212.828 1474.2 222.562 1480.38 233.703C1480.46 233.867 1480.57 234.063 1480.65 234.226C1480.79 234.521 1480.9 234.82 1481.02 235.118C1481.04 235.15 1481.05 235.217 1481.07 235.285C1481.12 235.451 1481.19 235.65 1481.24 235.817C1481.46 236.449 1481.53 237.129 1481.53 237.851C1481.2 238.365 1480.84 238.881 1480.44 239.334C1479.49 240.493 1478.36 241.533 1477.17 242.304C1474.78 243.814 1472.46 244.181 1470.64 243.641C1468.78 243.344 1467.38 242.177 1466.91 239.989C1466.83 239.826 1466.79 239.624 1466.7 239.46C1466.58 239.197 1466.49 238.966 1466.37 238.703C1465.02 236.121 1463.59 233.617 1462.01 231.231C1459.52 227.457 1456.74 223.952 1453.78 220.637C1452.9 219.659 1452.01 218.717 1451.11 217.809C1450.61 217.309 1450.11 216.809 1449.6 216.309C1449.43 216.12 1449.23 215.934 1449.02 215.748L1448.85 215.559C1446.63 213.546 1444.36 211.571 1441.96 209.747C1436.35 205.424 1430.29 201.626 1423.86 198.381C1416.17 194.505 1410.29 192.27 1400.86 189.701L1400.88 189.733Z" fill="#5FFF82"/>
</g>
</g>
<defs>
<linearGradient id="paint0_linear_127_1929" x1="122.438" y1="480.081" x2="83.6602" y2="102.004" gradientUnits="userSpaceOnUse">
<stop stop-color="#83FF07"/>
<stop offset="1" stop-color="#1162FF"/>
</linearGradient>
<linearGradient id="paint1_linear_127_1929" x1="1309.65" y1="-49.1757" x2="1348.43" y2="328.901" gradientUnits="userSpaceOnUse">
<stop stop-color="#83FF07"/>
<stop offset="1" stop-color="#1162FF"/>
</linearGradient>
</defs>
</svg>
