<svg width="240" height="238" viewBox="0 0 240 238" fill="none" xmlns="http://www.w3.org/2000/svg">
<defs>
<linearGradient id="paint0_linear_127_818" x1="111.149" y1="41.537" x2="61.0806" y2="169.174" gradientUnits="userSpaceOnUse">
<stop stop-color="#FFF507"/>
<stop offset="0.883333" stop-color="#117FFF"/>
</linearGradient>
<clipPath id="clip0_127_818">
<rect width="208.693" height="206.179" fill="white" transform="translate(32.6045 1.05342) rotate(8.91758)"/>
</clipPath>
<clipPath id="clip1_127_818">
<rect width="23" height="23" fill="white" transform="translate(73.2097 15.7654) rotate(23.5484)"/>
</clipPath>
</defs>
<g id="screen name">
<path id="Vector" d="M117.875 197.147C160.558 198.146 195.974 164.176 196.978 121.272C197.983 78.3688 164.195 42.7787 121.512 41.7796C78.8283 40.7804 43.4124 74.7505 42.4081 117.654C41.4038 160.557 75.1914 196.147 117.875 197.147Z" fill="url(#paint0_linear_127_818)"/>
<g id="diamond">
<path id="Vector_49" d="M138.073 92.8447L134.192 97.9114L135.519 98.9276L139.4 93.8609L138.073 92.8447Z" fill="white"/>
<path id="Vector_50" d="M114.396 87.2339L115.217 93.547L116.88 93.3131L116.059 87L114.396 87.2339Z" fill="white"/>
<path id="Vector_51" d="M96.99 118.694L125.154 140.268L142.782 136.629L141.705 118.661L113.542 97.0873L95.9132 100.727L96.99 118.694ZM103.056 100.966L103.806 106.773L98.0039 107.56L97.6776 102.078L103.056 100.966ZM133.155 130.318L133.994 136.725L131.79 137.184L98.2398 111.484L98.1094 109.236L104.514 108.378L133.155 130.318ZM105.54 107.038L104.701 100.631L106.906 100.171L140.455 125.871L140.586 128.119L134.182 128.978L105.54 107.038V107.038ZM98.6137 117.811L98.3702 113.732L129.585 137.644L125.584 138.471L98.6137 117.811V117.811ZM135.626 136.38L134.876 130.573L140.678 129.785L141.004 135.267L135.626 136.38V136.38ZM140.068 119.534L140.312 123.613L109.11 99.712L113.112 98.885L140.082 119.544L140.068 119.534Z" fill="white"/>
<path id="Vector_52" d="M87.7058 122.087L87.9128 123.754L94.2221 122.904L94.015 121.237L87.7058 122.087Z" fill="white"/>
<path id="Vector_53" d="M121.808 144.034L122.629 150.347L124.292 150.113L123.471 143.8L121.808 144.034Z" fill="white"/>
<path id="Vector_54" d="M103.163 138.418L99.282 143.485L100.609 144.501L104.49 139.434L103.163 138.418Z" fill="white"/>
<path id="Vector_55" d="M144.476 114.451L144.683 116.118L150.992 115.268L150.785 113.601L144.476 114.451Z" fill="white"/>
</g>
</g>

</svg>
