<svg width="572" height="450" viewBox="0 0 572 450" fill="none" xmlns="http://www.w3.org/2000/svg">
<g opacity="0.2">
<mask id="mask0_127_1326" style="mask-type:alpha" maskUnits="userSpaceOnUse" x="100" y="89" width="337" height="349">
<path d="M426.246 378.832C473.432 323.433 351.376 125.733 267.552 94.0588C183.728 62.3851 169.879 208.732 122.693 264.131C75.5068 319.53 105.208 390.117 189.032 421.79C272.855 453.464 379.06 434.231 426.246 378.832Z" fill="url(#paint0_linear_127_1326)"/>
</mask>
<g mask="url(#mask0_127_1326)">
<path d="M211.606 132.232C209.475 133.049 208.813 134.597 209.231 136.135C213.626 152.662 213.658 169.595 209.561 186.092C205.762 201.352 198.762 216.142 190.753 230.631C182.855 244.904 173.99 258.941 166.501 273.305C158.935 287.816 152.999 302.671 150.51 317.993C148.077 333.08 149.03 348.675 154.831 363.437C159.65 375.693 167.869 387.388 178.664 397.856C188.639 407.517 200.613 416.232 213.919 423.925C225.691 430.733 238.453 436.807 251.807 442.158C261.825 446.168 272.192 449.797 282.848 452.972C288.514 454.664 294.263 456.371 300.176 457.658C300.765 457.88 301.419 457.999 302.081 457.992C302.118 458.006 302.157 457.989 302.205 457.991C302.404 457.985 302.621 457.987 302.83 457.97C303.78 457.912 304.679 457.657 305.455 457.26C305.533 457.225 305.611 457.191 305.671 457.149C305.78 457.078 305.879 457.019 305.988 456.948C306.186 456.83 306.366 456.705 306.508 456.566L306.529 456.542C306.659 456.447 306.781 456.332 306.874 456.223C306.925 456.162 306.948 456.107 307 456.046C307.052 455.985 307.093 455.937 307.127 455.869C307.222 455.728 307.309 455.569 307.376 455.433C307.386 455.421 307.407 455.397 307.417 455.385C307.448 455.348 307.424 455.291 307.437 455.248C307.477 455.086 307.535 454.932 307.547 454.776C307.556 454.651 307.547 454.519 307.537 454.387C307.532 454.336 307.536 454.274 307.512 454.217C307.357 453.227 306.549 452.376 305.353 451.779C305.208 451.693 305.063 451.606 304.908 451.531C305.282 451.72 305.511 451.823 305.693 451.924C305.556 451.856 305.419 451.788 305.274 451.701C304.591 451.331 303.919 450.949 303.247 450.566C300.761 449.113 298.395 447.577 296.099 445.987C294.515 444.875 292.952 443.738 291.439 442.572C290.562 441.888 289.684 441.203 288.836 440.513C288.408 440.159 287.988 439.824 287.578 439.476C287.319 439.266 286.404 438.454 286.394 438.467C282.587 435.021 278.905 431.543 275.599 427.854C273.613 425.642 271.726 423.372 269.964 421.069C269.005 419.824 268.085 418.561 267.194 417.293C266.765 416.682 266.347 416.058 265.919 415.447C265.706 415.125 265.501 414.823 265.288 414.502C265.176 414.347 265.075 414.181 264.981 414.033C264.965 413.995 264.88 413.866 264.803 413.757C264.702 413.59 264.406 413.109 264.355 413.026C264.152 412.692 263.939 412.371 263.755 412.044C263.315 411.332 262.904 410.615 262.482 409.91C261.644 408.437 260.834 406.959 260.063 405.464C258.474 402.359 257.048 399.203 255.814 396.024C253.001 388.812 251.254 382.148 250.195 375.134C248.927 366.708 248.704 358.227 249.366 349.792C250.13 340.095 252.082 330.575 254.982 321.027C258.244 310.283 261.887 299.635 264.296 288.777C268.394 270.451 270.365 251.851 269.136 233.294C268.206 218.927 265.375 204.565 260.162 190.571C256.239 180.034 250.898 169.732 244.012 159.873C239.515 153.438 234.295 147.195 228.165 141.363C225.185 138.519 222.033 135.562 218.334 133.105C218.199 133.006 218.046 132.9 217.901 132.813C216.268 131.731 213.599 131.493 211.614 132.252L211.606 132.232Z" fill="#117FFF"/>
<path d="M310.676 181.858C310.037 196.677 305.378 211.249 297.122 224.994C289.557 237.615 279.17 249.411 268.324 260.889C246.765 283.717 223.134 306.181 213.832 332.884C209.725 344.669 208.144 356.942 210.647 368.985C212.741 379.055 217.22 388.721 223.789 397.903C234.812 413.327 251.467 426.934 270.413 438.393C277.376 442.603 284.72 446.538 292.357 450.213C295.98 451.952 299.666 453.731 303.565 455.205C303.993 455.415 304.463 455.576 304.967 455.67C306.295 455.995 307.53 455.914 308.596 455.576C308.654 455.565 308.703 455.535 308.771 455.513C308.849 455.478 308.946 455.45 309.043 455.422C309.518 455.264 309.967 455.079 310.327 454.828C311.632 453.952 312.039 452.817 311.677 451.73C311.544 451.116 311.125 450.523 310.369 450.012C310.333 449.998 310.317 449.96 310.298 449.953C310.137 449.828 309.977 449.703 309.816 449.577C309.674 449.459 309.513 449.334 309.37 449.216C309.326 449.183 309.299 449.157 309.265 449.111C307.627 447.639 306.077 446.119 304.635 444.559C302.424 442.161 300.416 439.695 298.584 437.167C298.035 436.412 297.498 435.645 296.989 434.873C296.726 434.467 296.464 434.062 296.191 433.669L296.14 433.586L296.209 433.676C296.074 433.464 295.939 433.252 295.822 433.047C294.684 431.215 293.642 429.356 292.687 427.481C290.54 423.238 288.816 418.899 287.521 414.511C287.168 413.299 286.844 412.081 286.549 410.858C286.479 410.541 286.398 410.237 286.327 409.92C286.313 409.851 286.3 409.781 286.286 409.712C286.15 409.016 286.003 408.332 285.885 407.643C285.399 404.931 285.056 402.224 284.856 399.491C283.909 386.134 286.296 373.828 291.369 360.91C294.424 353.157 298.347 345.554 303.065 338.188C308.547 329.612 314.21 321.137 318.996 312.379C326.835 298.01 332.958 283.201 336.552 268.081C339.39 256.187 340.787 244.103 340.063 232.055C339.517 223.021 337.818 213.972 334.702 205.159C332.583 199.172 329.752 193.334 326.132 187.682C324.552 185.2 322.853 182.657 320.661 180.379C320.573 180.282 320.486 180.185 320.381 180.08C317.508 177.175 310.839 178.327 310.686 181.845L310.676 181.858Z" fill="#268AFF"/>
<path d="M266.088 289.217C268.397 278.733 269.983 268.17 270.719 257.561C268.882 259.572 267.027 261.576 265.144 263.555C243.444 286.509 219.64 309.09 210.391 335.988C206.307 347.86 204.787 360.23 207.406 372.382C209.598 382.542 214.204 392.302 220.925 401.581C232.205 417.167 249.181 430.938 268.466 442.55C275.553 446.816 283.025 450.805 290.792 454.534C294.477 456.299 298.226 458.104 302.188 459.602C302.624 459.815 303.101 459.979 303.612 460.075C303.932 460.164 304.246 460.201 304.55 460.251C304.587 460.265 304.645 460.255 304.693 460.257C304.922 460.278 305.142 460.28 305.344 460.276C305.468 460.274 305.612 460.28 305.747 460.266C305.747 460.266 305.795 460.268 305.824 460.263C306.219 460.234 306.627 460.161 306.997 460.074C307.095 460.046 307.183 460.031 307.28 460.003C307.682 459.879 308.076 459.736 308.442 459.567C308.521 459.532 308.6 459.497 308.661 459.455C308.771 459.384 308.871 459.324 308.982 459.253C309.153 459.139 309.295 459.031 309.436 458.922C309.499 458.849 309.599 458.789 309.651 458.728C309.714 458.654 309.803 458.607 309.866 458.534C310.033 458.338 310.163 458.127 310.255 457.903C310.297 457.854 310.32 457.798 310.343 457.742C310.542 457.218 310.552 456.655 310.388 456.123C310.337 455.893 310.217 455.685 310.078 455.471C309.696 454.905 309.099 454.388 308.31 454.009C308.163 453.921 308.015 453.833 307.858 453.757C308.237 453.949 308.47 454.053 308.655 454.155C308.515 454.087 308.376 454.018 308.229 453.93C307.536 453.554 306.853 453.167 306.17 452.779C303.645 451.307 301.241 449.75 298.907 448.139C297.298 447.013 295.709 445.861 294.17 444.681C293.279 443.987 292.387 443.294 291.524 442.595C291.089 442.236 290.662 441.897 290.245 441.545C289.982 441.332 289.051 440.511 289.041 440.523C285.169 437.035 281.424 433.514 278.058 429.779C276.037 427.541 274.115 425.244 272.321 422.913C271.344 421.653 270.406 420.375 269.498 419.092C269.061 418.474 268.635 417.843 268.199 417.224C267.982 416.899 267.773 416.593 267.555 416.268C267.442 416.112 267.338 415.943 267.243 415.794C267.227 415.755 267.14 415.625 267.061 415.514C266.958 415.346 266.656 414.859 266.604 414.775C266.397 414.437 266.18 414.112 265.992 413.782C265.544 413.062 265.124 412.336 264.694 411.623C263.838 410.133 263.012 408.638 262.225 407.126C260.602 403.985 259.145 400.794 257.882 397.578C255.002 390.286 253.207 383.548 252.107 376.457C250.789 367.94 250.53 359.369 251.169 350.846C251.906 341.048 253.849 331.429 256.752 321.785C260.017 310.933 263.669 300.178 266.069 289.21L266.088 289.217Z" fill="#10A9FF"/>
<path d="M384.391 243.328C379.82 254.11 372.642 264.169 363.084 273.411C354.782 281.439 344.38 288.935 333.625 295.97C311.995 310.126 288.375 323.154 271.659 340.216C255.705 356.501 247.116 375.699 250.742 395.202C253.591 410.492 262.532 425.036 274.915 438.043C279.415 442.776 284.393 447.297 289.733 451.626C292.336 453.725 294.992 455.876 297.938 457.776L297.994 457.797C298.32 458.084 298.728 458.304 299.168 458.487C299.28 458.529 299.411 458.579 299.524 458.621C299.618 458.657 299.73 458.699 299.824 458.735C300.7 459.017 301.59 459.107 302.474 459.031C303.267 459.003 304.058 458.859 304.742 458.609C306.102 458.09 306.917 457.25 307.178 456.333C307.559 455.477 307.417 454.538 306.546 453.668C306.494 453.582 306.413 453.503 306.362 453.418C306.275 453.287 306.197 453.175 306.11 453.044C305.304 451.69 304.556 450.325 303.907 448.933C302.874 446.739 302.046 444.508 301.355 442.263C301.153 441.596 300.971 440.937 300.807 440.285C300.718 439.924 300.629 439.562 300.54 439.201C300.502 439.071 300.474 438.93 300.445 438.788L300.407 438.658C300.106 437.119 299.835 435.573 299.671 434.019C299.257 430.371 299.211 426.698 299.521 423.044C299.893 418.676 300.509 415.564 301.965 410.885C305.316 400.166 310.895 390.88 318.84 381.406C329.167 369.078 343.285 358.559 355.031 346.865C365.258 336.663 374.302 325.899 381.477 314.593C391.417 298.905 398.11 282.137 398.483 265.015C398.606 259.979 398.09 254.964 396.916 249.995C396.409 247.853 395.841 245.638 394.809 243.559C394.757 243.474 394.716 243.377 394.683 243.299C392.951 240.005 385.901 239.866 384.418 243.355L384.391 243.328Z" fill="#ADFF00"/>
<path d="M324.613 301.746C305.619 313.767 286.07 325.48 271.64 340.209C255.686 356.494 247.096 375.692 250.722 395.195C253.571 410.486 262.513 425.029 274.895 438.036C279.395 442.77 284.374 447.29 289.714 451.62C292.316 453.718 294.973 455.869 297.918 457.769L297.974 457.79C298.3 458.077 298.708 458.297 299.148 458.48C299.261 458.522 299.392 458.572 299.505 458.614C299.598 458.65 299.711 458.692 299.805 458.728C300.681 459.01 301.571 459.1 302.454 459.024C303.247 458.996 304.039 458.852 304.723 458.603C306.083 458.083 306.897 457.244 307.158 456.326C307.286 456.03 307.337 455.737 307.331 455.424C305.777 454.017 304.294 452.555 302.91 451.064C300.651 448.621 298.6 446.108 296.727 443.531C296.167 442.762 295.617 441.981 295.097 441.194C294.829 440.781 294.56 440.368 294.281 439.968L294.23 439.883L294.3 439.975C294.162 439.758 294.024 439.542 293.904 439.333C292.741 437.467 291.676 435.573 290.699 433.663C288.502 429.341 286.737 424.919 285.41 420.45C285.048 419.215 284.716 417.975 284.413 416.729C284.34 416.407 284.257 416.097 284.185 415.774C284.171 415.703 284.157 415.632 284.143 415.561C284.002 414.853 283.852 414.156 283.73 413.454C283.231 410.692 282.876 407.935 282.668 405.151C281.681 391.548 284.095 379.016 289.247 365.864C292.349 357.97 296.337 350.23 301.137 342.732C306.713 334.002 312.474 325.374 317.34 316.458C319.986 311.605 322.404 306.699 324.632 301.753L324.613 301.746Z" fill="#04E9A4"/>
<path d="M403.458 350.428C396.266 350.399 388.823 351.537 381.95 352.793C364.136 356.063 347.452 361.907 332.74 369.25C323.256 373.979 314.081 379.102 307.003 385.461C301.124 390.733 296.977 396.854 294.377 403.168C289.597 414.69 289.935 426.901 292.729 438.646C294.229 444.95 296.386 451.356 299.761 457.353C299.812 457.438 299.872 457.543 299.924 457.628C300.018 457.778 300.124 457.916 300.229 458.055C300.238 458.074 300.265 458.101 300.292 458.127C300.354 458.2 300.424 458.292 300.486 458.365C301.124 459.13 302.131 459.724 303.373 460.013C303.657 460.087 303.943 460.13 304.24 460.16C304.403 460.173 304.566 460.185 304.739 460.185C304.865 460.183 304.988 460.213 305.113 460.212C305.151 460.226 305.191 460.208 305.22 460.203C305.423 460.197 305.636 460.18 305.861 460.15C305.967 460.141 306.103 460.127 306.21 460.118C306.298 460.102 306.365 460.111 306.453 460.095C306.658 460.058 306.866 459.989 307.063 459.932L307.122 459.921C307.359 459.847 307.577 459.765 307.806 459.671C307.915 459.631 308.034 459.578 308.125 459.53C308.215 459.482 308.305 459.434 308.385 459.399C309.148 458.998 309.738 458.451 310.053 457.848C310.106 457.786 310.102 457.703 310.147 457.621C310.183 457.52 310.238 457.427 310.256 457.318C310.368 456.984 310.364 456.638 310.284 456.296C310.147 454.622 310.273 452.931 310.455 451.262C310.496 450.835 310.556 450.415 310.627 449.983C310.664 449.735 310.702 449.486 310.75 449.226L310.755 449.162L310.787 449.125C310.989 447.955 311.229 446.8 311.517 445.647C312.23 442.801 313.18 439.996 314.284 437.216C315.687 433.762 317.348 430.357 319.274 427.019C319.518 426.586 319.781 426.161 320.015 425.741L320.046 425.704C320.178 425.491 320.301 425.259 320.433 425.047C321.056 424.053 321.688 423.078 322.349 422.098C323.747 420.02 325.231 417.957 326.798 415.943C330.19 411.552 333.969 407.291 338.064 403.182C342.931 398.283 347.555 394.194 353.129 389.775C368.645 377.44 386.734 366.569 406.154 356.988C408.076 356.042 409.269 354.64 408.581 353.003C407.941 351.482 405.744 350.423 403.383 350.399L403.458 350.428Z" fill="#FFF507"/>
<path d="M301.714 411.151C305.065 400.432 310.643 391.146 318.588 381.672C321.435 378.272 324.598 375.024 327.892 371.826C320.136 375.895 312.786 380.332 306.897 385.615C301.018 390.886 296.87 397.008 294.271 403.321C289.491 414.844 289.829 427.055 292.623 438.799C294.122 445.104 296.28 451.51 299.654 457.507C299.706 457.592 299.766 457.696 299.817 457.781C299.912 457.932 300.018 458.07 300.123 458.208C300.131 458.228 300.158 458.255 300.185 458.281C300.247 458.354 300.318 458.446 300.38 458.519C300.61 458.802 300.9 459.043 301.231 459.266C301.557 459.291 301.894 459.304 302.214 459.277C303.007 459.249 303.799 459.105 304.483 458.856C305.842 458.337 306.657 457.497 306.918 456.579C307.299 455.723 307.157 454.784 306.286 453.914C306.234 453.829 306.154 453.749 306.102 453.664C306.015 453.533 305.937 453.421 305.85 453.29C305.044 451.936 304.297 450.572 303.648 449.179C302.614 446.985 301.787 444.754 301.095 442.509C300.893 441.843 300.711 441.183 300.547 440.531C300.458 440.17 300.369 439.808 300.28 439.447C300.242 439.318 300.214 439.176 300.186 439.034L300.147 438.905C299.846 437.365 299.575 435.82 299.411 434.266C298.997 430.617 298.951 426.944 299.261 423.29C299.633 418.922 300.249 415.811 301.706 411.131L301.714 411.151Z" fill="#5FFF82"/>
</g>
</g>
<defs>
<linearGradient id="paint0_linear_127_1326" x1="217.859" y1="299.522" x2="377.081" y2="436.134" gradientUnits="userSpaceOnUse">
<stop stop-color="#83FF07"/>
<stop offset="1" stop-color="#1162FF"/>
</linearGradient>
</defs>
</svg>
