<svg width="239" height="237" viewBox="0 0 239 237" fill="white" xmlns="http://www.w3.org/2000/svg">
<g id="Name spinning around" clip-path="#clip0_127_820">
<path id="Vector" d="M143.003 29.0763C142.466 28.9042 142.286 28.5474 142.459 28.0048L145.455 18.5168C145.629 17.9689 145.982 17.7832 146.52 17.9499C147.058 18.1219 147.238 18.4788 147.065 19.0213L145.802 23.0136L151.926 24.9439L153.188 20.9516C153.362 20.4038 153.715 20.2181 154.253 20.3847C154.781 20.5497 154.955 20.9058 154.787 21.4545L151.79 30.9426C151.617 31.4905 151.269 31.6823 150.742 31.512C150.204 31.34 150.024 30.9831 150.198 30.4352L151.507 26.2859L145.383 24.3556L144.074 28.5049C143.901 29.0528 143.548 29.2384 143.01 29.0718L143.003 29.0763Z" fill="white"/>
<path id="Vector_2" d="M158.811 35.0185C158.312 34.7758 157.916 34.4672 157.62 34.0812C157.324 33.6952 157.142 33.2831 157.074 32.8452C157.006 32.4018 157.073 31.9742 157.277 31.5514C157.529 31.0268 157.864 30.6741 158.28 30.5038C158.696 30.3335 159.246 30.3266 159.927 30.4884C160.615 30.651 161.483 30.9899 162.532 31.4997L163.032 31.7423L163.218 31.3607C163.486 30.8057 163.562 30.3521 163.448 29.9946C163.334 29.6372 163.005 29.328 162.47 29.0687C162.159 28.9159 161.815 28.8017 161.439 28.7154C161.064 28.629 160.653 28.5919 160.201 28.6033C159.949 28.6021 159.773 28.5361 159.673 28.4054C159.573 28.2746 159.537 28.121 159.557 27.9545C159.584 27.7834 159.657 27.6359 159.792 27.5092C159.927 27.3825 160.106 27.323 160.329 27.336C160.854 27.3472 161.348 27.4084 161.808 27.5188C162.268 27.6293 162.689 27.7722 163.062 27.9511C164.035 28.4215 164.645 29.0048 164.888 29.6947C165.131 30.3846 165.016 31.2211 164.538 32.2033L162.721 35.9606C162.478 36.4593 162.133 36.5969 161.675 36.3716C161.206 36.1447 161.093 35.7818 161.335 35.2885L161.595 34.7487C161.22 35.0733 160.79 35.2633 160.31 35.3194C159.824 35.3747 159.325 35.2743 158.81 35.0238L158.811 35.0185ZM159.612 34.1088C160.137 34.361 160.664 34.389 161.199 34.1936C161.73 33.9921 162.13 33.6111 162.405 33.0462L162.598 32.6548L162.114 32.42C161.401 32.0725 160.828 31.8403 160.388 31.711C159.953 31.5825 159.606 31.5608 159.358 31.637C159.11 31.7131 158.917 31.8964 158.78 32.1762C158.601 32.548 158.583 32.9067 158.725 33.2577C158.868 33.6087 159.163 33.8959 159.612 34.1088V34.1088Z" fill="white"/>
<path id="Vector_3" d="M167.741 39.5747C167.285 39.2623 167.214 38.8786 167.527 38.4237L171.132 33.1613C171.445 32.7064 171.814 32.6273 172.245 32.9196C172.676 33.2118 172.732 33.5876 172.42 34.0425L169.077 38.919L171.583 40.6322L174.925 35.7558C175.238 35.3009 175.607 35.2218 176.038 35.5141C176.469 35.8063 176.525 36.1821 176.212 36.637L172.87 41.5135L175.376 43.2267L178.718 38.3502C179.031 37.8954 179.399 37.8163 179.831 38.1085C180.262 38.4008 180.318 38.7766 180.005 39.2315L176.4 44.4939C176.087 44.9487 175.703 45.0199 175.248 44.7075L167.736 39.5685L167.741 39.5747Z" fill="white"/>
<path id="Vector_4" d="M180.554 49.3252C180.15 48.966 180.142 48.5648 180.536 48.1172L184.734 43.375C185.121 42.9373 185.517 42.8953 185.926 43.2553C186.34 43.6216 186.354 44.0236 185.967 44.4614L181.769 49.2035C181.375 49.6511 180.969 49.6914 180.554 49.3252V49.3252ZM187.045 41.9958C186.804 41.7827 186.665 41.5527 186.642 41.3136C186.619 41.0745 186.699 40.846 186.893 40.6244C187.3 40.1624 187.761 40.1581 188.271 40.6106C188.781 41.0632 188.836 41.5208 188.423 41.982C188.017 42.444 187.555 42.4483 187.045 41.9958Z" fill="white"/>
<path id="Vector_5" d="M193.054 66.213C192.767 65.8447 192.813 65.5177 193.187 65.226L194.381 64.2958L190.674 59.5457C190.331 59.1085 190.381 58.7219 190.817 58.3851L195.853 54.459C196.29 54.1221 196.677 54.1666 197.015 54.6029C197.348 55.0277 197.299 55.4143 196.862 55.7511L192.201 59.3855L194.48 62.301L199.14 58.6667C199.577 58.3299 199.965 58.3743 200.302 58.8107C200.636 59.2355 200.586 59.6221 200.149 59.9589L195.489 63.5932L195.79 63.9801C196.109 64.3917 196.064 64.7516 195.656 65.0766L194.057 66.3264C193.682 66.6182 193.347 66.5821 193.065 66.2147L193.054 66.213Z" fill="white"/>
<path id="Vector_6" d="M198.06 70.0221C197.776 69.5612 197.886 69.1785 198.39 68.8633L203.768 65.5168C204.266 65.2061 204.654 65.2834 204.944 65.7451C205.238 66.213 205.133 66.6019 204.635 66.9126L199.257 70.2592C198.752 70.5744 198.354 70.4954 198.06 70.0275L198.06 70.0221ZM206.379 64.8473C206.208 64.574 206.144 64.3175 206.187 64.0778C206.23 63.8381 206.375 63.6472 206.625 63.4892C207.148 63.1604 207.594 63.2906 207.953 63.8673C208.312 64.444 208.23 64.8968 207.707 65.2255C207.184 65.5542 206.738 65.4241 206.379 64.8473Z" fill="white"/>
<path id="Vector_7" d="M201.596 76.1422C201.356 75.6444 201.48 75.2749 201.978 75.0354L207.824 72.2005C208.322 71.9609 208.692 72.0847 208.932 72.5825C209.168 73.0687 209.04 73.432 208.541 73.6769L206.304 74.761L208.028 78.3072L210.265 77.2231C210.764 76.9835 211.128 77.1065 211.364 77.5927C211.604 78.0905 211.48 78.4599 210.982 78.6995L205.137 81.5344C204.638 81.7739 204.269 81.6502 204.029 81.1524C203.792 80.6662 203.921 80.3029 204.42 80.058L206.859 78.8741L205.134 75.3279L202.695 76.5118C202.197 76.7513 201.832 76.6284 201.596 76.1422Z" fill="white"/>
<path id="Vector_8" d="M206.651 87.6057C206.476 87.0798 206.656 86.7355 207.177 86.5599L213.352 84.5324C213.878 84.3575 214.223 84.5376 214.399 85.0582C214.57 85.5726 214.39 85.9168 213.864 86.0863L211.506 86.861L212.743 90.6102L215.102 89.8355C215.628 89.6606 215.974 89.8353 216.145 90.3497C216.315 90.8749 216.14 91.2199 215.619 91.3956L209.445 93.4231C208.92 93.5926 208.574 93.4179 208.398 92.8973C208.227 92.3828 208.407 92.0386 208.932 91.8691L211.511 91.0194L210.274 87.2702L207.695 88.12C207.169 88.2895 206.823 88.1201 206.657 87.6065L206.651 87.6057Z" fill="white"/>
<path id="Vector_9" d="M210.577 102.25C210.432 101.46 210.467 100.748 210.687 100.114C210.908 99.4753 211.292 98.9495 211.836 98.52C212.38 98.0959 213.067 97.8038 213.898 97.6493C214.728 97.4947 215.475 97.5189 216.135 97.7209C216.794 97.9229 217.347 98.2781 217.781 98.7954C218.221 99.3082 218.514 99.9567 218.659 100.746C218.802 101.514 218.763 102.214 218.538 102.847C218.317 103.486 217.932 104.017 217.393 104.448C216.848 104.877 216.166 105.17 215.335 105.33C214.504 105.49 213.758 105.46 213.099 105.253C212.436 105.045 211.889 104.685 211.449 104.172C211.008 103.659 210.72 103.017 210.576 102.255L210.577 102.25ZM211.825 102.018C211.946 102.678 212.287 103.164 212.84 103.481C213.393 103.798 214.123 103.869 215.032 103.699C215.936 103.529 216.591 103.199 216.986 102.708C217.381 102.216 217.521 101.641 217.399 100.981C217.274 100.31 216.935 99.8184 216.387 99.5024C215.839 99.1863 215.11 99.1157 214.206 99.2808C213.303 99.4458 212.647 99.7811 212.241 100.276C211.84 100.772 211.699 101.352 211.824 102.024L211.825 102.018Z" fill="white"/>
<path id="Vector_10" d="M212.035 114.447C211.986 113.64 212.115 112.926 212.419 112.316C212.723 111.707 213.178 111.219 213.777 110.859C214.376 110.498 215.1 110.289 215.947 110.241C217.203 110.164 218.215 110.46 218.982 111.128C219.749 111.796 220.172 112.733 220.245 113.944C220.269 114.32 220.239 114.721 220.15 115.145C220.062 115.57 219.901 115.966 219.661 116.339C219.561 116.521 219.43 116.626 219.264 116.666C219.099 116.706 218.938 116.686 218.79 116.614C218.637 116.54 218.534 116.431 218.474 116.285C218.415 116.138 218.437 115.961 218.534 115.763C218.703 115.493 218.817 115.221 218.882 114.946C218.947 114.672 218.967 114.406 218.956 114.158C218.907 113.389 218.63 112.814 218.125 112.428C217.621 112.043 216.923 111.878 216.038 111.931C215.152 111.984 214.471 112.233 213.99 112.683C213.514 113.129 213.298 113.736 213.342 114.504C213.358 114.753 213.411 115.008 213.502 115.269C213.592 115.53 213.738 115.788 213.938 116.049C214.057 116.238 214.096 116.408 214.051 116.555C214.005 116.706 213.911 116.818 213.772 116.9C213.629 116.976 213.475 117.012 213.308 116.991C213.141 116.976 212.996 116.882 212.874 116.715C212.603 116.382 212.402 116.022 212.267 115.623C212.132 115.224 212.057 114.834 212.033 114.458L212.035 114.447Z" fill="white"/>
<path id="Vector_11" d="M212.065 124.109C212.091 123.56 212.384 123.299 212.934 123.325L218.824 123.63L218.94 121.424C218.966 120.946 219.199 120.72 219.644 120.746C220.074 120.77 220.282 121.016 220.256 121.494L219.943 127.541C219.918 128.019 219.691 128.241 219.255 128.222C218.81 128.196 218.602 127.95 218.626 127.477L218.742 125.272L212.852 124.966C212.302 124.94 212.04 124.653 212.064 124.114L212.065 124.109Z" fill="white"/>
<path id="Vector_12" d="M211.224 132.829C211.297 132.292 211.634 132.066 212.219 132.147L218.496 133.027C219.075 133.107 219.329 133.416 219.25 133.951C219.175 134.498 218.848 134.732 218.268 134.652L211.991 133.771C211.401 133.689 211.143 133.375 211.224 132.829ZM220.928 134.192C220.979 133.872 221.088 133.631 221.276 133.48C221.459 133.328 221.699 133.267 221.989 133.307C222.6 133.392 222.859 133.772 222.764 134.448C222.669 135.123 222.315 135.418 221.704 135.333C221.092 135.248 220.833 134.868 220.928 134.192V134.192Z" fill="white"/>
<path id="Vector_13" d="M202.782 160.491C203.051 159.997 203.436 159.887 203.941 160.158L212.692 164.911C213.197 165.188 213.313 165.567 213.044 166.062C212.774 166.556 212.39 166.666 211.884 166.395L208.201 164.393L205.135 170.025L208.818 172.027C209.323 172.303 209.439 172.683 209.169 173.177C208.907 173.662 208.523 173.766 208.017 173.495L199.266 168.742C198.761 168.466 198.639 168.091 198.908 167.601C199.177 167.107 199.562 166.997 200.068 167.269L203.892 169.348L206.958 163.716L203.134 161.637C202.629 161.36 202.513 160.98 202.782 160.486L202.782 160.491Z" fill="white"/>
<path id="Vector_14" d="M193.934 174.84C194.266 174.399 194.647 174.07 195.081 173.853C195.515 173.637 195.954 173.536 196.4 173.556C196.847 173.572 197.256 173.724 197.63 174.001C198.095 174.354 198.379 174.749 198.469 175.185C198.56 175.621 198.458 176.164 198.166 176.802C197.874 177.441 197.377 178.229 196.677 179.165L196.344 179.606L196.683 179.862C197.179 180.23 197.608 180.396 197.982 180.35C198.357 180.305 198.721 180.045 199.075 179.569C199.284 179.289 199.464 178.978 199.618 178.624C199.773 178.271 199.889 177.878 199.964 177.435C200.013 177.191 200.11 177.031 200.264 176.956C200.412 176.886 200.567 176.878 200.728 176.931C200.89 176.983 201.021 177.092 201.123 177.245C201.225 177.397 201.245 177.587 201.195 177.803C201.082 178.312 200.925 178.786 200.731 179.221C200.531 179.655 200.312 180.037 200.063 180.365C199.412 181.232 198.727 181.716 198.004 181.822C197.28 181.927 196.478 181.654 195.604 181.002L192.263 178.5C191.822 178.168 191.753 177.801 192.058 177.394C192.37 176.978 192.744 176.938 193.192 177.265L193.672 177.626C193.427 177.198 193.324 176.738 193.361 176.257C193.399 175.77 193.593 175.302 193.934 174.84V174.84ZM194.677 175.8C194.324 176.265 194.199 176.783 194.293 177.34C194.386 177.896 194.686 178.365 195.192 178.74L195.545 179.004L195.865 178.572C196.337 177.94 196.681 177.424 196.888 177.018C197.094 176.612 197.184 176.281 197.158 176.025C197.127 175.769 196.987 175.544 196.737 175.357C196.409 175.108 196.055 175.02 195.682 175.093C195.308 175.165 194.975 175.403 194.677 175.8V175.8Z" fill="white"/>
<path id="Vector_15" d="M187.743 182.742C188.138 182.355 188.527 182.356 188.915 182.751L193.401 187.289C193.788 187.684 193.801 188.059 193.43 188.428C193.06 188.797 192.679 188.781 192.291 188.386L188.137 184.179L185.977 186.311L190.131 190.517C190.518 190.912 190.531 191.287 190.16 191.656C189.791 192.02 189.409 192.009 189.021 191.614L184.867 187.407L182.707 189.539L186.861 193.745C187.248 194.14 187.261 194.515 186.89 194.884C186.521 195.248 186.139 195.237 185.751 194.842L181.265 190.304C180.877 189.909 180.878 189.52 181.273 189.133L187.747 182.749L187.743 182.742Z" fill="white"/>
<path id="Vector_16" d="M175.726 193.455C176.157 193.123 176.551 193.196 176.915 193.669L180.783 198.686C181.139 199.147 181.103 199.547 180.674 199.874C180.237 200.21 179.841 200.148 179.48 199.686L175.612 194.67C175.248 194.196 175.284 193.791 175.726 193.455ZM181.703 201.213C181.958 201.017 182.208 200.925 182.452 200.947C182.69 200.968 182.9 201.094 183.078 201.324C183.457 201.811 183.375 202.264 182.832 202.683C182.289 203.101 181.835 203.063 181.457 202.571C181.079 202.079 181.16 201.632 181.703 201.213Z" fill="white"/>
<path id="Vector_17" d="M156.769 202.521C157.185 202.312 157.498 202.416 157.717 202.839L158.405 204.185L163.775 201.445C164.269 201.194 164.64 201.313 164.892 201.807L167.8 207.489C168.051 207.983 167.933 208.353 167.438 208.604C166.955 208.852 166.591 208.729 166.339 208.234L163.645 202.97L160.349 204.654L163.043 209.919C163.294 210.413 163.176 210.784 162.682 211.035C162.199 211.282 161.834 211.159 161.583 210.665L158.889 205.4L158.453 205.622C157.989 205.856 157.639 205.746 157.405 205.282L156.482 203.478C156.263 203.055 156.362 202.736 156.78 202.522L156.769 202.521Z" fill="white"/>
<path id="Vector_18" d="M152.075 206.714C152.583 206.52 152.938 206.701 153.153 207.255L155.422 213.166C155.632 213.714 155.482 214.079 154.979 214.274C154.466 214.473 154.099 214.295 153.893 213.753L151.624 207.843C151.409 207.289 151.562 206.913 152.075 206.714ZM155.587 215.854C155.89 215.737 156.156 215.724 156.378 215.808C156.601 215.892 156.769 216.078 156.874 216.352C157.096 216.929 156.889 217.34 156.248 217.579C155.612 217.824 155.183 217.658 154.961 217.081C154.739 216.504 154.946 216.093 155.587 215.854Z" fill="white"/>
<path id="Vector_19" d="M145.393 209.012C145.925 208.871 146.267 209.067 146.408 209.599L148.083 215.876C148.224 216.407 148.028 216.749 147.496 216.89C146.975 217.028 146.638 216.832 146.497 216.301L145.854 213.899L142.037 214.916L142.68 217.318C142.822 217.849 142.632 218.187 142.11 218.329C141.578 218.47 141.236 218.274 141.095 217.743L139.42 211.466C139.279 210.934 139.475 210.592 140.007 210.451C140.533 210.315 140.865 210.509 141.006 211.041L141.708 213.66L145.525 212.643L144.823 210.024C144.681 209.492 144.871 209.155 145.393 209.012V209.012Z" fill="white"/>
<path id="Vector_20" d="M133.17 211.778C133.718 211.71 134.026 211.95 134.094 212.492L134.909 218.936C134.977 219.483 134.737 219.791 134.194 219.859C133.657 219.928 133.354 219.689 133.281 219.141L132.972 216.676L129.056 217.168L129.366 219.633C129.434 220.18 129.204 220.489 128.662 220.557C128.114 220.625 127.806 220.385 127.738 219.837L126.924 213.394C126.856 212.846 127.096 212.539 127.639 212.471C128.176 212.402 128.478 212.641 128.551 213.189L128.892 215.877L132.807 215.385L132.467 212.697C132.399 212.15 132.634 211.841 133.171 211.772L133.17 211.778Z" fill="white"/>
<path id="Vector_21" d="M118.054 212.818C118.854 212.823 119.55 212.998 120.128 213.335C120.711 213.673 121.162 214.155 121.477 214.769C121.792 215.382 121.946 216.113 121.94 216.956C121.934 217.798 121.77 218.528 121.444 219.135C121.119 219.741 120.667 220.212 120.077 220.547C119.488 220.876 118.793 221.041 117.993 221.036C117.216 221.029 116.53 220.856 115.947 220.518C115.364 220.18 114.913 219.698 114.592 219.089C114.272 218.475 114.118 217.744 114.119 216.901C114.119 216.057 114.294 215.329 114.619 214.722C114.945 214.116 115.409 213.641 115.998 213.312C116.587 212.982 117.27 212.821 118.048 212.823L118.054 212.818ZM118.043 214.082C117.369 214.075 116.827 214.318 116.411 214.801C115.995 215.283 115.787 215.985 115.779 216.909C115.771 217.828 115.973 218.534 116.38 219.014C116.787 219.499 117.33 219.743 117.998 219.75C118.682 219.753 119.23 219.516 119.644 219.038C120.059 218.561 120.268 217.86 120.275 216.941C120.282 216.022 120.08 215.316 119.675 214.825C119.269 214.335 118.721 214.09 118.037 214.081L118.043 214.082Z" fill="white"/>
<path id="Vector_22" d="M105.776 211.922C106.582 212.026 107.254 212.285 107.798 212.699C108.342 213.113 108.729 213.65 108.971 214.307C109.214 214.964 109.277 215.714 109.173 216.552C109.01 217.797 108.529 218.735 107.723 219.359C106.918 219.983 105.916 220.22 104.712 220.064C104.336 220.016 103.947 219.906 103.551 219.74C103.15 219.572 102.792 219.336 102.472 219.033C102.317 218.905 102.231 218.755 102.23 218.585C102.229 218.415 102.27 218.262 102.373 218.13C102.47 217.998 102.599 217.914 102.757 217.884C102.915 217.854 103.082 217.908 103.259 218.039C103.493 218.257 103.742 218.422 103.997 218.539C104.253 218.656 104.51 218.729 104.757 218.762C105.521 218.86 106.138 218.699 106.616 218.276C107.093 217.852 107.387 217.203 107.503 216.323C107.62 215.443 107.501 214.728 107.155 214.176C106.809 213.623 106.251 213.294 105.488 213.196C105.241 213.163 104.983 213.166 104.707 213.211C104.433 213.25 104.154 213.349 103.857 213.494C103.652 213.577 103.476 213.582 103.34 213.506C103.203 213.435 103.105 213.321 103.059 213.166C103.006 213.01 103.009 212.851 103.057 212.689C103.104 212.527 103.222 212.403 103.411 212.317C103.788 212.114 104.181 211.989 104.601 211.934C105.015 211.879 105.416 211.876 105.792 211.924L105.776 211.922Z" fill="white"/>
<path id="Vector_23" d="M77.1684 203.27C77.6635 203.539 77.7723 203.929 77.4966 204.428L72.7009 213.151C72.4243 213.656 72.039 213.771 71.5439 213.501C71.0488 213.232 70.94 212.842 71.2165 212.338L73.2346 208.667L67.6059 205.576L65.5878 209.247C65.3113 209.752 64.9259 209.866 64.4317 209.592C63.9473 209.324 63.843 208.941 64.1187 208.442L68.9144 199.718C69.191 199.213 69.571 199.098 70.0562 199.36C70.5513 199.63 70.6601 200.019 70.3836 200.524L68.2885 204.336L73.9172 207.427L76.0123 203.614C76.2888 203.11 76.6742 202.995 77.1684 203.27V203.27Z" fill="white"/>
<path id="Vector_24" d="M62.8454 194.367C63.2868 194.699 63.6155 195.085 63.8272 195.518C64.0442 195.952 64.1394 196.394 64.1241 196.841C64.1035 197.287 63.9569 197.697 63.6738 198.068C63.3212 198.533 62.9267 198.811 62.4849 198.901C62.0432 198.99 61.5061 198.884 60.8665 198.592C60.227 198.3 59.4393 197.798 58.5081 197.094L58.0668 196.761L57.8109 197.099C57.4381 197.588 57.2766 198.023 57.3167 198.396C57.3622 198.771 57.6231 199.135 58.0986 199.494C58.3731 199.702 58.6892 199.888 59.038 200.041C59.3868 200.195 59.7851 200.312 60.2276 200.392C60.4721 200.442 60.6316 200.543 60.7069 200.692C60.7823 200.841 60.7856 200.995 60.7328 201.156C60.68 201.318 60.5718 201.449 60.4133 201.55C60.2549 201.651 60.0708 201.672 59.8547 201.616C59.346 201.503 58.8716 201.346 58.4369 201.147C58.0022 200.947 57.6206 200.723 57.2923 200.474C56.4293 199.824 55.9453 199.134 55.8395 198.411C55.7336 197.688 56.0127 196.888 56.6704 196.016L59.1886 192.687C59.521 192.246 59.8935 192.178 60.2999 192.489C60.717 192.801 60.7563 193.179 60.4239 193.62L60.0635 194.1C60.4912 193.855 60.9515 193.752 61.4382 193.796C61.9248 193.839 62.3942 194.028 62.8544 194.379L62.8454 194.367ZM61.8801 195.103C61.4145 194.751 60.9029 194.621 60.3401 194.713C59.7827 194.807 59.3136 195.106 58.9337 195.605L58.6708 195.952L59.0969 196.277C59.7293 196.754 60.2456 197.098 60.6511 197.309C61.0565 197.521 61.3878 197.611 61.6449 197.58C61.9019 197.549 62.1259 197.415 62.3194 197.16C62.5682 196.832 62.6557 196.484 62.5826 196.111C62.5096 195.739 62.2774 195.401 61.8801 195.103V195.103Z" fill="white"/>
<path id="Vector_25" d="M54.9707 188.152C55.3584 188.547 55.3523 188.935 54.9571 189.322L50.3962 193.789C50.001 194.176 49.6217 194.182 49.2575 193.813C48.8932 193.443 48.9092 193.062 49.3044 192.675L53.5283 188.539L51.4012 186.371L47.1773 190.506C46.7821 190.893 46.4028 190.9 46.0385 190.53C45.6743 190.161 45.6902 189.78 46.0854 189.393L50.3093 185.257L48.1822 183.088L43.9583 187.224C43.5631 187.611 43.1838 187.617 42.8195 187.248C42.4553 186.879 42.4712 186.498 42.8664 186.111L47.4273 181.644C47.8225 181.257 48.2109 181.263 48.5985 181.658L54.9646 188.157L54.9707 188.152Z" fill="white"/>
<path id="Vector_26" d="M36.4981 182.038C36.6938 182.294 36.7862 182.544 36.7645 182.787C36.7428 183.03 36.6174 183.235 36.3867 183.412C35.8952 183.784 35.442 183.702 35.028 183.161C34.614 182.619 34.6532 182.16 35.1447 181.788C35.6363 181.416 36.0894 181.498 36.5034 182.039L36.4981 182.038ZM44.2836 176.101C44.611 176.53 44.5383 176.924 44.0644 177.288L39.0264 181.126C38.5596 181.48 38.1648 181.445 37.8382 181.011C37.5018 180.569 37.5692 180.174 38.0306 179.819L43.0687 175.981C43.5416 175.623 43.9472 175.659 44.2836 176.101V176.101Z" fill="white"/>
<path id="Vector_27" d="M35.2819 157.116C35.4908 157.532 35.3869 157.845 34.958 158.062L33.6119 158.744L36.3328 164.117C36.5842 164.611 36.4604 164.981 35.966 165.232L30.2668 168.112C29.7723 168.363 29.4024 168.239 29.1509 167.745C28.9085 167.263 29.0314 166.899 29.5259 166.648L34.8024 163.981L33.1274 160.678L27.851 163.345C27.3565 163.596 26.9866 163.472 26.7351 162.978C26.4927 162.496 26.6165 162.127 27.1101 161.881L32.3866 159.214L32.1642 158.78C31.93 158.316 32.045 157.967 32.5094 157.733L34.3199 156.817C34.7426 156.604 35.0615 156.704 35.2757 157.121L35.2819 157.116Z" fill="white"/>
<path id="Vector_28" d="M21.9396 155.872C22.0565 156.175 22.0697 156.44 21.9801 156.661C21.8897 156.888 21.7105 157.052 21.4372 157.151C20.8604 157.368 20.4488 157.161 20.2093 156.52C19.9689 155.886 20.1349 155.457 20.7125 155.235C21.2892 155.019 21.7009 155.226 21.9404 155.866L21.9396 155.872ZM31.1026 152.407C31.2972 152.914 31.1092 153.274 30.5555 153.482L24.6275 155.724C24.0792 155.934 23.7082 155.782 23.5189 155.276C23.326 154.758 23.498 154.396 24.0455 154.192L29.9734 151.951C30.5325 151.742 30.9089 151.895 31.1026 152.407Z" fill="white"/>
<path id="Vector_29" d="M28.8276 145.729C28.969 146.261 28.7728 146.602 28.2362 146.737L21.9463 148.385C21.4142 148.526 21.0721 148.33 20.9369 147.794C20.8 147.268 20.9999 146.938 21.532 146.797L23.9392 146.167L22.937 142.351L20.5297 142.981C19.9976 143.122 19.6601 142.932 19.5232 142.407C19.3818 141.875 19.578 141.533 20.1146 141.398L26.4045 139.751C26.9366 139.61 27.2787 139.806 27.4139 140.342C27.5507 140.867 27.3509 141.197 26.8188 141.338L24.194 142.028L25.1962 145.844L27.8211 145.155C28.3531 145.014 28.6899 145.209 28.8276 145.729Z" fill="white"/>
<path id="Vector_30" d="M26.1072 133.503C26.1748 134.051 25.9347 134.358 25.3868 134.426L18.9362 135.21C18.3883 135.277 18.0805 135.037 18.0129 134.49C17.9489 133.954 18.1882 133.652 18.7361 133.585L21.2063 133.288L20.7294 129.373L18.2584 129.675C17.7105 129.743 17.4019 129.508 17.3379 128.972C17.2703 128.425 17.5104 128.117 18.0584 128.05L24.5089 127.266C25.0569 127.198 25.3646 127.438 25.4323 127.986C25.4962 128.521 25.2569 128.824 24.709 128.891L22.0147 129.219L22.4916 133.133L25.1859 132.806C25.7338 132.738 26.0424 132.973 26.1064 133.509L26.1072 133.503Z" fill="white"/>
<path id="Vector_31" d="M25.1222 118.395C25.1121 119.193 24.9372 119.889 24.5945 120.465C24.2511 121.046 23.7754 121.492 23.1559 121.806C22.5418 122.12 21.8113 122.268 20.9625 122.261C20.1138 122.254 19.3898 122.08 18.7829 121.755C18.176 121.43 17.7049 120.972 17.3751 120.384C17.0452 119.795 16.8854 119.102 16.8963 118.298C16.903 117.522 17.0816 116.838 17.4243 116.261C17.7677 115.68 18.2496 115.23 18.8637 114.915C19.4786 114.595 20.2101 114.442 21.0526 114.453C21.8952 114.465 22.6253 114.634 23.2314 114.965C23.8375 115.296 24.3077 115.758 24.6375 116.347C24.9674 116.936 25.1289 117.618 25.116 118.399L25.1222 118.395ZM23.8522 118.382C23.859 117.709 23.6205 117.168 23.1382 116.747C22.6551 116.332 21.9539 116.118 21.0348 116.105C20.1156 116.092 19.4096 116.294 18.9237 116.699C18.4378 117.105 18.1892 117.641 18.1824 118.314C18.1738 118.997 18.4116 119.544 18.8885 119.964C19.3663 120.378 20.0666 120.598 20.9866 120.605C21.9057 120.618 22.6117 120.417 23.1083 120.013C23.5995 119.608 23.8498 119.061 23.8575 118.383L23.8522 118.382Z" fill="white"/>
<path id="Vector_32" d="M26.0706 106.132C25.9609 106.936 25.702 107.607 25.2833 108.144C24.8646 108.681 24.326 109.073 23.6693 109.31C23.0126 109.546 22.2617 109.615 21.4243 109.5C20.1786 109.332 19.246 108.846 18.6211 108.041C17.9962 107.236 17.7638 106.236 17.925 105.034C17.973 104.658 18.0832 104.27 18.2549 103.875C18.4211 103.48 18.659 103.117 18.9667 102.798C19.0952 102.643 19.2449 102.563 19.4158 102.557C19.5868 102.551 19.7378 102.602 19.8705 102.699C20.0032 102.797 20.0865 102.93 20.112 103.082C20.1375 103.234 20.0884 103.407 19.9565 103.584C19.7388 103.818 19.5746 104.061 19.4569 104.321C19.3401 104.577 19.2677 104.829 19.2345 105.075C19.1314 105.837 19.2923 106.454 19.7164 106.931C20.1405 107.409 20.7899 107.708 21.6708 107.824C22.5518 107.94 23.2712 107.829 23.8244 107.483C24.3777 107.137 24.7062 106.58 24.8093 105.819C24.8479 105.573 24.8391 105.314 24.8 105.039C24.7608 104.765 24.6681 104.482 24.5219 104.19C24.4398 103.98 24.439 103.81 24.5098 103.674C24.5806 103.537 24.6946 103.44 24.85 103.393C25.0062 103.341 25.1647 103.344 25.3273 103.391C25.4898 103.439 25.6138 103.557 25.6994 103.745C25.898 104.122 26.0275 104.52 26.0831 104.934C26.1379 105.353 26.1364 105.747 26.0884 106.123L26.0706 106.132Z" fill="white"/>
<path id="Vector_33" d="M27.9006 96.6357C27.7669 97.1734 27.434 97.3732 26.8957 97.2394L21.1708 95.8098L20.6376 97.95C20.521 98.4138 20.2466 98.5898 19.8191 98.4844C19.3968 98.3798 19.2436 98.0983 19.3602 97.6346L20.8253 91.7569C20.9419 91.2932 21.211 91.1163 21.6278 91.2201C22.0608 91.3263 22.2185 91.614 22.1027 92.0724L21.5695 94.2126L27.2943 95.6422C27.8326 95.776 28.0335 96.1033 27.9014 96.6304L27.9006 96.6357Z" fill="white"/>
<path id="Vector_34" d="M21.1474 85.0208C21.039 85.3269 20.8799 85.5375 20.6646 85.6516C20.4546 85.7666 20.2063 85.7769 19.931 85.6789C19.3493 85.4726 19.1689 85.0499 19.396 84.4063C19.6231 83.7628 20.0244 83.5464 20.607 83.7473C21.1887 83.9536 21.3691 84.3763 21.142 85.0199L21.1474 85.0208ZM30.3923 88.268C30.2137 88.7768 29.843 88.9378 29.2819 88.7402L23.3003 86.6403C22.7499 86.4444 22.5639 86.0921 22.7424 85.5833C22.9226 85.0638 23.2942 84.8975 23.8446 85.0934L29.8262 87.1932C30.3873 87.3908 30.5778 87.7494 30.3923 88.268V88.268Z" fill="white"/>
<path id="Vector_35" d="M33.6988 80.1596C33.4667 80.66 33.1002 80.7942 32.5993 80.5623L27.241 78.0892L26.3129 80.0908C26.1131 80.525 25.8142 80.6479 25.4108 80.4586C25.0172 80.2764 24.9225 79.9712 25.1222 79.5369L27.6623 74.0416C27.862 73.6074 28.161 73.4845 28.5492 73.6659C28.9535 73.8498 29.0527 74.1612 28.853 74.5954L27.9248 76.597L33.283 79.0701C33.784 79.3021 33.9246 79.6637 33.6942 80.1534L33.6988 80.1596Z" fill="white"/>
<path id="Vector_36" d="M29.2448 67.4867C29.0801 67.7676 28.8823 67.9447 28.6568 68.0189C28.426 68.0923 28.1852 68.0545 27.9344 67.9056C27.4016 67.5974 27.3028 67.1437 27.6471 66.5568C27.9914 65.97 28.43 65.8306 28.9628 66.1388C29.4957 66.447 29.5944 66.9007 29.2501 67.4876L29.2448 67.4867ZM37.7169 72.4094C37.4462 72.8763 37.049 72.9619 36.5367 72.6624L31.0594 69.4805C30.5516 69.1872 30.4357 68.8075 30.7072 68.3352C30.9849 67.8584 31.3776 67.7666 31.8801 68.0591L37.3574 71.241C37.875 71.5414 37.99 71.9264 37.7123 72.4032L37.7169 72.4094Z" fill="white"/>
<g id="ROCKET">
<g id="Frame" clip-path="#clip1_127_820">
<path id="Vector_37" d="M76.9171 38.4732L71.6843 25.1429L80.4583 21.6953C83.4675 20.5129 86.3409 20.5557 89.2447 21.8213C90.501 22.3688 91.7757 23.1497 93.1545 24.2088L93.3183 24.3328L93.2827 24.5351C92.6595 28.2748 91.2318 32.8432 85.6938 35.0193L76.9135 38.4642L76.9171 38.4732ZM72.5744 25.5308L77.3078 37.5768L85.4472 34.3785C90.5593 32.3698 91.9558 28.1484 92.5751 24.6248C91.3032 23.6649 90.1276 22.9497 88.9724 22.4462C86.2453 21.2577 83.5418 21.2213 80.7139 22.3325L72.5744 25.5308Z" fill="white"/>
<path id="Vector_38" d="M87.9522 21.1904L87.3113 21.4422L90.8874 30.5433L91.5283 30.2915L87.9522 21.1904Z" fill="white"/>
<path id="Vector_39" d="M81.0271 31.7311C80.2001 31.3707 79.5639 30.7104 79.239 29.8702C78.9141 29.03 78.9305 28.1132 79.2882 27.2925C79.6459 26.4719 80.309 25.8294 81.1428 25.5017C81.9767 25.1741 82.8998 25.1933 83.7205 25.5509C84.5411 25.9086 85.1836 26.5717 85.5113 27.4056C85.8425 28.2485 85.8261 29.1653 85.4684 29.986C85.1107 30.8066 84.4476 31.4491 83.6074 31.774C82.7645 32.1052 81.8477 32.0888 81.0271 31.7311ZM83.4481 26.1759C82.7916 25.8898 82.0601 25.879 81.3922 26.1362C80.7214 26.3998 80.1993 26.9084 79.9132 27.5649C79.627 28.2214 79.6162 28.9529 79.8735 29.6209C80.397 30.9533 82.0194 31.6603 83.3518 31.1368C84.0226 30.8732 84.5447 30.3646 84.8308 29.7081C85.1169 29.0516 85.1277 28.3201 84.8705 27.6521C84.6069 26.9814 84.0983 26.4593 83.4418 26.1731L83.4481 26.1759Z" fill="white"/>
<path id="Vector_40" d="M83.5876 28.5277L83.4629 28.2105C83.2278 27.6123 82.5461 27.3151 81.9478 27.5502L81.6306 27.6748L81.3777 27.0313L81.695 26.9066C82.6467 26.5327 83.7262 27.0031 84.1064 27.9576L84.2311 28.2748L83.5876 28.5277Z" fill="white"/>
<path id="Vector_41" d="M73.2682 37.469L69.6924 28.3687L73.1549 27.0082L76.7307 36.1085L73.2682 37.469V37.469ZM70.5825 28.7567L73.6526 36.5698L75.828 35.715L72.767 27.8983L70.5916 28.7531L70.5825 28.7567Z" fill="white"/>
<path id="Vector_42" d="M73.5544 30.1061L71.5034 30.912L71.7553 31.5529L73.8062 30.747L73.5544 30.1061Z" fill="white"/>
<path id="Vector_43" d="M74.6608 32.9245L72.6099 33.7304L72.8617 34.3713L74.9126 33.5654L74.6608 32.9245Z" fill="white"/>
<path id="Vector_44" d="M72.0033 25.7552L69.779 22.6374L72.6522 21.5084C73.4136 21.2092 74.2686 21.2814 74.9793 21.7188L77.8196 23.475L71.9915 25.7651L72.0033 25.7552ZM70.8503 22.9541L72.249 24.9158L76.2915 23.3273L74.6213 22.2989C74.1016 21.9748 73.4698 21.9248 72.9015 22.1429L70.844 22.9513L70.8503 22.9541Z" fill="white"/>
<path id="Vector_45" d="M77.2334 41.6083L76.7403 37.8103L82.5684 35.5202L81.6834 38.7401C81.4661 39.5318 80.8834 40.1793 80.122 40.4785L77.2488 41.6075L77.2334 41.6083ZM77.4944 38.2516L77.8053 40.6406L79.8628 39.8322C80.4248 39.6114 80.8591 39.1321 81.0163 38.5471L81.5397 36.6568L77.4971 38.2453L77.4944 38.2516Z" fill="white"/>
<path id="Vector_46" d="M68.0862 36.5702C67.4549 36.2951 66.7812 35.8587 65.9618 35.2913L65.7728 35.1563L65.8194 34.9287C66.398 32.2739 66.8573 31.0994 69.1505 30.1983L69.4677 30.0736L69.7206 30.7172L69.4033 30.8418C67.5362 31.5755 67.1011 32.3324 66.5432 34.8536C68.6682 36.3206 69.5021 36.5788 71.3693 35.8451L71.6866 35.7205L71.9394 36.364L71.6222 36.4887C70.172 37.0585 69.1846 37.0489 68.0862 36.5702Z" fill="white"/>
<path id="Vector_47" d="M70.589 32.9031L67.833 33.986L68.0848 34.6269L70.8408 33.544L70.589 32.9031Z" fill="white"/>
</g>
</g>
</g>
<defs>
<clipPath id="clip0_127_820">
<rect width="208.693" height="206.179" fill="white" transform="translate(32.6045 0.053421) rotate(8.91758)"/>
</clipPath>
<clipPath id="clip1_127_820">
<rect width="23" height="23" fill="white" transform="translate(73.2097 14.7654) rotate(23.5484)"/>
</clipPath>
</defs>
</svg>
