<svg width="240" height="238" viewBox="0 0 240 238" fill="none" xmlns="http://www.w3.org/2000/svg">
<path d="M118.448 196.729C161.131 197.729 196.547 163.758 197.552 120.855C198.556 77.9516 164.768 42.3615 122.085 41.3623C79.4016 40.3632 43.9857 74.3333 42.9813 117.237C41.977 160.14 75.7646 195.73 118.448 196.729Z" fill="url(#paint0_linear_127_714)"/>
<g clip-path="url(#clip0_127_714)">
<path d="M128.231 27.3224C127.64 27.2204 127.392 26.8716 127.5 26.276L129.194 16.719C129.291 16.1609 129.614 15.9248 130.151 16.0214C130.689 16.118 130.915 16.4454 130.813 17.0034L129.21 26.0721L133.911 26.8985L135.514 17.8298C135.611 17.2717 135.928 17.0356 136.455 17.1268C136.993 17.2234 137.219 17.5508 137.117 18.1088L135.514 27.1775L140.215 28.0039L141.818 18.9352C141.915 18.3771 142.232 18.141 142.759 18.2323C143.297 18.3288 143.523 18.6562 143.421 19.2142L141.726 28.7712C141.624 29.3615 141.28 29.6083 140.694 29.5064L128.221 27.3063L128.231 27.3224Z" fill="white"/>
<path d="M152.398 33.5631C151.892 33.3807 151.731 33.0319 151.919 32.5168L153.92 27.0219L151.236 26.0506L150.913 26.9414C150.365 28.4439 149.773 29.5493 149.138 30.2576C148.504 30.966 147.729 31.3577 146.82 31.4382C146.573 31.4543 146.379 31.3952 146.228 31.2665C146.078 31.1377 145.992 30.9821 145.97 30.805C145.943 30.6225 145.986 30.4562 146.094 30.3006C146.201 30.1449 146.379 30.043 146.626 29.9947C147.288 29.882 147.826 29.5386 148.24 28.9805C148.654 28.4171 149.079 27.5531 149.504 26.3833L149.945 25.1706C150.155 24.5964 150.547 24.414 151.123 24.6233L155.039 26.0399C155.614 26.2492 155.797 26.6409 155.587 27.2151L153.457 33.0695C153.269 33.5846 152.919 33.7456 152.403 33.5631H152.398Z" fill="white"/>
<path d="M163.031 38.5751C162.585 38.3443 162.477 37.9955 162.714 37.5394L163.73 35.5808L162.827 35.114C162.493 34.9422 162.16 34.8778 161.826 34.9208C161.493 34.9637 161.186 35.0871 160.907 35.2803L159.454 36.2194C159.207 36.3696 158.981 36.4179 158.771 36.3589C158.567 36.2999 158.406 36.1818 158.293 36.0047C158.18 35.8276 158.137 35.6345 158.169 35.4252C158.201 35.2159 158.325 35.0442 158.54 34.8993L159.616 34.2232C159.831 34.089 160.068 33.9924 160.326 33.928C160.584 33.8637 160.837 33.8476 161.089 33.8798C160.546 33.4773 160.207 33.0212 160.073 32.5114C159.938 32.0016 160.019 31.465 160.31 30.9016C160.648 30.2523 161.132 29.8498 161.773 29.6942C162.413 29.5386 163.166 29.6781 164.037 30.1289L166.629 31.4704C167.124 31.728 167.248 32.1036 166.99 32.5973L164.058 38.2424C163.946 38.4624 163.795 38.5965 163.607 38.6556C163.418 38.7092 163.225 38.6878 163.026 38.5804L163.031 38.5751ZM162.552 33.7241L164.241 34.5988L165.516 32.1411L163.827 31.2665C163.3 30.9928 162.859 30.9016 162.499 30.9874C162.138 31.0733 161.859 31.3094 161.665 31.6904C161.461 32.0821 161.428 32.4524 161.563 32.7958C161.697 33.1392 162.025 33.4505 162.552 33.7241Z" fill="white"/>
<path d="M168.517 41.8108C168.281 41.6445 168.173 41.4298 168.205 41.1669C168.238 40.904 168.437 40.7161 168.802 40.5981L172.497 39.5034L172.229 35.9511C172.191 35.5701 172.293 35.3232 172.53 35.1998C172.766 35.0764 173.003 35.0979 173.234 35.2535C173.401 35.3715 173.519 35.495 173.595 35.6291C173.665 35.7633 173.702 35.9296 173.708 36.1281L173.896 39.1117L176.773 38.237C176.962 38.1726 177.128 38.1458 177.274 38.1619C177.419 38.178 177.575 38.2424 177.747 38.3604C177.978 38.5161 178.08 38.7307 178.048 38.999C178.021 39.2673 177.817 39.4551 177.446 39.5624L174.025 40.5713L174.321 44.3919C174.348 44.7622 174.246 45.0144 174.009 45.1432C173.767 45.272 173.53 45.2559 173.293 45.0895C173.003 44.8856 172.842 44.5958 172.82 44.2148L172.594 40.9684L169.485 41.9182C169.303 41.9772 169.136 41.9986 168.985 41.9879C168.835 41.9772 168.679 41.9128 168.512 41.7947L168.517 41.8108Z" fill="white"/>
<path d="M178.247 49.0389C177.871 48.7009 177.876 48.3145 178.269 47.8852L182.577 43.1148C182.932 42.723 183.292 42.6962 183.658 43.0236C184.024 43.3562 184.035 43.7158 183.68 44.1075L180.313 47.8369L186.794 46.5544C186.961 46.5169 187.127 46.5008 187.305 46.5169C187.482 46.533 187.66 46.6188 187.843 46.7852C188.208 47.1179 188.198 47.4989 187.81 47.9281L183.502 52.6986C183.147 53.0903 182.792 53.1225 182.432 52.8006C182.055 52.4625 182.045 52.0976 182.4 51.7059L185.756 47.9872L179.275 49.2697C179.119 49.3019 178.946 49.3072 178.774 49.2965C178.597 49.2804 178.425 49.1945 178.247 49.0389Z" fill="white"/>
<path d="M189.607 63.7366C189.327 63.3556 189.392 63.0176 189.79 62.7278L191.398 61.5687C191.818 61.2682 192.178 61.3273 192.49 61.7565L192.549 61.837C193.178 61.8048 193.808 61.6546 194.437 61.3809C195.066 61.1073 195.782 60.678 196.583 60.0984L197.696 59.2989C198.191 58.9394 198.622 59.0091 198.982 59.5028L201.316 62.7224C201.677 63.2161 201.607 63.6454 201.112 64.0049L196.524 67.3158L196.809 67.7075C197.11 68.1261 197.056 68.4856 196.637 68.7861L195.029 69.9452C194.625 70.235 194.292 70.192 194.017 69.8164C193.749 69.4408 193.813 69.1081 194.211 68.8237L195.4 67.9651L191.807 63.0068L190.618 63.8654C190.215 64.1552 189.881 64.1123 189.612 63.7366H189.607ZM193.426 63.0444L195.61 66.0601L199.912 62.9586L198.24 60.6511L197.142 61.4453C196.54 61.88 195.911 62.2395 195.26 62.5293C194.604 62.8137 193.996 62.9907 193.431 63.0551L193.426 63.0444Z" fill="white"/>
<path d="M200.036 76.0035C199.66 75.3059 199.482 74.619 199.498 73.9536C199.52 73.2829 199.719 72.6711 200.106 72.1023C200.493 71.5389 201.053 71.0559 201.795 70.6589C202.537 70.2618 203.247 70.0579 203.93 70.0525C204.613 70.0471 205.243 70.2188 205.813 70.5676C206.383 70.9218 206.856 71.4477 207.233 72.1453C207.599 72.8268 207.771 73.4975 207.755 74.1683C207.733 74.839 207.534 75.4561 207.152 76.0249C206.77 76.5937 206.211 77.0767 205.469 77.4738C204.726 77.8709 204.016 78.0694 203.328 78.0748C202.639 78.0748 202.01 77.9031 201.445 77.5489C200.875 77.1947 200.407 76.6796 200.042 75.9981L200.036 76.0035ZM201.144 75.4078C201.462 75.9927 201.929 76.3523 202.548 76.4811C203.167 76.6098 203.882 76.4596 204.689 76.0303C205.495 75.601 206.012 75.0912 206.238 74.5063C206.464 73.9214 206.421 73.3365 206.109 72.7516C205.786 72.156 205.318 71.7911 204.705 71.6569C204.092 71.5228 203.382 71.673 202.575 72.1023C201.768 72.5316 201.252 73.0414 201.015 73.6317C200.784 74.2166 200.827 74.8122 201.15 75.4078H201.144Z" fill="white"/>
<path d="M205.098 87.1005C204.807 86.3493 204.71 85.641 204.818 84.9756C204.92 84.3048 205.205 83.7145 205.662 83.1887C206.125 82.6681 206.743 82.255 207.523 81.9491C208.685 81.4983 209.734 81.4769 210.659 81.874C211.59 82.2764 212.273 83.033 212.703 84.1546C212.837 84.5033 212.929 84.8951 212.972 85.319C213.015 85.7429 212.983 86.1668 212.87 86.5908C212.832 86.7893 212.741 86.9288 212.595 87.0147C212.45 87.1005 212.294 87.1327 212.127 87.1059C211.961 87.0844 211.832 87.0093 211.729 86.8859C211.627 86.7625 211.595 86.5908 211.627 86.3707C211.702 86.0649 211.729 85.7697 211.708 85.4907C211.686 85.2117 211.633 84.9541 211.541 84.7287C211.267 84.0204 210.831 83.5589 210.234 83.3443C209.637 83.1296 208.927 83.1833 208.104 83.4999C207.281 83.8165 206.711 84.2619 206.394 84.8253C206.076 85.3887 206.055 86.0273 206.335 86.741C206.426 86.9717 206.55 87.1971 206.716 87.4118C206.883 87.6264 207.098 87.8303 207.367 88.0128C207.539 88.1523 207.625 88.3025 207.625 88.4581C207.625 88.6138 207.572 88.7479 207.464 88.866C207.351 88.984 207.217 89.0592 207.05 89.0967C206.883 89.1343 206.722 89.0913 206.56 88.9679C206.206 88.7372 205.904 88.4528 205.657 88.1147C205.409 87.7767 205.221 87.4332 205.081 87.0844L205.098 87.1005Z" fill="white"/>
<path d="M208.819 99.2654C208.696 98.7771 208.884 98.4712 209.384 98.3425L211.525 97.8005L211.272 96.8185C211.181 96.4536 211.003 96.1638 210.75 95.9438C210.498 95.7238 210.202 95.5736 209.868 95.4931L208.201 95.037C207.927 94.9511 207.738 94.8116 207.647 94.6184C207.555 94.4252 207.534 94.2267 207.598 94.0228C207.658 93.8189 207.776 93.6579 207.953 93.5452C208.131 93.4271 208.341 93.4057 208.594 93.4754L209.814 93.8296C210.057 93.8993 210.288 94.012 210.508 94.1623C210.729 94.3125 210.912 94.4896 211.052 94.6989C210.992 94.0281 211.105 93.4701 211.401 93.03C211.692 92.59 212.149 92.2949 212.762 92.1393C213.472 91.9622 214.096 92.0534 214.639 92.429C215.182 92.7993 215.575 93.4593 215.817 94.4038L216.538 97.2263C216.678 97.7683 216.473 98.1064 215.93 98.2459L209.75 99.8128C209.508 99.8718 209.309 99.8557 209.142 99.7484C208.975 99.6464 208.868 99.4854 208.814 99.2654H208.819ZM212.138 95.6862L212.606 97.5268L215.295 96.8453L214.827 95.0048C214.682 94.4306 214.456 94.0389 214.155 93.8296C213.854 93.6203 213.493 93.5666 213.074 93.674C212.649 93.7813 212.348 94.0013 212.176 94.334C212.004 94.6667 211.993 95.1174 212.138 95.6862Z" fill="white"/>
<path d="M210.073 106.059C210.003 105.517 210.25 105.206 210.815 105.136L216.973 104.326C217.581 104.245 217.925 104.508 218.006 105.114L218.555 109.262C218.614 109.729 218.431 109.992 218.006 110.046C217.57 110.105 217.318 109.896 217.258 109.429L216.801 105.984L211.025 106.74C210.46 106.816 210.143 106.585 210.073 106.054V106.059Z" fill="white"/>
<path d="M211.019 116.067C211.009 115.519 211.283 115.24 211.826 115.235L218.28 115.133C218.829 115.122 219.109 115.396 219.114 115.938C219.125 116.474 218.851 116.748 218.302 116.759L215.833 116.796L215.898 120.708L218.367 120.665C218.915 120.655 219.195 120.923 219.2 121.46C219.211 122.007 218.937 122.286 218.388 122.291L211.934 122.393C211.385 122.404 211.105 122.13 211.1 121.588C211.089 121.052 211.364 120.778 211.912 120.773L214.607 120.73L214.542 116.818L211.848 116.861C211.299 116.872 211.019 116.603 211.014 116.067H211.019Z" fill="white"/>
<path d="M210.325 131.333C210.476 130.056 210.96 129.09 211.767 128.441C212.574 127.792 213.606 127.539 214.854 127.69C215.656 127.786 216.344 128.033 216.92 128.43C217.495 128.827 217.92 129.337 218.194 129.949C218.469 130.566 218.56 131.247 218.469 131.993C218.34 133.072 217.893 133.877 217.135 134.413C216.371 134.95 215.387 135.148 214.182 135.004C213.816 134.961 213.66 134.725 213.714 134.301L214.316 129.219C212.681 129.144 211.767 129.906 211.573 131.505C211.536 131.827 211.536 132.165 211.573 132.524C211.611 132.884 211.719 133.243 211.891 133.598C211.993 133.839 212.014 134.038 211.955 134.199C211.896 134.36 211.794 134.467 211.638 134.526C211.482 134.585 211.32 134.58 211.154 134.51C210.982 134.44 210.847 134.295 210.74 134.081C210.535 133.689 210.406 133.243 210.336 132.744C210.272 132.245 210.266 131.779 210.315 131.339L210.325 131.333ZM217.323 131.918C217.404 131.247 217.258 130.689 216.887 130.244C216.516 129.798 215.989 129.493 215.306 129.326L214.79 133.689C215.521 133.743 216.107 133.619 216.549 133.313C216.99 133.007 217.248 132.541 217.323 131.913V131.918Z" fill="white"/>
<path d="M208.895 139.994C209.029 139.463 209.363 139.264 209.895 139.398L216.15 140.981C216.683 141.116 216.882 141.448 216.747 141.979C216.613 142.5 216.285 142.693 215.752 142.559L213.359 141.953L212.396 145.746L214.79 146.353C215.322 146.487 215.521 146.814 215.387 147.335C215.252 147.866 214.919 148.065 214.386 147.93L208.131 146.347C207.598 146.213 207.399 145.881 207.534 145.349C207.668 144.829 207.996 144.636 208.529 144.77L211.143 145.43L212.106 141.636L209.492 140.976C208.959 140.842 208.76 140.515 208.895 139.994Z" fill="white"/>
<path d="M205.377 151.912C205.582 151.402 205.937 151.252 206.448 151.456L212.434 153.865C212.945 154.069 213.096 154.429 212.891 154.933C212.687 155.432 212.332 155.577 211.826 155.373L209.535 154.45L208.066 158.078L210.358 159.001C210.869 159.205 211.019 159.559 210.82 160.052C210.616 160.562 210.256 160.712 209.75 160.509L203.764 158.099C203.253 157.895 203.102 157.536 203.306 157.031C203.511 156.532 203.866 156.387 204.371 156.591L206.872 157.6L208.341 153.973L205.84 152.964C205.329 152.76 205.178 152.406 205.377 151.912Z" fill="white"/>
<path d="M197.901 167.436C198.148 166.996 198.498 166.905 198.95 167.157L200.875 168.241L201.375 167.361C201.558 167.034 201.639 166.706 201.601 166.368C201.564 166.03 201.461 165.724 201.279 165.435L200.391 163.954C200.251 163.701 200.214 163.476 200.278 163.272C200.343 163.068 200.466 162.913 200.655 162.805C200.838 162.698 201.037 162.666 201.241 162.703C201.451 162.741 201.617 162.87 201.752 163.095L202.392 164.195C202.516 164.415 202.607 164.651 202.661 164.909C202.715 165.166 202.725 165.424 202.682 165.671C203.102 165.145 203.575 164.823 204.092 164.71C204.608 164.592 205.14 164.694 205.694 165.005C206.329 165.365 206.716 165.864 206.856 166.508C206.991 167.152 206.819 167.898 206.34 168.751L204.904 171.289C204.629 171.777 204.248 171.879 203.758 171.606L198.207 168.477C197.992 168.354 197.858 168.203 197.809 168.016C197.761 167.828 197.793 167.635 197.906 167.442L197.901 167.436ZM202.779 167.136L201.843 168.788L204.258 170.151L205.194 168.499C205.485 167.983 205.592 167.549 205.522 167.184C205.447 166.824 205.227 166.535 204.85 166.325C204.468 166.111 204.097 166.062 203.747 166.18C203.392 166.304 203.075 166.62 202.779 167.136Z" fill="white"/>
<path d="M112.59 212.608C113.187 212.683 113.451 213.021 113.37 213.617L112.139 223.243C112.069 223.807 111.757 224.054 111.213 223.984C110.67 223.914 110.433 223.598 110.503 223.034L111.671 213.901L106.932 213.3L105.765 222.433C105.695 222.997 105.388 223.243 104.856 223.179C104.313 223.109 104.076 222.793 104.146 222.229L105.313 213.096L100.574 212.495L99.4073 221.628C99.3374 222.192 99.0308 222.438 98.4983 222.374C97.9551 222.304 97.7184 221.988 97.7883 221.424L99.02 211.792C99.0953 211.197 99.4288 210.934 100.015 211.009L112.58 212.608H112.59Z" fill="white"/>
<path d="M88.1497 207.537C88.666 207.692 88.8381 208.036 88.6768 208.556L86.9448 214.137L89.6718 214.98L89.9515 214.073C90.4248 212.543 90.9627 211.411 91.5597 210.676C92.1567 209.941 92.9097 209.512 93.8187 209.383C94.0662 209.356 94.2652 209.404 94.4158 209.522C94.5717 209.64 94.6632 209.791 94.7008 209.973C94.7385 210.155 94.7008 210.322 94.604 210.483C94.5072 210.644 94.3297 210.751 94.0877 210.81C93.4369 210.955 92.9151 211.32 92.5225 211.905C92.1352 212.484 91.7533 213.375 91.3876 214.561L91.0057 215.79C90.8228 216.375 90.441 216.579 89.8547 216.396L85.8799 215.167C85.2936 214.985 85.0946 214.604 85.2721 214.019L87.117 208.068C87.2783 207.548 87.6226 207.365 88.1443 207.526L88.1497 207.537Z" fill="white"/>
<path d="M77.2849 203.04C77.7421 203.249 77.8658 203.587 77.6506 204.06L76.7309 206.067L77.656 206.49C78.0002 206.646 78.3337 206.694 78.6672 206.635C78.9953 206.576 79.2965 206.442 79.5708 206.233L80.9746 205.229C81.2167 205.068 81.4372 205.009 81.647 205.058C81.8567 205.106 82.0181 205.219 82.1418 205.39C82.2655 205.562 82.3139 205.755 82.2978 205.965C82.2816 206.174 82.1633 206.356 81.9535 206.507L80.9101 207.231C80.7057 207.37 80.4744 207.483 80.2162 207.558C79.9634 207.639 79.7107 207.666 79.4579 207.644C80.0172 208.02 80.3776 208.46 80.539 208.964C80.7003 209.469 80.6465 210.005 80.383 210.585C80.0764 211.25 79.6085 211.674 78.9792 211.862C78.3499 212.05 77.5861 211.942 76.6986 211.535L74.0416 210.322C73.5306 210.091 73.3961 209.721 73.6274 209.211L76.2845 203.432C76.3867 203.206 76.5319 203.062 76.7148 202.997C76.8976 202.933 77.0913 202.949 77.2956 203.04H77.2849ZM77.9949 207.864L76.2629 207.07L75.1065 209.587L76.8385 210.381C77.3763 210.628 77.8228 210.697 78.1777 210.596C78.5327 210.494 78.8017 210.247 78.9792 209.855C79.162 209.453 79.1782 209.082 79.0276 208.744C78.877 208.401 78.5327 208.111 77.9949 207.864Z" fill="white"/>
<path d="M71.6534 200.067C71.9008 200.223 72.0137 200.427 71.9922 200.695C71.9707 200.963 71.7825 201.157 71.4221 201.291L67.7808 202.557L68.2218 206.088C68.281 206.464 68.1895 206.721 67.9529 206.85C67.7162 206.984 67.4849 206.973 67.2429 206.829C67.0708 206.721 66.9417 206.603 66.8664 206.469C66.7911 206.335 66.7427 206.174 66.7265 205.975L66.3931 203.002L63.5585 204.011C63.3757 204.086 63.2089 204.119 63.0583 204.108C62.9131 204.097 62.7517 204.044 62.5796 203.931C62.343 203.786 62.23 203.577 62.2461 203.308C62.2623 203.04 62.4559 202.842 62.8217 202.718L66.1941 201.548L65.7154 197.744C65.667 197.373 65.7584 197.116 65.995 196.976C66.2317 196.837 66.4684 196.842 66.7158 196.998C67.017 197.186 67.1891 197.47 67.2321 197.846L67.614 201.076L70.6745 199.976C70.852 199.912 71.0187 199.879 71.1693 199.885C71.3199 199.885 71.4813 199.944 71.6534 200.051V200.067Z" fill="white"/>
<path d="M61.5954 193.322C61.988 193.639 61.9988 194.025 61.633 194.476L57.556 199.45C57.2225 199.858 56.8622 199.906 56.4803 199.59C56.0984 199.278 56.0715 198.919 56.405 198.511L59.5945 194.621L53.1832 196.209C53.0218 196.257 52.8497 196.279 52.6722 196.273C52.4947 196.273 52.3118 196.188 52.1182 196.032C51.7363 195.721 51.7256 195.34 52.0967 194.889L56.1737 189.915C56.5072 189.507 56.8622 189.459 57.2387 189.764C57.6313 190.086 57.6582 190.446 57.3247 190.854L54.146 194.728L60.5573 193.14C60.7133 193.102 60.88 193.086 61.0575 193.091C61.235 193.091 61.4125 193.172 61.5954 193.322Z" fill="white"/>
<path d="M49.5313 179.166C49.8271 179.537 49.7787 179.875 49.3968 180.181L47.8477 181.415C47.4443 181.737 47.0786 181.694 46.7505 181.281L46.6913 181.205C46.062 181.265 45.4435 181.447 44.8249 181.753C44.2118 182.059 43.5126 182.52 42.738 183.137L41.6677 183.99C41.189 184.371 40.7587 184.323 40.3768 183.846L37.8919 180.739C37.51 180.261 37.5584 179.832 38.0371 179.451L42.4637 175.925L42.1625 175.55C41.8398 175.147 41.8828 174.788 42.2862 174.466L43.8353 173.232C44.2225 172.926 44.5614 172.952 44.8465 173.312C45.1369 173.672 45.0885 174.004 44.7012 174.315L43.5556 175.228L47.3798 180.009L48.5254 179.097C48.9127 178.791 49.2516 178.818 49.5366 179.177L49.5313 179.166ZM45.7501 180.036L43.4265 177.127L39.2796 180.433L41.0599 182.66L42.1195 181.817C42.7004 181.356 43.3082 180.964 43.9482 180.647C44.5883 180.331 45.1907 180.127 45.7501 180.036Z" fill="white"/>
<path d="M38.5317 167.404C38.9405 168.085 39.1556 168.762 39.1664 169.427C39.1825 170.098 39.0104 170.72 38.6501 171.305C38.2897 171.89 37.7518 172.394 37.0365 172.829C36.3157 173.258 35.6165 173.494 34.9334 173.537C34.2503 173.58 33.6157 173.435 33.0294 173.108C32.4431 172.781 31.9483 172.282 31.5395 171.6C31.1415 170.94 30.9371 170.275 30.921 169.604C30.9048 168.933 31.0769 168.305 31.4319 167.721C31.7869 167.13 32.3248 166.621 33.0455 166.191C33.7663 165.762 34.4655 165.526 35.1539 165.488C35.8424 165.451 36.4771 165.596 37.0634 165.923C37.6496 166.25 38.1391 166.744 38.5371 167.404H38.5317ZM37.4506 168.053C37.1064 167.484 36.6223 167.146 35.9984 167.044C35.3745 166.942 34.6699 167.13 33.8846 167.597C33.0993 168.069 32.6099 168.601 32.4108 169.196C32.2118 169.792 32.2818 170.377 32.626 170.946C32.9756 171.525 33.4597 171.869 34.0836 171.97C34.7075 172.072 35.4067 171.89 36.192 171.423C36.9773 170.951 37.4721 170.42 37.6765 169.819C37.8809 169.223 37.811 168.633 37.4614 168.053H37.4506Z" fill="white"/>
<path d="M32.9434 156.57C33.2715 157.305 33.4006 158.008 33.3253 158.679C33.2554 159.349 33.0026 159.961 32.5669 160.503C32.1313 161.05 31.5342 161.491 30.7651 161.829C29.6248 162.333 28.5814 162.408 27.6347 162.054C26.6881 161.7 25.9727 160.97 25.4833 159.875C25.3327 159.532 25.2197 159.151 25.1552 158.727C25.0906 158.303 25.1014 157.879 25.1982 157.45C25.2251 157.251 25.3112 157.101 25.451 157.01C25.5909 156.919 25.7468 156.881 25.9136 156.892C26.0803 156.903 26.2148 156.972 26.3223 157.09C26.4299 157.208 26.4729 157.375 26.4514 157.595C26.3869 157.906 26.3761 158.196 26.4084 158.475C26.4461 158.754 26.5106 159.006 26.6128 159.231C26.9248 159.929 27.3819 160.369 27.9843 160.551C28.5868 160.734 29.2967 160.648 30.1035 160.294C30.9103 159.934 31.4589 159.467 31.744 158.888C32.0345 158.308 32.0237 157.67 31.7117 156.972C31.6095 156.747 31.4751 156.527 31.2976 156.318C31.1201 156.108 30.8942 155.915 30.6199 155.749C30.4424 155.615 30.3509 155.47 30.3402 155.32C30.3294 155.164 30.3778 155.03 30.48 154.906C30.5822 154.783 30.7167 154.702 30.8834 154.659C31.0448 154.617 31.2115 154.654 31.3783 154.767C31.744 154.981 32.056 155.25 32.3195 155.572C32.5831 155.894 32.7875 156.232 32.9434 156.575V156.57Z" fill="white"/>
<path d="M28.6405 144.598C28.7857 145.081 28.6136 145.398 28.1241 145.548L26.0103 146.192L26.3062 147.163C26.4191 147.523 26.602 147.807 26.8709 148.011C27.1345 148.215 27.4357 148.354 27.7745 148.419L29.458 148.794C29.7377 148.864 29.9314 148.993 30.0336 149.181C30.1358 149.369 30.1626 149.567 30.1142 149.771C30.0658 149.975 29.9583 150.141 29.7861 150.265C29.614 150.388 29.4043 150.42 29.1515 150.367L27.9144 150.071C27.6723 150.012 27.4357 149.911 27.2098 149.776C26.9839 149.637 26.7902 149.47 26.6396 149.267C26.7311 149.932 26.6396 150.495 26.3707 150.946C26.1018 151.397 25.6607 151.719 25.0529 151.901C24.3537 152.116 23.7244 152.052 23.1597 151.703C22.6003 151.359 22.1754 150.721 21.8903 149.787L21.0351 147.002C20.8737 146.465 21.0566 146.122 21.5945 145.956L27.6885 144.094C27.9251 144.024 28.1295 144.035 28.2963 144.126C28.4684 144.222 28.5813 144.373 28.6513 144.593L28.6405 144.598ZM25.4994 148.333L24.94 146.514L22.2883 147.324L22.8477 149.143C23.0198 149.707 23.2619 150.088 23.5792 150.286C23.8912 150.485 24.2569 150.517 24.6657 150.393C25.0852 150.265 25.3757 150.029 25.5316 149.691C25.6876 149.352 25.6769 148.902 25.5048 148.333H25.4994Z" fill="white"/>
<path d="M27.0593 137.88C27.1561 138.416 26.9248 138.738 26.3654 138.84L20.2499 139.94C19.6475 140.048 19.2925 139.801 19.1796 139.2L18.4319 135.079C18.3459 134.612 18.518 134.343 18.9429 134.268C19.3786 134.188 19.6368 134.381 19.7228 134.848L20.3414 138.271L26.075 137.236C26.6344 137.134 26.9625 137.348 27.0593 137.874V137.88Z" fill="white"/>
<path d="M25.6177 127.947C25.65 128.494 25.3918 128.784 24.8432 128.816L18.3996 129.187C17.851 129.219 17.5606 128.961 17.5283 128.414C17.496 127.877 17.7542 127.593 18.3028 127.561L20.7662 127.421L20.5403 123.515L18.0769 123.654C17.5283 123.686 17.2378 123.434 17.2109 122.898C17.1787 122.35 17.4368 122.061 17.9855 122.028L24.4291 121.658C24.9777 121.626 25.2681 121.883 25.3004 122.431C25.3327 122.967 25.0745 123.252 24.5259 123.284L21.8366 123.44L22.0625 127.346L24.7518 127.191C25.3004 127.158 25.5909 127.411 25.6177 127.947Z" fill="white"/>
<path d="M25.6071 112.638C25.5157 113.92 25.08 114.908 24.3055 115.594C23.5309 116.281 22.5144 116.582 21.2558 116.491C20.449 116.432 19.7498 116.222 19.1581 115.852C18.5665 115.482 18.1147 114.993 17.8135 114.392C17.5123 113.791 17.3885 113.115 17.437 112.364C17.5123 111.285 17.921 110.459 18.6579 109.885C19.3948 109.311 20.3683 109.069 21.5785 109.155C21.9443 109.182 22.111 109.407 22.0787 109.837L21.7183 114.945C23.3588 114.945 24.2355 114.14 24.3485 112.53C24.37 112.208 24.3539 111.87 24.3001 111.511C24.2463 111.151 24.1226 110.797 23.929 110.454C23.816 110.218 23.7837 110.019 23.8322 109.858C23.8806 109.697 23.9828 109.579 24.1334 109.515C24.284 109.45 24.4453 109.45 24.6174 109.509C24.7895 109.568 24.9348 109.708 25.0477 109.917C25.2682 110.298 25.4242 110.738 25.5103 111.232C25.5963 111.725 25.6286 112.192 25.5963 112.632L25.6071 112.638ZM18.588 112.385C18.5396 113.062 18.7117 113.609 19.1043 114.033C19.497 114.457 20.0348 114.741 20.7287 114.875L21.0406 110.491C20.3091 110.47 19.7283 110.625 19.3033 110.947C18.8784 111.269 18.6418 111.752 18.5934 112.38L18.588 112.385Z" fill="white"/>
<path d="M26.6182 103.912C26.5106 104.449 26.1879 104.664 25.65 104.551L19.3248 103.269C18.7869 103.161 18.5718 102.839 18.6847 102.303C18.7923 101.777 19.115 101.567 19.6529 101.675L22.0732 102.168L22.8532 98.3371L20.4328 97.8434C19.8949 97.7361 19.6798 97.4195 19.7873 96.8936C19.8949 96.357 20.2176 96.1424 20.7555 96.255L27.0808 97.5375C27.6186 97.6449 27.8338 97.9668 27.7208 98.5034C27.6132 99.0293 27.2905 99.2386 26.7527 99.1313L24.1118 98.5947L23.3318 102.426L25.9728 102.963C26.5106 103.07 26.7258 103.387 26.6182 103.918V103.912Z" fill="white"/>
<path d="M29.555 91.8442C29.3721 92.3593 29.0225 92.531 28.5061 92.3486L22.4121 90.229C21.8958 90.0465 21.7237 89.6977 21.9065 89.1826C22.084 88.6782 22.4336 88.5118 22.95 88.6943L25.2789 89.5045L26.5698 85.8127L24.2409 85.0024C23.7245 84.82 23.5524 84.4765 23.7299 83.9721C23.9128 83.457 24.2624 83.2853 24.7787 83.4677L30.8727 85.5873C31.3891 85.7698 31.5612 86.1186 31.3783 86.6337C31.2008 87.1381 30.8512 87.3045 30.3349 87.122L27.7908 86.2366L26.4999 89.9285L29.044 90.8139C29.5603 90.9963 29.7324 91.3397 29.555 91.8442Z" fill="white"/>
<path d="M36.2782 75.9766C36.0523 76.4274 35.7081 76.5347 35.2455 76.304L33.2715 75.3112L32.8144 76.2181C32.6422 76.5562 32.5831 76.8889 32.6369 77.2162C32.6853 77.5489 32.809 77.8548 33.008 78.1338L33.9654 79.5665C34.1214 79.8134 34.1698 80.0388 34.1106 80.2427C34.0568 80.4466 33.9385 80.6076 33.761 80.7256C33.5835 80.8437 33.3899 80.8866 33.1801 80.8598C32.9703 80.8329 32.7928 80.7095 32.653 80.4949L31.9645 79.427C31.8301 79.2178 31.7279 78.9816 31.6579 78.7241C31.588 78.4665 31.5665 78.2143 31.5988 77.9621C31.2008 78.5094 30.749 78.8529 30.238 78.9924C29.727 79.1319 29.1892 79.0621 28.6244 78.7724C27.9736 78.445 27.5594 77.9621 27.3927 77.3235C27.226 76.685 27.3658 75.9337 27.8015 75.059L29.1139 72.4565C29.3667 71.9574 29.7432 71.834 30.238 72.0862L35.9286 74.9464C36.1491 75.059 36.289 75.2039 36.3481 75.3917C36.4073 75.5742 36.3804 75.7727 36.2836 75.9713L36.2782 75.9766ZM31.4213 76.5079L32.2765 74.8122L29.7969 73.5673L28.9417 75.263C28.6728 75.7888 28.5867 76.2342 28.6782 76.5884C28.7696 76.9479 29.0063 77.2216 29.3882 77.4147C29.7808 77.6133 30.1519 77.6401 30.5015 77.506C30.8512 77.3665 31.1524 77.0338 31.4213 76.5079Z" fill="white"/>
<g clip-path="url(#clip1_127_714)">
<path d="M70.366 42.8518L63.1257 30.4963L71.2575 25.7275C74.0465 24.0919 76.8916 23.6878 79.9569 24.4868C81.2829 24.8325 82.6635 25.4059 84.1901 26.2379L84.3712 26.335L84.3674 26.5404C84.3328 30.3314 83.6322 35.0662 78.4995 38.0763L70.361 42.8434L70.366 42.8518ZM64.0653 30.7412L70.6126 41.9056L78.1563 37.4816C82.8943 34.7031 83.618 30.3159 83.6823 26.7389C82.2768 25.9883 81.0043 25.4644 79.7849 25.1465C76.9063 24.3961 74.23 24.7802 71.609 26.3172L64.0653 30.7412Z" fill="white"/>
<path d="M78.582 24.0644L77.988 24.4128L82.9347 32.8477L83.5287 32.4994L78.582 24.0644Z" fill="white"/>
<path d="M73.3787 35.553C72.5058 35.3255 71.7748 34.772 71.3233 33.9924C70.8718 33.2129 70.7456 32.3047 70.9714 31.4385C71.1972 30.5722 71.7524 29.8345 72.5253 29.3813C73.2981 28.928 74.213 28.8036 75.0793 29.0294C75.9455 29.2552 76.6832 29.8105 77.1365 30.5833C77.5946 31.3646 77.7208 32.2728 77.495 33.139C77.2692 34.0053 76.7139 34.743 75.9344 35.1945C75.1532 35.6526 74.245 35.7788 73.3787 35.553ZM74.9073 29.6891C74.2143 29.5084 73.4901 29.6114 72.8701 29.9693C72.2485 30.3339 71.8117 30.9174 71.6311 31.6104C71.4504 32.3034 71.5534 33.0277 71.9113 33.6476C72.6355 34.8825 74.348 35.3289 75.5829 34.6047C76.2045 34.2401 76.6413 33.6566 76.822 32.9636C77.0026 32.2706 76.8997 31.5463 76.5418 30.9264C76.1772 30.3048 75.5936 29.868 74.9006 29.6874L74.9073 29.6891Z" fill="white"/>
<path d="M75.4105 31.9907L75.2381 31.6967C74.9129 31.1423 74.1933 30.9547 73.6388 31.2798L73.3448 31.4523L72.995 30.8558L73.2891 30.6834C74.1711 30.1661 75.3106 30.4631 75.8345 31.3469L76.007 31.641L75.4105 31.9907Z" fill="white"/>
<path d="M66.6056 42.4266L61.6594 33.9924L64.8685 32.1105L69.8147 40.5447L66.6056 42.4266ZM62.599 34.2374L66.8456 41.4787L68.8618 40.2963L64.6235 33.0501L62.6074 34.2324L62.599 34.2374Z" fill="white"/>
<path d="M65.7441 35.1087L63.8433 36.2235L64.1916 36.8175L66.0925 35.7028L65.7441 35.1087Z" fill="white"/>
<path d="M67.2751 37.721L65.3743 38.8358L65.7226 39.4298L67.6235 38.315L67.2751 37.721Z" fill="white"/>
<path d="M63.5362 31.0516L60.8545 28.3173L63.5175 26.7556C64.2231 26.3417 65.0789 26.2802 65.849 26.6019L68.9276 27.8955L63.526 31.0632L63.5362 31.0516ZM61.962 28.4636L63.6484 30.1842L67.3951 27.987L65.5855 27.2306C65.0216 26.9911 64.3898 27.0399 63.8623 27.3436L61.9554 28.4619L61.962 28.4636Z" fill="white"/>
<path d="M71.1656 45.8997L70.0884 42.2244L75.49 39.0567L75.116 42.375C75.0243 43.1908 74.5493 43.921 73.8437 44.3348L71.1807 45.8965L71.1656 45.8997ZM70.902 42.5432L71.5803 44.8549L73.4872 43.7366C74.008 43.4312 74.3625 42.8902 74.427 42.2879L74.6504 40.3393L70.9037 42.5365L70.902 42.5432Z" fill="white"/>
<path d="M61.3468 42.3438C60.6805 42.1701 59.9472 41.8438 59.0496 41.4105L58.8418 41.3066L58.8525 41.0745C59.0117 38.362 59.2829 37.1304 61.4083 35.884L61.7023 35.7115L62.0521 36.308L61.758 36.4804C60.0275 37.4953 59.7154 38.3105 59.5559 40.8878C61.883 42.0068 62.7469 42.1324 64.4775 41.1175L64.7715 40.9451L65.1213 41.5415L64.8272 41.714C63.4831 42.5022 62.5063 42.6461 61.3468 42.3438Z" fill="white"/>
<path d="M63.2493 38.3325L60.6951 39.8304L61.0434 40.4244L63.5977 38.9265L63.2493 38.3325Z" fill="white"/>
</g>
<g clip-path="url(#clip2_127_714)">
<path d="M170.128 198.217L177.364 210.575L169.23 215.341C166.44 216.976 163.595 217.379 160.53 216.579C159.204 216.233 157.824 215.659 156.298 214.826L156.117 214.729L156.12 214.524C156.156 210.733 156.859 205.998 161.992 202.99L170.133 198.226L170.128 198.217ZM176.424 210.33L169.881 199.163L162.335 203.585C157.596 206.362 156.871 210.748 156.806 214.325C158.211 215.077 159.483 215.601 160.702 215.919C163.581 216.671 166.257 216.287 168.879 214.751L176.424 210.33Z" fill="white"/>
<path d="M161.905 217.002L162.499 216.654L157.555 208.217L156.961 208.565L161.905 217.002Z" fill="white"/>
<path d="M167.112 205.515C167.985 205.743 168.716 206.297 169.167 207.076C169.618 207.856 169.744 208.764 169.518 209.63C169.292 210.496 168.736 211.234 167.963 211.687C167.19 212.14 166.275 212.264 165.409 212.038C164.543 211.812 163.806 211.256 163.353 210.483C162.895 209.702 162.769 208.794 162.995 207.927C163.221 207.061 163.777 206.324 164.556 205.873C165.338 205.415 166.246 205.289 167.112 205.515ZM165.582 211.378C166.274 211.559 166.999 211.456 167.619 211.099C168.241 210.734 168.678 210.151 168.858 209.458C169.039 208.765 168.937 208.041 168.579 207.421C167.855 206.186 166.143 205.739 164.908 206.462C164.286 206.827 163.849 207.41 163.668 208.103C163.487 208.796 163.59 209.52 163.947 210.14C164.312 210.762 164.895 211.199 165.588 211.38L165.582 211.378Z" fill="white"/>
<path d="M165.079 209.076L165.252 209.371C165.577 209.925 166.296 210.113 166.851 209.788L167.145 209.616L167.494 210.212L167.2 210.385C166.318 210.902 165.179 210.604 164.655 209.72L164.483 209.426L165.079 209.076Z" fill="white"/>
<path d="M173.888 198.644L178.831 207.08L175.622 208.96L170.678 200.524L173.888 198.644ZM177.892 206.834L173.648 199.592L171.631 200.773L175.867 208.021L177.883 206.839L177.892 206.834Z" fill="white"/>
<path d="M174.747 205.962L176.648 204.848L176.3 204.254L174.399 205.368L174.747 205.962Z" fill="white"/>
<path d="M173.217 203.349L175.118 202.235L174.77 201.641L172.869 202.755L173.217 203.349Z" fill="white"/>
<path d="M176.953 210.02L179.634 212.755L176.971 214.316C176.265 214.729 175.409 214.791 174.639 214.469L171.561 213.174L176.963 210.008L176.953 210.02ZM178.527 212.608L176.841 210.887L173.093 213.083L174.903 213.84C175.466 214.08 176.098 214.031 176.626 213.728L178.533 212.61L178.527 212.608Z" fill="white"/>
<path d="M169.329 195.169L170.405 198.845L165.002 202.011L165.378 198.692C165.469 197.877 165.945 197.147 166.651 196.733L169.314 195.172L169.329 195.169ZM169.592 198.526L168.914 196.214L167.007 197.331C166.486 197.637 166.131 198.177 166.066 198.78L165.842 200.728L169.59 198.532L169.592 198.526Z" fill="white"/>
<path d="M179.147 198.728C179.813 198.902 180.546 199.229 181.444 199.662L181.651 199.766L181.64 199.999C181.48 202.711 181.209 203.942 179.083 205.188L178.789 205.36L178.439 204.764L178.733 204.592C180.464 203.577 180.777 202.762 180.937 200.185C178.61 199.065 177.746 198.939 176.016 199.954L175.721 200.126L175.372 199.529L175.666 199.357C177.01 198.569 177.987 198.426 179.147 198.728Z" fill="white"/>
<path d="M177.243 202.739L179.797 201.242L179.449 200.648L176.894 202.145L177.243 202.739Z" fill="white"/>
</g>
</g>
<path d="M150.481 98.3809L142.771 96.8423L141.233 89.1325L149.382 81L150.921 88.7098L158.631 90.2484L150.481 98.3978L150.481 98.3809ZM144.209 95.4052L149.923 96.5549L155.198 91.2798L149.484 90.13L148.334 84.4153L143.059 89.6904L144.209 95.4052Z" fill="white"/>
<path d="M143.502 94.9311L119.508 118.926L120.703 120.121L144.698 96.1266L143.502 94.9311Z" fill="white"/>
<path d="M120.707 144.42C113.893 144.42 107.486 141.766 102.667 136.947C92.7253 127.005 92.7253 110.825 102.667 100.883C111.577 91.9899 125.864 90.9416 135.941 98.4655L136.617 98.9727L135.603 100.325L134.926 99.8181C125.526 92.8014 112.169 93.7652 103.867 102.084C94.5851 111.366 94.5851 126.481 103.867 135.763C113.15 145.046 128.265 145.046 137.547 135.763C145.849 127.445 146.829 114.105 139.813 104.704L139.305 104.028L140.658 103.014L141.165 103.69C148.689 113.767 147.641 128.07 138.747 136.964C133.929 141.782 127.521 144.437 120.707 144.437L120.707 144.42Z" fill="white"/>
<path d="M120.707 138.739C115.415 138.739 110.444 136.676 106.691 132.94C102.937 129.203 100.892 124.216 100.892 118.924C100.892 113.631 102.954 108.661 106.691 104.907C113.454 98.1442 124.072 97.1636 131.934 102.591L132.627 103.064L131.663 104.451L130.97 103.977C123.784 99.0234 114.079 99.9195 107.891 106.108C100.824 113.175 100.824 124.672 107.891 131.739C114.959 138.807 126.456 138.807 133.523 131.739C139.711 125.551 140.607 115.846 135.636 108.661L135.163 107.967L136.55 107.004L137.023 107.697C142.45 115.559 141.47 126.177 134.707 132.94C130.97 136.676 125.982 138.739 120.69 138.739L120.707 138.739Z" fill="white"/>
<path d="M120.707 133.041C117.089 133.041 113.471 131.672 110.715 128.916C105.203 123.404 105.203 114.443 110.715 108.948C115.212 104.434 122.229 103.521 127.741 106.682L128.468 107.105L127.622 108.576L126.895 108.153C122.043 105.364 115.872 106.175 111.915 110.149C107.063 115.001 107.063 122.88 111.915 127.732C116.768 132.585 124.647 132.585 129.499 127.732C133.472 123.759 134.284 117.605 131.494 112.752L131.072 112.025L132.543 111.18L132.965 111.907C136.144 117.419 135.214 124.418 130.7 128.933C127.944 131.689 124.325 133.058 120.707 133.058L120.707 133.041Z" fill="white"/>
<path d="M120.707 127.36C118.543 127.36 116.396 126.532 114.739 124.892C113.149 123.303 112.27 121.189 112.27 118.924C112.27 116.658 113.149 114.561 114.739 112.955C116.971 110.723 120.234 109.929 123.26 110.876L124.072 111.129L123.564 112.735L122.753 112.482C120.335 111.721 117.731 112.347 115.939 114.139C114.671 115.407 113.961 117.098 113.961 118.907C113.961 120.716 114.654 122.406 115.939 123.675C118.56 126.295 122.837 126.295 125.475 123.675C127.267 121.882 127.893 119.279 127.132 116.861L126.878 116.049L128.485 115.542L128.738 116.354C129.702 119.363 128.907 122.626 126.659 124.875C125.019 126.515 122.854 127.343 120.69 127.343L120.707 127.36Z" fill="white"/>
<defs>
<linearGradient id="paint0_linear_127_714" x1="111.723" y1="41.1198" x2="61.6538" y2="168.757" gradientUnits="userSpaceOnUse">
<stop stop-color="#FFF507"/>
<stop offset="0.883333" stop-color="#117FFF"/>
</linearGradient>
<clipPath id="clip0_127_714">
<rect width="208.693" height="206.179" fill="white" transform="translate(33.1777 0.6362) rotate(8.91758)"/>
</clipPath>
<clipPath id="clip1_127_714">
<rect width="23" height="23" fill="white" transform="translate(63.0205 20.0078) rotate(14.6107)"/>
</clipPath>
<clipPath id="clip2_127_714">
<rect width="23" height="23" fill="white" transform="translate(177.465 221.064) rotate(-165.369)"/>
</clipPath>
</defs>
</svg>
