<svg width="436" height="436" viewBox="0 0 436 436" fill="none" xmlns="http://www.w3.org/2000/svg">
<g clip-path="url(#clip0_127_878)">
<g opacity="0.3">
<mask id="mask0_127_878" style="mask-type:alpha" maskUnits="userSpaceOnUse" x="57" y="131" width="260" height="189">
<path d="M237.079 318.79C186.935 325.702 65.017 208.539 58.103 158.384C51.189 108.23 161.898 144.076 212.041 137.163C262.184 130.251 308.439 165.306 315.353 215.461C322.267 265.615 287.222 311.878 237.079 318.79Z" fill="url(#paint0_linear_127_878)"/>
</mask>
<g mask="url(#mask0_127_878)">
<path d="M97.2561 142.179C98.2767 141.376 99.549 141.504 100.602 142.156C111.934 149.113 124.423 154.06 137.4 156.862C149.407 159.45 161.694 160.338 173.958 160.645C186.041 160.944 198.14 160.702 210.209 161.227C222.403 161.757 234.529 163.184 246.324 166.43C257.934 169.634 269.255 174.64 279.009 181.77C287.107 187.692 294.122 195.11 299.727 203.43C304.898 211.114 308.977 219.498 312.041 228.235C314.754 235.966 316.73 243.967 318.057 252.046C319.049 258.105 319.691 264.224 319.942 270.352C320.078 273.611 320.208 276.916 319.997 280.178C320.046 280.53 320.005 280.884 319.87 281.206C319.873 281.228 319.852 281.242 319.844 281.265C319.802 281.361 319.76 281.468 319.707 281.565C319.477 282.012 319.113 282.377 318.667 282.64C318.626 282.668 318.585 282.696 318.543 282.713C318.469 282.746 318.406 282.777 318.332 282.81C318.206 282.872 318.079 282.923 317.949 282.952L317.927 282.955C317.831 282.991 317.722 283.017 317.623 283.031C317.568 283.038 317.523 283.033 317.468 283.041C317.413 283.049 317.369 283.055 317.313 283.051C317.19 283.057 317.055 283.053 316.942 283.046C316.931 283.048 316.909 283.051 316.898 283.052C316.865 283.057 316.828 283.028 316.793 283.022C316.666 282.994 316.541 282.978 316.423 282.938C316.329 282.906 316.234 282.863 316.138 282.82C316.102 282.803 316.055 282.787 316.018 282.758C315.318 282.395 314.848 281.752 314.643 280.995C314.607 280.898 314.572 280.802 314.547 280.705C314.613 280.943 314.644 281.084 314.683 281.202C314.66 281.116 314.637 281.029 314.601 280.933C314.462 280.492 314.312 280.052 314.161 279.613C313.577 277.976 312.908 276.373 312.186 274.789C311.676 273.692 311.144 272.598 310.581 271.519C310.248 270.892 309.915 270.264 309.573 269.649C309.395 269.337 309.23 269.034 309.054 268.732C308.95 268.545 308.531 267.862 308.542 267.86C306.747 264.998 304.904 262.188 302.83 259.499C301.589 257.885 300.284 256.303 298.93 254.772C298.199 253.941 297.448 253.124 296.688 252.32C296.321 251.932 295.943 251.547 295.576 251.16C295.38 250.962 295.198 250.774 295.002 250.576C294.91 250.477 294.807 250.379 294.717 250.29C294.691 250.271 294.613 250.192 294.548 250.123C294.445 250.025 294.148 249.74 294.096 249.691C293.89 249.495 293.695 249.297 293.49 249.112C293.051 248.69 292.602 248.28 292.165 247.869C291.243 247.031 290.311 246.205 289.359 245.394C287.38 243.713 285.331 242.099 283.228 240.57C278.459 237.097 273.884 234.304 268.916 231.744C262.948 228.672 256.734 226.094 250.379 223.961C243.074 221.511 235.665 219.692 228.05 218.329C219.482 216.793 210.91 215.472 202.425 213.487C188.098 210.153 173.986 205.7 160.533 199.696C150.115 195.06 140.073 189.496 130.77 182.875C123.765 177.892 117.212 172.284 111.29 166.051C107.424 161.982 103.842 157.615 100.742 152.924C99.229 150.64 97.666 148.24 96.579 145.719C96.5323 145.624 96.4842 145.518 96.4485 145.422C95.9703 144.31 96.3188 142.937 97.2686 142.189L97.2561 142.179Z" fill="#117FFF"/>
<path d="M114.423 205.005C125.483 209.008 137.151 210.976 148.915 210.946C159.713 210.927 170.456 209.288 181.055 207.334C202.133 203.453 223.349 198.454 244.88 201.686C254.382 203.112 263.748 205.913 272.144 210.642C279.163 214.596 285.416 219.598 290.902 225.479C300.119 235.352 306.889 247.447 311.626 260.035C313.365 264.661 314.826 269.393 316.039 274.192C316.611 276.468 317.2 278.786 317.522 281.118C317.593 281.389 317.619 281.665 317.59 281.939C317.568 282.681 317.266 283.261 316.807 283.683C316.788 283.708 316.757 283.724 316.727 283.75C316.686 283.779 316.646 283.818 316.607 283.857C316.396 284.043 316.172 284.208 315.916 284.311C315.013 284.693 314.096 284.562 313.365 284.068C312.938 283.824 312.583 283.447 312.354 282.929C312.351 282.907 312.326 282.888 312.324 282.877C312.263 282.762 312.203 282.647 312.142 282.533C312.083 282.429 312.022 282.314 311.963 282.21C311.947 282.178 311.933 282.158 311.906 282.128C311.141 280.899 310.324 279.7 309.456 278.541C308.121 276.764 306.695 275.065 305.189 273.434C304.74 272.947 304.28 272.461 303.81 271.987C303.562 271.741 303.315 271.495 303.078 271.247L303.027 271.199L303.08 271.258C302.95 271.131 302.82 271.003 302.691 270.886C301.563 269.797 300.396 268.747 299.2 267.735C296.491 265.451 293.627 263.346 290.644 261.436C289.819 260.911 288.984 260.398 288.139 259.898C287.919 259.771 287.711 259.643 287.491 259.516C287.442 259.489 287.394 259.462 287.345 259.435C286.858 259.166 286.383 258.895 285.897 258.637C283.991 257.611 282.061 256.655 280.084 255.761C270.414 251.41 260.864 248.993 250.336 247.709C244.015 246.943 237.635 246.645 231.273 246.805C223.869 246.985 216.504 247.283 209.101 247.07C196.959 246.714 184.829 245.393 172.967 242.745C163.633 240.669 154.442 237.832 145.693 233.971C139.135 231.074 132.791 227.61 126.9 223.522C122.898 220.744 119.146 217.662 115.686 214.249C114.165 212.754 112.622 211.184 111.372 209.451C111.317 209.38 111.262 209.309 111.206 209.227C109.626 206.978 111.786 204.057 114.412 205.007L114.423 205.005Z" fill="#268AFF"/>
<path d="M202.398 214.49C194.208 212.565 186.102 210.264 178.129 207.535C179.974 207.224 181.818 206.901 183.647 206.558C204.846 202.644 226.182 197.595 247.846 200.91C257.408 202.372 266.834 205.231 275.287 210.048C282.353 214.076 288.651 219.168 294.178 225.151C303.465 235.197 310.293 247.497 315.075 260.294C316.831 264.997 318.308 269.807 319.535 274.686C320.114 276.999 320.71 279.356 321.037 281.726C321.109 282.001 321.136 282.282 321.106 282.56C321.109 282.742 321.075 282.906 321.052 283.069C321.055 283.091 321.036 283.116 321.028 283.14C320.999 283.258 320.958 283.366 320.914 283.464C320.889 283.524 320.865 283.596 320.828 283.658C320.828 283.658 320.82 283.682 320.811 283.694C320.712 283.879 320.578 284.057 320.441 284.213C320.401 284.252 320.373 284.29 320.333 284.33C320.163 284.49 319.98 284.641 319.783 284.77C319.742 284.799 319.701 284.827 319.658 284.845C319.583 284.878 319.52 284.909 319.445 284.942C319.328 284.993 319.22 285.03 319.112 285.068C319.046 285.077 318.982 285.109 318.927 285.116C318.86 285.126 318.808 285.156 318.741 285.165C318.564 285.189 318.383 285.191 318.199 285.171C318.155 285.177 318.109 285.172 318.063 285.167C317.637 285.112 317.22 284.953 316.86 284.718C316.7 284.626 316.57 284.507 316.439 284.377C316.097 284.025 315.833 283.583 315.708 283.087C315.672 282.99 315.636 282.892 315.611 282.793C315.678 283.035 315.709 283.178 315.748 283.298C315.725 283.21 315.701 283.123 315.665 283.025C315.524 282.577 315.372 282.131 315.221 281.685C314.63 280.023 313.953 278.395 313.223 276.787C312.707 275.673 312.17 274.562 311.601 273.467C311.264 272.83 310.928 272.192 310.582 271.568C310.402 271.251 310.235 270.943 310.058 270.637C309.952 270.447 309.529 269.753 309.54 269.751C307.726 266.845 305.863 263.991 303.768 261.26C302.514 259.622 301.196 258.014 299.828 256.46C299.09 255.616 298.332 254.786 297.563 253.969C297.192 253.575 296.811 253.184 296.44 252.79C296.243 252.59 296.058 252.399 295.861 252.198C295.768 252.097 295.664 251.997 295.572 251.907C295.547 251.888 295.468 251.808 295.402 251.737C295.297 251.638 294.998 251.348 294.946 251.299C294.737 251.099 294.54 250.899 294.333 250.711C293.89 250.282 293.437 249.866 292.995 249.448C292.063 248.597 291.123 247.758 290.161 246.933C288.162 245.226 286.094 243.586 283.969 242.032C279.153 238.503 274.534 235.665 269.518 233.063C263.491 229.94 257.218 227.318 250.803 225.148C243.428 222.656 235.949 220.804 228.263 219.413C219.614 217.848 210.961 216.5 202.396 214.479L202.398 214.49Z" fill="#10A9FF"/>
<path d="M145.309 258.899C154.162 259.807 162.994 259.23 171.69 257.253C179.244 255.537 186.818 252.64 194.121 249.436C208.814 242.995 223.064 235.254 238.936 232.059C254.085 229.01 269.938 230.405 283.617 237.854C294.341 243.697 303.317 252.298 310.484 262.132C313.093 265.707 315.451 269.454 317.597 273.323C318.635 275.204 319.701 277.128 320.524 279.119L320.529 279.153C320.677 279.396 320.759 279.659 320.807 279.927C320.816 279.994 320.827 280.073 320.836 280.14C320.844 280.196 320.853 280.264 320.861 280.32C320.897 280.83 320.789 281.291 320.56 281.7C320.383 282.079 320.122 282.424 319.803 282.685C319.153 283.198 318.373 283.351 317.645 283.211C316.938 283.148 316.273 282.805 315.802 282.127C315.75 282.077 315.707 282.014 315.654 281.964C315.574 281.884 315.507 281.813 315.428 281.732C314.587 280.944 313.727 280.182 312.827 279.46C311.411 278.316 309.927 277.263 308.406 276.271C307.954 275.979 307.503 275.698 307.054 275.428C306.805 275.279 306.556 275.131 306.306 274.982C306.219 274.925 306.12 274.87 306.02 274.815L305.933 274.759C304.855 274.164 303.768 273.582 302.654 273.049C300.043 271.784 297.341 270.693 294.585 269.78C291.288 268.69 288.871 268.085 285.132 267.434C276.565 265.949 268.618 265.97 260.067 267.091C248.942 268.545 238.408 272.376 227.473 274.707C217.937 276.731 208.219 278.014 198.467 278.225C184.939 278.512 171.253 276.898 158.545 272.095C154.805 270.689 151.205 268.977 147.77 266.957C146.288 266.086 144.765 265.163 143.434 264.054C143.382 264.004 143.318 263.956 143.267 263.917C141.176 262.112 142.458 258.629 145.323 258.92L145.309 258.899Z" fill="#ADFF00"/>
<path d="M200.152 246.717C212.752 240.942 225.233 234.806 238.935 232.048C254.084 228.999 269.937 230.394 283.616 237.843C294.339 243.686 303.315 252.286 310.482 262.12C313.091 265.696 315.45 269.443 317.596 273.311C318.633 275.193 319.699 277.116 320.523 279.108L320.527 279.142C320.675 279.384 320.757 279.647 320.806 279.915C320.815 279.983 320.826 280.061 320.835 280.129C320.843 280.185 320.852 280.252 320.86 280.308C320.896 280.818 320.788 281.279 320.558 281.688C320.382 282.067 320.12 282.412 319.802 282.673C319.152 283.186 318.372 283.339 317.643 283.2C317.4 283.176 317.174 283.116 316.944 283.022C316.211 281.853 315.423 280.703 314.595 279.593C313.236 277.779 311.784 276.046 310.25 274.381C309.793 273.883 309.324 273.387 308.846 272.904C308.594 272.653 308.342 272.402 308.101 272.149L308.048 272.099L308.103 272.16C307.97 272.03 307.838 271.899 307.707 271.78C306.559 270.669 305.37 269.597 304.152 268.564C301.394 266.233 298.478 264.084 295.441 262.134C294.601 261.598 293.751 261.075 292.891 260.564C292.667 260.435 292.455 260.304 292.231 260.175C292.181 260.147 292.132 260.12 292.082 260.092C291.587 259.817 291.103 259.541 290.609 259.277C288.668 258.229 286.703 257.253 284.69 256.341C274.846 251.898 265.125 249.429 254.408 248.115C247.974 247.332 241.48 247.026 235.005 247.186C227.468 247.367 219.971 247.669 212.436 247.449C208.336 247.328 204.241 247.08 200.154 246.728L200.152 246.717Z" fill="#04E9A4"/>
<path d="M220.594 299.393C221.985 295.872 224.286 292.569 226.562 289.578C232.472 281.831 240.061 275.386 248.368 270.34C253.719 267.085 259.301 264.097 265.383 262.492C270.427 261.156 275.759 260.913 280.928 261.481C290.369 262.502 299.312 266.222 307.43 271.006C311.788 273.574 316.091 276.493 319.854 279.887C319.907 279.936 319.972 279.996 320.025 280.046C320.117 280.136 320.198 280.228 320.28 280.32C320.292 280.329 320.307 280.35 320.321 280.371C320.362 280.423 320.417 280.484 320.458 280.535C320.898 281.07 321.138 281.734 321.108 282.425C321.107 282.585 321.082 282.737 321.046 282.891C321.023 282.974 321 283.057 320.966 283.142C320.94 283.203 320.938 283.272 320.912 283.333C320.915 283.355 320.895 283.369 320.885 283.382C320.841 283.48 320.786 283.579 320.72 283.679C320.692 283.729 320.655 283.791 320.628 283.841C320.599 283.879 320.592 283.914 320.563 283.953C320.495 284.042 320.404 284.123 320.323 284.203L320.304 284.229C320.202 284.323 320.099 284.406 319.985 284.49C319.934 284.531 319.871 284.574 319.818 284.605C319.765 284.635 319.712 284.665 319.67 284.694C319.225 284.949 318.705 285.078 318.199 285.057C318.142 285.064 318.082 285.038 318.013 285.036C317.931 285.025 317.851 285.024 317.768 285.002C317.499 284.959 317.244 284.856 317.008 284.717C315.799 284.163 314.527 283.732 313.26 283.335C312.936 283.231 312.615 283.138 312.282 283.047C312.091 282.993 311.901 282.939 311.699 282.887L311.651 282.871L311.618 282.875C310.715 282.634 309.815 282.414 308.908 282.219C306.668 281.739 304.411 281.386 302.143 281.115C299.319 280.795 296.48 280.615 293.639 280.583C293.272 280.577 292.907 280.581 292.551 280.573L292.517 280.578C292.334 280.58 292.139 280.573 291.956 280.575C291.1 280.59 290.257 280.615 289.404 280.652C287.596 280.73 285.783 280.854 283.989 281.033C280.083 281.411 276.197 282.015 272.361 282.819C267.79 283.769 263.865 284.836 259.51 286.272C247.361 290.257 235.788 295.925 224.905 302.619C223.83 303.282 222.561 303.457 221.488 302.644C220.492 301.889 220.141 300.507 220.588 299.348L220.594 299.393Z" fill="#FFF507"/>
<path d="M285.378 267.388C276.811 265.904 268.863 265.924 260.312 267.046C257.244 267.446 254.227 268.045 251.22 268.722C255.746 266.119 260.463 263.822 265.518 262.485C270.561 261.149 275.893 260.906 281.062 261.474C290.503 262.495 299.447 266.215 307.565 270.999C311.923 273.567 316.226 276.486 319.988 279.879C320.041 279.929 320.106 279.989 320.159 280.039C320.252 280.129 320.333 280.221 320.414 280.313C320.427 280.322 320.441 280.343 320.455 280.364C320.497 280.416 320.551 280.477 320.593 280.528C320.757 280.723 320.877 280.935 320.977 281.162C320.932 281.328 320.875 281.496 320.792 281.645C320.616 282.024 320.354 282.369 320.036 282.63C319.386 283.143 318.606 283.296 317.878 283.156C317.171 283.093 316.506 282.75 316.035 282.072C315.982 282.022 315.939 281.959 315.887 281.909C315.807 281.829 315.74 281.758 315.66 281.677C314.82 280.889 313.959 280.127 313.059 279.405C311.643 278.261 310.16 277.208 308.639 276.216C308.187 275.924 307.736 275.643 307.287 275.373C307.038 275.224 306.788 275.076 306.539 274.927C306.451 274.87 306.352 274.815 306.253 274.76L306.165 274.704C305.088 274.109 304.001 273.527 302.887 272.994C300.276 271.729 297.574 270.637 294.817 269.725C291.521 268.635 289.104 268.03 285.365 267.379L285.378 267.388Z" fill="#5FFF82"/>
</g>
</g>
</g>
<defs>
<linearGradient id="paint0_linear_127_878" x1="219.471" y1="193.939" x2="237.079" y2="318.79" gradientUnits="userSpaceOnUse">
<stop stop-color="#83FF07"/>
<stop offset="1" stop-color="#1162FF"/>
</linearGradient>
<clipPath id="clip0_127_878">
<rect width="229.622" height="229.622" fill="white" transform="matrix(-0.990632 0.136562 0.136562 0.990632 315.638 88.1666)"/>
</clipPath>
</defs>
</svg>
